<svg xmlns="http://www.w3.org/2000/svg" xmlns:xlink="http://www.w3.org/1999/xlink" width="300" zoomAndPan="magnify" viewBox="0 0 224.87999 60" height="80" preserveAspectRatio="xMidYMid meet" version="1.0"><defs><g/><clipPath id="c59cc3d572"><path d="M 0 0.015625 L 37 0.015625 L 37 42 L 0 42 Z M 0 0.015625 " clip-rule="nonzero"/></clipPath><clipPath id="51af82c77a"><path d="M -3.984375 2.429688 L 27.179688 -8.371094 L 43.625 39.082031 L 12.460938 49.882812 Z M -3.984375 2.429688 " clip-rule="nonzero"/></clipPath><clipPath id="67912566bd"><path d="M -3.984375 2.429688 L 27.179688 -8.371094 L 43.625 39.082031 L 12.460938 49.882812 Z M -3.984375 2.429688 " clip-rule="nonzero"/></clipPath><clipPath id="bdc1c7c03e"><path d="M -3.984375 2.429688 L 27.179688 -8.371094 L 43.625 39.082031 L 12.460938 49.882812 Z M -3.984375 2.429688 " clip-rule="nonzero"/></clipPath></defs><g clip-path="url(#c59cc3d572)"><g clip-path="url(#51af82c77a)"><g clip-path="url(#67912566bd)"><g clip-path="url(#bdc1c7c03e)"><path fill="#7cb342" d="M 33.265625 40.734375 C 32.347656 40.359375 31.460938 39.925781 30.621094 39.421875 C 28.933594 38.421875 27.4375 37.171875 26.105469 35.757812 L 25.855469 35.496094 C 25.773438 35.40625 25.691406 35.3125 25.613281 35.222656 L 25.371094 34.949219 C 25.289062 34.859375 25.210938 34.765625 25.132812 34.671875 L 24.898438 34.394531 C 24.820312 34.300781 24.742188 34.207031 24.667969 34.113281 L 24.4375 33.828125 C 24.359375 33.734375 24.285156 33.636719 24.210938 33.539062 C 23.617188 32.765625 23.042969 31.972656 22.496094 31.15625 C 22.359375 30.953125 22.226562 30.746094 22.089844 30.539062 C 21.953125 30.335938 21.820312 30.128906 21.6875 29.921875 C 21.417969 29.507812 21.15625 29.085938 20.898438 28.664062 C 20.375 27.824219 19.859375 26.972656 19.351562 26.113281 C 18.832031 25.257812 18.316406 24.394531 17.789062 23.535156 C 17.253906 22.679688 16.71875 21.824219 16.148438 20.980469 C 15.578125 20.136719 14.988281 19.300781 14.355469 18.492188 C 14.035156 18.089844 13.714844 17.6875 13.375 17.300781 C 13.039062 16.910156 12.691406 16.527344 12.328125 16.15625 C 12.148438 15.96875 11.972656 15.78125 11.78125 15.605469 L 11.496094 15.335938 C 11.402344 15.25 11.304688 15.164062 11.207031 15.078125 L 10.917969 14.816406 L 10.617188 14.566406 C 10.519531 14.484375 10.417969 14.398438 10.316406 14.320312 L 10.007812 14.082031 C 9.902344 14.003906 9.800781 13.921875 9.695312 13.847656 L 9.375 13.625 C 9.164062 13.46875 8.941406 13.332031 8.722656 13.191406 L 8.558594 13.089844 L 8.386719 12.988281 L 8.050781 12.796875 C 7.9375 12.726562 7.820312 12.667969 7.707031 12.609375 L 7.359375 12.429688 C 7.125 12.316406 6.886719 12.210938 6.652344 12.105469 C 6.410156 12.003906 6.171875 11.910156 5.929688 11.816406 C 5.683594 11.734375 5.441406 11.648438 5.195312 11.570312 C 4.945312 11.5 4.699219 11.425781 4.449219 11.363281 C 3.449219 11.117188 2.429688 10.980469 1.417969 10.957031 C 2.398438 11.207031 3.351562 11.519531 4.265625 11.90625 C 5.171875 12.296875 6.039062 12.765625 6.847656 13.308594 C 8.472656 14.386719 9.875 15.742188 11.117188 17.238281 C 11.429688 17.609375 11.730469 17.996094 12.023438 18.382812 C 12.316406 18.773438 12.601562 19.167969 12.882812 19.570312 C 13.4375 20.378906 13.980469 21.199219 14.496094 22.042969 C 15.019531 22.882812 15.535156 23.730469 16.039062 24.589844 L 17.574219 27.171875 C 18.097656 28.03125 18.621094 28.894531 19.167969 29.75 C 19.445312 30.175781 19.726562 30.597656 20.011719 31.019531 C 20.152344 31.230469 20.296875 31.441406 20.445312 31.648438 C 20.585938 31.859375 20.738281 32.066406 20.890625 32.273438 C 21.496094 33.097656 22.125 33.914062 22.804688 34.6875 C 22.886719 34.785156 22.972656 34.882812 23.058594 34.980469 L 23.316406 35.265625 C 23.40625 35.363281 23.492188 35.457031 23.578125 35.550781 L 23.851562 35.832031 C 23.941406 35.921875 24.027344 36.019531 24.121094 36.109375 L 24.398438 36.378906 C 24.492188 36.46875 24.585938 36.5625 24.679688 36.648438 L 24.96875 36.910156 C 25.0625 37 25.15625 37.089844 25.253906 37.171875 L 25.554688 37.425781 C 25.652344 37.507812 25.75 37.59375 25.851562 37.675781 L 26.160156 37.917969 C 26.261719 37.996094 26.359375 38.078125 26.464844 38.15625 L 26.78125 38.386719 C 26.988281 38.542969 27.207031 38.683594 27.421875 38.828125 C 28.289062 39.40625 29.207031 39.90625 30.15625 40.316406 C 32.058594 41.144531 34.09375 41.601562 36.121094 41.679688 C 35.140625 41.414062 34.1875 41.109375 33.265625 40.734375 Z M 0.929688 0.765625 C 0.867188 0.75 0.816406 0.820312 0.855469 0.871094 C 1.484375 1.753906 1.195312 2.945312 1.191406 4.339844 C 1.183594 5.8125 1.5 7.515625 3.554688 9.3125 C 3.5625 9.320312 3.570312 9.328125 3.582031 9.335938 C 3.671875 9.40625 3.800781 9.34375 3.804688 9.230469 C 3.804688 9.109375 3.804688 8.988281 3.804688 8.867188 C 3.800781 8.566406 3.785156 8.261719 3.765625 7.957031 C 3.753906 7.804688 3.742188 7.652344 3.726562 7.5 C 3.710938 7.347656 3.695312 7.195312 3.679688 7.042969 C 3.640625 6.742188 3.597656 6.4375 3.546875 6.136719 C 3.496094 5.835938 3.4375 5.535156 3.367188 5.234375 C 3.296875 4.9375 3.214844 4.640625 3.117188 4.351562 C 3.070312 4.207031 3.015625 4.0625 2.957031 3.921875 C 2.925781 3.84375 2.890625 3.765625 2.851562 3.6875 C 2.847656 3.679688 2.859375 3.671875 2.867188 3.679688 C 2.910156 3.753906 2.949219 3.828125 2.988281 3.90625 C 3.058594 4.042969 3.125 4.183594 3.183594 4.328125 C 3.304688 4.613281 3.410156 4.902344 3.503906 5.199219 C 3.597656 5.492188 3.679688 5.792969 3.757812 6.089844 C 3.832031 6.390625 3.898438 6.695312 3.960938 7 C 3.988281 7.152344 4.019531 7.304688 4.042969 7.457031 C 4.070312 7.609375 4.09375 7.761719 4.117188 7.917969 C 4.164062 8.222656 4.203125 8.53125 4.230469 8.84375 C 4.238281 8.953125 4.25 9.0625 4.253906 9.171875 C 4.261719 9.292969 4.414062 9.34375 4.496094 9.253906 L 4.496094 9.25 C 6.929688 6.492188 5.335938 1.820312 0.929688 0.765625 Z M 15.945312 28.847656 L 15.949219 28.84375 C 16.089844 28.746094 16.039062 28.523438 15.871094 28.492188 C 15.714844 28.464844 15.558594 28.433594 15.40625 28.402344 C 14.964844 28.3125 14.527344 28.207031 14.09375 28.09375 C 13.878906 28.035156 13.664062 27.976562 13.449219 27.914062 C 13.234375 27.851562 13.019531 27.789062 12.808594 27.71875 C 12.382812 27.585938 11.960938 27.441406 11.539062 27.285156 C 11.125 27.128906 10.710938 26.960938 10.300781 26.78125 C 9.894531 26.601562 9.496094 26.40625 9.105469 26.1875 C 8.914062 26.078125 8.722656 25.964844 8.535156 25.84375 C 8.433594 25.773438 8.332031 25.703125 8.234375 25.632812 C 8.222656 25.625 8.234375 25.605469 8.246094 25.613281 C 8.347656 25.679688 8.457031 25.742188 8.5625 25.800781 C 8.757812 25.90625 8.953125 26.003906 9.152344 26.097656 C 9.554688 26.285156 9.964844 26.445312 10.378906 26.59375 C 10.792969 26.742188 11.214844 26.875 11.636719 26.996094 C 12.0625 27.117188 12.488281 27.226562 12.917969 27.328125 C 13.132812 27.378906 13.347656 27.425781 13.5625 27.472656 C 13.777344 27.515625 13.992188 27.558594 14.210938 27.597656 C 14.640625 27.675781 15.074219 27.746094 15.507812 27.800781 C 15.683594 27.824219 15.855469 27.84375 16.027344 27.859375 C 16.191406 27.875 16.300781 27.699219 16.214844 27.5625 C 16.203125 27.546875 16.195312 27.535156 16.1875 27.519531 C 13.945312 24.3125 11.558594 23.59375 9.445312 23.363281 C 7.453125 23.144531 5.699219 23.359375 4.539062 22.324219 C 4.46875 22.261719 4.359375 22.320312 4.371094 22.414062 C 5.167969 28.835938 11.601562 31.847656 15.945312 28.847656 Z M 28.152344 35.195312 L 28.144531 35.199219 C 27.886719 35.3125 27.621094 35.0625 27.71875 34.796875 C 27.808594 34.558594 27.894531 34.320312 27.980469 34.082031 C 28.222656 33.394531 28.4375 32.703125 28.640625 32.007812 C 28.738281 31.660156 28.835938 31.308594 28.929688 30.960938 C 29.019531 30.609375 29.105469 30.261719 29.191406 29.910156 C 29.355469 29.207031 29.503906 28.5 29.636719 27.792969 C 29.765625 27.082031 29.878906 26.371094 29.964844 25.65625 C 30.050781 24.941406 30.113281 24.222656 30.132812 23.503906 C 30.140625 23.144531 30.140625 22.785156 30.125 22.425781 C 30.117188 22.226562 30.101562 22.027344 30.082031 21.828125 C 30.078125 21.804688 30.042969 21.804688 30.046875 21.832031 C 30.050781 22.027344 30.046875 22.226562 30.042969 22.425781 C 30.03125 22.78125 30.003906 23.140625 29.96875 23.492188 C 29.890625 24.203125 29.777344 24.90625 29.636719 25.605469 C 29.5 26.304688 29.335938 26.996094 29.152344 27.6875 C 28.96875 28.375 28.769531 29.058594 28.550781 29.738281 C 28.445312 30.074219 28.332031 30.414062 28.214844 30.75 C 28.097656 31.085938 27.980469 31.417969 27.855469 31.753906 C 27.605469 32.417969 27.339844 33.078125 27.058594 33.722656 C 26.941406 33.980469 26.828125 34.238281 26.707031 34.492188 C 26.59375 34.730469 26.257812 34.734375 26.136719 34.503906 C 26.125 34.480469 26.113281 34.453125 26.101562 34.429688 C 23.492188 28.652344 24.472656 24.746094 25.90625 21.625 C 27.261719 18.675781 29.019531 16.421875 28.542969 13.957031 C 28.515625 13.808594 28.683594 13.707031 28.804688 13.796875 C 37.097656 20.242188 35.949219 31.671875 28.152344 35.195312 " fill-opacity="1" fill-rule="nonzero"/></g></g></g></g><g fill="#000000" fill-opacity="1"><g transform="translate(34.265402, 48.03067)"><g><path d="M 17.484375 -26.734375 L 18.171875 -26.734375 L 18.171875 -20.03125 L 17.484375 -20.03125 L 15.171875 -24.78125 C 13.546875 -25.5625 11.78125 -25.953125 9.875 -25.953125 C 7.976562 -25.953125 6.484375 -25.472656 5.390625 -24.515625 C 4.296875 -23.566406 3.75 -22.40625 3.75 -21.03125 C 3.75 -19.65625 4.132812 -18.632812 4.90625 -17.96875 C 5.6875 -17.300781 6.816406 -16.769531 8.296875 -16.375 L 14.15625 -14.796875 C 16.0625 -14.335938 17.472656 -13.523438 18.390625 -12.359375 C 19.304688 -11.203125 19.765625 -9.429688 19.765625 -7.046875 C 19.765625 -4.671875 19.015625 -2.785156 17.515625 -1.390625 C 16.015625 -0.00390625 14.128906 0.6875 11.859375 0.6875 C 9.585938 0.6875 7.484375 0.0859375 5.546875 -1.109375 L 2.796875 0.3125 L 2.109375 0.3125 L 2.109375 -8.03125 L 2.796875 -8.03125 L 5.59375 -2.015625 C 7.394531 -0.742188 9.351562 -0.109375 11.46875 -0.109375 C 13.582031 -0.109375 15.265625 -0.597656 16.515625 -1.578125 C 17.765625 -2.566406 18.390625 -3.992188 18.390625 -5.859375 C 18.390625 -7.203125 17.992188 -8.25 17.203125 -9 C 16.410156 -9.757812 15.097656 -10.367188 13.265625 -10.828125 L 7.875 -12.203125 C 6.007812 -12.703125 4.59375 -13.554688 3.625 -14.765625 C 2.65625 -15.984375 2.171875 -17.40625 2.171875 -19.03125 C 2.171875 -21.351562 2.847656 -23.21875 4.203125 -24.625 C 5.554688 -26.03125 7.320312 -26.734375 9.5 -26.734375 C 11.6875 -26.734375 13.554688 -26.382812 15.109375 -25.6875 Z M 17.484375 -26.734375 "/></g></g></g><g fill="#000000" fill-opacity="1"><g transform="translate(55.400059, 48.03067)"><g><path d="M 2.109375 -22.859375 C 2.109375 -23.472656 2.316406 -23.972656 2.734375 -24.359375 C 3.160156 -24.742188 3.679688 -24.9375 4.296875 -24.9375 C 4.921875 -24.9375 5.4375 -24.742188 5.84375 -24.359375 C 6.25 -23.972656 6.453125 -23.472656 6.453125 -22.859375 C 6.453125 -22.242188 6.25 -21.722656 5.84375 -21.296875 C 5.4375 -20.867188 4.929688 -20.65625 4.328125 -20.65625 C 3.734375 -20.65625 3.210938 -20.867188 2.765625 -21.296875 C 2.328125 -21.722656 2.109375 -22.242188 2.109375 -22.859375 Z M 0.890625 -16.21875 L 0.890625 -16.796875 L 6.453125 -16.796875 L 6.453125 -0.953125 L 8.671875 -0.6875 L 8.671875 0 L 0.890625 0 L 0.890625 -0.6875 L 3.171875 -0.953125 L 3.171875 -15.859375 Z M 0.890625 -16.21875 "/></g></g></g><g fill="#000000" fill-opacity="1"><g transform="translate(64.699307, 48.03067)"><g><path d="M 11.890625 0 L 11.890625 -0.6875 L 13.84375 -0.953125 L 13.84375 -12.421875 C 13.84375 -14.816406 12.976562 -16.015625 11.25 -16.015625 C 9.53125 -16.015625 7.910156 -14.921875 6.390625 -12.734375 L 6.390625 -0.953125 L 8.34375 -0.6875 L 8.34375 0 L 0.84375 0 L 0.84375 -0.6875 L 3.125 -0.953125 L 3.125 -15.90625 L 0.84375 -16.21875 L 0.84375 -16.859375 L 6.390625 -16.859375 L 6.390625 -13.84375 C 8.046875 -16.0625 9.984375 -17.171875 12.203125 -17.171875 C 14.984375 -17.171875 16.601562 -16.007812 17.0625 -13.6875 C 18.757812 -16.007812 20.734375 -17.171875 22.984375 -17.171875 C 24.535156 -17.171875 25.742188 -16.78125 26.609375 -16 C 27.472656 -15.226562 27.90625 -14.070312 27.90625 -12.53125 L 27.90625 -0.953125 L 30.171875 -0.6875 L 30.171875 0 L 22.71875 0 L 22.71875 -0.6875 L 24.625 -0.953125 L 24.625 -12.421875 C 24.625 -14.816406 23.757812 -16.015625 22.03125 -16.015625 C 20.3125 -16.015625 18.691406 -14.921875 17.171875 -12.734375 L 17.171875 -0.953125 L 19.125 -0.6875 L 19.125 0 Z M 11.890625 0 "/></g></g></g><g fill="#000000" fill-opacity="1"><g transform="translate(95.397403, 48.03067)"><g><path d="M 6.1875 -16.859375 L 6.1875 -13.421875 C 7.3125 -15.921875 9.097656 -17.171875 11.546875 -17.171875 C 13.992188 -17.171875 15.921875 -16.367188 17.328125 -14.765625 C 18.742188 -13.160156 19.453125 -11.035156 19.453125 -8.390625 C 19.453125 -5.753906 18.742188 -3.644531 17.328125 -2.0625 C 15.921875 -0.476562 14 0.3125 11.5625 0.3125 C 9.132812 0.3125 7.34375 -0.914062 6.1875 -3.375 L 6.1875 8.25 L 9.25 8.5625 L 9.25 9.25 L 0.6875 9.25 L 0.6875 8.5625 L 2.90625 8.25 L 2.90625 -15.90625 L 0.6875 -16.21875 L 0.6875 -16.859375 Z M 15.90625 -6.765625 L 15.90625 -10.046875 C 15.90625 -14.234375 14.390625 -16.34375 11.359375 -16.375 C 9.910156 -16.375 8.691406 -15.773438 7.703125 -14.578125 C 6.722656 -13.378906 6.21875 -11.9375 6.1875 -10.25 L 6.1875 -6.765625 C 6.1875 -5.035156 6.675781 -3.550781 7.65625 -2.3125 C 8.644531 -1.082031 9.878906 -0.46875 11.359375 -0.46875 C 14.390625 -0.46875 15.90625 -2.566406 15.90625 -6.765625 Z M 15.90625 -6.765625 "/></g></g></g><g fill="#000000" fill-opacity="1"><g transform="translate(116.21504, 48.03067)"><g><path d="M 0.578125 -25.359375 L 0.578125 -26.046875 L 6.28125 -26.046875 L 6.28125 -0.953125 L 8.5625 -0.6875 L 8.5625 0 L 0.578125 0 L 0.578125 -0.6875 L 3.0625 -0.953125 L 3.0625 -25.09375 Z M 0.578125 -25.359375 "/></g></g></g><g fill="#000000" fill-opacity="1"><g transform="translate(125.355786, 48.03067)"><g><path d="M 17.859375 -16.796875 L 17.859375 -16.21875 L 15.640625 -15.375 L 8.296875 5.859375 C 7.867188 7.128906 7.328125 8.054688 6.671875 8.640625 C 6.023438 9.222656 5.117188 9.515625 3.953125 9.515625 C 2.796875 9.515625 1.875 9.234375 1.1875 8.671875 C 0.5 8.109375 0.15625 7.421875 0.15625 6.609375 C 0.15625 5.796875 0.347656 5.195312 0.734375 4.8125 C 1.117188 4.425781 1.671875 4.234375 2.390625 4.234375 C 3.117188 4.234375 3.660156 4.582031 4.015625 5.28125 C 3.691406 5.707031 3.53125 6.15625 3.53125 6.625 C 3.53125 7.101562 3.671875 7.484375 3.953125 7.765625 C 4.234375 8.046875 4.585938 8.1875 5.015625 8.1875 C 6.035156 8.1875 6.828125 7.410156 7.390625 5.859375 L 9.34375 0.21875 L 1.796875 -15.859375 L -0.375 -16.21875 L -0.375 -16.796875 L 7.703125 -16.796875 L 7.703125 -16.21875 L 5.4375 -15.796875 L 10.875 -4.171875 L 14.796875 -15.375 L 11.9375 -16.21875 L 11.9375 -16.796875 Z M 17.859375 -16.796875 "/></g></g></g><g fill="#000000" fill-opacity="1"><g transform="translate(142.791877, 48.03067)"><g><path d="M 17.484375 -26.734375 L 18.171875 -26.734375 L 18.171875 -20.03125 L 17.484375 -20.03125 L 15.171875 -24.78125 C 13.546875 -25.5625 11.78125 -25.953125 9.875 -25.953125 C 7.976562 -25.953125 6.484375 -25.472656 5.390625 -24.515625 C 4.296875 -23.566406 3.75 -22.40625 3.75 -21.03125 C 3.75 -19.65625 4.132812 -18.632812 4.90625 -17.96875 C 5.6875 -17.300781 6.816406 -16.769531 8.296875 -16.375 L 14.15625 -14.796875 C 16.0625 -14.335938 17.472656 -13.523438 18.390625 -12.359375 C 19.304688 -11.203125 19.765625 -9.429688 19.765625 -7.046875 C 19.765625 -4.671875 19.015625 -2.785156 17.515625 -1.390625 C 16.015625 -0.00390625 14.128906 0.6875 11.859375 0.6875 C 9.585938 0.6875 7.484375 0.0859375 5.546875 -1.109375 L 2.796875 0.3125 L 2.109375 0.3125 L 2.109375 -8.03125 L 2.796875 -8.03125 L 5.59375 -2.015625 C 7.394531 -0.742188 9.351562 -0.109375 11.46875 -0.109375 C 13.582031 -0.109375 15.265625 -0.597656 16.515625 -1.578125 C 17.765625 -2.566406 18.390625 -3.992188 18.390625 -5.859375 C 18.390625 -7.203125 17.992188 -8.25 17.203125 -9 C 16.410156 -9.757812 15.097656 -10.367188 13.265625 -10.828125 L 7.875 -12.203125 C 6.007812 -12.703125 4.59375 -13.554688 3.625 -14.765625 C 2.65625 -15.984375 2.171875 -17.40625 2.171875 -19.03125 C 2.171875 -21.351562 2.847656 -23.21875 4.203125 -24.625 C 5.554688 -26.03125 7.320312 -26.734375 9.5 -26.734375 C 11.6875 -26.734375 13.554688 -26.382812 15.109375 -25.6875 Z M 17.484375 -26.734375 "/></g></g></g><g fill="#000000" fill-opacity="1"><g transform="translate(163.926534, 48.03067)"><g><path d="M 11.890625 -3.21875 C 11.328125 -2.09375 10.515625 -1.222656 9.453125 -0.609375 C 8.398438 0.00390625 7.195312 0.3125 5.84375 0.3125 C 4.488281 0.3125 3.378906 -0.046875 2.515625 -0.765625 C 1.648438 -1.484375 1.21875 -2.476562 1.21875 -3.75 C 1.21875 -5.019531 1.484375 -6.023438 2.015625 -6.765625 C 3.492188 -8.703125 6.398438 -9.671875 10.734375 -9.671875 L 11.890625 -9.671875 L 11.890625 -12.84375 C 11.890625 -15.238281 10.796875 -16.4375 8.609375 -16.4375 C 7.628906 -16.4375 6.828125 -16.207031 6.203125 -15.75 C 5.585938 -15.289062 5.28125 -14.757812 5.28125 -14.15625 C 5.28125 -13.5625 5.5625 -13.175781 6.125 -13 C 6.125 -12.4375 5.921875 -11.953125 5.515625 -11.546875 C 5.117188 -11.140625 4.632812 -10.9375 4.0625 -10.9375 C 3.539062 -10.9375 3.078125 -11.140625 2.671875 -11.546875 C 2.265625 -11.953125 2.0625 -12.453125 2.0625 -13.046875 C 2.0625 -14.179688 2.691406 -15.148438 3.953125 -15.953125 C 5.222656 -16.765625 6.773438 -17.171875 8.609375 -17.171875 C 13.015625 -17.171875 15.203125 -15.5 15.171875 -12.15625 L 15.171875 -2.171875 C 15.171875 -1.179688 15.570312 -0.6875 16.375 -0.6875 C 17.1875 -0.6875 17.59375 -1.160156 17.59375 -2.109375 L 18.28125 -2.109375 C 18.28125 -1.367188 18.03125 -0.78125 17.53125 -0.34375 C 17.039062 0.09375 16.320312 0.3125 15.375 0.3125 C 14.425781 0.3125 13.613281 0.0234375 12.9375 -0.546875 C 12.269531 -1.128906 11.921875 -2.019531 11.890625 -3.21875 Z M 11.890625 -5.546875 L 11.890625 -8.875 L 10.734375 -8.875 C 9.035156 -8.875 7.613281 -8.46875 6.46875 -7.65625 C 5.320312 -6.851562 4.75 -5.640625 4.75 -4.015625 C 4.75 -3.128906 4.988281 -2.441406 5.46875 -1.953125 C 5.945312 -1.460938 6.660156 -1.21875 7.609375 -1.21875 C 8.554688 -1.21875 9.46875 -1.601562 10.34375 -2.375 C 11.226562 -3.15625 11.742188 -4.210938 11.890625 -5.546875 Z M 11.890625 -5.546875 "/></g></g></g><g fill="#000000" fill-opacity="1"><g transform="translate(182.049508, 48.03067)"><g><path d="M 5.28125 -5.5 C 3.84375 -5.394531 3.125 -4.832031 3.125 -3.8125 C 3.125 -3.3125 3.40625 -2.925781 3.96875 -2.65625 C 4.53125 -2.394531 5.234375 -2.265625 6.078125 -2.265625 L 11.421875 -2.265625 C 13.140625 -2.265625 14.445312 -1.921875 15.34375 -1.234375 C 16.25 -0.554688 16.703125 0.578125 16.703125 2.171875 C 16.703125 4.242188 15.988281 5.984375 14.5625 7.390625 C 13.132812 8.804688 11.097656 9.515625 8.453125 9.515625 C 5.804688 9.515625 3.8125 9.097656 2.46875 8.265625 C 1.132812 7.441406 0.46875 6.34375 0.46875 4.96875 C 0.46875 4.15625 0.75 3.445312 1.3125 2.84375 C 1.882812 2.25 2.660156 1.953125 3.640625 1.953125 C 3.816406 1.953125 4.222656 2.003906 4.859375 2.109375 C 4.191406 2.816406 3.859375 3.707031 3.859375 4.78125 C 3.859375 5.851562 4.234375 6.800781 4.984375 7.625 C 5.742188 8.457031 7.078125 8.875 8.984375 8.875 C 10.890625 8.875 12.5 8.328125 13.8125 7.234375 C 15.132812 6.140625 15.796875 4.910156 15.796875 3.546875 C 15.796875 2.585938 15.550781 1.90625 15.0625 1.5 C 14.570312 1.09375 13.691406 0.890625 12.421875 0.890625 L 6.078125 0.890625 C 3.015625 0.890625 1.484375 -0.179688 1.484375 -2.328125 C 1.484375 -3.316406 1.742188 -4.117188 2.265625 -4.734375 C 2.796875 -5.347656 3.519531 -5.757812 4.4375 -5.96875 C 2.75 -7.09375 1.90625 -8.691406 1.90625 -10.765625 C 1.90625 -12.847656 2.53125 -14.4375 3.78125 -15.53125 C 5.03125 -16.625 6.578125 -17.171875 8.421875 -17.171875 C 10.273438 -17.171875 11.800781 -16.695312 13 -15.75 C 13.84375 -15.78125 14.46875 -15.960938 14.875 -16.296875 C 15.28125 -16.628906 15.484375 -17.007812 15.484375 -17.4375 C 15.484375 -17.863281 15.375 -18.179688 15.15625 -18.390625 C 14.945312 -18.597656 14.703125 -18.703125 14.421875 -18.703125 C 14.421875 -19.265625 14.613281 -19.726562 15 -20.09375 C 15.394531 -20.46875 15.875 -20.65625 16.4375 -20.65625 C 17 -20.65625 17.472656 -20.476562 17.859375 -20.125 C 18.242188 -19.78125 18.4375 -19.21875 18.4375 -18.4375 C 18.4375 -17.664062 18.054688 -16.953125 17.296875 -16.296875 C 16.546875 -15.648438 15.328125 -15.273438 13.640625 -15.171875 C 14.691406 -14.078125 15.207031 -12.640625 15.1875 -10.859375 C 15.175781 -9.078125 14.546875 -7.628906 13.296875 -6.515625 C 12.046875 -5.410156 10.453125 -4.859375 8.515625 -4.859375 C 7.273438 -4.859375 6.195312 -5.070312 5.28125 -5.5 Z M 12.09375 -10.25 L 12.09375 -11.84375 C 12.09375 -15.007812 10.90625 -16.59375 8.53125 -16.59375 C 6.15625 -16.59375 4.96875 -15.007812 4.96875 -11.84375 L 4.96875 -10.25 C 4.96875 -8.738281 5.257812 -7.554688 5.84375 -6.703125 C 6.425781 -5.859375 7.3125 -5.4375 8.5 -5.4375 C 9.695312 -5.4375 10.59375 -5.859375 11.1875 -6.703125 C 11.789062 -7.554688 12.09375 -8.738281 12.09375 -10.25 Z M 12.09375 -10.25 "/></g></g></g><g fill="#000000" fill-opacity="1"><g transform="translate(199.538444, 48.03067)"><g><path d="M 13.890625 -1.6875 C 15.023438 -2.53125 15.734375 -3.625 16.015625 -4.96875 L 16.796875 -4.96875 C 16.484375 -3.34375 15.707031 -2.054688 14.46875 -1.109375 C 13.238281 -0.160156 11.726562 0.3125 9.9375 0.3125 C 7.46875 0.3125 5.40625 -0.492188 3.75 -2.109375 C 2.132812 -3.691406 1.328125 -5.78125 1.328125 -8.375 C 1.328125 -10.96875 2.117188 -13.082031 3.703125 -14.71875 C 5.285156 -16.351562 7.210938 -17.171875 9.484375 -17.171875 C 11.753906 -17.171875 13.550781 -16.492188 14.875 -15.140625 C 16.195312 -13.785156 16.875 -12.085938 16.90625 -10.046875 L 4.921875 -10.046875 L 4.921875 -6.8125 C 4.921875 -4.875 5.34375 -3.328125 6.1875 -2.171875 C 7.101562 -0.972656 8.332031 -0.375 9.875 -0.375 C 11.425781 -0.375 12.765625 -0.8125 13.890625 -1.6875 Z M 9.671875 -16.4375 C 8.222656 -16.4375 7.09375 -15.929688 6.28125 -14.921875 C 5.476562 -13.921875 5.039062 -12.554688 4.96875 -10.828125 L 13.3125 -10.828125 C 13.3125 -14.566406 12.097656 -16.4375 9.671875 -16.4375 Z M 9.671875 -16.4375 "/></g></g></g></svg>