<svg xmlns="http://www.w3.org/2000/svg" xmlns:xlink="http://www.w3.org/1999/xlink" width="300" zoomAndPan="magnify" viewBox="0 0 224.87999 60" height="80" preserveAspectRatio="xMidYMid meet" version="1.0"><defs><g/><clipPath id="cca6f54ace"><path d="M 0 0.015625 L 224.761719 0.015625 L 224.761719 59.984375 L 0 59.984375 Z M 0 0.015625 " clip-rule="nonzero"/></clipPath><clipPath id="bbb33bd94a"><path d="M 6 13 L 36 13 L 36 48 L 6 48 Z M 6 13 " clip-rule="nonzero"/></clipPath><clipPath id="64f4cc5870"><path d="M 2.417969 14.859375 L 27.917969 6.023438 L 41.417969 44.976562 L 15.921875 53.8125 Z M 2.417969 14.859375 " clip-rule="nonzero"/></clipPath><clipPath id="07b2302a41"><path d="M 2.417969 14.859375 L 27.917969 6.023438 L 41.417969 44.976562 L 15.921875 53.8125 Z M 2.417969 14.859375 " clip-rule="nonzero"/></clipPath><clipPath id="3e7b24fac9"><path d="M 2.417969 14.859375 L 27.917969 6.023438 L 41.417969 44.976562 L 15.921875 53.8125 Z M 2.417969 14.859375 " clip-rule="nonzero"/></clipPath></defs><g clip-path="url(#cca6f54ace)"><path fill="#ffffff" d="M 0 0.015625 L 224.878906 0.015625 L 224.878906 59.984375 L 0 59.984375 Z M 0 0.015625 " fill-opacity="1" fill-rule="nonzero"/><path fill="#ffffff" d="M 0 0.015625 L 224.878906 0.015625 L 224.878906 59.984375 L 0 59.984375 Z M 0 0.015625 " fill-opacity="1" fill-rule="nonzero"/></g><g clip-path="url(#bbb33bd94a)"><g clip-path="url(#64f4cc5870)"><g clip-path="url(#07b2302a41)"><g clip-path="url(#3e7b24fac9)"><path fill="#7cb342" d="M 32.9375 46.320312 C 32.183594 46.011719 31.460938 45.652344 30.769531 45.242188 C 29.390625 44.417969 28.164062 43.390625 27.074219 42.230469 L 26.871094 42.015625 C 26.800781 41.941406 26.734375 41.867188 26.667969 41.792969 L 26.472656 41.566406 C 26.40625 41.492188 26.34375 41.414062 26.277344 41.339844 L 26.085938 41.113281 C 26.019531 41.035156 25.957031 40.957031 25.894531 40.878906 L 25.707031 40.644531 C 25.644531 40.566406 25.585938 40.488281 25.523438 40.410156 C 25.035156 39.773438 24.566406 39.121094 24.117188 38.453125 C 24.003906 38.285156 23.894531 38.117188 23.785156 37.945312 C 23.671875 37.777344 23.5625 37.609375 23.453125 37.4375 C 23.234375 37.097656 23.019531 36.753906 22.804688 36.40625 C 22.378906 35.714844 21.957031 35.015625 21.539062 34.3125 C 21.113281 33.609375 20.691406 32.902344 20.257812 32.195312 C 19.820312 31.496094 19.378906 30.789062 18.914062 30.097656 C 18.445312 29.40625 17.964844 28.71875 17.441406 28.058594 C 17.183594 27.726562 16.917969 27.398438 16.640625 27.074219 C 16.363281 26.757812 16.078125 26.441406 15.785156 26.136719 C 15.636719 25.984375 15.488281 25.832031 15.332031 25.683594 L 15.101562 25.464844 C 15.023438 25.390625 14.945312 25.324219 14.863281 25.25 L 14.625 25.039062 L 14.382812 24.832031 C 14.300781 24.765625 14.21875 24.695312 14.136719 24.628906 L 13.878906 24.433594 C 13.796875 24.371094 13.710938 24.300781 13.625 24.242188 L 13.363281 24.058594 C 13.191406 23.929688 13.007812 23.816406 12.828125 23.703125 L 12.695312 23.617188 L 12.554688 23.535156 L 12.277344 23.375 C 12.1875 23.320312 12.089844 23.273438 11.996094 23.222656 L 11.714844 23.078125 C 11.523438 22.984375 11.324219 22.898438 11.132812 22.808594 C 10.9375 22.726562 10.738281 22.648438 10.542969 22.570312 C 10.339844 22.503906 10.140625 22.433594 9.941406 22.367188 C 9.738281 22.308594 9.535156 22.25 9.332031 22.199219 C 8.511719 21.996094 7.679688 21.882812 6.847656 21.863281 C 7.652344 22.070312 8.433594 22.324219 9.179688 22.644531 C 9.925781 22.964844 10.632812 23.351562 11.296875 23.796875 C 12.625 24.683594 13.773438 25.796875 14.792969 27.023438 C 15.046875 27.328125 15.292969 27.644531 15.535156 27.964844 C 15.773438 28.285156 16.011719 28.609375 16.238281 28.941406 C 16.695312 29.601562 17.136719 30.277344 17.5625 30.96875 C 17.988281 31.65625 18.414062 32.355469 18.824219 33.058594 L 20.085938 35.179688 C 20.511719 35.886719 20.941406 36.59375 21.390625 37.292969 C 21.617188 37.644531 21.847656 37.992188 22.082031 38.339844 C 22.199219 38.511719 22.316406 38.683594 22.4375 38.855469 C 22.554688 39.027344 22.679688 39.199219 22.804688 39.367188 C 23.296875 40.046875 23.8125 40.714844 24.371094 41.351562 C 24.441406 41.429688 24.507812 41.511719 24.578125 41.589844 L 24.792969 41.824219 C 24.863281 41.902344 24.933594 41.984375 25.007812 42.058594 L 25.226562 42.289062 C 25.300781 42.363281 25.375 42.441406 25.449219 42.515625 L 25.679688 42.738281 C 25.753906 42.8125 25.832031 42.886719 25.910156 42.960938 L 26.144531 43.175781 C 26.222656 43.246094 26.300781 43.320312 26.378906 43.390625 L 26.625 43.597656 C 26.707031 43.667969 26.785156 43.738281 26.867188 43.804688 L 27.121094 44 C 27.203125 44.066406 27.285156 44.136719 27.371094 44.199219 L 27.628906 44.386719 C 27.796875 44.515625 27.976562 44.632812 28.15625 44.753906 C 28.863281 45.226562 29.613281 45.636719 30.390625 45.976562 C 31.949219 46.652344 33.617188 47.03125 35.277344 47.097656 C 34.476562 46.878906 33.691406 46.625 32.9375 46.320312 Z M 6.441406 13.5 C 6.390625 13.488281 6.347656 13.546875 6.378906 13.589844 C 6.894531 14.3125 6.660156 15.289062 6.65625 16.433594 C 6.65625 17.644531 6.910156 19.039062 8.597656 20.515625 C 8.605469 20.523438 8.609375 20.527344 8.617188 20.535156 C 8.691406 20.589844 8.800781 20.542969 8.800781 20.449219 C 8.800781 20.351562 8.800781 20.25 8.800781 20.152344 C 8.796875 19.902344 8.785156 19.652344 8.765625 19.402344 C 8.757812 19.277344 8.75 19.152344 8.734375 19.027344 C 8.722656 18.902344 8.710938 18.777344 8.695312 18.65625 C 8.667969 18.40625 8.628906 18.15625 8.589844 17.910156 C 8.546875 17.664062 8.496094 17.414062 8.4375 17.171875 C 8.382812 16.925781 8.316406 16.683594 8.234375 16.445312 C 8.195312 16.324219 8.152344 16.207031 8.101562 16.089844 C 8.078125 16.027344 8.046875 15.964844 8.015625 15.898438 C 8.011719 15.890625 8.023438 15.886719 8.027344 15.894531 C 8.0625 15.953125 8.097656 16.015625 8.128906 16.078125 C 8.1875 16.191406 8.242188 16.308594 8.289062 16.425781 C 8.390625 16.660156 8.472656 16.898438 8.550781 17.140625 C 8.628906 17.382812 8.699219 17.625 8.757812 17.871094 C 8.820312 18.121094 8.875 18.367188 8.925781 18.617188 C 8.949219 18.742188 8.972656 18.867188 8.996094 18.992188 C 9.015625 19.117188 9.039062 19.246094 9.054688 19.371094 C 9.09375 19.621094 9.125 19.875 9.148438 20.132812 C 9.15625 20.222656 9.164062 20.3125 9.171875 20.398438 C 9.175781 20.5 9.300781 20.542969 9.367188 20.46875 L 9.367188 20.464844 C 11.355469 18.203125 10.046875 14.367188 6.441406 13.5 Z M 18.753906 36.550781 C 18.871094 36.46875 18.832031 36.285156 18.691406 36.261719 C 18.5625 36.238281 18.4375 36.214844 18.3125 36.1875 C 17.949219 36.113281 17.59375 36.027344 17.238281 35.933594 C 17.0625 35.886719 16.882812 35.835938 16.707031 35.785156 C 16.53125 35.734375 16.359375 35.679688 16.183594 35.625 C 15.835938 35.515625 15.488281 35.394531 15.148438 35.269531 C 14.804688 35.140625 14.464844 35.003906 14.132812 34.855469 C 13.800781 34.703125 13.472656 34.542969 13.152344 34.367188 C 12.996094 34.277344 12.839844 34.183594 12.6875 34.082031 C 12.601562 34.027344 12.519531 33.96875 12.4375 33.910156 C 12.429688 33.902344 12.4375 33.886719 12.449219 33.894531 C 12.535156 33.945312 12.621094 34 12.707031 34.046875 C 12.867188 34.136719 13.027344 34.214844 13.191406 34.292969 C 13.519531 34.445312 13.855469 34.578125 14.195312 34.699219 C 14.535156 34.820312 14.878906 34.929688 15.226562 35.03125 C 15.574219 35.132812 15.921875 35.222656 16.273438 35.304688 C 16.449219 35.347656 16.625 35.386719 16.800781 35.421875 C 16.976562 35.457031 17.152344 35.492188 17.332031 35.527344 C 17.683594 35.59375 18.039062 35.648438 18.394531 35.695312 C 18.535156 35.710938 18.679688 35.730469 18.820312 35.742188 C 18.953125 35.757812 19.042969 35.613281 18.972656 35.5 C 18.964844 35.488281 18.957031 35.476562 18.949219 35.464844 C 17.113281 32.832031 15.160156 32.238281 13.429688 32.046875 C 11.796875 31.867188 10.363281 32.039062 9.414062 31.191406 C 9.355469 31.140625 9.265625 31.1875 9.277344 31.265625 C 9.933594 36.535156 15.199219 39.011719 18.753906 36.550781 Z M 28.75 41.773438 L 28.742188 41.773438 C 28.53125 41.867188 28.3125 41.660156 28.394531 41.445312 C 28.46875 41.25 28.539062 41.050781 28.605469 40.855469 C 28.804688 40.292969 28.980469 39.726562 29.144531 39.15625 C 29.226562 38.871094 29.304688 38.582031 29.378906 38.296875 C 29.457031 38.011719 29.527344 37.722656 29.59375 37.433594 C 29.730469 36.859375 29.851562 36.28125 29.957031 35.699219 C 30.066406 35.117188 30.152344 34.53125 30.226562 33.945312 C 30.292969 33.359375 30.34375 32.769531 30.359375 32.179688 C 30.367188 31.886719 30.367188 31.589844 30.351562 31.296875 C 30.34375 31.132812 30.335938 30.96875 30.316406 30.804688 C 30.316406 30.785156 30.289062 30.789062 30.289062 30.808594 C 30.292969 30.96875 30.289062 31.132812 30.285156 31.296875 C 30.277344 31.589844 30.253906 31.878906 30.226562 32.171875 C 30.164062 32.753906 30.070312 33.332031 29.957031 33.902344 C 29.84375 34.476562 29.710938 35.046875 29.5625 35.609375 C 29.414062 36.175781 29.25 36.738281 29.070312 37.292969 C 28.984375 37.570312 28.890625 37.847656 28.796875 38.121094 C 28.703125 38.398438 28.605469 38.671875 28.503906 38.945312 C 28.300781 39.492188 28.082031 40.03125 27.851562 40.5625 C 27.757812 40.773438 27.664062 40.984375 27.566406 41.195312 C 27.472656 41.386719 27.199219 41.390625 27.097656 41.199219 C 27.089844 41.179688 27.078125 41.160156 27.070312 41.140625 C 24.929688 36.398438 25.730469 33.195312 26.902344 30.632812 C 28.007812 28.214844 29.441406 26.371094 29.050781 24.34375 C 29.027344 24.222656 29.167969 24.140625 29.265625 24.214844 C 36.058594 29.507812 35.128906 38.886719 28.75 41.773438 " fill-opacity="1" fill-rule="nonzero"/></g></g></g></g><g fill="#000000" fill-opacity="1"><g transform="translate(38.439581, 49.284612)"><g><path d="M 17.515625 -26.78125 L 18.203125 -26.78125 L 18.203125 -20.0625 L 17.515625 -20.0625 L 15.1875 -24.828125 C 13.5625 -25.597656 11.796875 -25.984375 9.890625 -25.984375 C 7.984375 -25.984375 6.484375 -25.503906 5.390625 -24.546875 C 4.296875 -23.597656 3.75 -22.4375 3.75 -21.0625 C 3.75 -19.6875 4.140625 -18.660156 4.921875 -17.984375 C 5.703125 -17.316406 6.832031 -16.789062 8.3125 -16.40625 L 14.1875 -14.8125 C 16.09375 -14.351562 17.503906 -13.539062 18.421875 -12.375 C 19.335938 -11.21875 19.796875 -9.445312 19.796875 -7.0625 C 19.796875 -4.6875 19.046875 -2.800781 17.546875 -1.40625 C 16.046875 -0.0078125 14.15625 0.6875 11.875 0.6875 C 9.601562 0.6875 7.5 0.0859375 5.5625 -1.109375 L 2.8125 0.3125 L 2.109375 0.3125 L 2.109375 -8.046875 L 2.8125 -8.046875 L 5.609375 -2.015625 C 7.410156 -0.742188 9.367188 -0.109375 11.484375 -0.109375 C 13.597656 -0.109375 15.28125 -0.597656 16.53125 -1.578125 C 17.789062 -2.566406 18.421875 -4 18.421875 -5.875 C 18.421875 -7.21875 18.019531 -8.265625 17.21875 -9.015625 C 16.425781 -9.773438 15.113281 -10.382812 13.28125 -10.84375 L 7.890625 -12.21875 C 6.015625 -12.71875 4.59375 -13.578125 3.625 -14.796875 C 2.65625 -16.015625 2.171875 -17.429688 2.171875 -19.046875 C 2.171875 -21.378906 2.847656 -23.25 4.203125 -24.65625 C 5.566406 -26.070312 7.34375 -26.78125 9.53125 -26.78125 C 11.71875 -26.78125 13.585938 -26.425781 15.140625 -25.71875 Z M 17.515625 -26.78125 "/></g></g></g><g fill="#000000" fill-opacity="1"><g transform="translate(59.607731, 49.284612)"><g><path d="M 2.109375 -22.890625 C 2.109375 -23.503906 2.320312 -24.003906 2.75 -24.390625 C 3.175781 -24.785156 3.695312 -24.984375 4.3125 -24.984375 C 4.925781 -24.984375 5.4375 -24.785156 5.84375 -24.390625 C 6.25 -24.003906 6.453125 -23.503906 6.453125 -22.890625 C 6.453125 -22.273438 6.25 -21.753906 5.84375 -21.328125 C 5.4375 -20.898438 4.929688 -20.6875 4.328125 -20.6875 C 3.734375 -20.6875 3.210938 -20.898438 2.765625 -21.328125 C 2.328125 -21.753906 2.109375 -22.273438 2.109375 -22.890625 Z M 0.90625 -16.25 L 0.90625 -16.828125 L 6.453125 -16.828125 L 6.453125 -0.953125 L 8.671875 -0.6875 L 8.671875 0 L 0.90625 0 L 0.90625 -0.6875 L 3.171875 -0.953125 L 3.171875 -15.875 Z M 0.90625 -16.25 "/></g></g></g><g fill="#000000" fill-opacity="1"><g transform="translate(68.921716, 49.284612)"><g><path d="M 11.90625 0 L 11.90625 -0.6875 L 13.859375 -0.953125 L 13.859375 -12.4375 C 13.859375 -14.832031 12.992188 -16.03125 11.265625 -16.03125 C 9.535156 -16.03125 7.914062 -14.9375 6.40625 -12.75 L 6.40625 -0.953125 L 8.359375 -0.6875 L 8.359375 0 L 0.84375 0 L 0.84375 -0.6875 L 3.125 -0.953125 L 3.125 -15.9375 L 0.84375 -16.25 L 0.84375 -16.890625 L 6.40625 -16.890625 L 6.40625 -13.859375 C 8.0625 -16.085938 10 -17.203125 12.21875 -17.203125 C 15.007812 -17.203125 16.632812 -16.035156 17.09375 -13.703125 C 18.789062 -16.035156 20.765625 -17.203125 23.015625 -17.203125 C 24.566406 -17.203125 25.773438 -16.8125 26.640625 -16.03125 C 27.503906 -15.257812 27.9375 -14.097656 27.9375 -12.546875 L 27.9375 -0.953125 L 30.21875 -0.6875 L 30.21875 0 L 22.75 0 L 22.75 -0.6875 L 24.65625 -0.953125 L 24.65625 -12.4375 C 24.65625 -14.832031 23.789062 -16.03125 22.0625 -16.03125 C 20.332031 -16.03125 18.710938 -14.9375 17.203125 -12.75 L 17.203125 -0.953125 L 19.15625 -0.6875 L 19.15625 0 Z M 11.90625 0 "/></g></g></g><g fill="#000000" fill-opacity="1"><g transform="translate(99.66846, 49.284612)"><g><path d="M 6.1875 -16.890625 L 6.1875 -13.4375 C 7.320312 -15.945312 9.113281 -17.203125 11.5625 -17.203125 C 14.019531 -17.203125 15.953125 -16.398438 17.359375 -14.796875 C 18.765625 -13.191406 19.46875 -11.066406 19.46875 -8.421875 C 19.46875 -5.773438 18.765625 -3.65625 17.359375 -2.0625 C 15.953125 -0.476562 14.03125 0.3125 11.59375 0.3125 C 9.15625 0.3125 7.351562 -0.921875 6.1875 -3.390625 L 6.1875 8.25 L 9.265625 8.578125 L 9.265625 9.265625 L 0.6875 9.265625 L 0.6875 8.578125 L 2.90625 8.25 L 2.90625 -15.9375 L 0.6875 -16.25 L 0.6875 -16.890625 Z M 15.9375 -6.78125 L 15.9375 -10.0625 C 15.9375 -14.257812 14.414062 -16.375 11.375 -16.40625 C 9.925781 -16.40625 8.707031 -15.804688 7.71875 -14.609375 C 6.738281 -13.410156 6.226562 -11.960938 6.1875 -10.265625 L 6.1875 -6.78125 C 6.1875 -5.050781 6.679688 -3.566406 7.671875 -2.328125 C 8.660156 -1.085938 9.894531 -0.46875 11.375 -0.46875 C 14.414062 -0.46875 15.9375 -2.570312 15.9375 -6.78125 Z M 15.9375 -6.78125 "/></g></g></g><g fill="#000000" fill-opacity="1"><g transform="translate(120.519087, 49.284612)"><g><path d="M 0.578125 -25.40625 L 0.578125 -26.09375 L 6.296875 -26.09375 L 6.296875 -0.953125 L 8.578125 -0.6875 L 8.578125 0 L 0.578125 0 L 0.578125 -0.6875 L 3.0625 -0.953125 L 3.0625 -25.140625 Z M 0.578125 -25.40625 "/></g></g></g><g fill="#000000" fill-opacity="1"><g transform="translate(129.674319, 49.284612)"><g><path d="M 17.875 -16.828125 L 17.875 -16.25 L 15.65625 -15.40625 L 8.296875 5.875 C 7.878906 7.144531 7.34375 8.070312 6.6875 8.65625 C 6.03125 9.238281 5.117188 9.53125 3.953125 9.53125 C 2.796875 9.53125 1.875 9.242188 1.1875 8.671875 C 0.5 8.109375 0.15625 7.421875 0.15625 6.609375 C 0.15625 5.796875 0.347656 5.195312 0.734375 4.8125 C 1.117188 4.425781 1.671875 4.234375 2.390625 4.234375 C 3.117188 4.234375 3.660156 4.585938 4.015625 5.296875 C 3.703125 5.710938 3.546875 6.160156 3.546875 6.640625 C 3.546875 7.117188 3.6875 7.5 3.96875 7.78125 C 4.25 8.0625 4.597656 8.203125 5.015625 8.203125 C 6.046875 8.203125 6.84375 7.425781 7.40625 5.875 L 9.359375 0.21875 L 1.796875 -15.875 L -0.375 -16.25 L -0.375 -16.828125 L 7.71875 -16.828125 L 7.71875 -16.25 L 5.4375 -15.828125 L 10.890625 -4.1875 L 14.8125 -15.40625 L 11.953125 -16.25 L 11.953125 -16.828125 Z M 17.875 -16.828125 "/></g></g></g><g fill="#000000" fill-opacity="1"><g transform="translate(147.138042, 49.284612)"><g><path d="M 17.515625 -26.78125 L 18.203125 -26.78125 L 18.203125 -20.0625 L 17.515625 -20.0625 L 15.1875 -24.828125 C 13.5625 -25.597656 11.796875 -25.984375 9.890625 -25.984375 C 7.984375 -25.984375 6.484375 -25.503906 5.390625 -24.546875 C 4.296875 -23.597656 3.75 -22.4375 3.75 -21.0625 C 3.75 -19.6875 4.140625 -18.660156 4.921875 -17.984375 C 5.703125 -17.316406 6.832031 -16.789062 8.3125 -16.40625 L 14.1875 -14.8125 C 16.09375 -14.351562 17.503906 -13.539062 18.421875 -12.375 C 19.335938 -11.21875 19.796875 -9.445312 19.796875 -7.0625 C 19.796875 -4.6875 19.046875 -2.800781 17.546875 -1.40625 C 16.046875 -0.0078125 14.15625 0.6875 11.875 0.6875 C 9.601562 0.6875 7.5 0.0859375 5.5625 -1.109375 L 2.8125 0.3125 L 2.109375 0.3125 L 2.109375 -8.046875 L 2.8125 -8.046875 L 5.609375 -2.015625 C 7.410156 -0.742188 9.367188 -0.109375 11.484375 -0.109375 C 13.597656 -0.109375 15.28125 -0.597656 16.53125 -1.578125 C 17.789062 -2.566406 18.421875 -4 18.421875 -5.875 C 18.421875 -7.21875 18.019531 -8.265625 17.21875 -9.015625 C 16.425781 -9.773438 15.113281 -10.382812 13.28125 -10.84375 L 7.890625 -12.21875 C 6.015625 -12.71875 4.59375 -13.578125 3.625 -14.796875 C 2.65625 -16.015625 2.171875 -17.429688 2.171875 -19.046875 C 2.171875 -21.378906 2.847656 -23.25 4.203125 -24.65625 C 5.566406 -26.070312 7.34375 -26.78125 9.53125 -26.78125 C 11.71875 -26.78125 13.585938 -26.425781 15.140625 -25.71875 Z M 17.515625 -26.78125 "/></g></g></g><g fill="#000000" fill-opacity="1"><g transform="translate(168.306191, 49.284612)"><g><path d="M 11.90625 -3.234375 C 11.34375 -2.097656 10.53125 -1.222656 9.46875 -0.609375 C 8.414062 0.00390625 7.207031 0.3125 5.84375 0.3125 C 4.488281 0.3125 3.378906 -0.046875 2.515625 -0.765625 C 1.648438 -1.492188 1.21875 -2.488281 1.21875 -3.75 C 1.21875 -5.019531 1.484375 -6.03125 2.015625 -6.78125 C 3.492188 -8.71875 6.40625 -9.6875 10.75 -9.6875 L 11.90625 -9.6875 L 11.90625 -12.859375 C 11.90625 -15.253906 10.8125 -16.453125 8.625 -16.453125 C 7.632812 -16.453125 6.832031 -16.222656 6.21875 -15.765625 C 5.601562 -15.304688 5.296875 -14.773438 5.296875 -14.171875 C 5.296875 -13.578125 5.578125 -13.191406 6.140625 -13.015625 C 6.140625 -12.453125 5.9375 -11.96875 5.53125 -11.5625 C 5.125 -11.15625 4.640625 -10.953125 4.078125 -10.953125 C 3.546875 -10.953125 3.078125 -11.15625 2.671875 -11.5625 C 2.265625 -11.96875 2.0625 -12.472656 2.0625 -13.078125 C 2.0625 -14.203125 2.695312 -15.171875 3.96875 -15.984375 C 5.238281 -16.796875 6.789062 -17.203125 8.625 -17.203125 C 13.039062 -17.203125 15.226562 -15.523438 15.1875 -12.171875 L 15.1875 -2.171875 C 15.1875 -1.179688 15.59375 -0.6875 16.40625 -0.6875 C 17.21875 -0.6875 17.625 -1.160156 17.625 -2.109375 L 18.3125 -2.109375 C 18.3125 -1.367188 18.0625 -0.78125 17.5625 -0.34375 C 17.070312 0.09375 16.351562 0.3125 15.40625 0.3125 C 14.445312 0.3125 13.632812 0.0234375 12.96875 -0.546875 C 12.300781 -1.128906 11.945312 -2.023438 11.90625 -3.234375 Z M 11.90625 -5.5625 L 11.90625 -8.890625 L 10.75 -8.890625 C 9.050781 -8.890625 7.628906 -8.484375 6.484375 -7.671875 C 5.335938 -6.859375 4.765625 -5.640625 4.765625 -4.015625 C 4.765625 -3.140625 5 -2.453125 5.46875 -1.953125 C 5.945312 -1.460938 6.660156 -1.21875 7.609375 -1.21875 C 8.566406 -1.21875 9.488281 -1.601562 10.375 -2.375 C 11.257812 -3.15625 11.769531 -4.21875 11.90625 -5.5625 Z M 11.90625 -5.5625 "/></g></g></g><g fill="#000000" fill-opacity="1"><g transform="translate(186.457886, 49.284612)"><g><path d="M 5.296875 -5.5 C 3.847656 -5.394531 3.125 -4.832031 3.125 -3.8125 C 3.125 -3.3125 3.40625 -2.929688 3.96875 -2.671875 C 4.53125 -2.410156 5.238281 -2.28125 6.09375 -2.28125 L 11.4375 -2.28125 C 13.164062 -2.28125 14.476562 -1.9375 15.375 -1.25 C 16.269531 -0.5625 16.71875 0.578125 16.71875 2.171875 C 16.71875 4.253906 16.003906 6 14.578125 7.40625 C 13.148438 8.820312 11.113281 9.53125 8.46875 9.53125 C 5.820312 9.53125 3.828125 9.113281 2.484375 8.28125 C 1.140625 7.445312 0.46875 6.34375 0.46875 4.96875 C 0.46875 4.15625 0.75 3.445312 1.3125 2.84375 C 1.882812 2.25 2.664062 1.953125 3.65625 1.953125 C 3.832031 1.953125 4.238281 2.003906 4.875 2.109375 C 4.195312 2.816406 3.859375 3.707031 3.859375 4.78125 C 3.859375 5.863281 4.238281 6.816406 5 7.640625 C 5.757812 8.472656 7.09375 8.890625 9 8.890625 C 10.90625 8.890625 12.519531 8.34375 13.84375 7.25 C 15.164062 6.15625 15.828125 4.921875 15.828125 3.546875 C 15.828125 2.585938 15.578125 1.90625 15.078125 1.5 C 14.585938 1.101562 13.707031 0.90625 12.4375 0.90625 L 6.09375 0.90625 C 3.019531 0.90625 1.484375 -0.171875 1.484375 -2.328125 C 1.484375 -3.316406 1.742188 -4.117188 2.265625 -4.734375 C 2.796875 -5.347656 3.523438 -5.765625 4.453125 -5.984375 C 2.753906 -7.109375 1.90625 -8.710938 1.90625 -10.796875 C 1.90625 -12.878906 2.53125 -14.46875 3.78125 -15.5625 C 5.03125 -16.65625 6.582031 -17.203125 8.4375 -17.203125 C 10.289062 -17.203125 11.816406 -16.722656 13.015625 -15.765625 C 13.867188 -15.804688 14.492188 -15.992188 14.890625 -16.328125 C 15.296875 -16.660156 15.5 -17.035156 15.5 -17.453125 C 15.5 -17.878906 15.394531 -18.195312 15.1875 -18.40625 C 14.976562 -18.625 14.734375 -18.734375 14.453125 -18.734375 C 14.453125 -19.296875 14.644531 -19.757812 15.03125 -20.125 C 15.414062 -20.5 15.890625 -20.6875 16.453125 -20.6875 C 17.023438 -20.6875 17.503906 -20.507812 17.890625 -20.15625 C 18.273438 -19.8125 18.46875 -19.25 18.46875 -18.46875 C 18.46875 -17.695312 18.085938 -16.984375 17.328125 -16.328125 C 16.566406 -15.671875 15.34375 -15.289062 13.65625 -15.1875 C 14.71875 -14.09375 15.238281 -12.65625 15.21875 -10.875 C 15.195312 -9.09375 14.5625 -7.644531 13.3125 -6.53125 C 12.0625 -5.425781 10.460938 -4.875 8.515625 -4.875 C 7.285156 -4.875 6.210938 -5.082031 5.296875 -5.5 Z M 12.125 -10.265625 L 12.125 -11.859375 C 12.125 -15.035156 10.929688 -16.625 8.546875 -16.625 C 6.160156 -16.625 4.96875 -15.035156 4.96875 -11.859375 L 4.96875 -10.265625 C 4.96875 -8.742188 5.257812 -7.5625 5.84375 -6.71875 C 6.425781 -5.875 7.316406 -5.453125 8.515625 -5.453125 C 9.710938 -5.453125 10.613281 -5.875 11.21875 -6.71875 C 11.820312 -7.5625 12.125 -8.742188 12.125 -10.265625 Z M 12.125 -10.265625 "/></g></g></g><g fill="#000000" fill-opacity="1"><g transform="translate(203.974536, 49.284612)"><g><path d="M 13.921875 -1.6875 C 15.046875 -2.539062 15.75 -3.632812 16.03125 -4.96875 L 16.828125 -4.96875 C 16.515625 -3.351562 15.738281 -2.066406 14.5 -1.109375 C 13.269531 -0.160156 11.753906 0.3125 9.953125 0.3125 C 7.484375 0.3125 5.414062 -0.492188 3.75 -2.109375 C 2.132812 -3.703125 1.328125 -5.796875 1.328125 -8.390625 C 1.328125 -10.984375 2.117188 -13.097656 3.703125 -14.734375 C 5.296875 -16.378906 7.226562 -17.203125 9.5 -17.203125 C 11.769531 -17.203125 13.566406 -16.519531 14.890625 -15.15625 C 16.222656 -13.800781 16.90625 -12.101562 16.9375 -10.0625 L 4.921875 -10.0625 L 4.921875 -6.828125 C 4.921875 -4.890625 5.34375 -3.335938 6.1875 -2.171875 C 7.101562 -0.972656 8.335938 -0.375 9.890625 -0.375 C 11.441406 -0.375 12.785156 -0.8125 13.921875 -1.6875 Z M 9.6875 -16.453125 C 8.238281 -16.453125 7.109375 -15.945312 6.296875 -14.9375 C 5.484375 -13.9375 5.039062 -12.570312 4.96875 -10.84375 L 13.34375 -10.84375 C 13.34375 -14.582031 12.125 -16.453125 9.6875 -16.453125 Z M 9.6875 -16.453125 "/></g></g></g></svg>