<svg xmlns="http://www.w3.org/2000/svg" xmlns:xlink="http://www.w3.org/1999/xlink" width="1920" zoomAndPan="magnify" viewBox="0 0 1440 809.999993" height="1080" preserveAspectRatio="xMidYMid meet" version="1.0"><defs><g/><clipPath id="d7d8e5bd52"><path d="M 56 261 L 259 261 L 259 498 L 56 498 Z M 56 261 " clip-rule="nonzero"/></clipPath><clipPath id="9bffae1c0e"><path d="M 28.808594 271.449219 L 206.410156 209.894531 L 300.835938 482.328125 L 123.230469 543.886719 Z M 28.808594 271.449219 " clip-rule="nonzero"/></clipPath><clipPath id="47d171d633"><path d="M 28.808594 271.449219 L 206.410156 209.894531 L 300.835938 482.328125 L 123.230469 543.886719 Z M 28.808594 271.449219 " clip-rule="nonzero"/></clipPath><clipPath id="5ab1ce0248"><path d="M 28.808594 271.449219 L 206.410156 209.894531 L 300.835938 482.328125 L 123.230469 543.886719 Z M 28.808594 271.449219 " clip-rule="nonzero"/></clipPath></defs><g clip-path="url(#d7d8e5bd52)"><g clip-path="url(#9bffae1c0e)"><g clip-path="url(#47d171d633)"><g clip-path="url(#5ab1ce0248)"><path fill="#7cb342" d="M 241.761719 491.660156 C 236.511719 489.503906 231.449219 486.992188 226.652344 484.101562 C 217.03125 478.34375 208.464844 471.144531 200.855469 463.027344 L 199.429688 461.507812 C 198.953125 461 198.5 460.46875 198.035156 459.949219 L 196.648438 458.386719 C 196.195312 457.863281 195.75 457.320312 195.300781 456.789062 L 193.953125 455.191406 C 193.507812 454.65625 193.074219 454.105469 192.632812 453.5625 L 191.3125 451.933594 C 190.878906 451.386719 190.457031 450.824219 190.03125 450.273438 C 186.628906 445.832031 183.347656 441.269531 180.21875 436.578125 C 179.4375 435.40625 178.660156 434.226562 177.886719 433.042969 C 177.113281 431.863281 176.335938 430.683594 175.578125 429.484375 C 174.050781 427.101562 172.550781 424.691406 171.066406 422.265625 C 168.078125 417.429688 165.128906 412.539062 162.203125 407.601562 C 159.242188 402.691406 156.285156 397.746094 153.269531 392.808594 C 150.214844 387.898438 147.136719 382.964844 143.875 378.121094 C 140.605469 373.285156 137.246094 368.476562 133.609375 363.839844 C 131.796875 361.519531 129.949219 359.21875 128.023438 356.972656 C 126.085938 354.738281 124.101562 352.535156 122.035156 350.398438 C 121 349.335938 119.984375 348.257812 118.890625 347.242188 L 117.277344 345.699219 C 116.742188 345.1875 116.175781 344.699219 115.625 344.195312 L 113.964844 342.707031 L 112.253906 341.265625 C 111.679688 340.789062 111.117188 340.304688 110.53125 339.839844 L 108.757812 338.476562 C 108.160156 338.03125 107.585938 337.554688 106.96875 337.128906 L 105.144531 335.835938 C 103.945312 334.957031 102.671875 334.164062 101.417969 333.359375 L 100.476562 332.757812 L 99.511719 332.191406 L 97.578125 331.070312 C 96.945312 330.683594 96.277344 330.347656 95.617188 330.003906 L 93.640625 328.96875 C 92.308594 328.308594 90.941406 327.714844 89.597656 327.089844 C 88.230469 326.515625 86.851562 325.964844 85.476562 325.421875 C 84.074219 324.949219 82.679688 324.460938 81.28125 324 C 79.859375 323.59375 78.449219 323.179688 77.027344 322.8125 C 71.324219 321.382812 65.511719 320.582031 59.726562 320.445312 C 65.332031 321.890625 70.777344 323.679688 75.976562 325.929688 C 81.171875 328.179688 86.117188 330.871094 90.742188 333.996094 C 100.019531 340.214844 108.035156 348.003906 115.132812 356.597656 C 116.917969 358.738281 118.632812 360.941406 120.308594 363.183594 C 121.988281 365.417969 123.632812 367.695312 125.230469 370.003906 C 128.410156 374.640625 131.507812 379.363281 134.476562 384.195312 C 137.460938 389.019531 140.40625 393.894531 143.296875 398.832031 L 152.085938 413.664062 C 155.078125 418.601562 158.085938 423.558594 161.21875 428.460938 C 162.796875 430.910156 164.398438 433.347656 166.035156 435.765625 C 166.84375 436.980469 167.679688 438.183594 168.515625 439.386719 C 169.335938 440.597656 170.207031 441.777344 171.070312 442.96875 C 174.523438 447.710938 178.125 452.386719 182.011719 456.847656 C 182.496094 457.40625 182.96875 457.96875 183.460938 458.523438 L 184.953125 460.167969 C 185.453125 460.714844 185.941406 461.273438 186.449219 461.8125 L 187.996094 463.414062 C 188.511719 463.945312 189.019531 464.488281 189.546875 465.007812 L 191.140625 466.566406 C 191.675781 467.085938 192.195312 467.609375 192.742188 468.117188 L 194.382812 469.628906 C 194.933594 470.128906 195.46875 470.644531 196.03125 471.132812 L 197.730469 472.582031 C 198.300781 473.058594 198.855469 473.554688 199.4375 474.015625 L 201.191406 475.40625 C 201.777344 475.867188 202.34375 476.34375 202.945312 476.785156 L 204.746094 478.113281 C 205.925781 479.015625 207.175781 479.832031 208.410156 480.664062 C 213.363281 483.976562 218.59375 486.855469 224.015625 489.234375 C 234.878906 493.988281 246.503906 496.644531 258.058594 497.125 C 252.472656 495.59375 247.019531 493.816406 241.761719 491.660156 Z M 56.8125 261.96875 C 56.453125 261.878906 56.179688 262.285156 56.390625 262.589844 C 59.984375 267.652344 58.359375 274.480469 58.351562 282.46875 C 58.339844 290.933594 60.148438 300.699219 71.898438 311.035156 C 71.949219 311.082031 72 311.121094 72.050781 311.164062 C 72.558594 311.566406 73.308594 311.21875 73.316406 310.570312 C 73.324219 309.878906 73.320312 309.179688 73.3125 308.488281 C 73.285156 306.746094 73.203125 305 73.078125 303.253906 C 73.015625 302.382812 72.941406 301.511719 72.859375 300.636719 C 72.773438 299.765625 72.679688 298.894531 72.574219 298.023438 C 72.367188 296.28125 72.113281 294.546875 71.816406 292.8125 C 71.523438 291.082031 71.175781 289.359375 70.773438 287.648438 C 70.367188 285.9375 69.90625 284.238281 69.34375 282.570312 C 69.066406 281.738281 68.761719 280.914062 68.421875 280.101562 C 68.230469 279.648438 68.03125 279.199219 67.816406 278.757812 C 67.792969 278.703125 67.867188 278.667969 67.898438 278.714844 C 68.144531 279.140625 68.378906 279.574219 68.605469 280.015625 C 69.011719 280.804688 69.378906 281.609375 69.726562 282.429688 C 70.417969 284.066406 71.015625 285.738281 71.554688 287.429688 C 72.09375 289.125 72.574219 290.835938 73.007812 292.558594 C 73.441406 294.285156 73.832031 296.023438 74.179688 297.765625 C 74.351562 298.640625 74.515625 299.515625 74.667969 300.394531 C 74.820312 301.273438 74.960938 302.152344 75.09375 303.03125 C 75.355469 304.796875 75.578125 306.574219 75.742188 308.355469 C 75.800781 308.980469 75.851562 309.609375 75.894531 310.230469 C 75.941406 310.921875 76.800781 311.21875 77.257812 310.707031 L 77.269531 310.691406 C 91.101562 294.898438 81.964844 268.074219 56.8125 261.96875 Z M 142.8125 423.246094 L 142.835938 423.230469 C 143.644531 422.664062 143.359375 421.390625 142.382812 421.210938 C 141.5 421.046875 140.617188 420.875 139.734375 420.691406 C 137.21875 420.167969 134.730469 419.566406 132.257812 418.90625 C 131.023438 418.574219 129.792969 418.226562 128.570312 417.871094 C 127.34375 417.507812 126.121094 417.132812 124.90625 416.746094 C 122.476562 415.96875 120.066406 415.132812 117.679688 414.234375 C 115.296875 413.339844 112.9375 412.371094 110.613281 411.332031 C 108.285156 410.285156 106 409.164062 103.78125 407.914062 C 102.671875 407.285156 101.585938 406.628906 100.523438 405.925781 C 99.9375 405.535156 99.355469 405.125 98.789062 404.707031 C 98.722656 404.65625 98.792969 404.554688 98.863281 404.597656 C 99.457031 404.976562 100.0625 405.335938 100.675781 405.675781 C 101.777344 406.292969 102.90625 406.859375 104.046875 407.394531 C 106.332031 408.460938 108.675781 409.398438 111.046875 410.25 C 113.417969 411.101562 115.816406 411.875 118.234375 412.578125 C 120.652344 413.28125 123.082031 413.921875 125.53125 414.503906 C 126.753906 414.792969 127.980469 415.070312 129.207031 415.328125 C 130.4375 415.585938 131.667969 415.835938 132.902344 416.066406 C 135.367188 416.527344 137.84375 416.925781 140.316406 417.246094 C 141.304688 417.375 142.292969 417.488281 143.28125 417.589844 C 144.203125 417.683594 144.824219 416.671875 144.335938 415.882812 C 144.285156 415.800781 144.230469 415.71875 144.175781 415.640625 C 131.355469 397.214844 117.738281 393.054688 105.679688 391.699219 C 94.304688 390.421875 84.308594 391.628906 77.679688 385.6875 C 77.285156 385.332031 76.664062 385.664062 76.730469 386.191406 C 81.355469 423.042969 118.085938 440.414062 142.8125 423.246094 Z M 212.523438 459.832031 L 212.488281 459.847656 C 211.023438 460.503906 209.488281 459.046875 210.050781 457.542969 C 210.5625 456.171875 211.054688 454.800781 211.527344 453.425781 C 212.894531 449.488281 214.128906 445.527344 215.265625 441.539062 C 215.832031 439.546875 216.375 437.546875 216.898438 435.542969 C 217.414062 433.539062 217.90625 431.527344 218.375 429.515625 C 219.320312 425.488281 220.15625 421.441406 220.894531 417.375 C 221.632812 413.3125 222.253906 409.222656 222.738281 405.121094 C 223.21875 401.023438 223.558594 396.90625 223.664062 392.78125 C 223.714844 390.722656 223.707031 388.65625 223.609375 386.597656 C 223.554688 385.453125 223.476562 384.308594 223.359375 383.167969 C 223.34375 383.035156 223.144531 383.046875 223.148438 383.179688 C 223.179688 384.324219 223.171875 385.464844 223.140625 386.601562 C 223.078125 388.648438 222.933594 390.6875 222.722656 392.722656 C 222.308594 396.789062 221.660156 400.824219 220.875 404.832031 C 220.085938 408.839844 219.164062 412.816406 218.132812 416.761719 C 217.101562 420.710938 215.96875 424.628906 214.738281 428.515625 C 214.125 430.460938 213.488281 432.394531 212.832031 434.320312 C 212.167969 436.246094 211.488281 438.164062 210.78125 440.070312 C 209.371094 443.886719 207.875 447.660156 206.257812 451.367188 C 205.613281 452.847656 204.953125 454.320312 204.273438 455.777344 C 203.636719 457.136719 201.714844 457.164062 201.023438 455.824219 C 200.953125 455.6875 200.882812 455.546875 200.820312 455.398438 C 185.863281 422.242188 191.40625 399.84375 199.546875 381.945312 C 207.226562 365.050781 217.222656 352.152344 214.472656 337.988281 C 214.3125 337.148438 215.285156 336.558594 215.960938 337.085938 C 263.34375 374.164062 256.957031 439.707031 212.523438 459.832031 " fill-opacity="1" fill-rule="nonzero"/></g></g></g></g><g fill="#fcffde" fill-opacity="1"><g transform="translate(246.870159, 533.852838)"><g><path d="M 99.75 -152.5 L 103.671875 -152.5 L 103.671875 -114.21875 L 99.75 -114.21875 L 86.5 -141.34375 C 77.257812 -145.769531 67.210938 -147.984375 56.359375 -147.984375 C 45.503906 -147.984375 36.960938 -145.269531 30.734375 -139.84375 C 24.503906 -134.414062 21.390625 -127.785156 21.390625 -119.953125 C 21.390625 -112.117188 23.597656 -106.289062 28.015625 -102.46875 C 32.441406 -98.65625 38.875 -95.640625 47.3125 -93.421875 L 80.765625 -84.390625 C 91.617188 -81.773438 99.65625 -77.148438 104.875 -70.515625 C 110.101562 -63.890625 112.71875 -53.796875 112.71875 -40.234375 C 112.71875 -26.671875 108.445312 -15.921875 99.90625 -7.984375 C 91.363281 -0.046875 80.613281 3.921875 67.65625 3.921875 C 54.695312 3.921875 42.691406 0.503906 31.640625 -6.328125 L 15.96875 1.8125 L 12.0625 1.8125 L 12.0625 -45.8125 L 15.96875 -45.8125 L 31.953125 -11.453125 C 42.191406 -4.222656 53.335938 -0.609375 65.390625 -0.609375 C 77.453125 -0.609375 87.046875 -3.421875 94.171875 -9.046875 C 101.304688 -14.671875 104.875 -22.804688 104.875 -33.453125 C 104.875 -41.085938 102.613281 -47.0625 98.09375 -51.375 C 93.570312 -55.695312 86.085938 -59.164062 75.640625 -61.78125 L 44.90625 -69.625 C 34.257812 -72.4375 26.171875 -77.304688 20.640625 -84.234375 C 15.117188 -91.171875 12.359375 -99.257812 12.359375 -108.5 C 12.359375 -121.757812 16.222656 -132.40625 23.953125 -140.4375 C 31.691406 -148.476562 41.789062 -152.5 54.25 -152.5 C 66.707031 -152.5 77.359375 -150.488281 86.203125 -146.46875 Z M 99.75 -152.5 "/></g></g></g><g fill="#fcffde" fill-opacity="1"><g transform="translate(367.421803, 533.852838)"><g><path d="M 12.0625 -130.34375 C 12.0625 -133.863281 13.265625 -136.726562 15.671875 -138.9375 C 18.078125 -141.144531 21.039062 -142.25 24.5625 -142.25 C 28.082031 -142.25 30.992188 -141.144531 33.296875 -138.9375 C 35.609375 -136.726562 36.765625 -133.863281 36.765625 -130.34375 C 36.765625 -126.832031 35.609375 -123.867188 33.296875 -121.453125 C 30.992188 -119.046875 28.132812 -117.84375 24.71875 -117.84375 C 21.300781 -117.84375 18.335938 -119.046875 15.828125 -121.453125 C 13.316406 -123.867188 12.0625 -126.832031 12.0625 -130.34375 Z M 5.125 -92.53125 L 5.125 -95.84375 L 36.765625 -95.84375 L 36.765625 -5.421875 L 49.421875 -3.921875 L 49.421875 0 L 5.125 0 L 5.125 -3.921875 L 18.078125 -5.421875 L 18.078125 -90.421875 Z M 5.125 -92.53125 "/></g></g><g transform="translate(420.464528, 533.852838)"><g><path d="M 67.8125 0 L 67.8125 -3.921875 L 78.96875 -5.421875 L 78.96875 -70.828125 C 78.96875 -84.484375 74.039062 -91.3125 64.1875 -91.3125 C 54.34375 -91.3125 45.101562 -85.085938 36.46875 -72.640625 L 36.46875 -5.421875 L 47.625 -3.921875 L 47.625 0 L 4.828125 0 L 4.828125 -3.921875 L 17.78125 -5.421875 L 17.78125 -90.71875 L 4.828125 -92.53125 L 4.828125 -96.140625 L 36.46875 -96.140625 L 36.46875 -78.96875 C 45.90625 -91.625 56.957031 -97.953125 69.625 -97.953125 C 85.488281 -97.953125 94.726562 -91.320312 97.34375 -78.0625 C 106.988281 -91.320312 118.238281 -97.953125 131.09375 -97.953125 C 139.9375 -97.953125 146.816406 -95.738281 151.734375 -91.3125 C 156.660156 -86.894531 159.125 -80.265625 159.125 -71.421875 L 159.125 -5.421875 L 172.09375 -3.921875 L 172.09375 0 L 129.59375 0 L 129.59375 -3.921875 L 140.4375 -5.421875 L 140.4375 -70.828125 C 140.4375 -84.484375 135.515625 -91.3125 125.671875 -91.3125 C 115.828125 -91.3125 106.585938 -85.085938 97.953125 -72.640625 L 97.953125 -5.421875 L 109.09375 -3.921875 L 109.09375 0 Z M 67.8125 0 "/></g></g><g transform="translate(595.565797, 533.852838)"><g><path d="M 35.265625 -96.140625 L 35.265625 -76.546875 C 41.691406 -90.816406 51.882812 -97.953125 65.84375 -97.953125 C 79.8125 -97.953125 90.8125 -93.378906 98.84375 -84.234375 C 106.882812 -75.097656 110.90625 -62.992188 110.90625 -47.921875 C 110.90625 -32.847656 106.882812 -20.789062 98.84375 -11.75 C 90.8125 -2.707031 79.863281 1.8125 66 1.8125 C 52.132812 1.8125 41.890625 -5.21875 35.265625 -19.28125 L 35.265625 47.015625 L 52.734375 48.828125 L 52.734375 52.734375 L 3.921875 52.734375 L 3.921875 48.828125 L 16.578125 47.015625 L 16.578125 -90.71875 L 3.921875 -92.53125 L 3.921875 -96.140625 Z M 90.71875 -38.578125 L 90.71875 -57.265625 C 90.71875 -81.171875 82.078125 -93.222656 64.796875 -93.421875 C 56.554688 -93.421875 49.625 -90.003906 44 -83.171875 C 38.375 -76.347656 35.460938 -68.113281 35.265625 -58.46875 L 35.265625 -38.578125 C 35.265625 -28.734375 38.078125 -20.296875 43.703125 -13.265625 C 49.328125 -6.234375 56.359375 -2.71875 64.796875 -2.71875 C 82.078125 -2.71875 90.71875 -14.671875 90.71875 -38.578125 Z M 90.71875 -38.578125 "/></g></g></g><g fill="#fcffde" fill-opacity="1"><g transform="translate(714.309148, 533.852838)"><g><path d="M 3.3125 -144.65625 L 3.3125 -148.578125 L 35.859375 -148.578125 L 35.859375 -5.421875 L 48.828125 -3.921875 L 48.828125 0 L 3.3125 0 L 3.3125 -3.921875 L 17.484375 -5.421875 L 17.484375 -143.15625 Z M 3.3125 -144.65625 "/></g></g></g><g fill="#fcffde" fill-opacity="1"><g transform="translate(766.447726, 533.852838)"><g><path d="M 101.859375 -95.84375 L 101.859375 -92.53125 L 89.203125 -87.703125 L 47.3125 33.453125 C 44.90625 40.679688 41.84375 45.953125 38.125 49.265625 C 34.40625 52.585938 29.226562 54.25 22.59375 54.25 C 15.96875 54.25 10.695312 52.640625 6.78125 49.421875 C 2.863281 46.210938 0.90625 42.296875 0.90625 37.671875 C 0.90625 33.046875 2.007812 29.628906 4.21875 27.421875 C 6.425781 25.210938 9.585938 24.109375 13.703125 24.109375 C 17.828125 24.109375 20.894531 26.117188 22.90625 30.140625 C 21.09375 32.546875 20.1875 35.101562 20.1875 37.8125 C 20.1875 40.53125 20.988281 42.691406 22.59375 44.296875 C 24.207031 45.910156 26.21875 46.71875 28.625 46.71875 C 34.445312 46.71875 38.96875 42.296875 42.1875 33.453125 L 53.34375 1.203125 L 10.25 -90.421875 L -2.109375 -92.53125 L -2.109375 -95.84375 L 44 -95.84375 L 44 -92.53125 L 31.03125 -90.109375 L 62.078125 -23.8125 L 84.375 -87.703125 L 68.109375 -92.53125 L 68.109375 -95.84375 Z M 101.859375 -95.84375 "/></g></g></g><g fill="#fcffde" fill-opacity="1"><g transform="translate(865.902821, 533.852838)"><g><path d="M 99.75 -152.5 L 103.671875 -152.5 L 103.671875 -114.21875 L 99.75 -114.21875 L 86.5 -141.34375 C 77.257812 -145.769531 67.210938 -147.984375 56.359375 -147.984375 C 45.503906 -147.984375 36.960938 -145.269531 30.734375 -139.84375 C 24.503906 -134.414062 21.390625 -127.785156 21.390625 -119.953125 C 21.390625 -112.117188 23.597656 -106.289062 28.015625 -102.46875 C 32.441406 -98.65625 38.875 -95.640625 47.3125 -93.421875 L 80.765625 -84.390625 C 91.617188 -81.773438 99.65625 -77.148438 104.875 -70.515625 C 110.101562 -63.890625 112.71875 -53.796875 112.71875 -40.234375 C 112.71875 -26.671875 108.445312 -15.921875 99.90625 -7.984375 C 91.363281 -0.046875 80.613281 3.921875 67.65625 3.921875 C 54.695312 3.921875 42.691406 0.503906 31.640625 -6.328125 L 15.96875 1.8125 L 12.0625 1.8125 L 12.0625 -45.8125 L 15.96875 -45.8125 L 31.953125 -11.453125 C 42.191406 -4.222656 53.335938 -0.609375 65.390625 -0.609375 C 77.453125 -0.609375 87.046875 -3.421875 94.171875 -9.046875 C 101.304688 -14.671875 104.875 -22.804688 104.875 -33.453125 C 104.875 -41.085938 102.613281 -47.0625 98.09375 -51.375 C 93.570312 -55.695312 86.085938 -59.164062 75.640625 -61.78125 L 44.90625 -69.625 C 34.257812 -72.4375 26.171875 -77.304688 20.640625 -84.234375 C 15.117188 -91.171875 12.359375 -99.257812 12.359375 -108.5 C 12.359375 -121.757812 16.222656 -132.40625 23.953125 -140.4375 C 31.691406 -148.476562 41.789062 -152.5 54.25 -152.5 C 66.707031 -152.5 77.359375 -150.488281 86.203125 -146.46875 Z M 99.75 -152.5 "/></g></g></g><g fill="#fcffde" fill-opacity="1"><g transform="translate(986.45448, 533.852838)"><g><path d="M 67.8125 -18.390625 C 64.59375 -11.953125 59.96875 -6.972656 53.9375 -3.453125 C 47.914062 0.0546875 41.035156 1.8125 33.296875 1.8125 C 25.566406 1.8125 19.238281 -0.242188 14.3125 -4.359375 C 9.394531 -8.484375 6.9375 -14.160156 6.9375 -21.390625 C 6.9375 -28.628906 8.441406 -34.359375 11.453125 -38.578125 C 19.890625 -49.628906 36.46875 -55.15625 61.1875 -55.15625 L 67.8125 -55.15625 L 67.8125 -73.234375 C 67.8125 -86.898438 61.582031 -93.734375 49.125 -93.734375 C 43.5 -93.734375 38.925781 -92.425781 35.40625 -89.8125 C 31.894531 -87.195312 30.140625 -84.179688 30.140625 -80.765625 C 30.140625 -77.347656 31.742188 -75.140625 34.953125 -74.140625 C 34.953125 -70.921875 33.796875 -68.15625 31.484375 -65.84375 C 29.179688 -63.539062 26.421875 -62.390625 23.203125 -62.390625 C 20.191406 -62.390625 17.53125 -63.539062 15.21875 -65.84375 C 12.90625 -68.15625 11.75 -71.019531 11.75 -74.4375 C 11.75 -80.863281 15.363281 -86.390625 22.59375 -91.015625 C 29.832031 -95.640625 38.675781 -97.953125 49.125 -97.953125 C 74.238281 -97.953125 86.695312 -88.40625 86.5 -69.3125 L 86.5 -12.359375 C 86.5 -6.734375 88.804688 -3.921875 93.421875 -3.921875 C 98.046875 -3.921875 100.359375 -6.632812 100.359375 -12.0625 L 104.28125 -12.0625 C 104.28125 -7.832031 102.875 -4.460938 100.0625 -1.953125 C 97.25 0.554688 93.128906 1.8125 87.703125 1.8125 C 82.273438 1.8125 77.648438 0.15625 73.828125 -3.15625 C 70.015625 -6.476562 68.007812 -11.554688 67.8125 -18.390625 Z M 67.8125 -31.640625 L 67.8125 -50.625 L 61.1875 -50.625 C 51.539062 -50.625 43.453125 -48.3125 36.921875 -43.6875 C 30.390625 -39.070312 27.125 -32.144531 27.125 -22.90625 C 27.125 -17.882812 28.476562 -13.96875 31.1875 -11.15625 C 33.90625 -8.34375 37.972656 -6.9375 43.390625 -6.9375 C 48.816406 -6.9375 54.039062 -9.144531 59.0625 -13.5625 C 64.09375 -17.976562 67.007812 -24.003906 67.8125 -31.640625 Z M 67.8125 -31.640625 "/></g></g></g><g fill="#fcffde" fill-opacity="1"><g transform="translate(1089.82749, 533.852838)"><g><path d="M 30.140625 -31.34375 C 21.898438 -30.738281 17.78125 -27.523438 17.78125 -21.703125 C 17.78125 -18.890625 19.382812 -16.726562 22.59375 -15.21875 C 25.8125 -13.707031 29.832031 -12.953125 34.65625 -12.953125 L 65.09375 -12.953125 C 74.9375 -12.953125 82.421875 -10.992188 87.546875 -7.078125 C 92.671875 -3.160156 95.234375 3.316406 95.234375 12.359375 C 95.234375 24.210938 91.164062 34.15625 83.03125 42.1875 C 74.894531 50.226562 63.289062 54.25 48.21875 54.25 C 33.15625 54.25 21.804688 51.882812 14.171875 47.15625 C 6.535156 42.4375 2.71875 36.160156 2.71875 28.328125 C 2.71875 23.703125 4.320312 19.679688 7.53125 16.265625 C 10.75 12.859375 15.171875 11.15625 20.796875 11.15625 C 21.796875 11.15625 24.109375 11.457031 27.734375 12.0625 C 23.910156 16.070312 22 21.140625 22 27.265625 C 22 33.398438 24.15625 38.828125 28.46875 43.546875 C 32.789062 48.265625 40.378906 50.625 51.234375 50.625 C 62.085938 50.625 71.28125 47.507812 78.8125 41.28125 C 86.34375 35.0625 90.109375 28.03125 90.109375 20.1875 C 90.109375 14.769531 88.703125 10.90625 85.890625 8.59375 C 83.078125 6.28125 78.054688 5.125 70.828125 5.125 L 34.65625 5.125 C 17.175781 5.125 8.4375 -1.003906 8.4375 -13.265625 C 8.4375 -18.890625 9.941406 -23.457031 12.953125 -26.96875 C 15.972656 -30.488281 20.09375 -32.851562 25.3125 -34.0625 C 15.664062 -40.488281 10.84375 -49.628906 10.84375 -61.484375 C 10.84375 -73.335938 14.410156 -82.378906 21.546875 -88.609375 C 28.679688 -94.835938 37.519531 -97.953125 48.0625 -97.953125 C 58.613281 -97.953125 67.304688 -95.238281 74.140625 -89.8125 C 78.960938 -90.007812 82.53125 -91.0625 84.84375 -92.96875 C 87.15625 -94.882812 88.3125 -97.046875 88.3125 -99.453125 C 88.3125 -101.867188 87.707031 -103.675781 86.5 -104.875 C 85.289062 -106.082031 83.882812 -106.6875 82.28125 -106.6875 C 82.28125 -109.90625 83.382812 -112.566406 85.59375 -114.671875 C 87.800781 -116.785156 90.507812 -117.84375 93.71875 -117.84375 C 96.9375 -117.84375 99.648438 -116.835938 101.859375 -114.828125 C 104.078125 -112.816406 105.1875 -109.597656 105.1875 -105.171875 C 105.1875 -100.753906 103.023438 -96.6875 98.703125 -92.96875 C 94.378906 -89.257812 87.394531 -87.101562 77.75 -86.5 C 83.78125 -80.269531 86.742188 -72.082031 86.640625 -61.9375 C 86.546875 -51.789062 82.929688 -43.550781 75.796875 -37.21875 C 68.660156 -30.894531 59.566406 -27.734375 48.515625 -27.734375 C 41.484375 -27.734375 35.359375 -28.9375 30.140625 -31.34375 Z M 69.015625 -58.46875 L 69.015625 -67.515625 C 69.015625 -85.597656 62.234375 -94.640625 48.671875 -94.640625 C 35.109375 -94.640625 28.328125 -85.597656 28.328125 -67.515625 L 28.328125 -58.46875 C 28.328125 -49.832031 29.984375 -43.101562 33.296875 -38.28125 C 36.617188 -33.457031 41.691406 -31.046875 48.515625 -31.046875 C 55.347656 -31.046875 60.472656 -33.457031 63.890625 -38.28125 C 67.304688 -43.101562 69.015625 -49.832031 69.015625 -58.46875 Z M 69.015625 -58.46875 "/></g></g><g transform="translate(1189.583983, 533.852838)"><g><path d="M 79.265625 -9.640625 C 85.691406 -14.460938 89.707031 -20.691406 91.3125 -28.328125 L 95.84375 -28.328125 C 94.03125 -19.085938 89.609375 -11.753906 82.578125 -6.328125 C 75.546875 -0.898438 66.90625 1.8125 56.65625 1.8125 C 42.59375 1.8125 30.835938 -2.8125 21.390625 -12.0625 C 12.148438 -21.101562 7.53125 -33.003906 7.53125 -47.765625 C 7.53125 -62.535156 12.050781 -74.59375 21.09375 -83.9375 C 30.132812 -93.28125 41.132812 -97.953125 54.09375 -97.953125 C 67.050781 -97.953125 77.296875 -94.082031 84.828125 -86.34375 C 92.367188 -78.613281 96.238281 -68.921875 96.4375 -57.265625 L 28.03125 -57.265625 L 28.03125 -38.875 C 28.03125 -27.820312 30.441406 -18.984375 35.265625 -12.359375 C 40.484375 -5.523438 47.515625 -2.109375 56.359375 -2.109375 C 65.203125 -2.109375 72.835938 -4.617188 79.265625 -9.640625 Z M 55.15625 -93.734375 C 46.914062 -93.734375 40.484375 -90.867188 35.859375 -85.140625 C 31.242188 -79.410156 28.734375 -71.625 28.328125 -61.78125 L 75.953125 -61.78125 C 75.953125 -83.082031 69.019531 -93.734375 55.15625 -93.734375 Z M 55.15625 -93.734375 "/></g></g></g></svg>