<svg xmlns="http://www.w3.org/2000/svg" xmlns:xlink="http://www.w3.org/1999/xlink" width="1920" zoomAndPan="magnify" viewBox="0 0 1440 809.999993" height="1080" preserveAspectRatio="xMidYMid meet" version="1.0"><defs><g/></defs><g fill="#fffbed" fill-opacity="1"><g transform="translate(532.990864, 404.195059)"><g><path d="M 55.578125 -6.765625 C 60.078125 -10.140625 62.890625 -14.503906 64.015625 -19.859375 L 67.1875 -19.859375 C 65.925781 -13.378906 62.828125 -8.238281 57.890625 -4.4375 C 52.960938 -0.632812 46.90625 1.265625 39.71875 1.265625 C 29.863281 1.265625 21.625 -1.972656 15 -8.453125 C 8.519531 -14.785156 5.28125 -23.128906 5.28125 -33.484375 C 5.28125 -43.835938 8.445312 -52.289062 14.78125 -58.84375 C 21.125 -65.394531 28.835938 -68.671875 37.921875 -68.671875 C 47.015625 -68.671875 54.203125 -65.957031 59.484375 -60.53125 C 64.765625 -55.113281 67.472656 -48.316406 67.609375 -40.140625 L 19.65625 -40.140625 L 19.65625 -27.25 C 19.65625 -19.507812 21.34375 -13.3125 24.71875 -8.65625 C 28.382812 -3.875 33.316406 -1.484375 39.515625 -1.484375 C 45.710938 -1.484375 51.066406 -3.242188 55.578125 -6.765625 Z M 38.671875 -65.71875 C 32.890625 -65.71875 28.378906 -63.707031 25.140625 -59.6875 C 21.898438 -55.675781 20.140625 -50.21875 19.859375 -43.3125 L 53.25 -43.3125 C 53.25 -58.25 48.390625 -65.71875 38.671875 -65.71875 Z M 38.671875 -65.71875 "/></g></g></g><g fill="#fffbed" fill-opacity="1"><g transform="translate(605.251127, 404.195059)"><g><path d="M 2.328125 -101.421875 L 2.328125 -104.171875 L 25.140625 -104.171875 L 25.140625 -3.796875 L 34.234375 -2.75 L 34.234375 0 L 2.328125 0 L 2.328125 -2.75 L 12.25 -3.796875 L 12.25 -100.359375 Z M 2.328125 -101.421875 "/></g></g></g><g fill="#fffbed" fill-opacity="1"><g transform="translate(641.803825, 404.195059)"><g><path d="M 49.65625 -48.171875 C 51.90625 -49.722656 53.03125 -52.015625 53.03125 -55.046875 C 53.03125 -58.078125 51.757812 -60.613281 49.21875 -62.65625 C 46.6875 -64.695312 43.3125 -65.71875 39.09375 -65.71875 C 32.894531 -65.71875 28.101562 -63.5 24.71875 -59.0625 C 21.34375 -54.625 19.65625 -48.316406 19.65625 -40.140625 L 19.65625 -27.25 C 19.65625 -19.507812 21.273438 -13.28125 24.515625 -8.5625 C 27.753906 -3.84375 32.472656 -1.484375 38.671875 -1.484375 C 44.867188 -1.484375 50.148438 -3.171875 54.515625 -6.546875 C 58.878906 -9.929688 61.554688 -14.367188 62.546875 -19.859375 L 65.5 -19.859375 C 64.375 -13.378906 61.414062 -8.238281 56.625 -4.4375 C 51.832031 -0.632812 45.988281 1.265625 39.09375 1.265625 C 29.507812 1.265625 21.476562 -1.9375 15 -8.34375 C 8.519531 -14.75 5.28125 -23.269531 5.28125 -33.90625 C 5.28125 -44.539062 8.625 -52.992188 15.3125 -59.265625 C 22.007812 -65.535156 29.546875 -68.671875 37.921875 -68.671875 C 46.304688 -68.671875 53.066406 -66.769531 58.203125 -62.96875 C 63.347656 -59.164062 65.921875 -54.445312 65.921875 -48.8125 C 65.921875 -45.851562 65.179688 -43.632812 63.703125 -42.15625 C 62.222656 -40.675781 60.285156 -39.9375 57.890625 -39.9375 C 55.492188 -39.9375 53.519531 -40.707031 51.96875 -42.25 C 50.425781 -43.800781 49.65625 -45.773438 49.65625 -48.171875 Z M 49.65625 -48.171875 "/></g></g></g><g fill="#fffbed" fill-opacity="1"><g transform="translate(712.373787, 404.195059)"><g><path d="M 58.3125 -27.25 L 58.3125 -40.140625 C 58.3125 -48.035156 56.726562 -54.269531 53.5625 -58.84375 C 50.394531 -63.425781 45.570312 -65.71875 39.09375 -65.71875 C 32.613281 -65.71875 27.753906 -63.425781 24.515625 -58.84375 C 21.273438 -54.269531 19.65625 -48.035156 19.65625 -40.140625 L 19.65625 -27.25 C 19.65625 -19.507812 21.273438 -13.28125 24.515625 -8.5625 C 27.753906 -3.84375 32.613281 -1.484375 39.09375 -1.484375 C 45.570312 -1.484375 50.394531 -3.84375 53.5625 -8.5625 C 56.726562 -13.28125 58.3125 -19.507812 58.3125 -27.25 Z M 15 -8.453125 C 8.519531 -14.929688 5.28125 -23.3125 5.28125 -33.59375 C 5.28125 -43.875 8.445312 -52.289062 14.78125 -58.84375 C 21.125 -65.394531 29.191406 -68.671875 38.984375 -68.671875 C 48.773438 -68.671875 56.835938 -65.394531 63.171875 -58.84375 C 69.515625 -52.289062 72.6875 -43.945312 72.6875 -33.8125 C 72.6875 -23.664062 69.515625 -15.28125 63.171875 -8.65625 C 56.835938 -2.039062 48.878906 1.265625 39.296875 1.265625 C 29.722656 1.265625 21.625 -1.972656 15 -8.453125 Z M 15 -8.453125 "/></g></g></g><g fill="#fffbed" fill-opacity="1"><g transform="translate(790.338818, 404.195059)"><g><path d="M 47.546875 0 L 47.546875 -2.75 L 55.359375 -3.796875 L 55.359375 -49.65625 C 55.359375 -59.226562 51.90625 -64.015625 45 -64.015625 C 38.101562 -64.015625 31.625 -59.648438 25.5625 -50.921875 L 25.5625 -3.796875 L 33.390625 -2.75 L 33.390625 0 L 3.375 0 L 3.375 -2.75 L 12.46875 -3.796875 L 12.46875 -63.59375 L 3.375 -64.875 L 3.375 -67.40625 L 25.5625 -67.40625 L 25.5625 -55.359375 C 32.1875 -64.234375 39.9375 -68.671875 48.8125 -68.671875 C 59.9375 -68.671875 66.414062 -64.019531 68.25 -54.71875 C 75.007812 -64.019531 82.898438 -68.671875 91.921875 -68.671875 C 98.117188 -68.671875 102.941406 -67.117188 106.390625 -64.015625 C 109.835938 -60.921875 111.5625 -56.273438 111.5625 -50.078125 L 111.5625 -3.796875 L 120.65625 -2.75 L 120.65625 0 L 90.859375 0 L 90.859375 -2.75 L 98.46875 -3.796875 L 98.46875 -49.65625 C 98.46875 -59.226562 95.015625 -64.015625 88.109375 -64.015625 C 81.203125 -64.015625 74.722656 -59.648438 68.671875 -50.921875 L 68.671875 -3.796875 L 76.484375 -2.75 L 76.484375 0 Z M 47.546875 0 "/></g></g></g><g fill="#fffbed" fill-opacity="1"><g transform="translate(913.096752, 404.195059)"><g><path d="M 55.578125 -6.765625 C 60.078125 -10.140625 62.890625 -14.503906 64.015625 -19.859375 L 67.1875 -19.859375 C 65.925781 -13.378906 62.828125 -8.238281 57.890625 -4.4375 C 52.960938 -0.632812 46.90625 1.265625 39.71875 1.265625 C 29.863281 1.265625 21.625 -1.972656 15 -8.453125 C 8.519531 -14.785156 5.28125 -23.128906 5.28125 -33.484375 C 5.28125 -43.835938 8.445312 -52.289062 14.78125 -58.84375 C 21.125 -65.394531 28.835938 -68.671875 37.921875 -68.671875 C 47.015625 -68.671875 54.203125 -65.957031 59.484375 -60.53125 C 64.765625 -55.113281 67.472656 -48.316406 67.609375 -40.140625 L 19.65625 -40.140625 L 19.65625 -27.25 C 19.65625 -19.507812 21.34375 -13.3125 24.71875 -8.65625 C 28.382812 -3.875 33.316406 -1.484375 39.515625 -1.484375 C 45.710938 -1.484375 51.066406 -3.242188 55.578125 -6.765625 Z M 38.671875 -65.71875 C 32.890625 -65.71875 28.378906 -63.707031 25.140625 -59.6875 C 21.898438 -55.675781 20.140625 -50.21875 19.859375 -43.3125 L 53.25 -43.3125 C 53.25 -58.25 48.390625 -65.71875 38.671875 -65.71875 Z M 38.671875 -65.71875 "/></g></g></g><g fill="#fffbed" fill-opacity="1"><g transform="translate(985.357015, 404.195059)"><g/></g></g><g fill="#fffbed" fill-opacity="1"><g transform="translate(1016.204945, 404.195059)"><g><path d="M 41.421875 -67.40625 L 41.421875 -64.875 L 24.515625 -63.59375 L 24.515625 -16.90625 C 24.515625 -7.601562 27.820312 -3.023438 34.4375 -3.171875 C 37.394531 -3.171875 40.144531 -4.085938 42.6875 -5.921875 L 44.375 -3.796875 C 40.425781 -0.421875 35.773438 1.265625 30.421875 1.265625 C 17.890625 1.265625 11.625 -4.71875 11.625 -16.6875 L 11.625 -63.59375 L 2.109375 -64.875 L 2.109375 -67.40625 L 11.625 -67.40625 L 11.625 -78.390625 L 24.515625 -81.5625 L 24.515625 -67.40625 Z M 41.421875 -67.40625 "/></g></g></g><g fill="#fffbed" fill-opacity="1"><g transform="translate(1060.997849, 404.195059)"><g><path d="M 58.3125 -27.25 L 58.3125 -40.140625 C 58.3125 -48.035156 56.726562 -54.269531 53.5625 -58.84375 C 50.394531 -63.425781 45.570312 -65.71875 39.09375 -65.71875 C 32.613281 -65.71875 27.753906 -63.425781 24.515625 -58.84375 C 21.273438 -54.269531 19.65625 -48.035156 19.65625 -40.140625 L 19.65625 -27.25 C 19.65625 -19.507812 21.273438 -13.28125 24.515625 -8.5625 C 27.753906 -3.84375 32.613281 -1.484375 39.09375 -1.484375 C 45.570312 -1.484375 50.394531 -3.84375 53.5625 -8.5625 C 56.726562 -13.28125 58.3125 -19.507812 58.3125 -27.25 Z M 15 -8.453125 C 8.519531 -14.929688 5.28125 -23.3125 5.28125 -33.59375 C 5.28125 -43.875 8.445312 -52.289062 14.78125 -58.84375 C 21.125 -65.394531 29.191406 -68.671875 38.984375 -68.671875 C 48.773438 -68.671875 56.835938 -65.394531 63.171875 -58.84375 C 69.515625 -52.289062 72.6875 -43.945312 72.6875 -33.8125 C 72.6875 -23.664062 69.515625 -15.28125 63.171875 -8.65625 C 56.835938 -2.039062 48.878906 1.265625 39.296875 1.265625 C 29.722656 1.265625 21.625 -1.972656 15 -8.453125 Z M 15 -8.453125 "/></g></g></g><g fill="#fffbed" fill-opacity="1"><g transform="translate(1138.96288, 404.195059)"><g/></g></g><g fill="#fffbed" fill-opacity="1"><g transform="translate(1169.810774, 404.195059)"><g><path d="M 47.546875 0 L 47.546875 -2.75 L 55.359375 -3.796875 L 55.359375 -49.65625 C 55.359375 -59.226562 51.90625 -64.015625 45 -64.015625 C 38.101562 -64.015625 31.625 -59.648438 25.5625 -50.921875 L 25.5625 -3.796875 L 33.390625 -2.75 L 33.390625 0 L 3.375 0 L 3.375 -2.75 L 12.46875 -3.796875 L 12.46875 -63.59375 L 3.375 -64.875 L 3.375 -67.40625 L 25.5625 -67.40625 L 25.5625 -55.359375 C 32.1875 -64.234375 39.9375 -68.671875 48.8125 -68.671875 C 59.9375 -68.671875 66.414062 -64.019531 68.25 -54.71875 C 75.007812 -64.019531 82.898438 -68.671875 91.921875 -68.671875 C 98.117188 -68.671875 102.941406 -67.117188 106.390625 -64.015625 C 109.835938 -60.921875 111.5625 -56.273438 111.5625 -50.078125 L 111.5625 -3.796875 L 120.65625 -2.75 L 120.65625 0 L 90.859375 0 L 90.859375 -2.75 L 98.46875 -3.796875 L 98.46875 -49.65625 C 98.46875 -59.226562 95.015625 -64.015625 88.109375 -64.015625 C 81.203125 -64.015625 74.722656 -59.648438 68.671875 -50.921875 L 68.671875 -3.796875 L 76.484375 -2.75 L 76.484375 0 Z M 47.546875 0 "/></g></g></g><g fill="#fffbed" fill-opacity="1"><g transform="translate(1292.568709, 404.195059)"><g><path d="M 71.421875 -67.1875 L 71.421875 -64.875 L 62.546875 -61.484375 L 33.1875 23.453125 C 31.488281 28.523438 29.335938 32.222656 26.734375 34.546875 C 24.128906 36.867188 20.5 38.03125 15.84375 38.03125 C 11.195312 38.03125 7.5 36.898438 4.75 34.640625 C 2.007812 32.390625 0.640625 29.644531 0.640625 26.40625 C 0.640625 23.164062 1.414062 20.769531 2.96875 19.21875 C 4.519531 17.675781 6.738281 16.90625 9.625 16.90625 C 12.507812 16.90625 14.65625 18.3125 16.0625 21.125 C 14.800781 22.820312 14.171875 24.617188 14.171875 26.515625 C 14.171875 28.421875 14.734375 29.9375 15.859375 31.0625 C 16.984375 32.1875 18.390625 32.75 20.078125 32.75 C 24.160156 32.75 27.332031 29.648438 29.59375 23.453125 L 37.40625 0.84375 L 7.1875 -63.390625 L -1.46875 -64.875 L -1.46875 -67.1875 L 30.859375 -67.1875 L 30.859375 -64.875 L 21.765625 -63.171875 L 43.53125 -16.6875 L 59.171875 -61.484375 L 47.765625 -64.875 L 47.765625 -67.1875 Z M 71.421875 -67.1875 "/></g></g></g><g fill="#fffbed" fill-opacity="1"><g transform="translate(662.514308, 583.20817)"><g><path d="M 24.71875 -67.40625 L 24.71875 -53.671875 C 29.226562 -63.671875 36.378906 -68.671875 46.171875 -68.671875 C 55.960938 -68.671875 63.671875 -65.460938 69.296875 -59.046875 C 74.929688 -52.640625 77.75 -44.15625 77.75 -33.59375 C 77.75 -23.03125 74.929688 -14.578125 69.296875 -8.234375 C 63.671875 -1.898438 55.992188 1.265625 46.265625 1.265625 C 36.546875 1.265625 29.363281 -3.660156 24.71875 -13.515625 L 24.71875 32.96875 L 36.984375 34.234375 L 36.984375 36.984375 L 2.75 36.984375 L 2.75 34.234375 L 11.625 32.96875 L 11.625 -63.59375 L 2.75 -64.875 L 2.75 -67.40625 Z M 63.59375 -27.046875 L 63.59375 -40.140625 C 63.59375 -56.910156 57.535156 -65.363281 45.421875 -65.5 C 39.648438 -65.5 34.789062 -63.101562 30.84375 -58.3125 C 26.90625 -53.53125 24.863281 -47.753906 24.71875 -40.984375 L 24.71875 -27.046875 C 24.71875 -20.140625 26.6875 -14.222656 30.625 -9.296875 C 34.570312 -4.367188 39.503906 -1.90625 45.421875 -1.90625 C 57.535156 -1.90625 63.59375 -10.285156 63.59375 -27.046875 Z M 63.59375 -27.046875 "/></g></g></g><g fill="#fffbed" fill-opacity="1"><g transform="translate(745.761522, 583.20817)"><g><path d="M 58.3125 -27.25 L 58.3125 -40.140625 C 58.3125 -48.035156 56.726562 -54.269531 53.5625 -58.84375 C 50.394531 -63.425781 45.570312 -65.71875 39.09375 -65.71875 C 32.613281 -65.71875 27.753906 -63.425781 24.515625 -58.84375 C 21.273438 -54.269531 19.65625 -48.035156 19.65625 -40.140625 L 19.65625 -27.25 C 19.65625 -19.507812 21.273438 -13.28125 24.515625 -8.5625 C 27.753906 -3.84375 32.613281 -1.484375 39.09375 -1.484375 C 45.570312 -1.484375 50.394531 -3.84375 53.5625 -8.5625 C 56.726562 -13.28125 58.3125 -19.507812 58.3125 -27.25 Z M 15 -8.453125 C 8.519531 -14.929688 5.28125 -23.3125 5.28125 -33.59375 C 5.28125 -43.875 8.445312 -52.289062 14.78125 -58.84375 C 21.125 -65.394531 29.191406 -68.671875 38.984375 -68.671875 C 48.773438 -68.671875 56.835938 -65.394531 63.171875 -58.84375 C 69.515625 -52.289062 72.6875 -43.945312 72.6875 -33.8125 C 72.6875 -23.664062 69.515625 -15.28125 63.171875 -8.65625 C 56.835938 -2.039062 48.878906 1.265625 39.296875 1.265625 C 29.722656 1.265625 21.625 -1.972656 15 -8.453125 Z M 15 -8.453125 "/></g></g></g><g fill="#fffbed" fill-opacity="1"><g transform="translate(823.726553, 583.20817)"><g><path d="M 3.375 0 L 3.375 -2.75 L 12.46875 -3.796875 L 12.46875 -63.59375 L 3.375 -64.875 L 3.375 -67.40625 L 25.5625 -67.40625 L 25.5625 -57.46875 C 31.0625 -64.9375 37.257812 -68.671875 44.15625 -68.671875 C 47.394531 -68.671875 50.28125 -67.820312 52.8125 -66.125 C 55.351562 -64.4375 56.625 -62.21875 56.625 -59.46875 C 56.625 -56.726562 55.847656 -54.617188 54.296875 -53.140625 C 52.753906 -51.660156 50.675781 -50.921875 48.0625 -50.921875 C 45.457031 -50.921875 43.382812 -51.976562 41.84375 -54.09375 C 42.820312 -55.363281 43.273438 -56.703125 43.203125 -58.109375 C 43.140625 -59.515625 42.613281 -60.707031 41.625 -61.6875 C 40.632812 -62.675781 39.296875 -63.171875 37.609375 -63.171875 C 34.234375 -63.171875 30.21875 -59.648438 25.5625 -52.609375 L 25.5625 -3.796875 L 35.921875 -2.75 L 35.921875 0 Z M 3.375 0 "/></g></g></g><g fill="#fffbed" fill-opacity="1"><g transform="translate(880.774127, 583.20817)"><g><path d="M 41.421875 -67.40625 L 41.421875 -64.875 L 24.515625 -63.59375 L 24.515625 -16.90625 C 24.515625 -7.601562 27.820312 -3.023438 34.4375 -3.171875 C 37.394531 -3.171875 40.144531 -4.085938 42.6875 -5.921875 L 44.375 -3.796875 C 40.425781 -0.421875 35.773438 1.265625 30.421875 1.265625 C 17.890625 1.265625 11.625 -4.71875 11.625 -16.6875 L 11.625 -63.59375 L 2.109375 -64.875 L 2.109375 -67.40625 L 11.625 -67.40625 L 11.625 -78.390625 L 24.515625 -81.5625 L 24.515625 -67.40625 Z M 41.421875 -67.40625 "/></g></g></g><g fill="#fffbed" fill-opacity="1"><g transform="translate(925.567031, 583.20817)"><g><path d="M 3.375 0 L 3.375 -2.75 L 12.46875 -3.796875 L 12.46875 -63.59375 L 3.375 -64.875 L 3.375 -67.40625 L 12.46875 -67.40625 L 12.46875 -78.390625 C 12.46875 -96.421875 19.929688 -105.4375 34.859375 -105.4375 C 39.929688 -105.4375 44.15625 -104.203125 47.53125 -101.734375 C 50.914062 -99.273438 52.609375 -95.929688 52.609375 -91.703125 C 52.609375 -89.171875 51.867188 -87.054688 50.390625 -85.359375 C 48.910156 -83.671875 47.046875 -82.828125 44.796875 -82.828125 C 42.546875 -82.828125 40.570312 -83.671875 38.875 -85.359375 C 37.1875 -87.054688 36.34375 -88.957031 36.34375 -91.0625 C 39.4375 -91.914062 40.984375 -93.960938 40.984375 -97.203125 C 40.984375 -98.609375 40.382812 -99.875 39.1875 -101 C 38 -102.125 36.554688 -102.6875 34.859375 -102.6875 C 31.484375 -102.6875 29.085938 -101.101562 27.671875 -97.9375 C 26.265625 -94.769531 25.5625 -89.59375 25.5625 -82.40625 L 25.5625 -67.40625 L 42.46875 -67.40625 L 42.46875 -64.875 L 25.5625 -63.59375 L 25.5625 -3.796875 L 40.984375 -2.75 L 40.984375 0 Z M 3.375 0 "/></g></g></g><g fill="#fffbed" fill-opacity="1"><g transform="translate(969.937349, 583.20817)"><g><path d="M 58.3125 -27.25 L 58.3125 -40.140625 C 58.3125 -48.035156 56.726562 -54.269531 53.5625 -58.84375 C 50.394531 -63.425781 45.570312 -65.71875 39.09375 -65.71875 C 32.613281 -65.71875 27.753906 -63.425781 24.515625 -58.84375 C 21.273438 -54.269531 19.65625 -48.035156 19.65625 -40.140625 L 19.65625 -27.25 C 19.65625 -19.507812 21.273438 -13.28125 24.515625 -8.5625 C 27.753906 -3.84375 32.613281 -1.484375 39.09375 -1.484375 C 45.570312 -1.484375 50.394531 -3.84375 53.5625 -8.5625 C 56.726562 -13.28125 58.3125 -19.507812 58.3125 -27.25 Z M 15 -8.453125 C 8.519531 -14.929688 5.28125 -23.3125 5.28125 -33.59375 C 5.28125 -43.875 8.445312 -52.289062 14.78125 -58.84375 C 21.125 -65.394531 29.191406 -68.671875 38.984375 -68.671875 C 48.773438 -68.671875 56.835938 -65.394531 63.171875 -58.84375 C 69.515625 -52.289062 72.6875 -43.945312 72.6875 -33.8125 C 72.6875 -23.664062 69.515625 -15.28125 63.171875 -8.65625 C 56.835938 -2.039062 48.878906 1.265625 39.296875 1.265625 C 29.722656 1.265625 21.625 -1.972656 15 -8.453125 Z M 15 -8.453125 "/></g></g></g><g fill="#fffbed" fill-opacity="1"><g transform="translate(1047.90238, 583.20817)"><g><path d="M 2.328125 -101.421875 L 2.328125 -104.171875 L 25.140625 -104.171875 L 25.140625 -3.796875 L 34.234375 -2.75 L 34.234375 0 L 2.328125 0 L 2.328125 -2.75 L 12.25 -3.796875 L 12.25 -100.359375 Z M 2.328125 -101.421875 "/></g></g></g><g fill="#fffbed" fill-opacity="1"><g transform="translate(1084.455078, 583.20817)"><g><path d="M 8.453125 -91.375 C 8.453125 -93.84375 9.296875 -95.851562 10.984375 -97.40625 C 12.671875 -98.957031 14.75 -99.734375 17.21875 -99.734375 C 19.6875 -99.734375 21.726562 -98.957031 23.34375 -97.40625 C 24.96875 -95.851562 25.78125 -93.84375 25.78125 -91.375 C 25.78125 -88.914062 24.96875 -86.84375 23.34375 -85.15625 C 21.726562 -83.46875 19.722656 -82.625 17.328125 -82.625 C 14.929688 -82.625 12.851562 -83.46875 11.09375 -85.15625 C 9.332031 -86.84375 8.453125 -88.914062 8.453125 -91.375 Z M 3.59375 -64.875 L 3.59375 -67.1875 L 25.78125 -67.1875 L 25.78125 -3.796875 L 34.65625 -2.75 L 34.65625 0 L 3.59375 0 L 3.59375 -2.75 L 12.671875 -3.796875 L 12.671875 -63.390625 Z M 3.59375 -64.875 "/></g></g></g><g fill="#fffbed" fill-opacity="1"><g transform="translate(1121.641636, 583.20817)"><g><path d="M 58.3125 -27.25 L 58.3125 -40.140625 C 58.3125 -48.035156 56.726562 -54.269531 53.5625 -58.84375 C 50.394531 -63.425781 45.570312 -65.71875 39.09375 -65.71875 C 32.613281 -65.71875 27.753906 -63.425781 24.515625 -58.84375 C 21.273438 -54.269531 19.65625 -48.035156 19.65625 -40.140625 L 19.65625 -27.25 C 19.65625 -19.507812 21.273438 -13.28125 24.515625 -8.5625 C 27.753906 -3.84375 32.613281 -1.484375 39.09375 -1.484375 C 45.570312 -1.484375 50.394531 -3.84375 53.5625 -8.5625 C 56.726562 -13.28125 58.3125 -19.507812 58.3125 -27.25 Z M 15 -8.453125 C 8.519531 -14.929688 5.28125 -23.3125 5.28125 -33.59375 C 5.28125 -43.875 8.445312 -52.289062 14.78125 -58.84375 C 21.125 -65.394531 29.191406 -68.671875 38.984375 -68.671875 C 48.773438 -68.671875 56.835938 -65.394531 63.171875 -58.84375 C 69.515625 -52.289062 72.6875 -43.945312 72.6875 -33.8125 C 72.6875 -23.664062 69.515625 -15.28125 63.171875 -8.65625 C 56.835938 -2.039062 48.878906 1.265625 39.296875 1.265625 C 29.722656 1.265625 21.625 -1.972656 15 -8.453125 Z M 15 -8.453125 "/></g></g></g><g fill="#fffbed" fill-opacity="1"><g transform="translate(1199.606667, 583.20817)"><g><path d="M 22.078125 -1.046875 C 20.597656 0.492188 18.765625 1.265625 16.578125 1.265625 C 14.398438 1.265625 12.601562 0.492188 11.1875 -1.046875 C 9.78125 -2.597656 9.078125 -4.429688 9.078125 -6.546875 C 9.078125 -8.660156 9.78125 -10.421875 11.1875 -11.828125 C 12.601562 -13.242188 14.398438 -13.953125 16.578125 -13.953125 C 18.765625 -13.953125 20.597656 -13.242188 22.078125 -11.828125 C 23.554688 -10.421875 24.296875 -8.660156 24.296875 -6.546875 C 24.296875 -4.429688 23.554688 -2.597656 22.078125 -1.046875 Z M 18.171875 -21.546875 L 15 -21.546875 C 14.863281 -33.941406 13.914062 -48.800781 12.15625 -66.125 C 10.394531 -83.457031 9.515625 -93.566406 9.515625 -96.453125 C 9.515625 -99.347656 10.144531 -101.566406 11.40625 -103.109375 C 12.675781 -104.660156 14.398438 -105.4375 16.578125 -105.4375 C 18.765625 -105.4375 20.523438 -104.660156 21.859375 -103.109375 C 23.203125 -101.566406 23.875 -99.316406 23.875 -96.359375 C 23.875 -93.398438 22.992188 -83.289062 21.234375 -66.03125 C 19.472656 -48.769531 18.453125 -33.941406 18.171875 -21.546875 Z M 18.171875 -21.546875 "/></g></g></g><g fill="#9ea93f" fill-opacity="1"><g transform="translate(79.281059, 487.643511)"><g><path d="M 170.21875 9 L 53.59375 -263.890625 C 50.582031 -271.097656 47.273438 -276.878906 43.671875 -281.234375 C 40.078125 -285.585938 35.648438 -289.414062 30.390625 -292.71875 C 25.140625 -296.019531 17.257812 -298.71875 6.75 -300.8125 L 0 -302.171875 L 0 -310.28125 L 198.140625 -310.28125 L 198.140625 -302.171875 L 181.484375 -299.015625 C 173.378906 -297.515625 166.773438 -295.5625 161.671875 -293.15625 C 156.566406 -290.757812 153.113281 -287.984375 151.3125 -284.828125 C 149.507812 -281.679688 148.609375 -278.753906 148.609375 -276.046875 C 148.609375 -270.640625 150.5625 -263.285156 154.46875 -253.984375 L 217.953125 -105.375 L 314.78125 -310.28125 L 321.53125 -310.28125 L 418.359375 -109.4375 L 462.03125 -221.109375 C 468.039062 -235.816406 471.046875 -247.078125 471.046875 -254.890625 C 471.046875 -265.691406 467.515625 -274.992188 460.453125 -282.796875 C 453.398438 -290.609375 443.421875 -296.015625 430.515625 -299.015625 L 417.453125 -302.171875 L 417.453125 -310.28125 L 549.828125 -310.28125 L 549.828125 -302.171875 L 540.375 -299.015625 C 525.96875 -294.210938 513.738281 -286.109375 503.6875 -274.703125 C 493.632812 -263.296875 484.554688 -247.382812 476.453125 -226.96875 L 383.671875 9 L 377.375 9 L 276.046875 -201.296875 L 176.53125 9 Z M 174.28125 -11.265625 L 211.65625 -90.515625 L 144.109375 -249.484375 C 139.597656 -259.992188 137.34375 -268.097656 137.34375 -273.796875 C 137.34375 -278.898438 138.617188 -283.628906 141.171875 -287.984375 C 143.722656 -292.335938 147.101562 -296.015625 151.3125 -299.015625 L 151.3125 -299.46875 L 39.171875 -299.46875 L 39.171875 -299.015625 C 50.285156 -292.109375 59.445312 -279.953125 66.65625 -262.546875 Z M 480.5 -256.234375 L 480.953125 -256.234375 C 486.054688 -266.441406 491.679688 -274.847656 497.828125 -281.453125 C 503.984375 -288.054688 510.660156 -293.910156 517.859375 -299.015625 L 517.859375 -299.46875 L 455.734375 -299.46875 L 455.734375 -299.015625 C 472.242188 -288.503906 480.5 -274.242188 480.5 -256.234375 Z M 379.625 -10.8125 L 412.953125 -95.46875 L 317.9375 -292.265625 L 281.90625 -214.8125 Z M 178.328125 -73.40625 C 175.929688 -73.40625 173.832031 -74.304688 172.03125 -76.109375 C 170.226562 -77.910156 169.328125 -80.007812 169.328125 -82.40625 C 169.328125 -83.90625 169.925781 -85.859375 171.125 -88.265625 L 161.21875 -111.6875 C 157.914062 -96.96875 153.5625 -89.609375 148.15625 -89.609375 C 146.351562 -89.609375 144.851562 -90.285156 143.65625 -91.640625 C 142.457031 -92.992188 141.859375 -94.570312 141.859375 -96.375 C 141.859375 -98.46875 142.609375 -100.863281 144.109375 -103.5625 C 145.609375 -106.269531 150.257812 -111.53125 158.0625 -119.34375 L 150.859375 -136 C 148.753906 -127.894531 146.726562 -122.039062 144.78125 -118.4375 C 142.832031 -114.832031 140.503906 -113.03125 137.796875 -113.03125 C 135.992188 -113.03125 134.414062 -113.703125 133.0625 -115.046875 C 131.71875 -116.398438 131.046875 -117.976562 131.046875 -119.78125 C 131.046875 -121.582031 131.945312 -123.984375 133.75 -126.984375 C 135.550781 -129.992188 140.203125 -135.398438 147.703125 -143.203125 L 145.453125 -148.15625 L 143.203125 -148.15625 C 138.398438 -148.15625 134.195312 -149.957031 130.59375 -153.5625 C 126.988281 -157.164062 125.1875 -161.367188 125.1875 -166.171875 C 125.1875 -168.578125 125.863281 -171.128906 127.21875 -173.828125 C 128.570312 -176.523438 130.148438 -178.625 131.953125 -180.125 L 130.140625 -184.1875 C 109.429688 -183.28125 99.078125 -186.28125 99.078125 -193.1875 C 99.078125 -194.988281 99.828125 -196.566406 101.328125 -197.921875 C 102.828125 -199.273438 104.628906 -199.953125 106.734375 -199.953125 C 107.929688 -199.953125 109.65625 -199.648438 111.90625 -199.046875 C 114.15625 -198.441406 119.1875 -196.039062 127 -191.84375 L 119.34375 -208.5 C 108.226562 -208.5 100.34375 -209.175781 95.6875 -210.53125 C 91.039062 -211.882812 88.71875 -214.210938 88.71875 -217.515625 C 88.71875 -219.304688 89.390625 -220.878906 90.734375 -222.234375 C 92.085938 -223.585938 93.664062 -224.265625 95.46875 -224.265625 C 99.96875 -224.265625 107.023438 -221.410156 116.640625 -215.703125 L 108.984375 -232.8125 L 105.375 -232.8125 C 96.070312 -232.8125 89.242188 -233.5625 84.890625 -235.0625 C 80.535156 -236.570312 78.359375 -238.976562 78.359375 -242.28125 C 78.359375 -243.78125 79.03125 -245.054688 80.375 -246.109375 C 81.726562 -247.160156 83.304688 -247.6875 85.109375 -247.6875 C 89.609375 -247.6875 96.664062 -244.832031 106.28125 -239.125 L 96.828125 -260.734375 C 95.023438 -261.035156 93.367188 -262.085938 91.859375 -263.890625 C 90.359375 -265.691406 89.609375 -267.644531 89.609375 -269.75 C 89.609375 -272.144531 90.507812 -274.242188 92.3125 -276.046875 C 94.113281 -277.847656 96.21875 -278.75 98.625 -278.75 C 101.019531 -278.75 103.117188 -277.847656 104.921875 -276.046875 C 106.722656 -274.242188 107.625 -272.144531 107.625 -269.75 C 107.625 -267.945312 107.023438 -266.144531 105.828125 -264.34375 L 115.28125 -242.28125 C 117.082031 -250.6875 118.957031 -256.6875 120.90625 -260.28125 C 122.863281 -263.882812 125.191406 -265.6875 127.890625 -265.6875 C 129.992188 -265.6875 131.71875 -265.007812 133.0625 -263.65625 C 134.414062 -262.3125 135.09375 -260.738281 135.09375 -258.9375 C 135.09375 -253.832031 129.390625 -246.023438 117.984375 -235.515625 L 125.640625 -217.953125 C 127.742188 -226.660156 129.695312 -232.816406 131.5 -236.421875 C 133.300781 -240.023438 135.550781 -241.828125 138.25 -241.828125 C 140.351562 -241.828125 142.003906 -241.148438 143.203125 -239.796875 C 144.398438 -238.441406 145 -236.867188 145 -235.078125 C 145 -229.367188 139.445312 -221.410156 128.34375 -211.203125 L 135.546875 -194.09375 C 137.347656 -201.300781 139.445312 -206.929688 141.84375 -210.984375 C 144.25 -215.035156 146.804688 -217.0625 149.515625 -217.0625 C 151.304688 -217.0625 152.726562 -216.457031 153.78125 -215.25 C 154.832031 -214.050781 155.359375 -212.550781 155.359375 -210.75 C 155.359375 -206.25 149.804688 -198.296875 138.703125 -186.890625 L 140.046875 -183.734375 L 143.203125 -184.1875 C 148.003906 -184.1875 152.207031 -182.382812 155.8125 -178.78125 C 159.414062 -175.175781 161.21875 -170.972656 161.21875 -166.171875 C 161.21875 -163.472656 160.539062 -160.769531 159.1875 -158.0625 C 157.84375 -155.363281 156.117188 -153.265625 154.015625 -151.765625 L 155.8125 -147.25 C 166.625 -147.550781 174.582031 -146.953125 179.6875 -145.453125 C 184.789062 -143.953125 187.34375 -141.703125 187.34375 -138.703125 C 187.34375 -136.898438 186.585938 -135.320312 185.078125 -133.96875 C 183.578125 -132.625 181.78125 -131.953125 179.6875 -131.953125 C 174.875 -131.953125 167.816406 -134.953125 158.515625 -140.953125 L 166.171875 -122.9375 C 175.773438 -123.238281 183.351562 -122.863281 188.90625 -121.8125 C 194.46875 -120.757812 197.25 -118.285156 197.25 -114.390625 C 197.25 -112.585938 196.570312 -111.007812 195.21875 -109.65625 C 193.863281 -108.300781 192.132812 -107.625 190.03125 -107.625 C 187.332031 -107.625 184.332031 -108.445312 181.03125 -110.09375 C 177.726562 -111.75 173.675781 -113.929688 168.875 -116.640625 L 179.6875 -91.421875 C 181.78125 -91.117188 183.578125 -90.066406 185.078125 -88.265625 C 186.585938 -86.460938 187.34375 -84.507812 187.34375 -82.40625 C 187.34375 -80.007812 186.441406 -77.910156 184.640625 -76.109375 C 182.835938 -74.304688 180.734375 -73.40625 178.328125 -73.40625 Z M 380.53125 -75.65625 C 378.125 -75.65625 376.019531 -76.554688 374.21875 -78.359375 C 372.414062 -80.160156 371.515625 -82.257812 371.515625 -84.65625 C 371.515625 -86.757812 371.96875 -88.410156 372.875 -89.609375 L 362.0625 -113.03125 C 360.863281 -104.625 359.285156 -98.691406 357.328125 -95.234375 C 355.378906 -91.785156 352.90625 -90.0625 349.90625 -90.0625 C 348.101562 -90.0625 346.597656 -90.8125 345.390625 -92.3125 C 344.191406 -93.8125 343.59375 -95.460938 343.59375 -97.265625 C 343.59375 -101.472656 348.550781 -109.128906 358.46875 -120.234375 L 350.8125 -136.90625 C 349.601562 -128.195312 348.023438 -122.039062 346.078125 -118.4375 C 344.128906 -114.832031 341.648438 -113.03125 338.640625 -113.03125 C 336.835938 -113.03125 335.335938 -113.703125 334.140625 -115.046875 C 332.941406 -116.398438 332.34375 -118.128906 332.34375 -120.234375 C 332.34375 -122.035156 333.164062 -124.507812 334.8125 -127.65625 C 336.46875 -130.8125 340.75 -136.144531 347.65625 -143.65625 L 345.40625 -148.15625 L 342.703125 -148.15625 C 337.898438 -148.15625 333.695312 -149.957031 330.09375 -153.5625 C 326.488281 -157.164062 324.6875 -161.367188 324.6875 -166.171875 C 324.6875 -167.066406 324.984375 -168.863281 325.578125 -171.5625 C 326.179688 -174.269531 327.835938 -176.828125 330.546875 -179.234375 L 328.296875 -184.1875 C 325.890625 -183.882812 321.832031 -183.734375 316.125 -183.734375 C 303.820312 -183.734375 297.671875 -186.882812 297.671875 -193.1875 C 297.671875 -194.6875 298.421875 -195.960938 299.921875 -197.015625 C 301.421875 -198.066406 303.367188 -198.59375 305.765625 -198.59375 C 309.972656 -198.59375 316.28125 -196.191406 324.6875 -191.390625 L 313.875 -213.90625 C 312.070312 -214.207031 310.34375 -215.257812 308.6875 -217.0625 C 307.039062 -218.863281 306.21875 -220.8125 306.21875 -222.90625 C 306.21875 -225.3125 307.117188 -227.414062 308.921875 -229.21875 C 310.722656 -231.019531 312.828125 -231.921875 315.234375 -231.921875 C 317.628906 -231.921875 319.726562 -231.019531 321.53125 -229.21875 C 323.332031 -227.414062 324.234375 -225.3125 324.234375 -222.90625 C 324.234375 -221.101562 323.785156 -219.453125 322.890625 -217.953125 L 333.6875 -194.984375 C 335.789062 -210.003906 339.992188 -217.515625 346.296875 -217.515625 C 348.097656 -217.515625 349.523438 -216.910156 350.578125 -215.703125 C 351.628906 -214.503906 352.15625 -213.003906 352.15625 -211.203125 C 352.15625 -208.796875 351.03125 -205.867188 348.78125 -202.421875 C 346.53125 -198.972656 342.550781 -193.945312 336.84375 -187.34375 L 338.640625 -183.734375 L 342.703125 -184.1875 C 347.503906 -184.1875 351.707031 -182.382812 355.3125 -178.78125 C 358.914062 -175.175781 360.71875 -170.972656 360.71875 -166.171875 C 360.71875 -160.460938 358.3125 -155.660156 353.5 -151.765625 L 355.3125 -147.703125 L 369.265625 -148.609375 C 371.367188 -148.609375 374.296875 -148.304688 378.046875 -147.703125 C 381.796875 -147.109375 384.269531 -146.132812 385.46875 -144.78125 C 386.675781 -143.425781 387.28125 -142.148438 387.28125 -140.953125 C 387.28125 -139.148438 386.675781 -137.5 385.46875 -136 C 384.269531 -134.5 382.171875 -133.75 379.171875 -133.75 C 374.367188 -133.75 367.46875 -136.453125 358.46875 -141.859375 L 366.5625 -124.296875 L 377.828125 -124.734375 C 391.335938 -124.734375 398.09375 -122.035156 398.09375 -116.640625 C 398.09375 -114.835938 397.414062 -113.1875 396.0625 -111.6875 C 394.707031 -110.1875 392.984375 -109.4375 390.890625 -109.4375 C 386.679688 -109.4375 379.625 -112.285156 369.71875 -117.984375 L 380.984375 -93.671875 C 383.378906 -93.367188 385.398438 -92.390625 387.046875 -90.734375 C 388.703125 -89.085938 389.53125 -87.0625 389.53125 -84.65625 C 389.53125 -82.257812 388.628906 -80.160156 386.828125 -78.359375 C 385.023438 -76.554688 382.925781 -75.65625 380.53125 -75.65625 Z M 358.46875 -183.734375 C 356.957031 -183.734375 355.675781 -184.257812 354.625 -185.3125 C 353.582031 -186.363281 353.0625 -187.640625 353.0625 -189.140625 C 353.0625 -190.640625 353.582031 -191.914062 354.625 -192.96875 C 355.675781 -194.019531 356.957031 -194.546875 358.46875 -194.546875 C 359.96875 -194.546875 361.238281 -194.019531 362.28125 -192.96875 C 363.332031 -191.914062 363.859375 -190.640625 363.859375 -189.140625 C 363.859375 -187.640625 363.332031 -186.363281 362.28125 -185.3125 C 361.238281 -184.257812 359.96875 -183.734375 358.46875 -183.734375 Z M 160.765625 -183.28125 C 159.265625 -183.28125 157.988281 -183.804688 156.9375 -184.859375 C 155.882812 -185.910156 155.359375 -187.1875 155.359375 -188.6875 C 155.359375 -190.1875 155.882812 -191.460938 156.9375 -192.515625 C 157.988281 -193.566406 159.265625 -194.09375 160.765625 -194.09375 C 162.265625 -194.09375 163.539062 -193.566406 164.59375 -192.515625 C 165.644531 -191.460938 166.171875 -190.1875 166.171875 -188.6875 C 166.171875 -187.1875 165.644531 -185.910156 164.59375 -184.859375 C 163.539062 -183.804688 162.265625 -183.28125 160.765625 -183.28125 Z M 115.734375 -163.921875 C 114.234375 -163.921875 112.957031 -164.445312 111.90625 -165.5 C 110.851562 -166.550781 110.328125 -167.828125 110.328125 -169.328125 C 110.328125 -170.828125 110.851562 -172.101562 111.90625 -173.15625 C 112.957031 -174.207031 114.234375 -174.734375 115.734375 -174.734375 C 117.234375 -174.734375 118.507812 -174.207031 119.5625 -173.15625 C 120.613281 -172.101562 121.140625 -170.828125 121.140625 -169.328125 C 121.140625 -167.828125 120.613281 -166.550781 119.5625 -165.5 C 118.507812 -164.445312 117.234375 -163.921875 115.734375 -163.921875 Z M 314.328125 -163.46875 C 312.828125 -163.46875 311.550781 -163.992188 310.5 -165.046875 C 309.445312 -166.097656 308.921875 -167.375 308.921875 -168.875 C 308.921875 -170.375 309.445312 -171.648438 310.5 -172.703125 C 311.550781 -173.753906 312.828125 -174.28125 314.328125 -174.28125 C 315.828125 -174.28125 317.101562 -173.753906 318.15625 -172.703125 C 319.207031 -171.648438 319.734375 -170.375 319.734375 -168.875 C 319.734375 -167.375 319.207031 -166.097656 318.15625 -165.046875 C 317.101562 -163.992188 315.828125 -163.46875 314.328125 -163.46875 Z M 370.625 -158.515625 C 369.125 -158.515625 367.847656 -159.039062 366.796875 -160.09375 C 365.742188 -161.144531 365.21875 -162.421875 365.21875 -163.921875 C 365.21875 -165.421875 365.742188 -166.695312 366.796875 -167.75 C 367.847656 -168.800781 369.125 -169.328125 370.625 -169.328125 C 372.125 -169.328125 373.398438 -168.800781 374.453125 -167.75 C 375.503906 -166.695312 376.03125 -165.421875 376.03125 -163.921875 C 376.03125 -162.421875 375.503906 -161.144531 374.453125 -160.09375 C 373.398438 -159.039062 372.125 -158.515625 370.625 -158.515625 Z M 171.578125 -157.171875 C 170.078125 -157.171875 168.800781 -157.691406 167.75 -158.734375 C 166.695312 -159.785156 166.171875 -161.0625 166.171875 -162.5625 C 166.171875 -164.0625 166.695312 -165.335938 167.75 -166.390625 C 168.800781 -167.441406 170.078125 -167.96875 171.578125 -167.96875 C 173.078125 -167.96875 174.351562 -167.441406 175.40625 -166.390625 C 176.457031 -165.335938 176.984375 -164.0625 176.984375 -162.5625 C 176.984375 -161.0625 176.457031 -159.785156 175.40625 -158.734375 C 174.351562 -157.691406 173.078125 -157.171875 171.578125 -157.171875 Z M 126.546875 -137.796875 C 125.046875 -137.796875 123.769531 -138.320312 122.71875 -139.375 C 121.664062 -140.425781 121.140625 -141.703125 121.140625 -143.203125 C 121.140625 -144.703125 121.664062 -145.976562 122.71875 -147.03125 C 123.769531 -148.082031 125.046875 -148.609375 126.546875 -148.609375 C 128.046875 -148.609375 129.320312 -148.082031 130.375 -147.03125 C 131.425781 -145.976562 131.953125 -144.703125 131.953125 -143.203125 C 131.953125 -141.703125 131.425781 -140.425781 130.375 -139.375 C 129.320312 -138.320312 128.046875 -137.796875 126.546875 -137.796875 Z M 326.03125 -137.34375 C 324.53125 -137.34375 323.253906 -137.867188 322.203125 -138.921875 C 321.160156 -139.972656 320.640625 -141.25 320.640625 -142.75 C 320.640625 -144.25 321.160156 -145.523438 322.203125 -146.578125 C 323.253906 -147.628906 324.53125 -148.15625 326.03125 -148.15625 C 327.539062 -148.15625 328.816406 -147.628906 329.859375 -146.578125 C 330.910156 -145.523438 331.4375 -144.25 331.4375 -142.75 C 331.4375 -141.25 330.910156 -139.972656 329.859375 -138.921875 C 328.816406 -137.867188 327.539062 -137.34375 326.03125 -137.34375 Z M 326.03125 -137.34375 "/></g></g></g></svg>