<svg xmlns="http://www.w3.org/2000/svg" xmlns:xlink="http://www.w3.org/1999/xlink" width="1920" zoomAndPan="magnify" viewBox="0 0 1440 809.999993" height="1080" preserveAspectRatio="xMidYMid meet" version="1.0"><defs><g/></defs><g fill="#181f1c" fill-opacity="1"><g transform="translate(532.25279, 402.980688)"><g><path d="M 55.78125 -6.78125 C 60.300781 -10.175781 63.128906 -14.5625 64.265625 -19.9375 L 67.453125 -19.9375 C 66.171875 -13.4375 63.054688 -8.273438 58.109375 -4.453125 C 53.160156 -0.640625 47.082031 1.265625 39.875 1.265625 C 29.976562 1.265625 21.707031 -1.984375 15.0625 -8.484375 C 8.550781 -14.847656 5.296875 -23.222656 5.296875 -33.609375 C 5.296875 -44.003906 8.476562 -52.488281 14.84375 -59.0625 C 21.207031 -65.644531 28.945312 -68.9375 38.0625 -68.9375 C 47.1875 -68.9375 54.398438 -66.210938 59.703125 -60.765625 C 65.003906 -55.316406 67.726562 -48.492188 67.875 -40.296875 L 19.71875 -40.296875 L 19.71875 -27.359375 C 19.71875 -19.585938 21.414062 -13.367188 24.8125 -8.703125 C 28.488281 -3.890625 33.4375 -1.484375 39.65625 -1.484375 C 45.882812 -1.484375 51.257812 -3.25 55.78125 -6.78125 Z M 38.8125 -65.96875 C 33.019531 -65.96875 28.492188 -63.953125 25.234375 -59.921875 C 21.984375 -55.890625 20.21875 -50.410156 19.9375 -43.484375 L 53.453125 -43.484375 C 53.453125 -58.472656 48.570312 -65.96875 38.8125 -65.96875 Z M 38.8125 -65.96875 "/></g></g></g><g fill="#181f1c" fill-opacity="1"><g transform="translate(604.784971, 402.980688)"><g><path d="M 2.328125 -101.8125 L 2.328125 -104.5625 L 25.234375 -104.5625 L 25.234375 -3.8125 L 34.359375 -2.75 L 34.359375 0 L 2.328125 0 L 2.328125 -2.75 L 12.296875 -3.8125 L 12.296875 -100.75 Z M 2.328125 -101.8125 "/></g></g></g><g fill="#181f1c" fill-opacity="1"><g transform="translate(641.475219, 402.980688)"><g><path d="M 49.84375 -48.359375 C 52.101562 -49.910156 53.234375 -52.207031 53.234375 -55.25 C 53.234375 -58.289062 51.957031 -60.835938 49.40625 -62.890625 C 46.863281 -64.941406 43.472656 -65.96875 39.234375 -65.96875 C 33.015625 -65.96875 28.207031 -63.738281 24.8125 -59.28125 C 21.414062 -54.820312 19.71875 -48.492188 19.71875 -40.296875 L 19.71875 -27.359375 C 19.71875 -19.585938 21.34375 -13.332031 24.59375 -8.59375 C 27.851562 -3.851562 32.59375 -1.484375 38.8125 -1.484375 C 45.03125 -1.484375 50.332031 -3.179688 54.71875 -6.578125 C 59.101562 -9.972656 61.789062 -14.425781 62.78125 -19.9375 L 65.75 -19.9375 C 64.613281 -13.4375 61.640625 -8.273438 56.828125 -4.453125 C 52.023438 -0.640625 46.160156 1.265625 39.234375 1.265625 C 29.617188 1.265625 21.554688 -1.945312 15.046875 -8.375 C 8.546875 -14.8125 5.296875 -23.367188 5.296875 -34.046875 C 5.296875 -44.722656 8.65625 -53.207031 15.375 -59.5 C 22.09375 -65.789062 29.65625 -68.9375 38.0625 -68.9375 C 46.476562 -68.9375 53.265625 -67.023438 58.421875 -63.203125 C 63.585938 -59.390625 66.171875 -54.65625 66.171875 -49 C 66.171875 -46.03125 65.425781 -43.800781 63.9375 -42.3125 C 62.457031 -40.832031 60.515625 -40.09375 58.109375 -40.09375 C 55.710938 -40.09375 53.734375 -40.867188 52.171875 -42.421875 C 50.617188 -43.972656 49.84375 -45.953125 49.84375 -48.359375 Z M 49.84375 -48.359375 "/></g></g></g><g fill="#181f1c" fill-opacity="1"><g transform="translate(712.310738, 402.980688)"><g><path d="M 58.546875 -27.359375 L 58.546875 -40.296875 C 58.546875 -48.210938 56.953125 -54.46875 53.765625 -59.0625 C 50.585938 -63.664062 45.742188 -65.96875 39.234375 -65.96875 C 32.734375 -65.96875 27.851562 -63.664062 24.59375 -59.0625 C 21.34375 -54.46875 19.71875 -48.210938 19.71875 -40.296875 L 19.71875 -27.359375 C 19.71875 -19.585938 21.34375 -13.332031 24.59375 -8.59375 C 27.851562 -3.851562 32.734375 -1.484375 39.234375 -1.484375 C 45.742188 -1.484375 50.585938 -3.851562 53.765625 -8.59375 C 56.953125 -13.332031 58.546875 -19.585938 58.546875 -27.359375 Z M 15.0625 -8.484375 C 8.550781 -14.984375 5.296875 -23.394531 5.296875 -33.71875 C 5.296875 -44.039062 8.476562 -52.488281 14.84375 -59.0625 C 21.207031 -65.644531 29.300781 -68.9375 39.125 -68.9375 C 48.957031 -68.9375 57.054688 -65.644531 63.421875 -59.0625 C 69.785156 -52.488281 72.96875 -44.113281 72.96875 -33.9375 C 72.96875 -23.757812 69.785156 -15.347656 63.421875 -8.703125 C 57.054688 -2.054688 49.066406 1.265625 39.453125 1.265625 C 29.835938 1.265625 21.707031 -1.984375 15.0625 -8.484375 Z M 15.0625 -8.484375 "/></g></g></g><g fill="#181f1c" fill-opacity="1"><g transform="translate(790.569154, 402.980688)"><g><path d="M 47.71875 0 L 47.71875 -2.75 L 55.5625 -3.8125 L 55.5625 -49.84375 C 55.5625 -59.457031 52.097656 -64.265625 45.171875 -64.265625 C 38.242188 -64.265625 31.738281 -59.878906 25.65625 -51.109375 L 25.65625 -3.8125 L 33.515625 -2.75 L 33.515625 0 L 3.390625 0 L 3.390625 -2.75 L 12.515625 -3.8125 L 12.515625 -63.84375 L 3.390625 -65.109375 L 3.390625 -67.65625 L 25.65625 -67.65625 L 25.65625 -55.5625 C 32.300781 -64.476562 40.082031 -68.9375 49 -68.9375 C 60.164062 -68.9375 66.671875 -64.269531 68.515625 -54.9375 C 75.296875 -64.269531 83.210938 -68.9375 92.265625 -68.9375 C 98.484375 -68.9375 103.320312 -67.378906 106.78125 -64.265625 C 110.25 -61.148438 111.984375 -56.484375 111.984375 -50.265625 L 111.984375 -3.8125 L 121.109375 -2.75 L 121.109375 0 L 91.203125 0 L 91.203125 -2.75 L 98.84375 -3.8125 L 98.84375 -49.84375 C 98.84375 -59.457031 95.375 -64.265625 88.4375 -64.265625 C 81.507812 -64.265625 75.007812 -59.878906 68.9375 -51.109375 L 68.9375 -3.8125 L 76.78125 -2.75 L 76.78125 0 Z M 47.71875 0 "/></g></g></g><g fill="#181f1c" fill-opacity="1"><g transform="translate(913.789033, 402.980688)"><g><path d="M 55.78125 -6.78125 C 60.300781 -10.175781 63.128906 -14.5625 64.265625 -19.9375 L 67.453125 -19.9375 C 66.171875 -13.4375 63.054688 -8.273438 58.109375 -4.453125 C 53.160156 -0.640625 47.082031 1.265625 39.875 1.265625 C 29.976562 1.265625 21.707031 -1.984375 15.0625 -8.484375 C 8.550781 -14.847656 5.296875 -23.222656 5.296875 -33.609375 C 5.296875 -44.003906 8.476562 -52.488281 14.84375 -59.0625 C 21.207031 -65.644531 28.945312 -68.9375 38.0625 -68.9375 C 47.1875 -68.9375 54.398438 -66.210938 59.703125 -60.765625 C 65.003906 -55.316406 67.726562 -48.492188 67.875 -40.296875 L 19.71875 -40.296875 L 19.71875 -27.359375 C 19.71875 -19.585938 21.414062 -13.367188 24.8125 -8.703125 C 28.488281 -3.890625 33.4375 -1.484375 39.65625 -1.484375 C 45.882812 -1.484375 51.257812 -3.25 55.78125 -6.78125 Z M 38.8125 -65.96875 C 33.019531 -65.96875 28.492188 -63.953125 25.234375 -59.921875 C 21.984375 -55.890625 20.21875 -50.410156 19.9375 -43.484375 L 53.453125 -43.484375 C 53.453125 -58.472656 48.570312 -65.96875 38.8125 -65.96875 Z M 38.8125 -65.96875 "/></g></g></g><g fill="#181f1c" fill-opacity="1"><g transform="translate(986.321214, 402.980688)"><g/></g></g><g fill="#181f1c" fill-opacity="1"><g transform="translate(1017.285226, 402.980688)"><g><path d="M 41.578125 -67.65625 L 41.578125 -65.109375 L 24.609375 -63.84375 L 24.609375 -16.96875 C 24.609375 -7.632812 27.929688 -3.039062 34.578125 -3.1875 C 37.546875 -3.1875 40.300781 -4.101562 42.84375 -5.9375 L 44.546875 -3.8125 C 40.585938 -0.425781 35.921875 1.265625 30.546875 1.265625 C 17.960938 1.265625 11.671875 -4.738281 11.671875 -16.75 L 11.671875 -63.84375 L 2.125 -65.109375 L 2.125 -67.65625 L 11.671875 -67.65625 L 11.671875 -78.6875 L 24.609375 -81.875 L 24.609375 -67.65625 Z M 41.578125 -67.65625 "/></g></g></g><g fill="#181f1c" fill-opacity="1"><g transform="translate(1062.246687, 402.980688)"><g><path d="M 58.546875 -27.359375 L 58.546875 -40.296875 C 58.546875 -48.210938 56.953125 -54.46875 53.765625 -59.0625 C 50.585938 -63.664062 45.742188 -65.96875 39.234375 -65.96875 C 32.734375 -65.96875 27.851562 -63.664062 24.59375 -59.0625 C 21.34375 -54.46875 19.71875 -48.210938 19.71875 -40.296875 L 19.71875 -27.359375 C 19.71875 -19.585938 21.34375 -13.332031 24.59375 -8.59375 C 27.851562 -3.851562 32.734375 -1.484375 39.234375 -1.484375 C 45.742188 -1.484375 50.585938 -3.851562 53.765625 -8.59375 C 56.953125 -13.332031 58.546875 -19.585938 58.546875 -27.359375 Z M 15.0625 -8.484375 C 8.550781 -14.984375 5.296875 -23.394531 5.296875 -33.71875 C 5.296875 -44.039062 8.476562 -52.488281 14.84375 -59.0625 C 21.207031 -65.644531 29.300781 -68.9375 39.125 -68.9375 C 48.957031 -68.9375 57.054688 -65.644531 63.421875 -59.0625 C 69.785156 -52.488281 72.96875 -44.113281 72.96875 -33.9375 C 72.96875 -23.757812 69.785156 -15.347656 63.421875 -8.703125 C 57.054688 -2.054688 49.066406 1.265625 39.453125 1.265625 C 29.835938 1.265625 21.707031 -1.984375 15.0625 -8.484375 Z M 15.0625 -8.484375 "/></g></g></g><g fill="#181f1c" fill-opacity="1"><g transform="translate(1140.505104, 402.980688)"><g/></g></g><g fill="#181f1c" fill-opacity="1"><g transform="translate(1171.46908, 402.980688)"><g><path d="M 47.71875 0 L 47.71875 -2.75 L 55.5625 -3.8125 L 55.5625 -49.84375 C 55.5625 -59.457031 52.097656 -64.265625 45.171875 -64.265625 C 38.242188 -64.265625 31.738281 -59.878906 25.65625 -51.109375 L 25.65625 -3.8125 L 33.515625 -2.75 L 33.515625 0 L 3.390625 0 L 3.390625 -2.75 L 12.515625 -3.8125 L 12.515625 -63.84375 L 3.390625 -65.109375 L 3.390625 -67.65625 L 25.65625 -67.65625 L 25.65625 -55.5625 C 32.300781 -64.476562 40.082031 -68.9375 49 -68.9375 C 60.164062 -68.9375 66.671875 -64.269531 68.515625 -54.9375 C 75.296875 -64.269531 83.210938 -68.9375 92.265625 -68.9375 C 98.484375 -68.9375 103.320312 -67.378906 106.78125 -64.265625 C 110.25 -61.148438 111.984375 -56.484375 111.984375 -50.265625 L 111.984375 -3.8125 L 121.109375 -2.75 L 121.109375 0 L 91.203125 0 L 91.203125 -2.75 L 98.84375 -3.8125 L 98.84375 -49.84375 C 98.84375 -59.457031 95.375 -64.265625 88.4375 -64.265625 C 81.507812 -64.265625 75.007812 -59.878906 68.9375 -51.109375 L 68.9375 -3.8125 L 76.78125 -2.75 L 76.78125 0 Z M 47.71875 0 "/></g></g></g><g fill="#181f1c" fill-opacity="1"><g transform="translate(1294.688958, 402.980688)"><g><path d="M 71.703125 -67.453125 L 71.703125 -65.109375 L 62.78125 -61.71875 L 33.3125 23.546875 C 31.613281 28.628906 29.453125 32.335938 26.828125 34.671875 C 24.210938 37.003906 20.570312 38.171875 15.90625 38.171875 C 11.25 38.171875 7.539062 37.039062 4.78125 34.78125 C 2.019531 32.519531 0.640625 29.765625 0.640625 26.515625 C 0.640625 23.265625 1.414062 20.859375 2.96875 19.296875 C 4.53125 17.742188 6.757812 16.96875 9.65625 16.96875 C 12.550781 16.96875 14.707031 18.378906 16.125 21.203125 C 14.851562 22.898438 14.21875 24.703125 14.21875 26.609375 C 14.21875 28.523438 14.78125 30.046875 15.90625 31.171875 C 17.039062 32.304688 18.457031 32.875 20.15625 32.875 C 24.257812 32.875 27.441406 29.765625 29.703125 23.546875 L 37.546875 0.84375 L 7.21875 -63.625 L -1.484375 -65.109375 L -1.484375 -67.453125 L 30.96875 -67.453125 L 30.96875 -65.109375 L 21.859375 -63.421875 L 43.703125 -16.75 L 59.390625 -61.71875 L 47.9375 -65.109375 L 47.9375 -67.453125 Z M 71.703125 -67.453125 "/></g></g></g><g fill="#181f1c" fill-opacity="1"><g transform="translate(662.263636, 582.667432)"><g><path d="M 24.8125 -67.65625 L 24.8125 -53.875 C 29.34375 -63.914062 36.519531 -68.9375 46.34375 -68.9375 C 56.164062 -68.9375 63.90625 -65.71875 69.5625 -59.28125 C 75.21875 -52.84375 78.046875 -44.320312 78.046875 -33.71875 C 78.046875 -23.113281 75.21875 -14.628906 69.5625 -8.265625 C 63.90625 -1.910156 56.195312 1.265625 46.4375 1.265625 C 36.6875 1.265625 29.476562 -3.679688 24.8125 -13.578125 L 24.8125 33.09375 L 37.125 34.359375 L 37.125 37.125 L 2.75 37.125 L 2.75 34.359375 L 11.671875 33.09375 L 11.671875 -63.84375 L 2.75 -65.109375 L 2.75 -67.65625 Z M 63.84375 -27.15625 L 63.84375 -40.296875 C 63.84375 -57.117188 57.757812 -65.601562 45.59375 -65.75 C 39.800781 -65.75 34.925781 -63.34375 30.96875 -58.53125 C 27.007812 -53.726562 24.957031 -47.929688 24.8125 -41.140625 L 24.8125 -27.15625 C 24.8125 -20.21875 26.789062 -14.273438 30.75 -9.328125 C 34.707031 -4.378906 39.65625 -1.90625 45.59375 -1.90625 C 57.757812 -1.90625 63.84375 -10.320312 63.84375 -27.15625 Z M 63.84375 -27.15625 "/></g></g></g><g fill="#181f1c" fill-opacity="1"><g transform="translate(745.824113, 582.667432)"><g><path d="M 58.546875 -27.359375 L 58.546875 -40.296875 C 58.546875 -48.210938 56.953125 -54.46875 53.765625 -59.0625 C 50.585938 -63.664062 45.742188 -65.96875 39.234375 -65.96875 C 32.734375 -65.96875 27.851562 -63.664062 24.59375 -59.0625 C 21.34375 -54.46875 19.71875 -48.210938 19.71875 -40.296875 L 19.71875 -27.359375 C 19.71875 -19.585938 21.34375 -13.332031 24.59375 -8.59375 C 27.851562 -3.851562 32.734375 -1.484375 39.234375 -1.484375 C 45.742188 -1.484375 50.585938 -3.851562 53.765625 -8.59375 C 56.953125 -13.332031 58.546875 -19.585938 58.546875 -27.359375 Z M 15.0625 -8.484375 C 8.550781 -14.984375 5.296875 -23.394531 5.296875 -33.71875 C 5.296875 -44.039062 8.476562 -52.488281 14.84375 -59.0625 C 21.207031 -65.644531 29.300781 -68.9375 39.125 -68.9375 C 48.957031 -68.9375 57.054688 -65.644531 63.421875 -59.0625 C 69.785156 -52.488281 72.96875 -44.113281 72.96875 -33.9375 C 72.96875 -23.757812 69.785156 -15.347656 63.421875 -8.703125 C 57.054688 -2.054688 49.066406 1.265625 39.453125 1.265625 C 29.835938 1.265625 21.707031 -1.984375 15.0625 -8.484375 Z M 15.0625 -8.484375 "/></g></g></g><g fill="#181f1c" fill-opacity="1"><g transform="translate(824.08253, 582.667432)"><g><path d="M 3.390625 0 L 3.390625 -2.75 L 12.515625 -3.8125 L 12.515625 -63.84375 L 3.390625 -65.109375 L 3.390625 -67.65625 L 25.65625 -67.65625 L 25.65625 -57.6875 C 31.175781 -65.1875 37.398438 -68.9375 44.328125 -68.9375 C 47.578125 -68.9375 50.472656 -68.085938 53.015625 -66.390625 C 55.566406 -64.691406 56.84375 -62.460938 56.84375 -59.703125 C 56.84375 -56.941406 56.0625 -54.816406 54.5 -53.328125 C 52.945312 -51.847656 50.863281 -51.109375 48.25 -51.109375 C 45.632812 -51.109375 43.550781 -52.171875 42 -54.296875 C 42.988281 -55.566406 43.445312 -56.910156 43.375 -58.328125 C 43.300781 -59.742188 42.769531 -60.945312 41.78125 -61.9375 C 40.789062 -62.925781 39.445312 -63.421875 37.75 -63.421875 C 34.351562 -63.421875 30.320312 -59.882812 25.65625 -52.8125 L 25.65625 -3.8125 L 36.0625 -2.75 L 36.0625 0 Z M 3.390625 0 "/></g></g></g><g fill="#181f1c" fill-opacity="1"><g transform="translate(881.344775, 582.667432)"><g><path d="M 41.578125 -67.65625 L 41.578125 -65.109375 L 24.609375 -63.84375 L 24.609375 -16.96875 C 24.609375 -7.632812 27.929688 -3.039062 34.578125 -3.1875 C 37.546875 -3.1875 40.300781 -4.101562 42.84375 -5.9375 L 44.546875 -3.8125 C 40.585938 -0.425781 35.921875 1.265625 30.546875 1.265625 C 17.960938 1.265625 11.671875 -4.738281 11.671875 -16.75 L 11.671875 -63.84375 L 2.125 -65.109375 L 2.125 -67.65625 L 11.671875 -67.65625 L 11.671875 -78.6875 L 24.609375 -81.875 L 24.609375 -67.65625 Z M 41.578125 -67.65625 "/></g></g></g><g fill="#181f1c" fill-opacity="1"><g transform="translate(926.306237, 582.667432)"><g><path d="M 3.390625 0 L 3.390625 -2.75 L 12.515625 -3.8125 L 12.515625 -63.84375 L 3.390625 -65.109375 L 3.390625 -67.65625 L 12.515625 -67.65625 L 12.515625 -78.6875 C 12.515625 -96.789062 20.007812 -105.84375 35 -105.84375 C 40.082031 -105.84375 44.320312 -104.601562 47.71875 -102.125 C 51.113281 -99.65625 52.8125 -96.296875 52.8125 -92.046875 C 52.8125 -89.503906 52.066406 -87.382812 50.578125 -85.6875 C 49.097656 -83.988281 47.226562 -83.140625 44.96875 -83.140625 C 42.707031 -83.140625 40.726562 -83.988281 39.03125 -85.6875 C 37.332031 -87.382812 36.484375 -89.296875 36.484375 -91.421875 C 39.585938 -92.265625 41.140625 -94.3125 41.140625 -97.5625 C 41.140625 -98.976562 40.539062 -100.25 39.34375 -101.375 C 38.144531 -102.507812 36.695312 -103.078125 35 -103.078125 C 31.601562 -103.078125 29.195312 -101.484375 27.78125 -98.296875 C 26.363281 -95.117188 25.65625 -89.925781 25.65625 -82.71875 L 25.65625 -67.65625 L 42.625 -67.65625 L 42.625 -65.109375 L 25.65625 -63.84375 L 25.65625 -3.8125 L 41.140625 -2.75 L 41.140625 0 Z M 3.390625 0 "/></g></g></g><g fill="#181f1c" fill-opacity="1"><g transform="translate(970.843523, 582.667432)"><g><path d="M 58.546875 -27.359375 L 58.546875 -40.296875 C 58.546875 -48.210938 56.953125 -54.46875 53.765625 -59.0625 C 50.585938 -63.664062 45.742188 -65.96875 39.234375 -65.96875 C 32.734375 -65.96875 27.851562 -63.664062 24.59375 -59.0625 C 21.34375 -54.46875 19.71875 -48.210938 19.71875 -40.296875 L 19.71875 -27.359375 C 19.71875 -19.585938 21.34375 -13.332031 24.59375 -8.59375 C 27.851562 -3.851562 32.734375 -1.484375 39.234375 -1.484375 C 45.742188 -1.484375 50.585938 -3.851562 53.765625 -8.59375 C 56.953125 -13.332031 58.546875 -19.585938 58.546875 -27.359375 Z M 15.0625 -8.484375 C 8.550781 -14.984375 5.296875 -23.394531 5.296875 -33.71875 C 5.296875 -44.039062 8.476562 -52.488281 14.84375 -59.0625 C 21.207031 -65.644531 29.300781 -68.9375 39.125 -68.9375 C 48.957031 -68.9375 57.054688 -65.644531 63.421875 -59.0625 C 69.785156 -52.488281 72.96875 -44.113281 72.96875 -33.9375 C 72.96875 -23.757812 69.785156 -15.347656 63.421875 -8.703125 C 57.054688 -2.054688 49.066406 1.265625 39.453125 1.265625 C 29.835938 1.265625 21.707031 -1.984375 15.0625 -8.484375 Z M 15.0625 -8.484375 "/></g></g></g><g fill="#181f1c" fill-opacity="1"><g transform="translate(1049.101939, 582.667432)"><g><path d="M 2.328125 -101.8125 L 2.328125 -104.5625 L 25.234375 -104.5625 L 25.234375 -3.8125 L 34.359375 -2.75 L 34.359375 0 L 2.328125 0 L 2.328125 -2.75 L 12.296875 -3.8125 L 12.296875 -100.75 Z M 2.328125 -101.8125 "/></g></g></g><g fill="#181f1c" fill-opacity="1"><g transform="translate(1085.792187, 582.667432)"><g><path d="M 8.484375 -91.71875 C 8.484375 -94.195312 9.332031 -96.210938 11.03125 -97.765625 C 12.726562 -99.328125 14.8125 -100.109375 17.28125 -100.109375 C 19.757812 -100.109375 21.8125 -99.328125 23.4375 -97.765625 C 25.0625 -96.210938 25.875 -94.195312 25.875 -91.71875 C 25.875 -89.25 25.0625 -87.164062 23.4375 -85.46875 C 21.8125 -83.78125 19.796875 -82.9375 17.390625 -82.9375 C 14.984375 -82.9375 12.894531 -83.78125 11.125 -85.46875 C 9.363281 -87.164062 8.484375 -89.25 8.484375 -91.71875 Z M 3.609375 -65.109375 L 3.609375 -67.453125 L 25.875 -67.453125 L 25.875 -3.8125 L 34.78125 -2.75 L 34.78125 0 L 3.609375 0 L 3.609375 -2.75 L 12.71875 -3.8125 L 12.71875 -63.625 Z M 3.609375 -65.109375 "/></g></g></g><g fill="#181f1c" fill-opacity="1"><g transform="translate(1123.118679, 582.667432)"><g><path d="M 58.546875 -27.359375 L 58.546875 -40.296875 C 58.546875 -48.210938 56.953125 -54.46875 53.765625 -59.0625 C 50.585938 -63.664062 45.742188 -65.96875 39.234375 -65.96875 C 32.734375 -65.96875 27.851562 -63.664062 24.59375 -59.0625 C 21.34375 -54.46875 19.71875 -48.210938 19.71875 -40.296875 L 19.71875 -27.359375 C 19.71875 -19.585938 21.34375 -13.332031 24.59375 -8.59375 C 27.851562 -3.851562 32.734375 -1.484375 39.234375 -1.484375 C 45.742188 -1.484375 50.585938 -3.851562 53.765625 -8.59375 C 56.953125 -13.332031 58.546875 -19.585938 58.546875 -27.359375 Z M 15.0625 -8.484375 C 8.550781 -14.984375 5.296875 -23.394531 5.296875 -33.71875 C 5.296875 -44.039062 8.476562 -52.488281 14.84375 -59.0625 C 21.207031 -65.644531 29.300781 -68.9375 39.125 -68.9375 C 48.957031 -68.9375 57.054688 -65.644531 63.421875 -59.0625 C 69.785156 -52.488281 72.96875 -44.113281 72.96875 -33.9375 C 72.96875 -23.757812 69.785156 -15.347656 63.421875 -8.703125 C 57.054688 -2.054688 49.066406 1.265625 39.453125 1.265625 C 29.835938 1.265625 21.707031 -1.984375 15.0625 -8.484375 Z M 15.0625 -8.484375 "/></g></g></g><g fill="#181f1c" fill-opacity="1"><g transform="translate(1201.377096, 582.667432)"><g><path d="M 22.15625 -1.0625 C 20.675781 0.488281 18.835938 1.265625 16.640625 1.265625 C 14.453125 1.265625 12.648438 0.488281 11.234375 -1.0625 C 9.828125 -2.613281 9.125 -4.445312 9.125 -6.5625 C 9.125 -8.6875 9.828125 -10.457031 11.234375 -11.875 C 12.648438 -13.289062 14.453125 -14 16.640625 -14 C 18.835938 -14 20.675781 -13.289062 22.15625 -11.875 C 23.644531 -10.457031 24.390625 -8.6875 24.390625 -6.5625 C 24.390625 -4.445312 23.644531 -2.613281 22.15625 -1.0625 Z M 18.234375 -21.640625 L 15.0625 -21.640625 C 14.914062 -34.078125 13.957031 -48.988281 12.1875 -66.375 C 10.425781 -83.769531 9.546875 -93.914062 9.546875 -96.8125 C 9.546875 -99.71875 10.179688 -101.945312 11.453125 -103.5 C 12.722656 -105.0625 14.453125 -105.84375 16.640625 -105.84375 C 18.835938 -105.84375 20.609375 -105.0625 21.953125 -103.5 C 23.296875 -101.945312 23.96875 -99.6875 23.96875 -96.71875 C 23.96875 -93.75 23.082031 -83.601562 21.3125 -66.28125 C 19.550781 -48.957031 18.523438 -34.078125 18.234375 -21.640625 Z M 18.234375 -21.640625 "/></g></g></g><g fill="#315c2b" fill-opacity="1"><g transform="translate(76.817574, 487.553541)"><g><path d="M 170.859375 9.046875 L 53.78125 -264.875 C 50.769531 -272.101562 47.457031 -277.898438 43.84375 -282.265625 C 40.226562 -286.640625 35.78125 -290.484375 30.5 -293.796875 C 25.226562 -297.109375 17.320312 -299.820312 6.78125 -301.9375 L 0 -303.296875 L 0 -311.421875 L 198.875 -311.421875 L 198.875 -303.296875 L 182.15625 -300.125 C 174.019531 -298.625 167.390625 -296.664062 162.265625 -294.25 C 157.140625 -291.84375 153.671875 -289.054688 151.859375 -285.890625 C 150.054688 -282.722656 149.15625 -279.785156 149.15625 -277.078125 C 149.15625 -271.648438 151.113281 -264.265625 155.03125 -254.921875 L 218.765625 -105.765625 L 315.953125 -311.421875 L 322.734375 -311.421875 L 419.90625 -109.84375 L 463.75 -221.9375 C 469.78125 -236.695312 472.796875 -247.992188 472.796875 -255.828125 C 472.796875 -266.679688 469.253906 -276.023438 462.171875 -283.859375 C 455.085938 -291.691406 445.066406 -297.113281 432.109375 -300.125 L 419 -303.296875 L 419 -311.421875 L 551.890625 -311.421875 L 551.890625 -303.296875 L 542.40625 -300.125 C 527.9375 -295.300781 515.65625 -287.164062 505.5625 -275.71875 C 495.46875 -264.269531 486.351562 -248.300781 478.21875 -227.8125 L 385.109375 9.046875 L 378.78125 9.046875 L 277.078125 -202.046875 L 177.1875 9.046875 Z M 174.921875 -11.296875 L 212.4375 -90.859375 L 144.640625 -250.40625 C 140.117188 -260.957031 137.859375 -269.09375 137.859375 -274.8125 C 137.859375 -279.9375 139.140625 -284.679688 141.703125 -289.046875 C 144.265625 -293.421875 147.65625 -297.113281 151.875 -300.125 L 151.875 -300.578125 L 39.328125 -300.578125 L 39.328125 -300.125 C 50.472656 -293.195312 59.660156 -280.992188 66.890625 -263.515625 Z M 482.28125 -257.1875 L 482.734375 -257.1875 C 487.859375 -267.4375 493.507812 -275.875 499.6875 -282.5 C 505.863281 -289.125 512.566406 -295 519.796875 -300.125 L 519.796875 -300.578125 L 457.421875 -300.578125 L 457.421875 -300.125 C 473.992188 -289.582031 482.28125 -275.269531 482.28125 -257.1875 Z M 381.03125 -10.84375 L 414.484375 -95.828125 L 319.109375 -293.34375 L 282.953125 -215.609375 Z M 178.984375 -73.671875 C 176.578125 -73.671875 174.46875 -74.570312 172.65625 -76.375 C 170.851562 -78.1875 169.953125 -80.300781 169.953125 -82.71875 C 169.953125 -84.21875 170.554688 -86.175781 171.765625 -88.59375 L 161.8125 -112.09375 C 158.5 -97.332031 154.128906 -89.953125 148.703125 -89.953125 C 146.898438 -89.953125 145.394531 -90.628906 144.1875 -91.984375 C 142.976562 -93.335938 142.375 -94.921875 142.375 -96.734375 C 142.375 -98.835938 143.128906 -101.242188 144.640625 -103.953125 C 146.148438 -106.671875 150.820312 -111.945312 158.65625 -119.78125 L 151.421875 -136.5 C 149.304688 -128.363281 147.269531 -122.488281 145.3125 -118.875 C 143.351562 -115.257812 141.019531 -113.453125 138.3125 -113.453125 C 136.5 -113.453125 134.914062 -114.128906 133.5625 -115.484375 C 132.207031 -116.835938 131.53125 -118.421875 131.53125 -120.234375 C 131.53125 -122.035156 132.429688 -124.441406 134.234375 -127.453125 C 136.046875 -130.472656 140.71875 -135.898438 148.25 -143.734375 L 146 -148.703125 L 143.734375 -148.703125 C 138.910156 -148.703125 134.691406 -150.507812 131.078125 -154.125 C 127.460938 -157.75 125.65625 -161.96875 125.65625 -166.78125 C 125.65625 -169.195312 126.332031 -171.757812 127.6875 -174.46875 C 129.039062 -177.1875 130.625 -179.296875 132.4375 -180.796875 L 130.625 -184.875 C 109.832031 -183.96875 99.4375 -186.976562 99.4375 -193.90625 C 99.4375 -195.71875 100.1875 -197.300781 101.6875 -198.65625 C 103.195312 -200.007812 105.007812 -200.6875 107.125 -200.6875 C 108.332031 -200.6875 110.066406 -200.382812 112.328125 -199.78125 C 114.585938 -199.175781 119.632812 -196.765625 127.46875 -192.546875 L 119.78125 -209.28125 C 108.632812 -209.28125 100.722656 -209.957031 96.046875 -211.3125 C 91.378906 -212.664062 89.046875 -215 89.046875 -218.3125 C 89.046875 -220.125 89.722656 -221.707031 91.078125 -223.0625 C 92.429688 -224.414062 94.015625 -225.09375 95.828125 -225.09375 C 100.347656 -225.09375 107.425781 -222.234375 117.0625 -216.515625 L 109.390625 -233.6875 L 105.765625 -233.6875 C 96.421875 -233.6875 89.5625 -234.4375 85.1875 -235.9375 C 80.820312 -237.445312 78.640625 -239.859375 78.640625 -243.171875 C 78.640625 -244.679688 79.316406 -245.960938 80.671875 -247.015625 C 82.035156 -248.066406 83.617188 -248.59375 85.421875 -248.59375 C 89.941406 -248.59375 97.023438 -245.734375 106.671875 -240.015625 L 97.1875 -261.703125 C 95.375 -262.003906 93.710938 -263.054688 92.203125 -264.859375 C 90.703125 -266.671875 89.953125 -268.632812 89.953125 -270.75 C 89.953125 -273.15625 90.851562 -275.257812 92.65625 -277.0625 C 94.46875 -278.875 96.578125 -279.78125 98.984375 -279.78125 C 101.398438 -279.78125 103.507812 -278.875 105.3125 -277.0625 C 107.125 -275.257812 108.03125 -273.15625 108.03125 -270.75 C 108.03125 -268.9375 107.425781 -267.128906 106.21875 -265.328125 L 115.71875 -243.171875 C 117.519531 -251.609375 119.398438 -257.632812 121.359375 -261.25 C 123.316406 -264.875 125.65625 -266.6875 128.375 -266.6875 C 130.476562 -266.6875 132.207031 -266.003906 133.5625 -264.640625 C 134.914062 -263.285156 135.59375 -261.707031 135.59375 -259.90625 C 135.59375 -254.78125 129.867188 -246.941406 118.421875 -236.390625 L 126.109375 -218.765625 C 128.210938 -227.503906 130.171875 -233.679688 131.984375 -237.296875 C 133.796875 -240.910156 136.054688 -242.71875 138.765625 -242.71875 C 140.867188 -242.71875 142.523438 -242.039062 143.734375 -240.6875 C 144.941406 -239.332031 145.546875 -237.75 145.546875 -235.9375 C 145.546875 -230.21875 139.96875 -222.234375 128.8125 -211.984375 L 136.046875 -194.8125 C 137.859375 -202.039062 139.96875 -207.6875 142.375 -211.75 C 144.789062 -215.820312 147.351562 -217.859375 150.0625 -217.859375 C 151.875 -217.859375 153.304688 -217.253906 154.359375 -216.046875 C 155.410156 -214.847656 155.9375 -213.34375 155.9375 -211.53125 C 155.9375 -207.007812 150.363281 -199.023438 139.21875 -187.578125 L 140.578125 -184.421875 L 143.734375 -184.875 C 148.554688 -184.875 152.773438 -183.0625 156.390625 -179.4375 C 160.003906 -175.820312 161.8125 -171.601562 161.8125 -166.78125 C 161.8125 -164.070312 161.132812 -161.359375 159.78125 -158.640625 C 158.425781 -155.929688 156.691406 -153.828125 154.578125 -152.328125 L 156.390625 -147.796875 C 167.234375 -148.097656 175.21875 -147.492188 180.34375 -145.984375 C 185.46875 -144.484375 188.03125 -142.226562 188.03125 -139.21875 C 188.03125 -137.40625 187.273438 -135.820312 185.765625 -134.46875 C 184.265625 -133.113281 182.457031 -132.4375 180.34375 -132.4375 C 175.519531 -132.4375 168.441406 -135.445312 159.109375 -141.46875 L 166.78125 -123.390625 C 176.425781 -123.691406 184.035156 -123.316406 189.609375 -122.265625 C 195.179688 -121.210938 197.96875 -118.726562 197.96875 -114.8125 C 197.96875 -113 197.289062 -111.414062 195.9375 -110.0625 C 194.582031 -108.707031 192.851562 -108.03125 190.75 -108.03125 C 188.03125 -108.03125 185.015625 -108.859375 181.703125 -110.515625 C 178.390625 -112.171875 174.320312 -114.351562 169.5 -117.0625 L 180.34375 -91.75 C 182.457031 -91.445312 184.265625 -90.390625 185.765625 -88.578125 C 187.273438 -86.773438 188.03125 -84.820312 188.03125 -82.71875 C 188.03125 -80.300781 187.125 -78.1875 185.3125 -76.375 C 183.507812 -74.570312 181.398438 -73.671875 178.984375 -73.671875 Z M 381.9375 -75.9375 C 379.53125 -75.9375 377.421875 -76.835938 375.609375 -78.640625 C 373.804688 -80.453125 372.90625 -82.5625 372.90625 -84.96875 C 372.90625 -87.082031 373.351562 -88.742188 374.25 -89.953125 L 363.40625 -113.453125 C 362.195312 -105.015625 360.613281 -99.0625 358.65625 -95.59375 C 356.695312 -92.132812 354.210938 -90.40625 351.203125 -90.40625 C 349.390625 -90.40625 347.878906 -91.15625 346.671875 -92.65625 C 345.472656 -94.164062 344.875 -95.820312 344.875 -97.625 C 344.875 -101.84375 349.847656 -109.53125 359.796875 -120.6875 L 352.109375 -137.40625 C 350.898438 -128.664062 349.316406 -122.488281 347.359375 -118.875 C 345.398438 -115.257812 342.914062 -113.453125 339.90625 -113.453125 C 338.09375 -113.453125 336.582031 -114.128906 335.375 -115.484375 C 334.175781 -116.835938 333.578125 -118.570312 333.578125 -120.6875 C 333.578125 -122.488281 334.40625 -124.972656 336.0625 -128.140625 C 337.71875 -131.304688 342.007812 -136.65625 348.9375 -144.1875 L 346.6875 -148.703125 L 343.96875 -148.703125 C 339.144531 -148.703125 334.925781 -150.507812 331.3125 -154.125 C 327.695312 -157.75 325.890625 -161.96875 325.890625 -166.78125 C 325.890625 -167.6875 326.191406 -169.492188 326.796875 -172.203125 C 327.398438 -174.921875 329.054688 -177.484375 331.765625 -179.890625 L 329.515625 -184.875 C 327.097656 -184.570312 323.023438 -184.421875 317.296875 -184.421875 C 304.941406 -184.421875 298.765625 -187.582031 298.765625 -193.90625 C 298.765625 -195.414062 299.519531 -196.695312 301.03125 -197.75 C 302.539062 -198.800781 304.5 -199.328125 306.90625 -199.328125 C 311.125 -199.328125 317.453125 -196.914062 325.890625 -192.09375 L 315.046875 -214.703125 C 313.234375 -215.003906 311.5 -216.054688 309.84375 -217.859375 C 308.1875 -219.671875 307.359375 -221.628906 307.359375 -223.734375 C 307.359375 -226.148438 308.257812 -228.257812 310.0625 -230.0625 C 311.875 -231.875 313.988281 -232.78125 316.40625 -232.78125 C 318.8125 -232.78125 320.914062 -231.875 322.71875 -230.0625 C 324.53125 -228.257812 325.4375 -226.148438 325.4375 -223.734375 C 325.4375 -221.929688 324.984375 -220.273438 324.078125 -218.765625 L 334.9375 -195.71875 C 337.039062 -210.78125 341.257812 -218.3125 347.59375 -218.3125 C 349.394531 -218.3125 350.820312 -217.707031 351.875 -216.5 C 352.9375 -215.300781 353.46875 -213.796875 353.46875 -211.984375 C 353.46875 -209.578125 352.335938 -206.640625 350.078125 -203.171875 C 347.816406 -199.703125 343.820312 -194.65625 338.09375 -188.03125 L 339.90625 -184.421875 L 343.96875 -184.875 C 348.789062 -184.875 353.007812 -183.0625 356.625 -179.4375 C 360.238281 -175.820312 362.046875 -171.601562 362.046875 -166.78125 C 362.046875 -161.0625 359.632812 -156.242188 354.8125 -152.328125 L 356.625 -148.25 L 370.640625 -149.15625 C 372.742188 -149.15625 375.679688 -148.851562 379.453125 -148.25 C 383.222656 -147.65625 385.707031 -146.675781 386.90625 -145.3125 C 388.113281 -143.957031 388.71875 -142.675781 388.71875 -141.46875 C 388.71875 -139.664062 388.113281 -138.007812 386.90625 -136.5 C 385.707031 -135 383.597656 -134.25 380.578125 -134.25 C 375.765625 -134.25 368.835938 -136.957031 359.796875 -142.375 L 367.921875 -124.75 L 379.234375 -125.203125 C 392.785156 -125.203125 399.5625 -122.488281 399.5625 -117.0625 C 399.5625 -115.257812 398.882812 -113.601562 397.53125 -112.09375 C 396.175781 -110.59375 394.441406 -109.84375 392.328125 -109.84375 C 388.117188 -109.84375 381.039062 -112.703125 371.09375 -118.421875 L 382.390625 -94.015625 C 384.804688 -93.710938 386.84375 -92.734375 388.5 -91.078125 C 390.15625 -89.421875 390.984375 -87.382812 390.984375 -84.96875 C 390.984375 -82.5625 390.078125 -80.453125 388.265625 -78.640625 C 386.460938 -76.835938 384.351562 -75.9375 381.9375 -75.9375 Z M 359.796875 -184.421875 C 358.285156 -184.421875 357.003906 -184.945312 355.953125 -186 C 354.898438 -187.050781 354.375 -188.332031 354.375 -189.84375 C 354.375 -191.34375 354.898438 -192.617188 355.953125 -193.671875 C 357.003906 -194.734375 358.285156 -195.265625 359.796875 -195.265625 C 361.296875 -195.265625 362.570312 -194.734375 363.625 -193.671875 C 364.6875 -192.617188 365.21875 -191.34375 365.21875 -189.84375 C 365.21875 -188.332031 364.6875 -187.050781 363.625 -186 C 362.570312 -184.945312 361.296875 -184.421875 359.796875 -184.421875 Z M 161.359375 -183.96875 C 159.859375 -183.96875 158.578125 -184.492188 157.515625 -185.546875 C 156.460938 -186.597656 155.9375 -187.878906 155.9375 -189.390625 C 155.9375 -190.890625 156.460938 -192.164062 157.515625 -193.21875 C 158.578125 -194.28125 159.859375 -194.8125 161.359375 -194.8125 C 162.867188 -194.8125 164.148438 -194.28125 165.203125 -193.21875 C 166.253906 -192.164062 166.78125 -190.890625 166.78125 -189.390625 C 166.78125 -187.878906 166.253906 -186.597656 165.203125 -185.546875 C 164.148438 -184.492188 162.867188 -183.96875 161.359375 -183.96875 Z M 116.15625 -164.53125 C 114.65625 -164.53125 113.375 -165.054688 112.3125 -166.109375 C 111.257812 -167.160156 110.734375 -168.441406 110.734375 -169.953125 C 110.734375 -171.460938 111.257812 -172.742188 112.3125 -173.796875 C 113.375 -174.847656 114.65625 -175.375 116.15625 -175.375 C 117.664062 -175.375 118.945312 -174.847656 120 -173.796875 C 121.0625 -172.742188 121.59375 -171.460938 121.59375 -169.953125 C 121.59375 -168.441406 121.0625 -167.160156 120 -166.109375 C 118.945312 -165.054688 117.664062 -164.53125 116.15625 -164.53125 Z M 315.5 -164.078125 C 313.988281 -164.078125 312.707031 -164.601562 311.65625 -165.65625 C 310.601562 -166.707031 310.078125 -167.988281 310.078125 -169.5 C 310.078125 -171.007812 310.601562 -172.289062 311.65625 -173.34375 C 312.707031 -174.394531 313.988281 -174.921875 315.5 -174.921875 C 317 -174.921875 318.273438 -174.394531 319.328125 -173.34375 C 320.390625 -172.289062 320.921875 -171.007812 320.921875 -169.5 C 320.921875 -167.988281 320.390625 -166.707031 319.328125 -165.65625 C 318.273438 -164.601562 317 -164.078125 315.5 -164.078125 Z M 372 -159.109375 C 370.488281 -159.109375 369.207031 -159.632812 368.15625 -160.6875 C 367.101562 -161.738281 366.578125 -163.019531 366.578125 -164.53125 C 366.578125 -166.03125 367.101562 -167.304688 368.15625 -168.359375 C 369.207031 -169.421875 370.488281 -169.953125 372 -169.953125 C 373.5 -169.953125 374.773438 -169.421875 375.828125 -168.359375 C 376.890625 -167.304688 377.421875 -166.03125 377.421875 -164.53125 C 377.421875 -163.019531 376.890625 -161.738281 375.828125 -160.6875 C 374.773438 -159.632812 373.5 -159.109375 372 -159.109375 Z M 172.21875 -157.75 C 170.707031 -157.75 169.421875 -158.273438 168.359375 -159.328125 C 167.304688 -160.378906 166.78125 -161.660156 166.78125 -163.171875 C 166.78125 -164.679688 167.304688 -165.960938 168.359375 -167.015625 C 169.421875 -168.066406 170.707031 -168.59375 172.21875 -168.59375 C 173.71875 -168.59375 174.992188 -168.066406 176.046875 -167.015625 C 177.109375 -165.960938 177.640625 -164.679688 177.640625 -163.171875 C 177.640625 -161.660156 177.109375 -160.378906 176.046875 -159.328125 C 174.992188 -158.273438 173.71875 -157.75 172.21875 -157.75 Z M 127.015625 -138.3125 C 125.503906 -138.3125 124.222656 -138.835938 123.171875 -139.890625 C 122.117188 -140.941406 121.59375 -142.222656 121.59375 -143.734375 C 121.59375 -145.242188 122.117188 -146.523438 123.171875 -147.578125 C 124.222656 -148.628906 125.503906 -149.15625 127.015625 -149.15625 C 128.515625 -149.15625 129.789062 -148.628906 130.84375 -147.578125 C 131.90625 -146.523438 132.4375 -145.242188 132.4375 -143.734375 C 132.4375 -142.222656 131.90625 -140.941406 130.84375 -139.890625 C 129.789062 -138.835938 128.515625 -138.3125 127.015625 -138.3125 Z M 327.25 -137.859375 C 325.738281 -137.859375 324.457031 -138.382812 323.40625 -139.4375 C 322.351562 -140.5 321.828125 -141.78125 321.828125 -143.28125 C 321.828125 -144.789062 322.351562 -146.070312 323.40625 -147.125 C 324.457031 -148.175781 325.738281 -148.703125 327.25 -148.703125 C 328.757812 -148.703125 330.039062 -148.175781 331.09375 -147.125 C 332.144531 -146.070312 332.671875 -144.789062 332.671875 -143.28125 C 332.671875 -141.78125 332.144531 -140.5 331.09375 -139.4375 C 330.039062 -138.382812 328.757812 -137.859375 327.25 -137.859375 Z M 327.25 -137.859375 "/></g></g></g></svg>