<svg xmlns="http://www.w3.org/2000/svg" xmlns:xlink="http://www.w3.org/1999/xlink" width="50" zoomAndPan="magnify" viewBox="0 0 37.5 60" height="80" preserveAspectRatio="xMidYMid meet" version="1.0"><defs><clipPath id="218b3763e1"><path d="M 11 0.394531 L 28 0.394531 L 28 59.601562 L 11 59.601562 Z M 11 0.394531 " clip-rule="nonzero"/></clipPath><clipPath id="fb2e18725d"><path d="M 19.320312 29.011719 C 19.320312 23.554688 20.527344 18.179688 22.914062 12.972656 C 24.457031 9.613281 26.070312 5.152344 24.816406 0.46875 L 24.882812 0.449219 C 26.136719 5.152344 24.527344 9.621094 22.972656 13.003906 C 20.179688 19.066406 19.011719 25.382812 19.484375 31.773438 C 19.8125 36.226562 21.8125 40.453125 23.742188 44.550781 C 26.023438 49.359375 28.367188 54.320312 27.945312 59.582031 L 27.875 59.574219 C 28.300781 54.332031 25.964844 49.367188 23.703125 44.566406 C 21.773438 40.464844 19.773438 36.234375 19.4375 31.765625 C 19.359375 30.855469 19.320312 29.929688 19.320312 29.011719 Z M 19.011719 31.65625 C 19.117188 32.664062 19.300781 33.675781 19.535156 34.652344 C 20.324219 37.953125 21.820312 41.167969 23.261719 44.277344 C 23.984375 45.832031 24.730469 47.4375 25.375 49.019531 C 26.253906 51.183594 26.804688 52.980469 27.125 54.679688 C 27.414062 56.289062 27.480469 57.933594 27.308594 59.5625 L 27.375 59.574219 C 27.546875 57.941406 27.480469 56.289062 27.191406 54.667969 C 26.882812 52.96875 26.320312 51.164062 25.441406 49 C 24.796875 47.40625 24.050781 45.804688 23.328125 44.25 C 21.878906 41.140625 20.394531 37.925781 19.601562 34.632812 C 19.359375 33.648438 19.1875 32.644531 19.078125 31.640625 C 18.566406 26.722656 18.933594 22.117188 20.179688 17.964844 C 20.710938 16.226562 21.398438 14.519531 22.21875 12.886719 C 24.265625 8.734375 24.691406 6.40625 24.824219 4.84375 C 24.980469 3.25 24.863281 1.8125 24.496094 0.441406 L 24.429688 0.460938 C 24.796875 1.820312 24.902344 3.25 24.757812 4.832031 C 24.613281 6.398438 24.1875 8.714844 22.152344 12.859375 C 21.328125 14.488281 20.644531 16.199219 20.101562 17.945312 C 19.214844 20.902344 18.769531 24.078125 18.769531 27.4375 C 18.78125 28.820312 18.859375 30.230469 19.011719 31.65625 Z M 18.585938 31.550781 C 18.730469 32.554688 18.925781 33.558594 19.175781 34.546875 C 19.988281 37.769531 21.4375 40.929688 22.828125 43.980469 C 23.578125 45.609375 24.351562 47.300781 25.019531 48.980469 C 25.898438 51.191406 26.429688 52.996094 26.699219 54.667969 C 26.949219 56.183594 26.960938 57.652344 26.738281 59.5625 L 26.804688 59.574219 C 27.027344 57.660156 27.007812 56.183594 26.765625 54.660156 C 26.496094 52.988281 25.953125 51.171875 25.078125 48.953125 C 24.417969 47.273438 23.648438 45.582031 22.894531 43.949219 C 21.492188 40.898438 20.054688 37.75 19.242188 34.535156 C 18.992188 33.550781 18.800781 32.546875 18.65625 31.542969 C 17.941406 26.269531 18.164062 21.800781 19.320312 17.859375 C 19.785156 16.285156 20.480469 14.625 21.445312 12.808594 C 22.75 10.347656 24.003906 7.683594 24.34375 4.871094 C 24.546875 3.191406 24.46875 1.792969 24.101562 0.460938 L 24.035156 0.480469 C 24.398438 1.800781 24.476562 3.191406 24.265625 4.863281 C 23.917969 7.664062 22.671875 10.316406 21.367188 12.769531 C 20.402344 14.597656 19.707031 16.257812 19.242188 17.839844 C 18.53125 20.28125 18.171875 22.929688 18.171875 25.84375 C 18.183594 27.632812 18.316406 29.535156 18.585938 31.550781 Z M 18.171875 31.4375 C 18.328125 32.363281 18.539062 33.339844 18.820312 34.417969 C 19.640625 37.578125 21.039062 40.667969 22.390625 43.652344 C 23.175781 45.371094 23.976562 47.15625 24.660156 48.921875 C 25.539062 51.191406 26.042969 52.96875 26.28125 54.648438 C 26.515625 56.289062 26.417969 57.691406 26.175781 59.542969 L 26.246094 59.554688 C 26.484375 57.691406 26.582031 56.28125 26.351562 54.640625 C 26.109375 52.941406 25.605469 51.171875 24.730469 48.894531 C 24.042969 47.117188 23.242188 45.339844 22.460938 43.613281 C 21.109375 40.628906 19.71875 37.539062 18.894531 34.390625 C 18.617188 33.308594 18.402344 32.332031 18.25 31.40625 C 17.324219 25.824219 17.398438 21.472656 18.480469 17.714844 C 18.933594 16.140625 19.628906 14.546875 20.691406 12.683594 C 22.074219 10.242188 23.453125 7.613281 23.878906 4.851562 C 24.128906 3.125 24.082031 1.753906 23.714844 0.441406 L 23.648438 0.460938 C 24.015625 1.761719 24.050781 3.113281 23.792969 4.851562 C 23.375 7.605469 21.996094 10.222656 20.613281 12.664062 C 19.554688 14.527344 18.847656 16.132812 18.394531 17.703125 C 17.816406 19.734375 17.523438 21.933594 17.523438 24.398438 C 17.523438 26.519531 17.746094 28.847656 18.171875 31.4375 Z M 17.757812 31.320312 C 17.941406 32.226562 18.164062 33.175781 18.472656 34.304688 C 19.300781 37.375 20.652344 40.398438 21.957031 43.3125 C 22.769531 45.128906 23.609375 47 24.3125 48.875 C 25.183594 51.171875 25.664062 52.949219 25.867188 54.640625 C 26.082031 56.378906 25.886719 57.738281 25.636719 59.476562 L 25.625 59.542969 L 25.695312 59.554688 L 25.703125 59.488281 C 25.953125 57.75 26.15625 56.378906 25.9375 54.628906 C 25.722656 52.929688 25.25 51.152344 24.371094 48.847656 C 23.667969 46.972656 22.828125 45.097656 22.015625 43.285156 C 20.710938 40.367188 19.371094 37.34375 18.539062 34.285156 C 18.230469 33.15625 18.007812 32.207031 17.824219 31.308594 C 16.992188 27.089844 16.316406 22.167969 17.613281 17.597656 C 18.046875 16.054688 18.78125 14.460938 19.910156 12.597656 C 21.582031 9.816406 22.902344 7.480469 23.375 4.871094 C 23.609375 3.597656 23.78125 2.070312 23.320312 0.441406 L 23.25 0.460938 C 23.714844 2.070312 23.539062 3.585938 23.308594 4.863281 C 22.835938 7.449219 21.523438 9.785156 19.851562 12.558594 C 18.710938 14.429688 17.988281 16.023438 17.542969 17.578125 C 17.023438 19.433594 16.820312 21.34375 16.820312 23.238281 C 16.820312 26.027344 17.265625 28.800781 17.757812 31.320312 Z M 17.339844 31.203125 C 17.574219 32.207031 17.84375 33.183594 18.113281 34.179688 C 18.964844 37.160156 20.257812 40.105469 21.503906 42.945312 C 22.34375 44.859375 23.222656 46.835938 23.945312 48.816406 C 24.527344 50.382812 25.210938 52.457031 25.441406 54.621094 C 25.605469 56.183594 25.414062 57.363281 25.171875 58.847656 C 25.132812 59.070312 25.09375 59.292969 25.058594 59.535156 L 25.125 59.542969 C 25.164062 59.3125 25.203125 59.082031 25.242188 58.859375 C 25.492188 57.363281 25.683594 56.183594 25.511719 54.609375 C 25.289062 52.4375 24.59375 50.363281 24.015625 48.789062 C 23.289062 46.808594 22.410156 44.828125 21.570312 42.90625 C 20.324219 40.070312 19.03125 37.132812 18.183594 34.148438 C 17.910156 33.15625 17.640625 32.179688 17.410156 31.175781 C 16.355469 26.617188 15.554688 21.800781 16.761719 17.453125 C 17.1875 15.929688 17.941406 14.355469 19.148438 12.480469 L 19.28125 12.277344 C 20.789062 9.921875 22.34375 7.488281 22.902344 4.871094 C 23.242188 3.289062 23.375 1.925781 22.941406 0.429688 L 22.875 0.449219 C 23.308594 1.9375 23.175781 3.289062 22.835938 4.851562 C 22.285156 7.460938 20.730469 9.882812 19.222656 12.238281 L 19.089844 12.441406 C 17.882812 14.324219 17.121094 15.910156 16.695312 17.433594 C 16.261719 18.988281 16.085938 20.601562 16.085938 22.234375 C 16.085938 25.207031 16.65625 28.257812 17.339844 31.203125 Z M 16.917969 31.089844 C 17.175781 32.074219 17.457031 33.027344 17.726562 33.964844 L 17.757812 34.0625 C 18.605469 36.960938 19.851562 39.808594 21.050781 42.570312 C 21.929688 44.585938 22.835938 46.683594 23.589844 48.769531 C 24.160156 50.351562 24.835938 52.449219 25.019531 54.609375 C 25.144531 56.070312 24.929688 57.167969 24.691406 58.445312 C 24.621094 58.792969 24.554688 59.148438 24.488281 59.527344 L 24.554688 59.535156 C 24.621094 59.148438 24.691406 58.792969 24.757812 58.453125 C 25 57.167969 25.210938 56.070312 25.085938 54.601562 C 24.902344 52.429688 24.21875 50.324219 23.648438 48.738281 C 22.894531 46.644531 21.984375 44.558594 21.109375 42.53125 C 19.910156 39.769531 18.664062 36.921875 17.816406 34.035156 L 17.785156 33.9375 C 17.515625 33.011719 17.234375 32.042969 16.976562 31.070312 C 15.785156 26.480469 14.726562 21.644531 15.894531 17.339844 C 16.308594 15.8125 17.070312 14.285156 18.363281 12.382812 C 18.5 12.191406 18.625 12 18.761719 11.804688 C 20.265625 9.613281 21.8125 7.34375 22.410156 4.882812 C 22.808594 3.230469 22.972656 1.90625 22.535156 0.429688 L 22.46875 0.449219 C 22.902344 1.90625 22.738281 3.222656 22.34375 4.863281 C 21.753906 7.316406 20.210938 9.574219 18.710938 11.757812 C 18.578125 11.949219 18.453125 12.144531 18.316406 12.335938 C 17.011719 14.238281 16.25 15.773438 15.835938 17.308594 C 15.476562 18.632812 15.324219 20.003906 15.324219 21.402344 C 15.324219 24.589844 16.097656 27.902344 16.917969 31.089844 Z M 16.5 30.972656 C 16.683594 31.582031 16.867188 32.179688 17.042969 32.769531 C 17.167969 33.164062 17.285156 33.558594 17.398438 33.945312 C 18.25 36.738281 19.4375 39.5 20.585938 42.164062 C 21.503906 44.296875 22.449219 46.507812 23.222656 48.71875 C 23.78125 50.304688 24.4375 52.410156 24.59375 54.601562 C 24.691406 55.992188 24.457031 56.996094 24.199219 58.171875 C 24.101562 58.597656 24.003906 59.03125 23.917969 59.515625 L 23.984375 59.527344 C 24.070312 59.042969 24.167969 58.609375 24.265625 58.183594 C 24.527344 57.003906 24.757812 55.992188 24.660156 54.589844 C 24.507812 52.390625 23.851562 50.285156 23.289062 48.691406 C 22.515625 46.480469 21.5625 44.269531 20.644531 42.136719 C 19.496094 39.46875 18.308594 36.707031 17.457031 33.917969 C 17.339844 33.53125 17.214844 33.136719 17.101562 32.738281 C 16.917969 32.160156 16.734375 31.550781 16.558594 30.945312 C 15.082031 25.863281 13.941406 21.324219 15.035156 17.191406 C 15.546875 15.253906 16.675781 13.542969 17.59375 12.269531 C 17.804688 11.980469 18.019531 11.6875 18.21875 11.398438 C 19.71875 9.34375 21.273438 7.207031 21.910156 4.871094 C 22.296875 3.441406 22.605469 2.023438 22.132812 0.410156 L 22.0625 0.429688 C 22.535156 2.023438 22.226562 3.433594 21.839844 4.851562 C 21.214844 7.179688 19.660156 9.304688 18.164062 11.351562 C 17.949219 11.640625 17.738281 11.929688 17.535156 12.21875 C 16.609375 13.496094 15.476562 15.214844 14.964844 17.164062 C 14.65625 18.324219 14.523438 19.511719 14.523438 20.726562 C 14.542969 23.914062 15.429688 27.304688 16.5 30.972656 Z M 16.046875 30.761719 L 16.078125 30.855469 C 16.183594 31.183594 16.289062 31.523438 16.40625 31.839844 C 16.628906 32.527344 16.847656 33.175781 17.042969 33.8125 C 17.890625 36.496094 19.023438 39.152344 20.113281 41.71875 C 21.070312 43.96875 22.0625 46.304688 22.863281 48.652344 C 23.414062 50.253906 24.050781 52.378906 24.167969 54.570312 C 24.234375 55.914062 23.996094 56.859375 23.714844 57.960938 C 23.589844 58.433594 23.464844 58.925781 23.347656 59.496094 L 23.414062 59.507812 C 23.53125 58.9375 23.65625 58.445312 23.773438 57.972656 C 24.050781 56.871094 24.292969 55.914062 24.226562 54.5625 C 24.109375 52.359375 23.464844 50.238281 22.914062 48.625 C 22.113281 46.277344 21.117188 43.941406 20.160156 41.691406 C 19.070312 39.121094 17.941406 36.464844 17.089844 33.78125 C 16.886719 33.136719 16.675781 32.488281 16.453125 31.804688 C 16.347656 31.472656 16.242188 31.144531 16.125 30.816406 L 16.097656 30.722656 C 14.675781 26.316406 13.0625 21.324219 14.164062 17.066406 C 14.65625 15.144531 15.835938 13.4375 16.8125 12.171875 C 17.089844 11.804688 17.371094 11.449219 17.652344 11.089844 C 19.167969 9.140625 20.742188 7.121094 21.417969 4.890625 C 21.871094 3.386719 22.207031 2.015625 21.726562 0.421875 L 21.65625 0.441406 C 22.132812 2.015625 21.804688 3.375 21.347656 4.871094 C 20.671875 7.09375 19.109375 9.101562 17.59375 11.050781 C 17.3125 11.410156 17.03125 11.777344 16.753906 12.132812 C 15.777344 13.40625 14.589844 15.125 14.097656 17.058594 C 13.835938 18.050781 13.730469 19.09375 13.730469 20.148438 C 13.75 23.644531 14.957031 27.371094 16.046875 30.761719 Z M 15.476562 30.199219 L 15.769531 31.019531 C 16.105469 31.957031 16.414062 32.835938 16.695312 33.707031 C 17.523438 36.273438 18.605469 38.824219 19.640625 41.285156 C 20.644531 43.671875 21.6875 46.132812 22.507812 48.625 C 23.046875 50.246094 23.675781 52.390625 23.753906 54.582031 C 23.800781 55.894531 23.539062 56.792969 23.230469 57.835938 C 23.078125 58.347656 22.921875 58.878906 22.789062 59.515625 L 22.855469 59.535156 C 22.992188 58.90625 23.144531 58.375 23.300781 57.863281 C 23.609375 56.820312 23.871094 55.914062 23.820312 54.589844 C 23.742188 52.390625 23.117188 50.238281 22.574219 48.613281 C 21.753906 46.121094 20.710938 43.660156 19.699219 41.277344 C 18.65625 38.8125 17.582031 36.273438 16.753906 33.707031 C 16.472656 32.835938 16.152344 31.957031 15.824219 31.019531 L 15.535156 30.199219 C 14.011719 25.921875 12.292969 21.074219 13.335938 16.972656 C 13.816406 15.058594 14.984375 13.4375 16.066406 12.09375 C 16.414062 11.671875 16.773438 11.234375 17.121094 10.820312 C 18.65625 8.976562 20.25 7.0625 20.953125 4.921875 C 21.472656 3.347656 21.839844 2.015625 21.359375 0.441406 L 21.289062 0.460938 C 21.765625 2.003906 21.40625 3.328125 20.886719 4.890625 C 20.179688 7.023438 18.597656 8.925781 17.0625 10.773438 C 16.714844 11.1875 16.355469 11.621094 16.007812 12.046875 C 14.925781 13.390625 13.75 15.03125 13.257812 16.953125 C 13.035156 17.832031 12.9375 18.746094 12.9375 19.675781 C 12.949219 23.101562 14.269531 26.828125 15.476562 30.199219 Z M 14.898438 29.746094 C 15.015625 30.046875 15.128906 30.34375 15.246094 30.632812 C 15.621094 31.589844 16.007812 32.613281 16.335938 33.589844 C 17.15625 36.023438 18.171875 38.445312 19.148438 40.78125 C 20.210938 43.3125 21.300781 45.921875 22.152344 48.574219 C 22.679688 50.199219 23.289062 52.339844 23.339844 54.5625 C 23.355469 55.855469 23.078125 56.714844 22.75 57.699219 C 22.566406 58.242188 22.382812 58.800781 22.226562 59.496094 L 22.296875 59.515625 C 22.449219 58.832031 22.632812 58.269531 22.816406 57.730469 C 23.144531 56.734375 23.425781 55.875 23.40625 54.5625 C 23.355469 52.332031 22.75 50.179688 22.21875 48.546875 C 21.367188 45.902344 20.265625 43.285156 19.207031 40.753906 C 18.230469 38.417969 17.214844 36.003906 16.394531 33.570312 C 16.066406 32.59375 15.679688 31.570312 15.304688 30.613281 C 15.1875 30.316406 15.074219 30.027344 14.957031 29.726562 C 13.324219 25.546875 11.480469 20.8125 12.464844 16.835938 C 12.9375 14.925781 14.15625 13.3125 15.285156 11.988281 C 15.691406 11.515625 16.117188 11.03125 16.519531 10.570312 C 18.085938 8.8125 19.707031 6.988281 20.449219 4.921875 C 21.03125 3.335938 21.425781 1.996094 20.945312 0.429688 L 20.875 0.449219 C 21.359375 1.996094 20.953125 3.316406 20.382812 4.890625 C 19.640625 6.949219 18.027344 8.761719 16.472656 10.519531 C 16.058594 10.984375 15.632812 11.46875 15.226562 11.941406 C 14.085938 13.273438 12.871094 14.894531 12.386719 16.816406 C 12.195312 17.597656 12.109375 18.410156 12.109375 19.242188 C 12.128906 22.640625 13.585938 26.375 14.898438 29.746094 Z M 14.359375 29.378906 C 14.964844 30.816406 15.546875 32.179688 16 33.464844 C 16.792969 35.753906 17.746094 38.039062 18.664062 40.242188 C 19.785156 42.925781 20.933594 45.699219 21.820312 48.507812 C 22.332031 50.148438 22.933594 52.320312 22.941406 54.542969 C 22.941406 54.550781 22.941406 54.5625 22.941406 54.570312 C 22.941406 55.847656 22.644531 56.667969 22.285156 57.613281 C 22.082031 58.171875 21.871094 58.753906 21.6875 59.488281 L 21.753906 59.507812 C 21.929688 58.773438 22.140625 58.203125 22.34375 57.644531 C 22.691406 56.6875 23 55.867188 23 54.570312 C 23 54.5625 23 54.550781 23 54.542969 C 22.992188 52.3125 22.402344 50.140625 21.878906 48.488281 C 20.992188 45.667969 19.84375 42.898438 18.722656 40.214844 C 17.804688 38.011719 16.859375 35.734375 16.066406 33.433594 C 15.621094 32.140625 15.042969 30.78125 14.425781 29.339844 C 12.679688 25.238281 10.699219 20.574219 11.636719 16.691406 C 12.214844 14.296875 14.117188 12.296875 15.953125 10.355469 C 17.554688 8.667969 19.207031 6.917969 19.996094 4.910156 C 20.644531 3.25 21.058594 1.957031 20.578125 0.410156 L 20.507812 0.429688 C 20.992188 1.957031 20.566406 3.230469 19.929688 4.882812 C 19.148438 6.878906 17.496094 8.617188 15.902344 10.308594 C 14.058594 12.25 12.15625 14.257812 11.566406 16.671875 C 11.394531 17.367188 11.324219 18.089844 11.324219 18.835938 C 11.316406 22.242188 12.910156 25.988281 14.359375 29.378906 Z M 14.359375 29.378906 " clip-rule="nonzero"/></clipPath><linearGradient x1="-0.799964" gradientTransform="matrix(0, 0.0965609, -0.0965609, 0, 30.696036, 0.488204)" y1="114.290001" x2="612.00002" gradientUnits="userSpaceOnUse" y2="114.290001" id="eae960bbf2"><stop stop-opacity="1" stop-color="rgb(0%, 0%, 0%)" offset="0"/><stop stop-opacity="1" stop-color="rgb(0.372314%, 0.338745%, 0.309753%)" offset="0.00390625"/><stop stop-opacity="1" stop-color="rgb(0.746155%, 0.679016%, 0.621033%)" offset="0.0078125"/><stop stop-opacity="1" stop-color="rgb(1.119995%, 1.019287%, 0.932312%)" offset="0.0117187"/><stop stop-opacity="1" stop-color="rgb(1.493835%, 1.359558%, 1.243591%)" offset="0.015625"/><stop stop-opacity="1" stop-color="rgb(1.867676%, 1.699829%, 1.553345%)" offset="0.0195313"/><stop stop-opacity="1" stop-color="rgb(2.241516%, 2.0401%, 1.864624%)" offset="0.0234375"/><stop stop-opacity="1" stop-color="rgb(2.615356%, 2.380371%, 2.175903%)" offset="0.0273438"/><stop stop-opacity="1" stop-color="rgb(2.989197%, 2.720642%, 2.487183%)" offset="0.03125"/><stop stop-opacity="1" stop-color="rgb(3.363037%, 3.060913%, 2.796936%)" offset="0.0351562"/><stop stop-opacity="1" stop-color="rgb(3.736877%, 3.401184%, 3.108215%)" offset="0.0390625"/><stop stop-opacity="1" stop-color="rgb(4.110718%, 3.741455%, 3.419495%)" offset="0.0429688"/><stop stop-opacity="1" stop-color="rgb(4.484558%, 4.081726%, 3.730774%)" offset="0.046875"/><stop stop-opacity="1" stop-color="rgb(4.858398%, 4.421997%, 4.040527%)" offset="0.0507813"/><stop stop-opacity="1" stop-color="rgb(5.232239%, 4.762268%, 4.351807%)" offset="0.0546875"/><stop stop-opacity="1" stop-color="rgb(5.606079%, 5.102539%, 4.663086%)" offset="0.0585938"/><stop stop-opacity="1" stop-color="rgb(5.979919%, 5.44281%, 4.974365%)" offset="0.0625"/><stop stop-opacity="1" stop-color="rgb(6.35376%, 5.783081%, 5.284119%)" offset="0.0664063"/><stop stop-opacity="1" stop-color="rgb(6.7276%, 6.123352%, 5.595398%)" offset="0.0703125"/><stop stop-opacity="1" stop-color="rgb(7.10144%, 6.463623%, 5.906677%)" offset="0.0742188"/><stop stop-opacity="1" stop-color="rgb(7.475281%, 6.803894%, 6.217957%)" offset="0.078125"/><stop stop-opacity="1" stop-color="rgb(7.849121%, 7.144165%, 6.529236%)" offset="0.0820312"/><stop stop-opacity="1" stop-color="rgb(8.222961%, 7.484436%, 6.840515%)" offset="0.0859375"/><stop stop-opacity="1" stop-color="rgb(8.596802%, 7.824707%, 7.150269%)" offset="0.0898438"/><stop stop-opacity="1" stop-color="rgb(8.970642%, 8.164978%, 7.461548%)" offset="0.09375"/><stop stop-opacity="1" stop-color="rgb(9.344482%, 8.505249%, 7.772827%)" offset="0.0976563"/><stop stop-opacity="1" stop-color="rgb(9.718323%, 8.84552%, 8.084106%)" offset="0.101563"/><stop stop-opacity="1" stop-color="rgb(10.092163%, 9.185791%, 8.39386%)" offset="0.105469"/><stop stop-opacity="1" stop-color="rgb(10.466003%, 9.526062%, 8.705139%)" offset="0.109375"/><stop stop-opacity="1" stop-color="rgb(10.839844%, 9.866333%, 9.016418%)" offset="0.113281"/><stop stop-opacity="1" stop-color="rgb(11.213684%, 10.206604%, 9.327698%)" offset="0.117188"/><stop stop-opacity="1" stop-color="rgb(11.587524%, 10.546875%, 9.637451%)" offset="0.121094"/><stop stop-opacity="1" stop-color="rgb(11.961365%, 10.887146%, 9.94873%)" offset="0.125"/><stop stop-opacity="1" stop-color="rgb(12.335205%, 11.227417%, 10.26001%)" offset="0.128906"/><stop stop-opacity="1" stop-color="rgb(12.709045%, 11.567688%, 10.571289%)" offset="0.132813"/><stop stop-opacity="1" stop-color="rgb(13.082886%, 11.907959%, 10.881042%)" offset="0.136719"/><stop stop-opacity="1" stop-color="rgb(13.456726%, 12.24823%, 11.192322%)" offset="0.140625"/><stop stop-opacity="1" stop-color="rgb(13.830566%, 12.588501%, 11.503601%)" offset="0.144531"/><stop stop-opacity="1" stop-color="rgb(14.204407%, 12.928772%, 11.81488%)" offset="0.148438"/><stop stop-opacity="1" stop-color="rgb(14.578247%, 13.269043%, 12.12616%)" offset="0.152344"/><stop stop-opacity="1" stop-color="rgb(14.952087%, 13.609314%, 12.437439%)" offset="0.15625"/><stop stop-opacity="1" stop-color="rgb(15.325928%, 13.948059%, 12.747192%)" offset="0.160156"/><stop stop-opacity="1" stop-color="rgb(15.699768%, 14.28833%, 13.058472%)" offset="0.164062"/><stop stop-opacity="1" stop-color="rgb(16.073608%, 14.628601%, 13.369751%)" offset="0.167969"/><stop stop-opacity="1" stop-color="rgb(16.447449%, 14.968872%, 13.68103%)" offset="0.171875"/><stop stop-opacity="1" stop-color="rgb(16.821289%, 15.309143%, 13.990784%)" offset="0.175781"/><stop stop-opacity="1" stop-color="rgb(17.195129%, 15.649414%, 14.302063%)" offset="0.179688"/><stop stop-opacity="1" stop-color="rgb(17.56897%, 15.989685%, 14.613342%)" offset="0.183594"/><stop stop-opacity="1" stop-color="rgb(17.94281%, 16.329956%, 14.924622%)" offset="0.1875"/><stop stop-opacity="1" stop-color="rgb(18.31665%, 16.670227%, 15.234375%)" offset="0.191406"/><stop stop-opacity="1" stop-color="rgb(18.690491%, 17.010498%, 15.545654%)" offset="0.195313"/><stop stop-opacity="1" stop-color="rgb(19.064331%, 17.350769%, 15.856934%)" offset="0.199219"/><stop stop-opacity="1" stop-color="rgb(19.438171%, 17.69104%, 16.168213%)" offset="0.203125"/><stop stop-opacity="1" stop-color="rgb(19.812012%, 18.031311%, 16.477966%)" offset="0.207031"/><stop stop-opacity="1" stop-color="rgb(20.185852%, 18.371582%, 16.789246%)" offset="0.210938"/><stop stop-opacity="1" stop-color="rgb(20.559692%, 18.711853%, 17.100525%)" offset="0.214844"/><stop stop-opacity="1" stop-color="rgb(20.933533%, 19.052124%, 17.411804%)" offset="0.21875"/><stop stop-opacity="1" stop-color="rgb(21.307373%, 19.392395%, 17.723083%)" offset="0.222656"/><stop stop-opacity="1" stop-color="rgb(21.681213%, 19.732666%, 18.034363%)" offset="0.226563"/><stop stop-opacity="1" stop-color="rgb(22.055054%, 20.072937%, 18.344116%)" offset="0.230469"/><stop stop-opacity="1" stop-color="rgb(22.428894%, 20.413208%, 18.655396%)" offset="0.234375"/><stop stop-opacity="1" stop-color="rgb(22.802734%, 20.753479%, 18.966675%)" offset="0.238281"/><stop stop-opacity="1" stop-color="rgb(23.176575%, 21.09375%, 19.277954%)" offset="0.242188"/><stop stop-opacity="1" stop-color="rgb(23.550415%, 21.434021%, 19.587708%)" offset="0.246094"/><stop stop-opacity="1" stop-color="rgb(23.924255%, 21.774292%, 19.898987%)" offset="0.25"/><stop stop-opacity="1" stop-color="rgb(24.298096%, 22.114563%, 20.210266%)" offset="0.253906"/><stop stop-opacity="1" stop-color="rgb(24.671936%, 22.454834%, 20.521545%)" offset="0.257812"/><stop stop-opacity="1" stop-color="rgb(25.045776%, 22.795105%, 20.831299%)" offset="0.261719"/><stop stop-opacity="1" stop-color="rgb(25.419617%, 23.135376%, 21.142578%)" offset="0.265625"/><stop stop-opacity="1" stop-color="rgb(25.793457%, 23.475647%, 21.453857%)" offset="0.269531"/><stop stop-opacity="1" stop-color="rgb(26.167297%, 23.815918%, 21.765137%)" offset="0.273438"/><stop stop-opacity="1" stop-color="rgb(26.541138%, 24.156189%, 22.07489%)" offset="0.277344"/><stop stop-opacity="1" stop-color="rgb(26.914978%, 24.49646%, 22.386169%)" offset="0.28125"/><stop stop-opacity="1" stop-color="rgb(27.288818%, 24.836731%, 22.697449%)" offset="0.285156"/><stop stop-opacity="1" stop-color="rgb(27.662659%, 25.177002%, 23.008728%)" offset="0.289063"/><stop stop-opacity="1" stop-color="rgb(28.036499%, 25.517273%, 23.318481%)" offset="0.292969"/><stop stop-opacity="1" stop-color="rgb(28.410339%, 25.857544%, 23.629761%)" offset="0.296875"/><stop stop-opacity="1" stop-color="rgb(28.78418%, 26.197815%, 23.94104%)" offset="0.300781"/><stop stop-opacity="1" stop-color="rgb(29.15802%, 26.538086%, 24.252319%)" offset="0.304688"/><stop stop-opacity="1" stop-color="rgb(29.53186%, 26.878357%, 24.563599%)" offset="0.308594"/><stop stop-opacity="1" stop-color="rgb(29.905701%, 27.218628%, 24.874878%)" offset="0.3125"/><stop stop-opacity="1" stop-color="rgb(30.279541%, 27.558899%, 25.184631%)" offset="0.316406"/><stop stop-opacity="1" stop-color="rgb(30.653381%, 27.89917%, 25.495911%)" offset="0.320313"/><stop stop-opacity="1" stop-color="rgb(31.027222%, 28.237915%, 25.80719%)" offset="0.324219"/><stop stop-opacity="1" stop-color="rgb(31.401062%, 28.578186%, 26.118469%)" offset="0.328125"/><stop stop-opacity="1" stop-color="rgb(31.774902%, 28.918457%, 26.428223%)" offset="0.332031"/><stop stop-opacity="1" stop-color="rgb(32.148743%, 29.258728%, 26.739502%)" offset="0.335938"/><stop stop-opacity="1" stop-color="rgb(32.522583%, 29.598999%, 27.050781%)" offset="0.339844"/><stop stop-opacity="1" stop-color="rgb(32.896423%, 29.93927%, 27.362061%)" offset="0.34375"/><stop stop-opacity="1" stop-color="rgb(33.270264%, 30.279541%, 27.671814%)" offset="0.347656"/><stop stop-opacity="1" stop-color="rgb(33.644104%, 30.619812%, 27.983093%)" offset="0.351562"/><stop stop-opacity="1" stop-color="rgb(34.017944%, 30.960083%, 28.294373%)" offset="0.355469"/><stop stop-opacity="1" stop-color="rgb(34.391785%, 31.300354%, 28.605652%)" offset="0.359375"/><stop stop-opacity="1" stop-color="rgb(34.765625%, 31.640625%, 28.915405%)" offset="0.363281"/><stop stop-opacity="1" stop-color="rgb(35.139465%, 31.980896%, 29.226685%)" offset="0.367188"/><stop stop-opacity="1" stop-color="rgb(35.513306%, 32.321167%, 29.537964%)" offset="0.371094"/><stop stop-opacity="1" stop-color="rgb(35.887146%, 32.661438%, 29.849243%)" offset="0.375"/><stop stop-opacity="1" stop-color="rgb(36.260986%, 33.001709%, 30.160522%)" offset="0.378906"/><stop stop-opacity="1" stop-color="rgb(36.634827%, 33.34198%, 30.471802%)" offset="0.382813"/><stop stop-opacity="1" stop-color="rgb(37.008667%, 33.682251%, 30.781555%)" offset="0.386719"/><stop stop-opacity="1" stop-color="rgb(37.382507%, 34.022522%, 31.092834%)" offset="0.390625"/><stop stop-opacity="1" stop-color="rgb(37.756348%, 34.362793%, 31.404114%)" offset="0.394531"/><stop stop-opacity="1" stop-color="rgb(38.130188%, 34.703064%, 31.715393%)" offset="0.398438"/><stop stop-opacity="1" stop-color="rgb(38.504028%, 35.043335%, 32.025146%)" offset="0.402344"/><stop stop-opacity="1" stop-color="rgb(38.877869%, 35.383606%, 32.336426%)" offset="0.40625"/><stop stop-opacity="1" stop-color="rgb(39.251709%, 35.723877%, 32.647705%)" offset="0.410156"/><stop stop-opacity="1" stop-color="rgb(39.625549%, 36.064148%, 32.958984%)" offset="0.414063"/><stop stop-opacity="1" stop-color="rgb(39.99939%, 36.404419%, 33.268738%)" offset="0.417969"/><stop stop-opacity="1" stop-color="rgb(40.37323%, 36.74469%, 33.580017%)" offset="0.421875"/><stop stop-opacity="1" stop-color="rgb(40.74707%, 37.084961%, 33.891296%)" offset="0.425781"/><stop stop-opacity="1" stop-color="rgb(41.120911%, 37.425232%, 34.202576%)" offset="0.429688"/><stop stop-opacity="1" stop-color="rgb(41.494751%, 37.765503%, 34.512329%)" offset="0.433594"/><stop stop-opacity="1" stop-color="rgb(41.868591%, 38.105774%, 34.823608%)" offset="0.4375"/><stop stop-opacity="1" stop-color="rgb(42.242432%, 38.446045%, 35.134888%)" offset="0.441406"/><stop stop-opacity="1" stop-color="rgb(42.616272%, 38.786316%, 35.446167%)" offset="0.445312"/><stop stop-opacity="1" stop-color="rgb(42.990112%, 39.126587%, 35.757446%)" offset="0.449219"/><stop stop-opacity="1" stop-color="rgb(43.363953%, 39.466858%, 36.068726%)" offset="0.453125"/><stop stop-opacity="1" stop-color="rgb(43.737793%, 39.807129%, 36.378479%)" offset="0.457031"/><stop stop-opacity="1" stop-color="rgb(44.111633%, 40.1474%, 36.689758%)" offset="0.460938"/><stop stop-opacity="1" stop-color="rgb(44.485474%, 40.487671%, 37.001038%)" offset="0.464844"/><stop stop-opacity="1" stop-color="rgb(44.859314%, 40.827942%, 37.312317%)" offset="0.46875"/><stop stop-opacity="1" stop-color="rgb(45.233154%, 41.168213%, 37.62207%)" offset="0.472656"/><stop stop-opacity="1" stop-color="rgb(45.606995%, 41.508484%, 37.93335%)" offset="0.476563"/><stop stop-opacity="1" stop-color="rgb(45.980835%, 41.848755%, 38.244629%)" offset="0.480469"/><stop stop-opacity="1" stop-color="rgb(46.354675%, 42.189026%, 38.555908%)" offset="0.484375"/><stop stop-opacity="1" stop-color="rgb(46.72699%, 42.527771%, 38.865662%)" offset="0.488281"/><stop stop-opacity="1" stop-color="rgb(47.10083%, 42.868042%, 39.176941%)" offset="0.492188"/><stop stop-opacity="1" stop-color="rgb(47.47467%, 43.208313%, 39.48822%)" offset="0.496094"/><stop stop-opacity="1" stop-color="rgb(47.848511%, 43.548584%, 39.7995%)" offset="0.5"/><stop stop-opacity="1" stop-color="rgb(48.222351%, 43.888855%, 40.109253%)" offset="0.503906"/><stop stop-opacity="1" stop-color="rgb(48.596191%, 44.229126%, 40.420532%)" offset="0.507812"/><stop stop-opacity="1" stop-color="rgb(48.970032%, 44.569397%, 40.731812%)" offset="0.511719"/><stop stop-opacity="1" stop-color="rgb(49.343872%, 44.909668%, 41.043091%)" offset="0.515625"/><stop stop-opacity="1" stop-color="rgb(49.717712%, 45.249939%, 41.352844%)" offset="0.519531"/><stop stop-opacity="1" stop-color="rgb(50.091553%, 45.59021%, 41.664124%)" offset="0.523438"/><stop stop-opacity="1" stop-color="rgb(50.465393%, 45.930481%, 41.975403%)" offset="0.527344"/><stop stop-opacity="1" stop-color="rgb(50.839233%, 46.270752%, 42.286682%)" offset="0.53125"/><stop stop-opacity="1" stop-color="rgb(51.213074%, 46.611023%, 42.597961%)" offset="0.535156"/><stop stop-opacity="1" stop-color="rgb(51.586914%, 46.951294%, 42.909241%)" offset="0.539062"/><stop stop-opacity="1" stop-color="rgb(51.960754%, 47.291565%, 43.218994%)" offset="0.542969"/><stop stop-opacity="1" stop-color="rgb(52.334595%, 47.631836%, 43.530273%)" offset="0.546875"/><stop stop-opacity="1" stop-color="rgb(52.708435%, 47.972107%, 43.841553%)" offset="0.550781"/><stop stop-opacity="1" stop-color="rgb(53.082275%, 48.312378%, 44.152832%)" offset="0.554688"/><stop stop-opacity="1" stop-color="rgb(53.456116%, 48.652649%, 44.462585%)" offset="0.558594"/><stop stop-opacity="1" stop-color="rgb(53.829956%, 48.99292%, 44.773865%)" offset="0.5625"/><stop stop-opacity="1" stop-color="rgb(54.203796%, 49.333191%, 45.085144%)" offset="0.566406"/><stop stop-opacity="1" stop-color="rgb(54.577637%, 49.673462%, 45.396423%)" offset="0.570313"/><stop stop-opacity="1" stop-color="rgb(54.951477%, 50.013733%, 45.706177%)" offset="0.574219"/><stop stop-opacity="1" stop-color="rgb(55.325317%, 50.354004%, 46.017456%)" offset="0.578125"/><stop stop-opacity="1" stop-color="rgb(55.699158%, 50.694275%, 46.328735%)" offset="0.582031"/><stop stop-opacity="1" stop-color="rgb(56.072998%, 51.034546%, 46.640015%)" offset="0.585938"/><stop stop-opacity="1" stop-color="rgb(56.446838%, 51.374817%, 46.949768%)" offset="0.589844"/><stop stop-opacity="1" stop-color="rgb(56.820679%, 51.715088%, 47.261047%)" offset="0.59375"/><stop stop-opacity="1" stop-color="rgb(57.194519%, 52.055359%, 47.572327%)" offset="0.597656"/><stop stop-opacity="1" stop-color="rgb(57.568359%, 52.39563%, 47.883606%)" offset="0.601562"/><stop stop-opacity="1" stop-color="rgb(57.9422%, 52.735901%, 48.194885%)" offset="0.605469"/><stop stop-opacity="1" stop-color="rgb(58.31604%, 53.076172%, 48.506165%)" offset="0.609375"/><stop stop-opacity="1" stop-color="rgb(58.68988%, 53.416443%, 48.815918%)" offset="0.613281"/><stop stop-opacity="1" stop-color="rgb(59.063721%, 53.756714%, 49.127197%)" offset="0.617188"/><stop stop-opacity="1" stop-color="rgb(59.437561%, 54.096985%, 49.438477%)" offset="0.621094"/><stop stop-opacity="1" stop-color="rgb(59.811401%, 54.437256%, 49.749756%)" offset="0.625"/><stop stop-opacity="1" stop-color="rgb(60.185242%, 54.777527%, 50.059509%)" offset="0.628906"/><stop stop-opacity="1" stop-color="rgb(60.559082%, 55.117798%, 50.370789%)" offset="0.632812"/><stop stop-opacity="1" stop-color="rgb(60.932922%, 55.458069%, 50.682068%)" offset="0.636719"/><stop stop-opacity="1" stop-color="rgb(61.306763%, 55.79834%, 50.993347%)" offset="0.640625"/><stop stop-opacity="1" stop-color="rgb(61.680603%, 56.138611%, 51.303101%)" offset="0.644531"/><stop stop-opacity="1" stop-color="rgb(62.054443%, 56.478882%, 51.61438%)" offset="0.648438"/><stop stop-opacity="1" stop-color="rgb(62.428284%, 56.817627%, 51.925659%)" offset="0.652344"/><stop stop-opacity="1" stop-color="rgb(62.802124%, 57.157898%, 52.236938%)" offset="0.65625"/><stop stop-opacity="1" stop-color="rgb(63.175964%, 57.498169%, 52.546692%)" offset="0.660156"/><stop stop-opacity="1" stop-color="rgb(63.549805%, 57.83844%, 52.857971%)" offset="0.664063"/><stop stop-opacity="1" stop-color="rgb(63.923645%, 58.178711%, 53.16925%)" offset="0.667969"/><stop stop-opacity="1" stop-color="rgb(64.297485%, 58.518982%, 53.48053%)" offset="0.671875"/><stop stop-opacity="1" stop-color="rgb(64.671326%, 58.859253%, 53.791809%)" offset="0.675781"/><stop stop-opacity="1" stop-color="rgb(65.045166%, 59.199524%, 54.103088%)" offset="0.679688"/><stop stop-opacity="1" stop-color="rgb(65.419006%, 59.539795%, 54.412842%)" offset="0.683594"/><stop stop-opacity="1" stop-color="rgb(65.792847%, 59.880066%, 54.724121%)" offset="0.6875"/><stop stop-opacity="1" stop-color="rgb(66.166687%, 60.220337%, 55.0354%)" offset="0.691406"/><stop stop-opacity="1" stop-color="rgb(66.540527%, 60.560608%, 55.34668%)" offset="0.695312"/><stop stop-opacity="1" stop-color="rgb(66.914368%, 60.900879%, 55.656433%)" offset="0.699219"/><stop stop-opacity="1" stop-color="rgb(67.288208%, 61.24115%, 55.967712%)" offset="0.703125"/><stop stop-opacity="1" stop-color="rgb(67.662048%, 61.581421%, 56.278992%)" offset="0.707031"/><stop stop-opacity="1" stop-color="rgb(68.035889%, 61.921692%, 56.590271%)" offset="0.710938"/><stop stop-opacity="1" stop-color="rgb(68.409729%, 62.261963%, 56.900024%)" offset="0.714844"/><stop stop-opacity="1" stop-color="rgb(68.783569%, 62.602234%, 57.211304%)" offset="0.71875"/><stop stop-opacity="1" stop-color="rgb(69.15741%, 62.942505%, 57.522583%)" offset="0.722656"/><stop stop-opacity="1" stop-color="rgb(69.53125%, 63.282776%, 57.833862%)" offset="0.726562"/><stop stop-opacity="1" stop-color="rgb(69.90509%, 63.623047%, 58.143616%)" offset="0.730469"/><stop stop-opacity="1" stop-color="rgb(70.278931%, 63.963318%, 58.454895%)" offset="0.734375"/><stop stop-opacity="1" stop-color="rgb(70.652771%, 64.303589%, 58.766174%)" offset="0.738281"/><stop stop-opacity="1" stop-color="rgb(71.026611%, 64.64386%, 59.077454%)" offset="0.742188"/><stop stop-opacity="1" stop-color="rgb(71.400452%, 64.984131%, 59.387207%)" offset="0.746094"/><stop stop-opacity="1" stop-color="rgb(71.774292%, 65.324402%, 59.698486%)" offset="0.75"/><stop stop-opacity="1" stop-color="rgb(72.148132%, 65.664673%, 60.009766%)" offset="0.753906"/><stop stop-opacity="1" stop-color="rgb(72.521973%, 66.004944%, 60.321045%)" offset="0.757813"/><stop stop-opacity="1" stop-color="rgb(72.895813%, 66.345215%, 60.632324%)" offset="0.761719"/><stop stop-opacity="1" stop-color="rgb(73.269653%, 66.685486%, 60.943604%)" offset="0.765625"/><stop stop-opacity="1" stop-color="rgb(73.643494%, 67.025757%, 61.253357%)" offset="0.769531"/><stop stop-opacity="1" stop-color="rgb(74.017334%, 67.366028%, 61.564636%)" offset="0.773438"/><stop stop-opacity="1" stop-color="rgb(74.391174%, 67.706299%, 61.875916%)" offset="0.777344"/><stop stop-opacity="1" stop-color="rgb(74.765015%, 68.04657%, 62.187195%)" offset="0.78125"/><stop stop-opacity="1" stop-color="rgb(75.138855%, 68.386841%, 62.496948%)" offset="0.785156"/><stop stop-opacity="1" stop-color="rgb(75.512695%, 68.727112%, 62.808228%)" offset="0.789062"/><stop stop-opacity="1" stop-color="rgb(75.886536%, 69.067383%, 63.119507%)" offset="0.792969"/><stop stop-opacity="1" stop-color="rgb(76.260376%, 69.407654%, 63.430786%)" offset="0.796875"/><stop stop-opacity="1" stop-color="rgb(76.634216%, 69.747925%, 63.74054%)" offset="0.800781"/><stop stop-opacity="1" stop-color="rgb(77.008057%, 70.088196%, 64.051819%)" offset="0.804688"/><stop stop-opacity="1" stop-color="rgb(77.381897%, 70.428467%, 64.363098%)" offset="0.808594"/><stop stop-opacity="1" stop-color="rgb(77.755737%, 70.768738%, 64.674377%)" offset="0.8125"/><stop stop-opacity="1" stop-color="rgb(78.129578%, 71.107483%, 64.984131%)" offset="0.816406"/><stop stop-opacity="1" stop-color="rgb(78.503418%, 71.447754%, 65.29541%)" offset="0.820312"/><stop stop-opacity="1" stop-color="rgb(78.877258%, 71.788025%, 65.606689%)" offset="0.824219"/><stop stop-opacity="1" stop-color="rgb(79.251099%, 72.128296%, 65.917969%)" offset="0.828125"/><stop stop-opacity="1" stop-color="rgb(79.624939%, 72.468567%, 66.229248%)" offset="0.832031"/><stop stop-opacity="1" stop-color="rgb(79.998779%, 72.808838%, 66.540527%)" offset="0.835938"/><stop stop-opacity="1" stop-color="rgb(80.37262%, 73.149109%, 66.850281%)" offset="0.839844"/><stop stop-opacity="1" stop-color="rgb(80.74646%, 73.48938%, 67.16156%)" offset="0.84375"/><stop stop-opacity="1" stop-color="rgb(81.1203%, 73.829651%, 67.472839%)" offset="0.847656"/><stop stop-opacity="1" stop-color="rgb(81.494141%, 74.169922%, 67.784119%)" offset="0.851563"/><stop stop-opacity="1" stop-color="rgb(81.867981%, 74.510193%, 68.093872%)" offset="0.855469"/><stop stop-opacity="1" stop-color="rgb(82.241821%, 74.850464%, 68.405151%)" offset="0.859375"/><stop stop-opacity="1" stop-color="rgb(82.615662%, 75.190735%, 68.716431%)" offset="0.863281"/><stop stop-opacity="1" stop-color="rgb(82.989502%, 75.531006%, 69.02771%)" offset="0.867188"/><stop stop-opacity="1" stop-color="rgb(83.363342%, 75.871277%, 69.337463%)" offset="0.871094"/><stop stop-opacity="1" stop-color="rgb(83.737183%, 76.211548%, 69.648743%)" offset="0.875"/><stop stop-opacity="1" stop-color="rgb(84.111023%, 76.551819%, 69.960022%)" offset="0.878906"/><stop stop-opacity="1" stop-color="rgb(84.484863%, 76.89209%, 70.271301%)" offset="0.882812"/><stop stop-opacity="1" stop-color="rgb(84.858704%, 77.232361%, 70.581055%)" offset="0.886719"/><stop stop-opacity="1" stop-color="rgb(85.232544%, 77.572632%, 70.892334%)" offset="0.890625"/><stop stop-opacity="1" stop-color="rgb(85.606384%, 77.912903%, 71.203613%)" offset="0.894531"/><stop stop-opacity="1" stop-color="rgb(85.980225%, 78.253174%, 71.514893%)" offset="0.898438"/><stop stop-opacity="1" stop-color="rgb(86.354065%, 78.593445%, 71.826172%)" offset="0.902344"/><stop stop-opacity="1" stop-color="rgb(86.727905%, 78.933716%, 72.137451%)" offset="0.90625"/><stop stop-opacity="1" stop-color="rgb(87.101746%, 79.273987%, 72.447205%)" offset="0.910156"/><stop stop-opacity="1" stop-color="rgb(87.475586%, 79.614258%, 72.758484%)" offset="0.914062"/><stop stop-opacity="1" stop-color="rgb(87.849426%, 79.954529%, 73.069763%)" offset="0.917969"/><stop stop-opacity="1" stop-color="rgb(88.223267%, 80.2948%, 73.381042%)" offset="0.921875"/><stop stop-opacity="1" stop-color="rgb(88.597107%, 80.635071%, 73.690796%)" offset="0.925781"/><stop stop-opacity="1" stop-color="rgb(88.970947%, 80.975342%, 74.002075%)" offset="0.929688"/><stop stop-opacity="1" stop-color="rgb(89.344788%, 81.315613%, 74.313354%)" offset="0.933594"/><stop stop-opacity="1" stop-color="rgb(89.718628%, 81.655884%, 74.624634%)" offset="0.9375"/><stop stop-opacity="1" stop-color="rgb(90.092468%, 81.996155%, 74.934387%)" offset="0.941406"/><stop stop-opacity="1" stop-color="rgb(90.466309%, 82.336426%, 75.245667%)" offset="0.945313"/><stop stop-opacity="1" stop-color="rgb(90.840149%, 82.676697%, 75.556946%)" offset="0.949219"/><stop stop-opacity="1" stop-color="rgb(91.213989%, 83.016968%, 75.868225%)" offset="0.953125"/><stop stop-opacity="1" stop-color="rgb(91.58783%, 83.357239%, 76.177979%)" offset="0.957031"/><stop stop-opacity="1" stop-color="rgb(91.96167%, 83.69751%, 76.489258%)" offset="0.960938"/><stop stop-opacity="1" stop-color="rgb(92.33551%, 84.037781%, 76.800537%)" offset="0.964844"/><stop stop-opacity="1" stop-color="rgb(92.709351%, 84.378052%, 77.111816%)" offset="0.96875"/><stop stop-opacity="1" stop-color="rgb(93.083191%, 84.718323%, 77.423096%)" offset="0.972656"/><stop stop-opacity="1" stop-color="rgb(93.457031%, 85.058594%, 77.734375%)" offset="0.976562"/><stop stop-opacity="1" stop-color="rgb(93.829346%, 85.397339%, 78.044128%)" offset="0.980469"/><stop stop-opacity="1" stop-color="rgb(94.203186%, 85.73761%, 78.355408%)" offset="0.984375"/><stop stop-opacity="1" stop-color="rgb(94.577026%, 86.077881%, 78.666687%)" offset="0.988281"/><stop stop-opacity="1" stop-color="rgb(94.950867%, 86.418152%, 78.977966%)" offset="0.992188"/><stop stop-opacity="1" stop-color="rgb(95.324707%, 86.758423%, 79.28772%)" offset="0.996094"/><stop stop-opacity="1" stop-color="rgb(95.698547%, 87.098694%, 79.598999%)" offset="1"/></linearGradient></defs><g clip-path="url(#218b3763e1)"><g clip-path="url(#fb2e18725d)"><path fill="url(#eae960bbf2)" d="M 28.367188 0.410156 L 10.699219 0.410156 L 10.699219 59.582031 L 28.367188 59.582031 Z M 28.367188 0.410156 " fill-rule="nonzero"/></g></g></svg>