<svg xmlns="http://www.w3.org/2000/svg" xmlns:xlink="http://www.w3.org/1999/xlink" width="50" zoomAndPan="magnify" viewBox="0 0 37.5 112.499998" height="150" preserveAspectRatio="xMidYMid meet" version="1.0"><defs><clipPath id="08be6c45d0"><path d="M 5 0.492188 L 37 0.492188 L 37 111.507812 L 5 111.507812 Z M 5 0.492188 " clip-rule="nonzero"/></clipPath><clipPath id="6b9029664d"><path d="M 20.035156 54.152344 C 20.035156 43.921875 22.300781 33.835938 26.773438 24.078125 C 29.667969 17.777344 32.691406 9.414062 30.339844 0.632812 L 30.464844 0.597656 C 32.820312 9.414062 29.796875 17.796875 26.878906 24.132812 C 21.648438 35.503906 19.457031 47.34375 20.34375 59.328125 C 20.960938 67.675781 24.707031 75.605469 28.328125 83.28125 C 32.601562 92.300781 37 101.605469 36.203125 111.472656 L 36.078125 111.453125 C 36.875 101.625 32.492188 92.316406 28.257812 83.320312 C 24.636719 75.625 20.886719 67.695312 20.253906 59.3125 C 20.109375 57.609375 20.035156 55.871094 20.035156 54.152344 Z M 19.457031 59.113281 C 19.65625 60.996094 20 62.894531 20.433594 64.726562 C 21.917969 70.917969 24.726562 76.945312 27.421875 82.777344 C 28.78125 85.691406 30.175781 88.695312 31.390625 91.664062 C 33.035156 95.722656 34.066406 99.089844 34.664062 102.273438 C 35.207031 105.296875 35.335938 108.375 35.011719 111.4375 L 35.136719 111.453125 C 35.460938 108.394531 35.335938 105.296875 34.792969 102.257812 C 34.214844 99.070312 33.164062 95.683594 31.515625 91.628906 C 30.300781 88.640625 28.910156 85.636719 27.550781 82.722656 C 24.835938 76.890625 22.046875 70.863281 20.5625 64.6875 C 20.109375 62.839844 19.785156 60.957031 19.585938 59.074219 C 18.625 49.859375 19.3125 41.222656 21.648438 33.4375 C 22.644531 30.179688 23.929688 26.976562 25.46875 23.914062 C 29.308594 16.128906 30.101562 11.765625 30.355469 8.835938 C 30.644531 5.847656 30.429688 3.148438 29.742188 0.578125 L 29.613281 0.613281 C 30.300781 3.167969 30.5 5.847656 30.230469 8.816406 C 29.957031 11.75 29.160156 16.09375 25.339844 23.863281 C 23.800781 26.921875 22.515625 30.125 21.503906 33.402344 C 19.835938 38.941406 19.003906 44.898438 19.003906 51.199219 C 19.023438 53.789062 19.167969 56.433594 19.457031 59.113281 Z M 18.660156 58.914062 C 18.933594 60.796875 19.292969 62.679688 19.765625 64.527344 C 21.285156 70.574219 24 76.492188 26.609375 82.214844 C 28.019531 85.273438 29.46875 88.441406 30.71875 91.59375 C 32.367188 95.738281 33.363281 99.125 33.871094 102.257812 C 34.339844 105.097656 34.359375 107.851562 33.941406 111.4375 L 34.066406 111.453125 C 34.484375 107.871094 34.449219 105.097656 33.996094 102.238281 C 33.488281 99.105469 32.476562 95.703125 30.828125 91.539062 C 29.597656 88.386719 28.148438 85.21875 26.734375 82.160156 C 24.109375 76.4375 21.414062 70.535156 19.890625 64.507812 C 19.421875 62.660156 19.058594 60.777344 18.789062 58.894531 C 17.449219 49.007812 17.863281 40.625 20.035156 33.238281 C 20.90625 30.289062 22.210938 27.175781 24.019531 23.769531 C 26.464844 19.152344 28.816406 14.15625 29.453125 8.886719 C 29.832031 5.738281 29.6875 3.113281 29 0.613281 L 28.871094 0.652344 C 29.558594 3.132812 29.703125 5.738281 29.308594 8.871094 C 28.65625 14.121094 26.320312 19.101562 23.875 23.699219 C 22.066406 27.121094 20.761719 30.234375 19.890625 33.203125 C 18.550781 37.785156 17.882812 42.746094 17.882812 48.210938 C 17.902344 51.5625 18.152344 55.128906 18.660156 58.914062 Z M 17.882812 58.695312 C 18.171875 60.433594 18.570312 62.261719 19.09375 64.289062 C 20.632812 70.210938 23.257812 76.003906 25.792969 81.597656 C 27.261719 84.820312 28.761719 88.171875 30.050781 91.484375 C 31.695312 95.738281 32.636719 99.070312 33.089844 102.21875 C 33.523438 105.296875 33.34375 107.921875 32.890625 111.398438 L 33.019531 111.417969 C 33.472656 107.921875 33.652344 105.28125 33.21875 102.203125 C 32.765625 99.015625 31.824219 95.703125 30.175781 91.429688 C 28.890625 88.097656 27.386719 84.765625 25.921875 81.527344 C 23.386719 75.933594 20.777344 70.136719 19.238281 64.234375 C 18.714844 62.207031 18.316406 60.378906 18.027344 58.640625 C 16.289062 48.175781 16.433594 40.011719 18.460938 32.96875 C 19.3125 30.015625 20.617188 27.03125 22.609375 23.535156 C 25.195312 18.953125 27.785156 14.03125 28.582031 8.851562 C 29.054688 5.613281 28.960938 3.039062 28.273438 0.578125 L 28.148438 0.613281 C 28.835938 3.058594 28.910156 5.59375 28.417969 8.851562 C 27.640625 14.011719 25.050781 18.917969 22.464844 23.5 C 20.472656 26.992188 19.148438 30 18.296875 32.949219 C 17.210938 36.753906 16.667969 40.878906 16.667969 45.496094 C 16.667969 49.480469 17.085938 53.84375 17.882812 58.695312 Z M 17.105469 58.476562 C 17.449219 60.179688 17.863281 61.953125 18.445312 64.074219 C 20 69.832031 22.535156 75.496094 24.980469 80.964844 C 26.5 84.367188 28.074219 87.882812 29.398438 91.394531 C 31.027344 95.703125 31.933594 99.035156 32.3125 102.203125 C 32.710938 105.460938 32.347656 108.015625 31.878906 111.273438 L 31.859375 111.398438 L 31.984375 111.417969 L 32.003906 111.292969 C 32.476562 108.03125 32.855469 105.460938 32.4375 102.183594 C 32.039062 98.996094 31.152344 95.667969 29.503906 91.339844 C 28.183594 87.828125 26.609375 84.316406 25.089844 80.910156 C 22.644531 75.441406 20.128906 69.777344 18.570312 64.035156 C 17.992188 61.917969 17.574219 60.144531 17.230469 58.460938 C 15.671875 50.546875 14.40625 41.316406 16.832031 32.75 C 17.648438 29.855469 19.023438 26.867188 21.140625 23.371094 C 24.273438 18.160156 26.753906 13.777344 27.640625 8.886719 C 28.074219 6.5 28.402344 3.636719 27.53125 0.578125 L 27.40625 0.613281 C 28.273438 3.636719 27.949219 6.480469 27.515625 8.871094 C 26.628906 13.722656 24.164062 18.105469 21.03125 23.300781 C 18.894531 26.8125 17.539062 29.800781 16.707031 32.714844 C 15.726562 36.191406 15.347656 39.777344 15.347656 43.324219 C 15.347656 48.558594 16.179688 53.753906 17.105469 58.476562 Z M 16.324219 58.261719 C 16.761719 60.144531 17.265625 61.972656 17.773438 63.835938 C 19.367188 69.433594 21.792969 74.953125 24.128906 80.277344 C 25.703125 83.863281 27.351562 87.574219 28.710938 91.285156 C 29.796875 94.21875 31.082031 98.109375 31.515625 102.167969 C 31.824219 105.097656 31.460938 107.308594 31.007812 110.097656 C 30.9375 110.511719 30.863281 110.929688 30.792969 111.382812 L 30.917969 111.398438 C 30.992188 110.964844 31.0625 110.53125 31.136719 110.113281 C 31.605469 107.308594 31.96875 105.097656 31.640625 102.148438 C 31.226562 98.074219 29.921875 94.183594 28.835938 91.230469 C 27.476562 87.519531 25.832031 83.808594 24.253906 80.203125 C 21.917969 74.882812 19.492188 69.378906 17.902344 63.785156 C 17.394531 61.917969 16.886719 60.089844 16.453125 58.207031 C 14.480469 49.660156 12.976562 40.625 15.238281 32.480469 C 16.035156 29.617188 17.449219 26.667969 19.710938 23.15625 L 19.964844 22.773438 C 22.789062 18.355469 25.703125 13.792969 26.753906 8.886719 C 27.386719 5.917969 27.640625 3.367188 26.828125 0.558594 L 26.699219 0.597656 C 27.515625 3.382812 27.261719 5.917969 26.628906 8.851562 C 25.59375 13.742188 22.679688 18.285156 19.855469 22.703125 L 19.601562 23.082031 C 17.339844 26.613281 15.910156 29.582031 15.113281 32.441406 C 14.296875 35.359375 13.972656 38.382812 13.972656 41.441406 C 13.972656 47.019531 15.039062 52.738281 16.324219 58.261719 Z M 15.527344 58.042969 C 16.015625 59.890625 16.542969 61.683594 17.050781 63.4375 L 17.105469 63.621094 C 18.695312 69.050781 21.03125 74.394531 23.277344 79.570312 C 24.925781 83.355469 26.628906 87.285156 28.039062 91.195312 C 29.109375 94.164062 30.375 98.09375 30.71875 102.148438 C 30.953125 104.882812 30.554688 106.945312 30.101562 109.335938 C 29.976562 109.988281 29.851562 110.65625 29.722656 111.363281 L 29.851562 111.382812 C 29.976562 110.65625 30.101562 109.988281 30.230469 109.355469 C 30.683594 106.945312 31.082031 104.882812 30.84375 102.128906 C 30.5 98.054688 29.214844 94.109375 28.148438 91.140625 C 26.734375 87.210938 25.035156 83.300781 23.386719 79.5 C 21.140625 74.320312 18.804688 68.980469 17.210938 63.566406 L 17.15625 63.386719 C 16.652344 61.648438 16.125 59.835938 15.636719 58.007812 C 13.410156 49.40625 11.417969 40.335938 13.609375 32.261719 C 14.386719 29.402344 15.816406 26.539062 18.246094 22.972656 C 18.496094 22.613281 18.734375 22.25 18.988281 21.886719 C 21.8125 17.777344 24.707031 13.523438 25.832031 8.90625 C 26.574219 5.808594 26.878906 3.332031 26.066406 0.558594 L 25.9375 0.597656 C 26.753906 3.332031 26.445312 5.792969 25.703125 8.871094 C 24.597656 13.46875 21.703125 17.707031 18.894531 21.796875 C 18.644531 22.160156 18.40625 22.523438 18.152344 22.882812 C 15.710938 26.449219 14.28125 29.328125 13.5 32.207031 C 12.832031 34.6875 12.542969 37.257812 12.542969 39.882812 C 12.542969 45.859375 13.988281 52.070312 15.527344 58.042969 Z M 14.75 57.828125 C 15.09375 58.96875 15.4375 60.089844 15.765625 61.195312 C 16 61.9375 16.214844 62.679688 16.433594 63.402344 C 18.027344 68.636719 20.253906 73.8125 22.410156 78.8125 C 24.128906 82.8125 25.902344 86.957031 27.351562 91.105469 C 28.402344 94.074219 29.632812 98.019531 29.921875 102.128906 C 30.101562 104.738281 29.667969 106.621094 29.179688 108.828125 C 29 109.625 28.816406 110.441406 28.65625 111.34375 L 28.78125 111.363281 C 28.945312 110.457031 29.125 109.644531 29.308594 108.847656 C 29.796875 106.636719 30.230469 104.738281 30.050781 102.113281 C 29.757812 97.984375 28.527344 94.035156 27.476562 91.050781 C 26.03125 86.902344 24.238281 82.757812 22.515625 78.757812 C 20.363281 73.757812 18.136719 68.582031 16.542969 63.347656 C 16.324219 62.625 16.089844 61.882812 15.871094 61.140625 C 15.527344 60.054688 15.183594 58.914062 14.859375 57.773438 C 12.089844 48.25 9.953125 39.738281 12 31.992188 C 12.957031 28.351562 15.074219 25.148438 16.796875 22.757812 C 17.195312 22.214844 17.59375 21.671875 17.972656 21.128906 C 20.777344 17.269531 23.695312 13.269531 24.890625 8.886719 C 25.613281 6.207031 26.191406 3.546875 25.304688 0.523438 L 25.179688 0.558594 C 26.066406 3.546875 25.488281 6.191406 24.761719 8.851562 C 23.585938 13.214844 20.671875 17.199219 17.863281 21.035156 C 17.464844 21.582031 17.066406 22.125 16.6875 22.667969 C 14.949219 25.054688 12.832031 28.277344 11.871094 31.9375 C 11.292969 34.109375 11.039062 36.335938 11.039062 38.617188 C 11.074219 44.589844 12.742188 50.945312 14.75 57.828125 Z M 13.898438 57.429688 L 13.953125 57.609375 C 14.152344 58.226562 14.351562 58.859375 14.570312 59.457031 C 14.984375 60.742188 15.402344 61.953125 15.765625 63.148438 C 17.355469 68.183594 19.476562 73.160156 21.519531 77.976562 C 23.3125 82.195312 25.179688 86.578125 26.679688 90.976562 C 27.714844 93.984375 28.910156 97.964844 29.125 102.074219 C 29.253906 104.59375 28.800781 106.367188 28.273438 108.429688 C 28.039062 109.316406 27.804688 110.242188 27.585938 111.308594 L 27.714844 111.328125 C 27.929688 110.257812 28.167969 109.335938 28.382812 108.449219 C 28.910156 106.382812 29.359375 104.59375 29.234375 102.058594 C 29.015625 97.929688 27.804688 93.945312 26.773438 90.921875 C 25.269531 86.523438 23.40625 82.140625 21.613281 77.921875 C 19.566406 73.109375 17.449219 68.128906 15.855469 63.09375 C 15.472656 61.882812 15.074219 60.667969 14.660156 59.382812 C 14.460938 58.769531 14.261719 58.152344 14.042969 57.535156 L 13.988281 57.355469 C 11.328125 49.101562 8.304688 39.738281 10.367188 31.753906 C 11.292969 28.152344 13.5 24.949219 15.328125 22.574219 C 15.855469 21.886719 16.378906 21.21875 16.90625 20.546875 C 19.746094 16.890625 22.699219 13.105469 23.964844 8.925781 C 24.816406 6.101562 25.449219 3.527344 24.546875 0.542969 L 24.417969 0.578125 C 25.304688 3.527344 24.691406 6.082031 23.839844 8.886719 C 22.570312 13.050781 19.636719 16.820312 16.796875 20.476562 C 16.269531 21.144531 15.746094 21.832031 15.222656 22.503906 C 13.390625 24.894531 11.164062 28.117188 10.242188 31.738281 C 9.753906 33.601562 9.554688 35.558594 9.554688 37.53125 C 9.589844 44.085938 11.851562 51.074219 13.898438 57.429688 Z M 12.832031 56.378906 L 13.375 57.917969 C 14.007812 59.671875 14.585938 61.320312 15.113281 62.949219 C 16.667969 67.765625 18.695312 72.546875 20.632812 77.164062 C 22.515625 81.636719 24.472656 86.25 26.011719 90.921875 C 27.027344 93.964844 28.203125 97.984375 28.347656 102.09375 C 28.4375 104.554688 27.949219 106.238281 27.371094 108.195312 C 27.078125 109.15625 26.789062 110.152344 26.535156 111.34375 L 26.664062 111.382812 C 26.917969 110.203125 27.207031 109.210938 27.496094 108.25 C 28.074219 106.292969 28.5625 104.59375 28.472656 102.113281 C 28.328125 97.984375 27.152344 93.945312 26.136719 90.90625 C 24.597656 86.234375 22.644531 81.617188 20.742188 77.144531 C 18.789062 72.527344 16.777344 67.765625 15.222656 62.949219 C 14.695312 61.320312 14.097656 59.671875 13.484375 57.917969 L 12.941406 56.378906 C 10.078125 48.359375 6.855469 39.269531 8.8125 31.574219 C 9.71875 27.988281 11.90625 24.949219 13.933594 22.429688 C 14.585938 21.632812 15.257812 20.820312 15.910156 20.042969 C 18.789062 16.582031 21.773438 13 23.097656 8.980469 C 24.074219 6.027344 24.761719 3.527344 23.855469 0.578125 L 23.730469 0.613281 C 24.617188 3.511719 23.949219 5.992188 22.96875 8.925781 C 21.648438 12.925781 18.679688 16.492188 15.800781 19.949219 C 15.148438 20.730469 14.480469 21.542969 13.828125 22.339844 C 11.800781 24.855469 9.589844 27.933594 8.667969 31.539062 C 8.25 33.1875 8.070312 34.90625 8.070312 36.644531 C 8.085938 43.070312 10.566406 50.058594 12.832031 56.378906 Z M 11.746094 55.527344 C 11.960938 56.089844 12.179688 56.648438 12.394531 57.191406 C 13.101562 58.984375 13.828125 60.90625 14.441406 62.734375 C 15.980469 67.296875 17.882812 71.839844 19.710938 76.222656 C 21.703125 80.964844 23.75 85.851562 25.339844 90.832031 C 26.335938 93.875 27.476562 97.894531 27.570312 102.058594 C 27.605469 104.484375 27.078125 106.09375 26.464844 107.941406 C 26.121094 108.957031 25.777344 110.003906 25.488281 111.308594 L 25.613281 111.34375 C 25.902344 110.058594 26.246094 109.011719 26.589844 107.996094 C 27.207031 106.132812 27.730469 104.519531 27.695312 102.058594 C 27.605469 97.875 26.464844 93.835938 25.46875 90.777344 C 23.875 85.816406 21.8125 80.910156 19.820312 76.167969 C 17.992188 71.785156 16.089844 67.257812 14.550781 62.695312 C 13.933594 60.867188 13.210938 58.949219 12.503906 57.15625 C 12.289062 56.59375 12.070312 56.050781 11.851562 55.492188 C 8.792969 47.652344 5.335938 38.78125 7.183594 31.320312 C 8.070312 27.734375 10.351562 24.710938 12.46875 22.230469 C 13.230469 21.34375 14.027344 20.441406 14.785156 19.570312 C 17.71875 16.273438 20.761719 12.851562 22.15625 8.980469 C 23.242188 6.007812 23.984375 3.492188 23.078125 0.558594 L 22.953125 0.597656 C 23.855469 3.492188 23.097656 5.972656 22.027344 8.925781 C 20.632812 12.78125 17.609375 16.183594 14.695312 19.480469 C 13.917969 20.347656 13.121094 21.253906 12.359375 22.140625 C 10.222656 24.640625 7.941406 27.679688 7.039062 31.285156 C 6.675781 32.75 6.511719 34.273438 6.511719 35.828125 C 6.546875 42.203125 9.28125 49.207031 11.746094 55.527344 Z M 10.730469 54.839844 C 11.871094 57.535156 12.957031 60.089844 13.808594 62.496094 C 15.292969 66.789062 17.085938 71.078125 18.804688 75.207031 C 20.90625 80.242188 23.058594 85.4375 24.726562 90.707031 C 25.6875 93.785156 26.808594 97.855469 26.828125 102.019531 C 26.828125 102.039062 26.828125 102.058594 26.828125 102.074219 C 26.828125 104.464844 26.265625 106.003906 25.59375 107.777344 C 25.214844 108.828125 24.816406 109.914062 24.472656 111.292969 L 24.597656 111.328125 C 24.925781 109.953125 25.324219 108.882812 25.703125 107.832031 C 26.355469 106.039062 26.933594 104.5 26.933594 102.074219 C 26.933594 102.058594 26.933594 102.039062 26.933594 102.019531 C 26.917969 97.839844 25.8125 93.765625 24.835938 90.667969 C 23.167969 85.382812 21.015625 80.1875 18.914062 75.152344 C 17.195312 71.023438 15.421875 66.753906 13.933594 62.445312 C 13.101562 60.015625 12.015625 57.464844 10.859375 54.765625 C 7.582031 47.070312 3.867188 38.328125 5.625 31.050781 C 6.710938 26.558594 10.277344 22.8125 13.71875 19.171875 C 16.722656 16.003906 19.820312 12.726562 21.304688 8.960938 C 22.515625 5.847656 23.296875 3.421875 22.390625 0.523438 L 22.265625 0.558594 C 23.167969 3.421875 22.371094 5.8125 21.175781 8.90625 C 19.710938 12.65625 16.613281 15.914062 13.628906 19.082031 C 10.167969 22.722656 6.601562 26.488281 5.5 31.011719 C 5.171875 32.316406 5.046875 33.675781 5.046875 35.070312 C 5.027344 41.460938 8.015625 48.484375 10.730469 54.839844 Z M 10.730469 54.839844 " clip-rule="nonzero"/></clipPath><linearGradient x1="-0.800008" gradientTransform="matrix(0, 0.181052, -0.181052, 0, 41.364689, 0.668667)" y1="114.290001" x2="611.999972" gradientUnits="userSpaceOnUse" y2="114.290001" id="4b54fa68f3"><stop stop-opacity="1" stop-color="rgb(0%, 0%, 0%)" offset="0"/><stop stop-opacity="1" stop-color="rgb(0.0961304%, 0.389099%, 0.363159%)" offset="0.00390625"/><stop stop-opacity="1" stop-color="rgb(0.192261%, 0.779724%, 0.727844%)" offset="0.0078125"/><stop stop-opacity="1" stop-color="rgb(0.288391%, 1.170349%, 1.092529%)" offset="0.0117188"/><stop stop-opacity="1" stop-color="rgb(0.384521%, 1.560974%, 1.457214%)" offset="0.015625"/><stop stop-opacity="1" stop-color="rgb(0.480652%, 1.951599%, 1.821899%)" offset="0.0195313"/><stop stop-opacity="1" stop-color="rgb(0.578308%, 2.342224%, 2.186584%)" offset="0.0234375"/><stop stop-opacity="1" stop-color="rgb(0.674438%, 2.732849%, 2.549744%)" offset="0.0273437"/><stop stop-opacity="1" stop-color="rgb(0.770569%, 3.123474%, 2.914429%)" offset="0.03125"/><stop stop-opacity="1" stop-color="rgb(0.866699%, 3.514099%, 3.279114%)" offset="0.0351562"/><stop stop-opacity="1" stop-color="rgb(0.964355%, 3.904724%, 3.643799%)" offset="0.0390625"/><stop stop-opacity="1" stop-color="rgb(1.060486%, 4.295349%, 4.008484%)" offset="0.0429687"/><stop stop-opacity="1" stop-color="rgb(1.156616%, 4.685974%, 4.373169%)" offset="0.046875"/><stop stop-opacity="1" stop-color="rgb(1.252747%, 5.076599%, 4.736328%)" offset="0.0507812"/><stop stop-opacity="1" stop-color="rgb(1.350403%, 5.467224%, 5.101013%)" offset="0.0546875"/><stop stop-opacity="1" stop-color="rgb(1.446533%, 5.857849%, 5.465698%)" offset="0.0585937"/><stop stop-opacity="1" stop-color="rgb(1.542664%, 6.248474%, 5.830383%)" offset="0.0625"/><stop stop-opacity="1" stop-color="rgb(1.638794%, 6.639099%, 6.195068%)" offset="0.0664062"/><stop stop-opacity="1" stop-color="rgb(1.73645%, 7.029724%, 6.559753%)" offset="0.0703125"/><stop stop-opacity="1" stop-color="rgb(1.832581%, 7.420349%, 6.922913%)" offset="0.0742188"/><stop stop-opacity="1" stop-color="rgb(1.928711%, 7.810974%, 7.287598%)" offset="0.078125"/><stop stop-opacity="1" stop-color="rgb(2.024841%, 8.201599%, 7.652283%)" offset="0.0820312"/><stop stop-opacity="1" stop-color="rgb(2.122498%, 8.592224%, 8.016968%)" offset="0.0859375"/><stop stop-opacity="1" stop-color="rgb(2.218628%, 8.982849%, 8.381653%)" offset="0.0898437"/><stop stop-opacity="1" stop-color="rgb(2.314758%, 9.373474%, 8.746338%)" offset="0.09375"/><stop stop-opacity="1" stop-color="rgb(2.410889%, 9.764099%, 9.111023%)" offset="0.0976562"/><stop stop-opacity="1" stop-color="rgb(2.508545%, 10.154724%, 9.475708%)" offset="0.101562"/><stop stop-opacity="1" stop-color="rgb(2.604675%, 10.545349%, 9.838867%)" offset="0.105469"/><stop stop-opacity="1" stop-color="rgb(2.700806%, 10.935974%, 10.203552%)" offset="0.109375"/><stop stop-opacity="1" stop-color="rgb(2.796936%, 11.326599%, 10.568237%)" offset="0.113281"/><stop stop-opacity="1" stop-color="rgb(2.893066%, 11.717224%, 10.932922%)" offset="0.117187"/><stop stop-opacity="1" stop-color="rgb(2.989197%, 12.107849%, 11.297607%)" offset="0.121094"/><stop stop-opacity="1" stop-color="rgb(3.086853%, 12.498474%, 11.662292%)" offset="0.125"/><stop stop-opacity="1" stop-color="rgb(3.182983%, 12.889099%, 12.025452%)" offset="0.128906"/><stop stop-opacity="1" stop-color="rgb(3.279114%, 13.279724%, 12.390137%)" offset="0.132812"/><stop stop-opacity="1" stop-color="rgb(3.375244%, 13.670349%, 12.754822%)" offset="0.136719"/><stop stop-opacity="1" stop-color="rgb(3.4729%, 14.060974%, 13.119507%)" offset="0.140625"/><stop stop-opacity="1" stop-color="rgb(3.569031%, 14.451599%, 13.484192%)" offset="0.144531"/><stop stop-opacity="1" stop-color="rgb(3.665161%, 14.842224%, 13.848877%)" offset="0.148438"/><stop stop-opacity="1" stop-color="rgb(3.761292%, 15.232849%, 14.212036%)" offset="0.152344"/><stop stop-opacity="1" stop-color="rgb(3.858948%, 15.623474%, 14.576721%)" offset="0.15625"/><stop stop-opacity="1" stop-color="rgb(3.955078%, 16.014099%, 14.941406%)" offset="0.160156"/><stop stop-opacity="1" stop-color="rgb(4.051208%, 16.404724%, 15.306091%)" offset="0.164062"/><stop stop-opacity="1" stop-color="rgb(4.147339%, 16.795349%, 15.670776%)" offset="0.167969"/><stop stop-opacity="1" stop-color="rgb(4.244995%, 17.185974%, 16.035461%)" offset="0.171875"/><stop stop-opacity="1" stop-color="rgb(4.341125%, 17.576599%, 16.400146%)" offset="0.175781"/><stop stop-opacity="1" stop-color="rgb(4.437256%, 17.967224%, 16.764832%)" offset="0.179687"/><stop stop-opacity="1" stop-color="rgb(4.533386%, 18.357849%, 17.127991%)" offset="0.183594"/><stop stop-opacity="1" stop-color="rgb(4.631042%, 18.748474%, 17.492676%)" offset="0.1875"/><stop stop-opacity="1" stop-color="rgb(4.727173%, 19.139099%, 17.857361%)" offset="0.191406"/><stop stop-opacity="1" stop-color="rgb(4.823303%, 19.529724%, 18.222046%)" offset="0.195312"/><stop stop-opacity="1" stop-color="rgb(4.919434%, 19.920349%, 18.586731%)" offset="0.199219"/><stop stop-opacity="1" stop-color="rgb(5.01709%, 20.310974%, 18.951416%)" offset="0.203125"/><stop stop-opacity="1" stop-color="rgb(5.11322%, 20.701599%, 19.314575%)" offset="0.207031"/><stop stop-opacity="1" stop-color="rgb(5.209351%, 21.092224%, 19.67926%)" offset="0.210938"/><stop stop-opacity="1" stop-color="rgb(5.305481%, 21.482849%, 20.043945%)" offset="0.214844"/><stop stop-opacity="1" stop-color="rgb(5.401611%, 21.873474%, 20.40863%)" offset="0.21875"/><stop stop-opacity="1" stop-color="rgb(5.497742%, 22.264099%, 20.773315%)" offset="0.222656"/><stop stop-opacity="1" stop-color="rgb(5.595398%, 22.654724%, 21.138%)" offset="0.226562"/><stop stop-opacity="1" stop-color="rgb(5.691528%, 23.045349%, 21.50116%)" offset="0.230469"/><stop stop-opacity="1" stop-color="rgb(5.787659%, 23.435974%, 21.865845%)" offset="0.234375"/><stop stop-opacity="1" stop-color="rgb(5.883789%, 23.826599%, 22.23053%)" offset="0.238281"/><stop stop-opacity="1" stop-color="rgb(5.981445%, 24.217224%, 22.595215%)" offset="0.242187"/><stop stop-opacity="1" stop-color="rgb(6.077576%, 24.607849%, 22.9599%)" offset="0.246094"/><stop stop-opacity="1" stop-color="rgb(6.173706%, 24.998474%, 23.324585%)" offset="0.25"/><stop stop-opacity="1" stop-color="rgb(6.269836%, 25.389099%, 23.687744%)" offset="0.253906"/><stop stop-opacity="1" stop-color="rgb(6.367493%, 25.779724%, 24.052429%)" offset="0.257812"/><stop stop-opacity="1" stop-color="rgb(6.463623%, 26.170349%, 24.417114%)" offset="0.261719"/><stop stop-opacity="1" stop-color="rgb(6.559753%, 26.560974%, 24.781799%)" offset="0.265625"/><stop stop-opacity="1" stop-color="rgb(6.655884%, 26.951599%, 25.146484%)" offset="0.269531"/><stop stop-opacity="1" stop-color="rgb(6.75354%, 27.342224%, 25.511169%)" offset="0.273438"/><stop stop-opacity="1" stop-color="rgb(6.84967%, 27.732849%, 25.875854%)" offset="0.277344"/><stop stop-opacity="1" stop-color="rgb(6.945801%, 28.123474%, 26.24054%)" offset="0.28125"/><stop stop-opacity="1" stop-color="rgb(7.041931%, 28.514099%, 26.603699%)" offset="0.285156"/><stop stop-opacity="1" stop-color="rgb(7.139587%, 28.904724%, 26.968384%)" offset="0.289062"/><stop stop-opacity="1" stop-color="rgb(7.235718%, 29.295349%, 27.333069%)" offset="0.292969"/><stop stop-opacity="1" stop-color="rgb(7.331848%, 29.685974%, 27.697754%)" offset="0.296875"/><stop stop-opacity="1" stop-color="rgb(7.427979%, 30.076599%, 28.062439%)" offset="0.300781"/><stop stop-opacity="1" stop-color="rgb(7.525635%, 30.467224%, 28.427124%)" offset="0.304688"/><stop stop-opacity="1" stop-color="rgb(7.621765%, 30.857849%, 28.790283%)" offset="0.308594"/><stop stop-opacity="1" stop-color="rgb(7.717896%, 31.248474%, 29.154968%)" offset="0.3125"/><stop stop-opacity="1" stop-color="rgb(7.814026%, 31.639099%, 29.519653%)" offset="0.316406"/><stop stop-opacity="1" stop-color="rgb(7.911682%, 32.029724%, 29.884338%)" offset="0.320312"/><stop stop-opacity="1" stop-color="rgb(8.007812%, 32.420349%, 30.249023%)" offset="0.324219"/><stop stop-opacity="1" stop-color="rgb(8.103943%, 32.810974%, 30.613708%)" offset="0.328125"/><stop stop-opacity="1" stop-color="rgb(8.200073%, 33.201599%, 30.976868%)" offset="0.332031"/><stop stop-opacity="1" stop-color="rgb(8.296204%, 33.592224%, 31.341553%)" offset="0.335937"/><stop stop-opacity="1" stop-color="rgb(8.392334%, 33.982849%, 31.706238%)" offset="0.339844"/><stop stop-opacity="1" stop-color="rgb(8.48999%, 34.373474%, 32.070923%)" offset="0.34375"/><stop stop-opacity="1" stop-color="rgb(8.586121%, 34.764099%, 32.435608%)" offset="0.347656"/><stop stop-opacity="1" stop-color="rgb(8.682251%, 35.154724%, 32.800293%)" offset="0.351562"/><stop stop-opacity="1" stop-color="rgb(8.778381%, 35.545349%, 33.164978%)" offset="0.355469"/><stop stop-opacity="1" stop-color="rgb(8.876038%, 35.935974%, 33.529663%)" offset="0.359375"/><stop stop-opacity="1" stop-color="rgb(8.972168%, 36.326599%, 33.892822%)" offset="0.363281"/><stop stop-opacity="1" stop-color="rgb(9.068298%, 36.717224%, 34.257507%)" offset="0.367187"/><stop stop-opacity="1" stop-color="rgb(9.164429%, 37.107849%, 34.622192%)" offset="0.371094"/><stop stop-opacity="1" stop-color="rgb(9.262085%, 37.498474%, 34.986877%)" offset="0.375"/><stop stop-opacity="1" stop-color="rgb(9.358215%, 37.889099%, 35.351562%)" offset="0.378906"/><stop stop-opacity="1" stop-color="rgb(9.454346%, 38.279724%, 35.716248%)" offset="0.382813"/><stop stop-opacity="1" stop-color="rgb(9.550476%, 38.670349%, 36.079407%)" offset="0.386719"/><stop stop-opacity="1" stop-color="rgb(9.648132%, 39.060974%, 36.444092%)" offset="0.390625"/><stop stop-opacity="1" stop-color="rgb(9.744263%, 39.451599%, 36.808777%)" offset="0.394531"/><stop stop-opacity="1" stop-color="rgb(9.840393%, 39.842224%, 37.173462%)" offset="0.398438"/><stop stop-opacity="1" stop-color="rgb(9.936523%, 40.232849%, 37.538147%)" offset="0.402344"/><stop stop-opacity="1" stop-color="rgb(10.03418%, 40.623474%, 37.902832%)" offset="0.40625"/><stop stop-opacity="1" stop-color="rgb(10.13031%, 41.014099%, 38.265991%)" offset="0.410156"/><stop stop-opacity="1" stop-color="rgb(10.22644%, 41.404724%, 38.630676%)" offset="0.414063"/><stop stop-opacity="1" stop-color="rgb(10.322571%, 41.795349%, 38.995361%)" offset="0.417969"/><stop stop-opacity="1" stop-color="rgb(10.420227%, 42.185974%, 39.360046%)" offset="0.421875"/><stop stop-opacity="1" stop-color="rgb(10.516357%, 42.576599%, 39.724731%)" offset="0.425781"/><stop stop-opacity="1" stop-color="rgb(10.612488%, 42.967224%, 40.089417%)" offset="0.429688"/><stop stop-opacity="1" stop-color="rgb(10.708618%, 43.357849%, 40.452576%)" offset="0.433594"/><stop stop-opacity="1" stop-color="rgb(10.804749%, 43.748474%, 40.817261%)" offset="0.4375"/><stop stop-opacity="1" stop-color="rgb(10.900879%, 44.139099%, 41.181946%)" offset="0.441406"/><stop stop-opacity="1" stop-color="rgb(10.998535%, 44.529724%, 41.546631%)" offset="0.445312"/><stop stop-opacity="1" stop-color="rgb(11.094666%, 44.920349%, 41.911316%)" offset="0.449219"/><stop stop-opacity="1" stop-color="rgb(11.190796%, 45.310974%, 42.276001%)" offset="0.453125"/><stop stop-opacity="1" stop-color="rgb(11.286926%, 45.701599%, 42.640686%)" offset="0.457031"/><stop stop-opacity="1" stop-color="rgb(11.384583%, 46.092224%, 43.005371%)" offset="0.460938"/><stop stop-opacity="1" stop-color="rgb(11.480713%, 46.482849%, 43.36853%)" offset="0.464844"/><stop stop-opacity="1" stop-color="rgb(11.576843%, 46.873474%, 43.733215%)" offset="0.46875"/><stop stop-opacity="1" stop-color="rgb(11.672974%, 47.264099%, 44.0979%)" offset="0.472656"/><stop stop-opacity="1" stop-color="rgb(11.77063%, 47.654724%, 44.462585%)" offset="0.476562"/><stop stop-opacity="1" stop-color="rgb(11.86676%, 48.045349%, 44.827271%)" offset="0.480469"/><stop stop-opacity="1" stop-color="rgb(11.962891%, 48.435974%, 45.191956%)" offset="0.484375"/><stop stop-opacity="1" stop-color="rgb(12.059021%, 48.826599%, 45.555115%)" offset="0.488281"/><stop stop-opacity="1" stop-color="rgb(12.156677%, 49.217224%, 45.9198%)" offset="0.492188"/><stop stop-opacity="1" stop-color="rgb(12.252808%, 49.607849%, 46.284485%)" offset="0.496094"/><stop stop-opacity="1" stop-color="rgb(12.348938%, 49.998474%, 46.64917%)" offset="0.5"/><stop stop-opacity="1" stop-color="rgb(12.445068%, 50.389099%, 47.013855%)" offset="0.503906"/><stop stop-opacity="1" stop-color="rgb(12.542725%, 50.779724%, 47.37854%)" offset="0.507812"/><stop stop-opacity="1" stop-color="rgb(12.638855%, 51.170349%, 47.741699%)" offset="0.511719"/><stop stop-opacity="1" stop-color="rgb(12.734985%, 51.560974%, 48.106384%)" offset="0.515625"/><stop stop-opacity="1" stop-color="rgb(12.831116%, 51.951599%, 48.471069%)" offset="0.519531"/><stop stop-opacity="1" stop-color="rgb(12.928772%, 52.342224%, 48.835754%)" offset="0.523438"/><stop stop-opacity="1" stop-color="rgb(13.024902%, 52.732849%, 49.200439%)" offset="0.527344"/><stop stop-opacity="1" stop-color="rgb(13.121033%, 53.123474%, 49.565125%)" offset="0.53125"/><stop stop-opacity="1" stop-color="rgb(13.217163%, 53.514099%, 49.92981%)" offset="0.535156"/><stop stop-opacity="1" stop-color="rgb(13.314819%, 53.904724%, 50.294495%)" offset="0.539062"/><stop stop-opacity="1" stop-color="rgb(13.41095%, 54.295349%, 50.657654%)" offset="0.542969"/><stop stop-opacity="1" stop-color="rgb(13.50708%, 54.685974%, 51.022339%)" offset="0.546875"/><stop stop-opacity="1" stop-color="rgb(13.60321%, 55.076599%, 51.387024%)" offset="0.550781"/><stop stop-opacity="1" stop-color="rgb(13.699341%, 55.467224%, 51.751709%)" offset="0.554688"/><stop stop-opacity="1" stop-color="rgb(13.795471%, 55.857849%, 52.116394%)" offset="0.558594"/><stop stop-opacity="1" stop-color="rgb(13.893127%, 56.248474%, 52.481079%)" offset="0.5625"/><stop stop-opacity="1" stop-color="rgb(13.989258%, 56.639099%, 52.844238%)" offset="0.566406"/><stop stop-opacity="1" stop-color="rgb(14.085388%, 57.029724%, 53.208923%)" offset="0.570312"/><stop stop-opacity="1" stop-color="rgb(14.181519%, 57.420349%, 53.573608%)" offset="0.574219"/><stop stop-opacity="1" stop-color="rgb(14.279175%, 57.810974%, 53.938293%)" offset="0.578125"/><stop stop-opacity="1" stop-color="rgb(14.375305%, 58.201599%, 54.302979%)" offset="0.582031"/><stop stop-opacity="1" stop-color="rgb(14.471436%, 58.592224%, 54.667664%)" offset="0.585938"/><stop stop-opacity="1" stop-color="rgb(14.567566%, 58.982849%, 55.030823%)" offset="0.589844"/><stop stop-opacity="1" stop-color="rgb(14.665222%, 59.373474%, 55.395508%)" offset="0.59375"/><stop stop-opacity="1" stop-color="rgb(14.761353%, 59.764099%, 55.760193%)" offset="0.597656"/><stop stop-opacity="1" stop-color="rgb(14.857483%, 60.154724%, 56.124878%)" offset="0.601562"/><stop stop-opacity="1" stop-color="rgb(14.953613%, 60.545349%, 56.489563%)" offset="0.605469"/><stop stop-opacity="1" stop-color="rgb(15.05127%, 60.935974%, 56.854248%)" offset="0.609375"/><stop stop-opacity="1" stop-color="rgb(15.1474%, 61.326599%, 57.217407%)" offset="0.613281"/><stop stop-opacity="1" stop-color="rgb(15.24353%, 61.717224%, 57.582092%)" offset="0.617188"/><stop stop-opacity="1" stop-color="rgb(15.339661%, 62.107849%, 57.946777%)" offset="0.621094"/><stop stop-opacity="1" stop-color="rgb(15.437317%, 62.498474%, 58.311462%)" offset="0.625"/><stop stop-opacity="1" stop-color="rgb(15.533447%, 62.889099%, 58.676147%)" offset="0.628906"/><stop stop-opacity="1" stop-color="rgb(15.629578%, 63.279724%, 59.040833%)" offset="0.632812"/><stop stop-opacity="1" stop-color="rgb(15.725708%, 63.670349%, 59.405518%)" offset="0.636719"/><stop stop-opacity="1" stop-color="rgb(15.823364%, 64.060974%, 59.770203%)" offset="0.640625"/><stop stop-opacity="1" stop-color="rgb(15.919495%, 64.451599%, 60.133362%)" offset="0.644531"/><stop stop-opacity="1" stop-color="rgb(16.015625%, 64.842224%, 60.498047%)" offset="0.648437"/><stop stop-opacity="1" stop-color="rgb(16.111755%, 65.232849%, 60.862732%)" offset="0.652344"/><stop stop-opacity="1" stop-color="rgb(16.207886%, 65.623474%, 61.227417%)" offset="0.65625"/><stop stop-opacity="1" stop-color="rgb(16.304016%, 66.014099%, 61.592102%)" offset="0.660156"/><stop stop-opacity="1" stop-color="rgb(16.401672%, 66.404724%, 61.956787%)" offset="0.664062"/><stop stop-opacity="1" stop-color="rgb(16.497803%, 66.795349%, 62.319946%)" offset="0.667969"/><stop stop-opacity="1" stop-color="rgb(16.593933%, 67.185974%, 62.684631%)" offset="0.671875"/><stop stop-opacity="1" stop-color="rgb(16.690063%, 67.576599%, 63.049316%)" offset="0.675781"/><stop stop-opacity="1" stop-color="rgb(16.78772%, 67.967224%, 63.414001%)" offset="0.679687"/><stop stop-opacity="1" stop-color="rgb(16.88385%, 68.357849%, 63.778687%)" offset="0.683594"/><stop stop-opacity="1" stop-color="rgb(16.97998%, 68.748474%, 64.143372%)" offset="0.6875"/><stop stop-opacity="1" stop-color="rgb(17.076111%, 69.139099%, 64.506531%)" offset="0.691406"/><stop stop-opacity="1" stop-color="rgb(17.173767%, 69.529724%, 64.871216%)" offset="0.695312"/><stop stop-opacity="1" stop-color="rgb(17.269897%, 69.920349%, 65.235901%)" offset="0.699219"/><stop stop-opacity="1" stop-color="rgb(17.366028%, 70.310974%, 65.600586%)" offset="0.703125"/><stop stop-opacity="1" stop-color="rgb(17.462158%, 70.701599%, 65.965271%)" offset="0.707031"/><stop stop-opacity="1" stop-color="rgb(17.559814%, 71.092224%, 66.329956%)" offset="0.710937"/><stop stop-opacity="1" stop-color="rgb(17.655945%, 71.482849%, 66.694641%)" offset="0.714844"/><stop stop-opacity="1" stop-color="rgb(17.752075%, 71.873474%, 67.059326%)" offset="0.71875"/><stop stop-opacity="1" stop-color="rgb(17.848206%, 72.264099%, 67.422485%)" offset="0.722656"/><stop stop-opacity="1" stop-color="rgb(17.945862%, 72.654724%, 67.78717%)" offset="0.726562"/><stop stop-opacity="1" stop-color="rgb(18.041992%, 73.045349%, 68.151855%)" offset="0.730469"/><stop stop-opacity="1" stop-color="rgb(18.138123%, 73.435974%, 68.516541%)" offset="0.734375"/><stop stop-opacity="1" stop-color="rgb(18.234253%, 73.826599%, 68.881226%)" offset="0.738281"/><stop stop-opacity="1" stop-color="rgb(18.331909%, 74.217224%, 69.245911%)" offset="0.742187"/><stop stop-opacity="1" stop-color="rgb(18.42804%, 74.607849%, 69.60907%)" offset="0.746094"/><stop stop-opacity="1" stop-color="rgb(18.52417%, 74.998474%, 69.973755%)" offset="0.75"/><stop stop-opacity="1" stop-color="rgb(18.6203%, 75.389099%, 70.33844%)" offset="0.753906"/><stop stop-opacity="1" stop-color="rgb(18.717957%, 75.779724%, 70.703125%)" offset="0.757813"/><stop stop-opacity="1" stop-color="rgb(18.814087%, 76.170349%, 71.06781%)" offset="0.761719"/><stop stop-opacity="1" stop-color="rgb(18.910217%, 76.560974%, 71.432495%)" offset="0.765625"/><stop stop-opacity="1" stop-color="rgb(19.006348%, 76.951599%, 71.795654%)" offset="0.769531"/><stop stop-opacity="1" stop-color="rgb(19.102478%, 77.342224%, 72.160339%)" offset="0.773438"/><stop stop-opacity="1" stop-color="rgb(19.198608%, 77.732849%, 72.525024%)" offset="0.777344"/><stop stop-opacity="1" stop-color="rgb(19.296265%, 78.123474%, 72.889709%)" offset="0.78125"/><stop stop-opacity="1" stop-color="rgb(19.392395%, 78.514099%, 73.254395%)" offset="0.785156"/><stop stop-opacity="1" stop-color="rgb(19.488525%, 78.904724%, 73.61908%)" offset="0.789063"/><stop stop-opacity="1" stop-color="rgb(19.584656%, 79.295349%, 73.982239%)" offset="0.792969"/><stop stop-opacity="1" stop-color="rgb(19.682312%, 79.685974%, 74.346924%)" offset="0.796875"/><stop stop-opacity="1" stop-color="rgb(19.778442%, 80.076599%, 74.711609%)" offset="0.800781"/><stop stop-opacity="1" stop-color="rgb(19.874573%, 80.467224%, 75.076294%)" offset="0.804688"/><stop stop-opacity="1" stop-color="rgb(19.970703%, 80.857849%, 75.440979%)" offset="0.808594"/><stop stop-opacity="1" stop-color="rgb(20.068359%, 81.248474%, 75.805664%)" offset="0.8125"/><stop stop-opacity="1" stop-color="rgb(20.16449%, 81.639099%, 76.170349%)" offset="0.816406"/><stop stop-opacity="1" stop-color="rgb(20.26062%, 82.029724%, 76.535034%)" offset="0.820313"/><stop stop-opacity="1" stop-color="rgb(20.35675%, 82.420349%, 76.898193%)" offset="0.824219"/><stop stop-opacity="1" stop-color="rgb(20.454407%, 82.810974%, 77.262878%)" offset="0.828125"/><stop stop-opacity="1" stop-color="rgb(20.550537%, 83.201599%, 77.627563%)" offset="0.832031"/><stop stop-opacity="1" stop-color="rgb(20.646667%, 83.592224%, 77.992249%)" offset="0.835938"/><stop stop-opacity="1" stop-color="rgb(20.742798%, 83.982849%, 78.356934%)" offset="0.839844"/><stop stop-opacity="1" stop-color="rgb(20.840454%, 84.373474%, 78.721619%)" offset="0.84375"/><stop stop-opacity="1" stop-color="rgb(20.936584%, 84.764099%, 79.084778%)" offset="0.847656"/><stop stop-opacity="1" stop-color="rgb(21.032715%, 85.154724%, 79.449463%)" offset="0.851563"/><stop stop-opacity="1" stop-color="rgb(21.128845%, 85.545349%, 79.814148%)" offset="0.855469"/><stop stop-opacity="1" stop-color="rgb(21.226501%, 85.935974%, 80.178833%)" offset="0.859375"/><stop stop-opacity="1" stop-color="rgb(21.322632%, 86.326599%, 80.543518%)" offset="0.863281"/><stop stop-opacity="1" stop-color="rgb(21.418762%, 86.717224%, 80.908203%)" offset="0.867188"/><stop stop-opacity="1" stop-color="rgb(21.514893%, 87.107849%, 81.271362%)" offset="0.871094"/><stop stop-opacity="1" stop-color="rgb(21.611023%, 87.498474%, 81.636047%)" offset="0.875"/><stop stop-opacity="1" stop-color="rgb(21.707153%, 87.889099%, 82.000732%)" offset="0.878906"/><stop stop-opacity="1" stop-color="rgb(21.80481%, 88.279724%, 82.365417%)" offset="0.882812"/><stop stop-opacity="1" stop-color="rgb(21.90094%, 88.670349%, 82.730103%)" offset="0.886719"/><stop stop-opacity="1" stop-color="rgb(21.99707%, 89.060974%, 83.094788%)" offset="0.890625"/><stop stop-opacity="1" stop-color="rgb(22.093201%, 89.451599%, 83.459473%)" offset="0.894531"/><stop stop-opacity="1" stop-color="rgb(22.190857%, 89.842224%, 83.824158%)" offset="0.898438"/><stop stop-opacity="1" stop-color="rgb(22.286987%, 90.232849%, 84.187317%)" offset="0.902344"/><stop stop-opacity="1" stop-color="rgb(22.383118%, 90.623474%, 84.552002%)" offset="0.90625"/><stop stop-opacity="1" stop-color="rgb(22.479248%, 91.014099%, 84.916687%)" offset="0.910156"/><stop stop-opacity="1" stop-color="rgb(22.576904%, 91.404724%, 85.281372%)" offset="0.914062"/><stop stop-opacity="1" stop-color="rgb(22.673035%, 91.795349%, 85.646057%)" offset="0.917969"/><stop stop-opacity="1" stop-color="rgb(22.769165%, 92.185974%, 86.010742%)" offset="0.921875"/><stop stop-opacity="1" stop-color="rgb(22.865295%, 92.576599%, 86.373901%)" offset="0.925781"/><stop stop-opacity="1" stop-color="rgb(22.962952%, 92.967224%, 86.738586%)" offset="0.929688"/><stop stop-opacity="1" stop-color="rgb(23.059082%, 93.357849%, 87.103271%)" offset="0.933594"/><stop stop-opacity="1" stop-color="rgb(23.155212%, 93.748474%, 87.467957%)" offset="0.9375"/><stop stop-opacity="1" stop-color="rgb(23.251343%, 94.139099%, 87.832642%)" offset="0.941406"/><stop stop-opacity="1" stop-color="rgb(23.348999%, 94.529724%, 88.197327%)" offset="0.945312"/><stop stop-opacity="1" stop-color="rgb(23.445129%, 94.920349%, 88.560486%)" offset="0.949219"/><stop stop-opacity="1" stop-color="rgb(23.54126%, 95.310974%, 88.925171%)" offset="0.953125"/><stop stop-opacity="1" stop-color="rgb(23.63739%, 95.701599%, 89.289856%)" offset="0.957031"/><stop stop-opacity="1" stop-color="rgb(23.735046%, 96.092224%, 89.654541%)" offset="0.960938"/><stop stop-opacity="1" stop-color="rgb(23.831177%, 96.482849%, 90.019226%)" offset="0.964844"/><stop stop-opacity="1" stop-color="rgb(23.927307%, 96.873474%, 90.383911%)" offset="0.96875"/><stop stop-opacity="1" stop-color="rgb(24.023438%, 97.264099%, 90.74707%)" offset="0.972656"/><stop stop-opacity="1" stop-color="rgb(24.119568%, 97.654724%, 91.111755%)" offset="0.976562"/><stop stop-opacity="1" stop-color="rgb(24.215698%, 98.045349%, 91.47644%)" offset="0.980469"/><stop stop-opacity="1" stop-color="rgb(24.313354%, 98.435974%, 91.841125%)" offset="0.984375"/><stop stop-opacity="1" stop-color="rgb(24.409485%, 98.826599%, 92.205811%)" offset="0.988281"/><stop stop-opacity="1" stop-color="rgb(24.505615%, 99.217224%, 92.570496%)" offset="0.992188"/><stop stop-opacity="1" stop-color="rgb(24.601746%, 99.607849%, 92.935181%)" offset="0.996094"/><stop stop-opacity="1" stop-color="rgb(24.699402%, 99.998474%, 93.299866%)" offset="1"/></linearGradient></defs><g clip-path="url(#08be6c45d0)"><g clip-path="url(#6b9029664d)"><path fill="url(#4b54fa68f3)" d="M 37 0.523438 L 3.867188 0.523438 L 3.867188 111.472656 L 37 111.472656 Z M 37 0.523438 " fill-rule="nonzero"/></g></g></svg>