<svg xmlns="http://www.w3.org/2000/svg" xmlns:xlink="http://www.w3.org/1999/xlink" width="50" zoomAndPan="magnify" viewBox="0 0 37.5 44.999999" height="60" preserveAspectRatio="xMidYMid meet" version="1.0"><defs><clipPath id="815c054ddc"><path d="M 1.855469 0.296875 L 35.148438 0.296875 L 35.148438 44.472656 L 1.855469 44.472656 Z M 1.855469 0.296875 " clip-rule="nonzero"/></clipPath></defs><g clip-path="url(#815c054ddc)"><path fill="#1f51ff" d="M 28.53125 44.421875 C 28.53125 44.429688 28.527344 44.4375 28.519531 44.4375 C 28.511719 44.4375 28.507812 44.429688 28.507812 44.421875 C 28.507812 44.417969 28.511719 44.410156 28.519531 44.410156 C 28.527344 44.410156 28.53125 44.417969 28.53125 44.421875 Z M 26.3125 44.375 C 26.285156 44.375 26.265625 44.398438 26.265625 44.421875 C 26.265625 44.449219 26.285156 44.472656 26.3125 44.472656 C 26.339844 44.472656 26.363281 44.449219 26.363281 44.421875 C 26.363281 44.398438 26.339844 44.375 26.3125 44.375 Z M 24.105469 44.375 C 24.082031 44.375 24.058594 44.398438 24.058594 44.421875 C 24.058594 44.449219 24.082031 44.472656 24.105469 44.472656 C 24.132812 44.472656 24.15625 44.449219 24.15625 44.421875 C 24.15625 44.398438 24.132812 44.375 24.105469 44.375 Z M 21.902344 44.386719 C 21.882812 44.386719 21.863281 44.402344 21.863281 44.421875 C 21.863281 44.445312 21.882812 44.460938 21.902344 44.460938 C 21.921875 44.460938 21.9375 44.445312 21.9375 44.421875 C 21.9375 44.402344 21.921875 44.386719 21.902344 44.386719 Z M 19.695312 44.40625 C 19.683594 44.40625 19.675781 44.414062 19.675781 44.421875 C 19.675781 44.433594 19.683594 44.441406 19.695312 44.441406 C 19.707031 44.441406 19.714844 44.433594 19.714844 44.421875 C 19.714844 44.414062 19.707031 44.40625 19.695312 44.40625 Z M 28.519531 42.113281 C 28.460938 42.113281 28.414062 42.160156 28.414062 42.21875 C 28.414062 42.273438 28.460938 42.320312 28.519531 42.320312 C 28.578125 42.320312 28.625 42.273438 28.625 42.21875 C 28.625 42.160156 28.578125 42.113281 28.519531 42.113281 Z M 26.3125 42.003906 C 26.195312 42.003906 26.097656 42.097656 26.097656 42.21875 C 26.097656 42.335938 26.195312 42.433594 26.3125 42.433594 C 26.433594 42.433594 26.527344 42.335938 26.527344 42.21875 C 26.527344 42.097656 26.433594 42.003906 26.3125 42.003906 Z M 24.105469 41.9375 C 23.953125 41.9375 23.824219 42.0625 23.824219 42.21875 C 23.824219 42.375 23.953125 42.5 24.105469 42.5 C 24.261719 42.5 24.390625 42.375 24.390625 42.21875 C 24.390625 42.0625 24.261719 41.9375 24.105469 41.9375 Z M 21.902344 41.929688 C 21.742188 41.929688 21.613281 42.058594 21.613281 42.21875 C 21.613281 42.375 21.742188 42.503906 21.902344 42.503906 C 22.058594 42.503906 22.1875 42.375 22.1875 42.21875 C 22.1875 42.058594 22.058594 41.929688 21.902344 41.929688 Z M 19.695312 42.007812 C 19.582031 42.007812 19.488281 42.101562 19.488281 42.21875 C 19.488281 42.332031 19.582031 42.425781 19.695312 42.425781 C 19.808594 42.425781 19.902344 42.332031 19.902344 42.21875 C 19.902344 42.101562 19.808594 42.007812 19.695312 42.007812 Z M 17.488281 42.101562 C 17.425781 42.101562 17.371094 42.152344 17.371094 42.21875 C 17.371094 42.28125 17.425781 42.332031 17.488281 42.332031 C 17.554688 42.332031 17.605469 42.28125 17.605469 42.21875 C 17.605469 42.152344 17.554688 42.101562 17.488281 42.101562 Z M 15.28125 42.175781 C 15.257812 42.175781 15.238281 42.195312 15.238281 42.21875 C 15.238281 42.242188 15.257812 42.261719 15.28125 42.261719 C 15.308594 42.261719 15.324219 42.242188 15.324219 42.21875 C 15.324219 42.195312 15.308594 42.175781 15.28125 42.175781 Z M 13.078125 42.210938 C 13.074219 42.210938 13.070312 42.214844 13.070312 42.21875 C 13.070312 42.222656 13.074219 42.222656 13.078125 42.222656 C 13.082031 42.222656 13.082031 42.222656 13.082031 42.21875 C 13.082031 42.214844 13.082031 42.210938 13.078125 42.210938 Z M 21.902344 39.96875 C 21.878906 39.96875 21.859375 39.988281 21.859375 40.011719 C 21.859375 40.035156 21.878906 40.054688 21.902344 40.054688 C 21.925781 40.054688 21.945312 40.035156 21.945312 40.011719 C 21.945312 39.988281 21.925781 39.96875 21.902344 39.96875 Z M 19.695312 39.871094 C 19.617188 39.871094 19.554688 39.933594 19.554688 40.011719 C 19.554688 40.089844 19.617188 40.152344 19.695312 40.152344 C 19.773438 40.152344 19.835938 40.089844 19.835938 40.011719 C 19.835938 39.933594 19.773438 39.871094 19.695312 39.871094 Z M 17.488281 39.878906 C 17.414062 39.878906 17.355469 39.9375 17.355469 40.011719 C 17.355469 40.085938 17.414062 40.144531 17.488281 40.144531 C 17.5625 40.144531 17.625 40.085938 17.625 40.011719 C 17.625 39.9375 17.5625 39.878906 17.488281 39.878906 Z M 15.28125 39.925781 C 15.234375 39.925781 15.199219 39.964844 15.199219 40.011719 C 15.199219 40.058594 15.234375 40.097656 15.28125 40.097656 C 15.332031 40.097656 15.367188 40.058594 15.367188 40.011719 C 15.367188 39.964844 15.332031 39.925781 15.28125 39.925781 Z M 13.078125 39.96875 C 13.054688 39.96875 13.035156 39.988281 13.035156 40.011719 C 13.035156 40.035156 13.054688 40.054688 13.078125 40.054688 C 13.101562 40.054688 13.121094 40.035156 13.121094 40.011719 C 13.121094 39.988281 13.101562 39.96875 13.078125 39.96875 Z M 10.871094 40.003906 C 10.867188 40.003906 10.863281 40.007812 10.863281 40.011719 C 10.863281 40.015625 10.867188 40.019531 10.871094 40.019531 C 10.875 40.019531 10.878906 40.015625 10.878906 40.011719 C 10.878906 40.007812 10.875 40.003906 10.871094 40.003906 Z M 17.488281 37.738281 C 17.453125 37.738281 17.421875 37.769531 17.421875 37.804688 C 17.421875 37.84375 17.453125 37.871094 17.488281 37.871094 C 17.527344 37.871094 17.554688 37.84375 17.554688 37.804688 C 17.554688 37.769531 17.527344 37.738281 17.488281 37.738281 Z M 15.28125 37.726562 C 15.238281 37.726562 15.203125 37.761719 15.203125 37.804688 C 15.203125 37.847656 15.238281 37.886719 15.28125 37.886719 C 15.328125 37.886719 15.363281 37.847656 15.363281 37.804688 C 15.363281 37.761719 15.328125 37.726562 15.28125 37.726562 Z M 13.078125 37.761719 C 13.054688 37.761719 13.035156 37.78125 13.035156 37.804688 C 13.035156 37.828125 13.054688 37.847656 13.078125 37.847656 C 13.101562 37.847656 13.121094 37.828125 13.121094 37.804688 C 13.121094 37.78125 13.101562 37.761719 13.078125 37.761719 Z M 10.871094 37.789062 C 10.859375 37.789062 10.851562 37.796875 10.851562 37.804688 C 10.851562 37.816406 10.859375 37.824219 10.871094 37.824219 C 10.882812 37.824219 10.890625 37.816406 10.890625 37.804688 C 10.890625 37.796875 10.882812 37.789062 10.871094 37.789062 Z M 15.28125 35.542969 C 15.253906 35.542969 15.226562 35.570312 15.226562 35.597656 C 15.226562 35.628906 15.253906 35.65625 15.28125 35.65625 C 15.3125 35.65625 15.339844 35.628906 15.339844 35.597656 C 15.339844 35.570312 15.3125 35.542969 15.28125 35.542969 Z M 13.078125 35.550781 C 13.050781 35.550781 13.027344 35.574219 13.027344 35.597656 C 13.027344 35.625 13.050781 35.648438 13.078125 35.648438 C 13.105469 35.648438 13.125 35.625 13.125 35.597656 C 13.125 35.574219 13.105469 35.550781 13.078125 35.550781 Z M 10.871094 35.574219 C 10.855469 35.574219 10.847656 35.585938 10.847656 35.597656 C 10.847656 35.613281 10.855469 35.625 10.871094 35.625 C 10.882812 35.625 10.894531 35.613281 10.894531 35.597656 C 10.894531 35.585938 10.882812 35.574219 10.871094 35.574219 Z M 8.664062 35.585938 C 8.65625 35.585938 8.652344 35.59375 8.652344 35.597656 C 8.652344 35.605469 8.65625 35.613281 8.664062 35.613281 C 8.671875 35.613281 8.675781 35.605469 8.675781 35.597656 C 8.675781 35.59375 8.671875 35.585938 8.664062 35.585938 Z M 6.457031 35.59375 C 6.457031 35.59375 6.453125 35.597656 6.453125 35.597656 C 6.453125 35.601562 6.457031 35.605469 6.457031 35.605469 C 6.460938 35.605469 6.464844 35.601562 6.464844 35.597656 C 6.464844 35.597656 6.460938 35.59375 6.457031 35.59375 Z M 15.28125 33.386719 C 15.28125 33.386719 15.277344 33.390625 15.277344 33.394531 C 15.277344 33.398438 15.28125 33.398438 15.28125 33.398438 C 15.285156 33.398438 15.289062 33.398438 15.289062 33.394531 C 15.289062 33.390625 15.285156 33.386719 15.28125 33.386719 Z M 13.078125 33.324219 C 13.039062 33.324219 13.007812 33.355469 13.007812 33.394531 C 13.007812 33.429688 13.039062 33.460938 13.078125 33.460938 C 13.113281 33.460938 13.144531 33.429688 13.144531 33.394531 C 13.144531 33.355469 13.113281 33.324219 13.078125 33.324219 Z M 10.871094 33.34375 C 10.84375 33.34375 10.820312 33.367188 10.820312 33.394531 C 10.820312 33.421875 10.84375 33.441406 10.871094 33.441406 C 10.898438 33.441406 10.917969 33.421875 10.917969 33.394531 C 10.917969 33.367188 10.898438 33.34375 10.871094 33.34375 Z M 8.664062 33.355469 C 8.644531 33.355469 8.628906 33.375 8.628906 33.394531 C 8.628906 33.414062 8.644531 33.429688 8.664062 33.429688 C 8.683594 33.429688 8.703125 33.414062 8.703125 33.394531 C 8.703125 33.375 8.683594 33.355469 8.664062 33.355469 Z M 6.457031 33.363281 C 6.441406 33.363281 6.429688 33.375 6.429688 33.394531 C 6.429688 33.410156 6.441406 33.425781 6.457031 33.425781 C 6.476562 33.425781 6.488281 33.410156 6.488281 33.394531 C 6.488281 33.375 6.476562 33.363281 6.457031 33.363281 Z M 4.253906 33.386719 C 4.25 33.386719 4.246094 33.390625 4.246094 33.394531 C 4.246094 33.398438 4.25 33.398438 4.253906 33.398438 C 4.257812 33.398438 4.257812 33.398438 4.257812 33.394531 C 4.257812 33.390625 4.257812 33.386719 4.253906 33.386719 Z M 13.078125 31.132812 C 13.046875 31.132812 13.023438 31.15625 13.023438 31.1875 C 13.023438 31.21875 13.046875 31.242188 13.078125 31.242188 C 13.105469 31.242188 13.132812 31.21875 13.132812 31.1875 C 13.132812 31.15625 13.105469 31.132812 13.078125 31.132812 Z M 10.871094 31.101562 C 10.824219 31.101562 10.785156 31.140625 10.785156 31.1875 C 10.785156 31.234375 10.824219 31.273438 10.871094 31.273438 C 10.917969 31.273438 10.957031 31.234375 10.957031 31.1875 C 10.957031 31.140625 10.917969 31.101562 10.871094 31.101562 Z M 8.664062 31.121094 C 8.628906 31.121094 8.597656 31.148438 8.597656 31.1875 C 8.597656 31.222656 8.628906 31.253906 8.664062 31.253906 C 8.703125 31.253906 8.730469 31.222656 8.730469 31.1875 C 8.730469 31.148438 8.703125 31.121094 8.664062 31.121094 Z M 6.457031 31.121094 C 6.421875 31.121094 6.390625 31.148438 6.390625 31.1875 C 6.390625 31.222656 6.421875 31.253906 6.457031 31.253906 C 6.496094 31.253906 6.527344 31.222656 6.527344 31.1875 C 6.527344 31.148438 6.496094 31.121094 6.457031 31.121094 Z M 4.253906 31.136719 C 4.226562 31.136719 4.203125 31.160156 4.203125 31.1875 C 4.203125 31.214844 4.226562 31.234375 4.253906 31.234375 C 4.28125 31.234375 4.300781 31.214844 4.300781 31.1875 C 4.300781 31.160156 4.28125 31.136719 4.253906 31.136719 Z M 13.078125 28.949219 C 13.058594 28.949219 13.046875 28.964844 13.046875 28.980469 C 13.046875 29 13.058594 29.011719 13.078125 29.011719 C 13.09375 29.011719 13.109375 29 13.109375 28.980469 C 13.109375 28.964844 13.09375 28.949219 13.078125 28.949219 Z M 10.871094 28.847656 C 10.796875 28.847656 10.738281 28.90625 10.738281 28.980469 C 10.738281 29.054688 10.796875 29.117188 10.871094 29.117188 C 10.945312 29.117188 11.003906 29.054688 11.003906 28.980469 C 11.003906 28.90625 10.945312 28.847656 10.871094 28.847656 Z M 8.664062 28.859375 C 8.597656 28.859375 8.542969 28.914062 8.542969 28.980469 C 8.542969 29.050781 8.597656 29.105469 8.664062 29.105469 C 8.730469 29.105469 8.789062 29.050781 8.789062 28.980469 C 8.789062 28.914062 8.730469 28.859375 8.664062 28.859375 Z M 6.457031 28.859375 C 6.390625 28.859375 6.335938 28.914062 6.335938 28.980469 C 6.335938 29.050781 6.390625 29.105469 6.457031 29.105469 C 6.527344 29.105469 6.582031 29.050781 6.582031 28.980469 C 6.582031 28.914062 6.527344 28.859375 6.457031 28.859375 Z M 4.253906 28.859375 C 4.183594 28.859375 4.128906 28.914062 4.128906 28.980469 C 4.128906 29.050781 4.183594 29.105469 4.253906 29.105469 C 4.320312 29.105469 4.375 29.050781 4.375 28.980469 C 4.375 28.914062 4.320312 28.859375 4.253906 28.859375 Z M 2.046875 28.976562 C 2.042969 28.976562 2.039062 28.976562 2.039062 28.980469 C 2.039062 28.984375 2.042969 28.988281 2.046875 28.988281 C 2.050781 28.988281 2.050781 28.984375 2.050781 28.980469 C 2.050781 28.976562 2.050781 28.976562 2.046875 28.976562 Z M 13.078125 26.757812 C 13.066406 26.757812 13.058594 26.765625 13.058594 26.773438 C 13.058594 26.785156 13.066406 26.792969 13.078125 26.792969 C 13.085938 26.792969 13.09375 26.785156 13.09375 26.773438 C 13.09375 26.765625 13.085938 26.757812 13.078125 26.757812 Z M 10.871094 26.585938 C 10.765625 26.585938 10.679688 26.671875 10.679688 26.773438 C 10.679688 26.878906 10.765625 26.964844 10.871094 26.964844 C 10.976562 26.964844 11.0625 26.878906 11.0625 26.773438 C 11.0625 26.671875 10.976562 26.585938 10.871094 26.585938 Z M 8.664062 26.589844 C 8.5625 26.589844 8.480469 26.675781 8.480469 26.773438 C 8.480469 26.875 8.5625 26.957031 8.664062 26.957031 C 8.765625 26.957031 8.847656 26.875 8.847656 26.773438 C 8.847656 26.675781 8.765625 26.589844 8.664062 26.589844 Z M 6.457031 26.589844 C 6.355469 26.589844 6.273438 26.675781 6.273438 26.773438 C 6.273438 26.875 6.355469 26.957031 6.457031 26.957031 C 6.558594 26.957031 6.640625 26.875 6.640625 26.773438 C 6.640625 26.675781 6.558594 26.589844 6.457031 26.589844 Z M 4.253906 26.578125 C 4.144531 26.578125 4.058594 26.667969 4.058594 26.773438 C 4.058594 26.882812 4.144531 26.972656 4.253906 26.972656 C 4.359375 26.972656 4.449219 26.882812 4.449219 26.773438 C 4.449219 26.667969 4.359375 26.578125 4.253906 26.578125 Z M 2.046875 26.726562 C 2.019531 26.726562 1.996094 26.75 1.996094 26.773438 C 1.996094 26.800781 2.019531 26.824219 2.046875 26.824219 C 2.074219 26.824219 2.09375 26.800781 2.09375 26.773438 C 2.09375 26.75 2.074219 26.726562 2.046875 26.726562 Z M 13.078125 24.550781 C 13.066406 24.550781 13.058594 24.558594 13.058594 24.570312 C 13.058594 24.578125 13.066406 24.585938 13.078125 24.585938 C 13.085938 24.585938 13.09375 24.578125 13.09375 24.570312 C 13.09375 24.558594 13.085938 24.550781 13.078125 24.550781 Z M 10.871094 24.3125 C 10.730469 24.3125 10.613281 24.425781 10.613281 24.570312 C 10.613281 24.710938 10.730469 24.824219 10.871094 24.824219 C 11.011719 24.824219 11.128906 24.710938 11.128906 24.570312 C 11.128906 24.425781 11.011719 24.3125 10.871094 24.3125 Z M 8.664062 24.3125 C 8.523438 24.3125 8.40625 24.425781 8.40625 24.570312 C 8.40625 24.710938 8.523438 24.824219 8.664062 24.824219 C 8.808594 24.824219 8.921875 24.710938 8.921875 24.570312 C 8.921875 24.425781 8.808594 24.3125 8.664062 24.3125 Z M 6.457031 24.3125 C 6.316406 24.3125 6.203125 24.425781 6.203125 24.570312 C 6.203125 24.710938 6.316406 24.824219 6.457031 24.824219 C 6.601562 24.824219 6.714844 24.710938 6.714844 24.570312 C 6.714844 24.425781 6.601562 24.3125 6.457031 24.3125 Z M 4.253906 24.300781 C 4.105469 24.300781 3.984375 24.421875 3.984375 24.570312 C 3.984375 24.71875 4.105469 24.839844 4.253906 24.839844 C 4.402344 24.839844 4.523438 24.71875 4.523438 24.570312 C 4.523438 24.421875 4.402344 24.300781 4.253906 24.300781 Z M 2.046875 24.460938 C 1.984375 24.460938 1.9375 24.507812 1.9375 24.570312 C 1.9375 24.628906 1.984375 24.679688 2.046875 24.679688 C 2.109375 24.679688 2.15625 24.628906 2.15625 24.570312 C 2.15625 24.507812 2.109375 24.460938 2.046875 24.460938 Z M 13.078125 22.320312 C 13.054688 22.320312 13.035156 22.339844 13.035156 22.363281 C 13.035156 22.386719 13.054688 22.40625 13.078125 22.40625 C 13.101562 22.40625 13.121094 22.386719 13.121094 22.363281 C 13.121094 22.339844 13.101562 22.320312 13.078125 22.320312 Z M 10.871094 22.015625 C 10.679688 22.015625 10.523438 22.171875 10.523438 22.363281 C 10.523438 22.554688 10.679688 22.710938 10.871094 22.710938 C 11.0625 22.710938 11.21875 22.554688 11.21875 22.363281 C 11.21875 22.171875 11.0625 22.015625 10.871094 22.015625 Z M 8.664062 22.015625 C 8.472656 22.015625 8.316406 22.171875 8.316406 22.363281 C 8.316406 22.554688 8.472656 22.710938 8.664062 22.710938 C 8.855469 22.710938 9.011719 22.554688 9.011719 22.363281 C 9.011719 22.171875 8.855469 22.015625 8.664062 22.015625 Z M 6.457031 22.015625 C 6.265625 22.015625 6.109375 22.171875 6.109375 22.363281 C 6.109375 22.554688 6.265625 22.710938 6.457031 22.710938 C 6.652344 22.710938 6.808594 22.554688 6.808594 22.363281 C 6.808594 22.171875 6.652344 22.015625 6.457031 22.015625 Z M 4.253906 22.003906 C 4.054688 22.003906 3.890625 22.164062 3.890625 22.363281 C 3.890625 22.5625 4.054688 22.722656 4.253906 22.722656 C 4.453125 22.722656 4.613281 22.5625 4.613281 22.363281 C 4.613281 22.164062 4.453125 22.003906 4.253906 22.003906 Z M 2.046875 22.210938 C 1.960938 22.210938 1.894531 22.277344 1.894531 22.363281 C 1.894531 22.449219 1.960938 22.515625 2.046875 22.515625 C 2.132812 22.515625 2.199219 22.449219 2.199219 22.363281 C 2.199219 22.277344 2.132812 22.210938 2.046875 22.210938 Z M 13.078125 20.011719 C 12.996094 20.011719 12.929688 20.074219 12.929688 20.15625 C 12.929688 20.238281 12.996094 20.304688 13.078125 20.304688 C 13.15625 20.304688 13.222656 20.238281 13.222656 20.15625 C 13.222656 20.074219 13.15625 20.011719 13.078125 20.011719 Z M 10.871094 19.691406 C 10.613281 19.691406 10.40625 19.898438 10.40625 20.15625 C 10.40625 20.414062 10.613281 20.621094 10.871094 20.621094 C 11.128906 20.621094 11.335938 20.414062 11.335938 20.15625 C 11.335938 19.898438 11.128906 19.691406 10.871094 19.691406 Z M 8.664062 19.703125 C 8.414062 19.703125 8.210938 19.90625 8.210938 20.15625 C 8.210938 20.40625 8.414062 20.609375 8.664062 20.609375 C 8.914062 20.609375 9.117188 20.40625 9.117188 20.15625 C 9.117188 19.90625 8.914062 19.703125 8.664062 19.703125 Z M 6.457031 19.703125 C 6.207031 19.703125 6.007812 19.90625 6.007812 20.15625 C 6.007812 20.40625 6.207031 20.609375 6.457031 20.609375 C 6.707031 20.609375 6.910156 20.40625 6.910156 20.15625 C 6.910156 19.90625 6.707031 19.703125 6.457031 19.703125 Z M 4.253906 19.6875 C 3.992188 19.6875 3.78125 19.898438 3.78125 20.15625 C 3.78125 20.417969 3.992188 20.628906 4.253906 20.628906 C 4.511719 20.628906 4.722656 20.417969 4.722656 20.15625 C 4.722656 19.898438 4.511719 19.6875 4.253906 19.6875 Z M 2.046875 19.96875 C 1.941406 19.96875 1.855469 20.050781 1.855469 20.15625 C 1.855469 20.261719 1.941406 20.347656 2.046875 20.347656 C 2.152344 20.347656 2.234375 20.261719 2.234375 20.15625 C 2.234375 20.050781 2.152344 19.96875 2.046875 19.96875 Z M 13.078125 17.546875 C 12.855469 17.546875 12.671875 17.726562 12.671875 17.949219 C 12.671875 18.175781 12.855469 18.355469 13.078125 18.355469 C 13.300781 18.355469 13.480469 18.175781 13.480469 17.949219 C 13.480469 17.726562 13.300781 17.546875 13.078125 17.546875 Z M 10.871094 17.359375 C 10.542969 17.359375 10.277344 17.625 10.277344 17.949219 C 10.277344 18.277344 10.542969 18.542969 10.871094 18.542969 C 11.199219 18.542969 11.464844 18.277344 11.464844 17.949219 C 11.464844 17.625 11.199219 17.359375 10.871094 17.359375 Z M 8.664062 17.375 C 8.347656 17.375 8.089844 17.632812 8.089844 17.949219 C 8.089844 18.269531 8.347656 18.527344 8.664062 18.527344 C 8.984375 18.527344 9.238281 18.269531 9.238281 17.949219 C 9.238281 17.632812 8.984375 17.375 8.664062 17.375 Z M 6.457031 17.375 C 6.140625 17.375 5.882812 17.632812 5.882812 17.949219 C 5.882812 18.269531 6.140625 18.527344 6.457031 18.527344 C 6.777344 18.527344 7.035156 18.269531 7.035156 17.949219 C 7.035156 17.632812 6.777344 17.375 6.457031 17.375 Z M 4.253906 17.359375 C 3.925781 17.359375 3.660156 17.625 3.660156 17.949219 C 3.660156 18.277344 3.925781 18.542969 4.253906 18.542969 C 4.582031 18.542969 4.847656 18.277344 4.847656 17.949219 C 4.847656 17.625 4.582031 17.359375 4.253906 17.359375 Z M 2.046875 17.808594 C 1.96875 17.808594 1.90625 17.875 1.90625 17.949219 C 1.90625 18.027344 1.96875 18.089844 2.046875 18.089844 C 2.125 18.089844 2.1875 18.027344 2.1875 17.949219 C 2.1875 17.875 2.125 17.808594 2.046875 17.808594 Z M 15.28125 15.585938 C 15.195312 15.585938 15.125 15.65625 15.125 15.746094 C 15.125 15.832031 15.195312 15.902344 15.28125 15.902344 C 15.371094 15.902344 15.441406 15.832031 15.441406 15.746094 C 15.441406 15.65625 15.371094 15.585938 15.28125 15.585938 Z M 13.078125 15.003906 C 12.667969 15.003906 12.335938 15.335938 12.335938 15.746094 C 12.335938 16.152344 12.667969 16.484375 13.078125 16.484375 C 13.484375 16.484375 13.816406 16.152344 13.816406 15.746094 C 13.816406 15.335938 13.484375 15.003906 13.078125 15.003906 Z M 10.871094 15.011719 C 10.464844 15.011719 10.136719 15.339844 10.136719 15.746094 C 10.136719 16.148438 10.464844 16.480469 10.871094 16.480469 C 11.277344 16.480469 11.605469 16.148438 11.605469 15.746094 C 11.605469 15.339844 11.277344 15.011719 10.871094 15.011719 Z M 8.664062 15.027344 C 8.269531 15.027344 7.949219 15.347656 7.949219 15.746094 C 7.949219 16.140625 8.269531 16.460938 8.664062 16.460938 C 9.058594 16.460938 9.378906 16.140625 9.378906 15.746094 C 9.378906 15.347656 9.058594 15.027344 8.664062 15.027344 Z M 6.457031 15.027344 C 6.0625 15.027344 5.742188 15.347656 5.742188 15.746094 C 5.742188 16.140625 6.0625 16.460938 6.457031 16.460938 C 6.855469 16.460938 7.175781 16.140625 7.175781 15.746094 C 7.175781 15.347656 6.855469 15.027344 6.457031 15.027344 Z M 4.253906 15.078125 C 3.882812 15.078125 3.585938 15.375 3.585938 15.746094 C 3.585938 16.113281 3.882812 16.410156 4.253906 16.410156 C 4.621094 16.410156 4.917969 16.113281 4.917969 15.746094 C 4.917969 15.375 4.621094 15.078125 4.253906 15.078125 Z M 2.046875 15.707031 C 2.027344 15.707031 2.011719 15.722656 2.011719 15.746094 C 2.011719 15.765625 2.027344 15.78125 2.046875 15.78125 C 2.066406 15.78125 2.082031 15.765625 2.082031 15.746094 C 2.082031 15.722656 2.066406 15.707031 2.046875 15.707031 Z M 17.488281 13.488281 C 17.460938 13.488281 17.441406 13.511719 17.441406 13.539062 C 17.441406 13.566406 17.460938 13.585938 17.488281 13.585938 C 17.515625 13.585938 17.539062 13.566406 17.539062 13.539062 C 17.539062 13.511719 17.515625 13.488281 17.488281 13.488281 Z M 15.28125 12.921875 C 14.941406 12.921875 14.664062 13.199219 14.664062 13.539062 C 14.664062 13.878906 14.941406 14.15625 15.28125 14.15625 C 15.625 14.15625 15.902344 13.878906 15.902344 13.539062 C 15.902344 13.199219 15.625 12.921875 15.28125 12.921875 Z M 13.078125 12.726562 C 12.628906 12.726562 12.261719 13.089844 12.261719 13.539062 C 12.261719 13.988281 12.628906 14.351562 13.078125 14.351562 C 13.527344 14.351562 13.890625 13.988281 13.890625 13.539062 C 13.890625 13.089844 13.527344 12.726562 13.078125 12.726562 Z M 10.871094 12.710938 C 10.414062 12.710938 10.046875 13.082031 10.046875 13.539062 C 10.046875 13.996094 10.414062 14.363281 10.871094 14.363281 C 11.328125 14.363281 11.695312 13.996094 11.695312 13.539062 C 11.695312 13.082031 11.328125 12.710938 10.871094 12.710938 Z M 8.664062 12.707031 C 8.207031 12.707031 7.832031 13.078125 7.832031 13.539062 C 7.832031 14 8.207031 14.371094 8.664062 14.371094 C 9.125 14.371094 9.496094 14 9.496094 13.539062 C 9.496094 13.078125 9.125 12.707031 8.664062 12.707031 Z M 6.457031 12.707031 C 6 12.707031 5.625 13.078125 5.625 13.539062 C 5.625 14 6 14.371094 6.457031 14.371094 C 6.917969 14.371094 7.289062 14 7.289062 13.539062 C 7.289062 13.078125 6.917969 12.707031 6.457031 12.707031 Z M 4.253906 13.050781 C 3.984375 13.050781 3.761719 13.269531 3.761719 13.539062 C 3.761719 13.808594 3.984375 14.027344 4.253906 14.027344 C 4.523438 14.027344 4.742188 13.808594 4.742188 13.539062 C 4.742188 13.269531 4.523438 13.050781 4.253906 13.050781 Z M 19.695312 11.289062 C 19.671875 11.289062 19.652344 11.308594 19.652344 11.332031 C 19.652344 11.355469 19.671875 11.375 19.695312 11.375 C 19.71875 11.375 19.738281 11.355469 19.738281 11.332031 C 19.738281 11.308594 19.71875 11.289062 19.695312 11.289062 Z M 17.488281 10.921875 C 17.261719 10.921875 17.078125 11.105469 17.078125 11.332031 C 17.078125 11.558594 17.261719 11.742188 17.488281 11.742188 C 17.714844 11.742188 17.898438 11.558594 17.898438 11.332031 C 17.898438 11.105469 17.714844 10.921875 17.488281 10.921875 Z M 15.28125 10.738281 C 14.957031 10.738281 14.691406 11.003906 14.691406 11.332031 C 14.691406 11.660156 14.957031 11.925781 15.28125 11.925781 C 15.609375 11.925781 15.875 11.660156 15.875 11.332031 C 15.875 11.003906 15.609375 10.738281 15.28125 10.738281 Z M 13.078125 10.695312 C 12.726562 10.695312 12.441406 10.980469 12.441406 11.332031 C 12.441406 11.683594 12.726562 11.96875 13.078125 11.96875 C 13.429688 11.96875 13.714844 11.683594 13.714844 11.332031 C 13.714844 10.980469 13.429688 10.695312 13.078125 10.695312 Z M 10.871094 10.671875 C 10.507812 10.671875 10.210938 10.96875 10.210938 11.332031 C 10.210938 11.699219 10.507812 11.992188 10.871094 11.992188 C 11.234375 11.992188 11.53125 11.699219 11.53125 11.332031 C 11.53125 10.96875 11.234375 10.671875 10.871094 10.671875 Z M 8.664062 10.652344 C 8.289062 10.652344 7.984375 10.957031 7.984375 11.332031 C 7.984375 11.707031 8.289062 12.011719 8.664062 12.011719 C 9.039062 12.011719 9.34375 11.707031 9.34375 11.332031 C 9.34375 10.957031 9.039062 10.652344 8.664062 10.652344 Z M 6.457031 10.695312 C 6.105469 10.695312 5.824219 10.980469 5.824219 11.332031 C 5.824219 11.683594 6.105469 11.96875 6.457031 11.96875 C 6.808594 11.96875 7.09375 11.683594 7.09375 11.332031 C 7.09375 10.980469 6.808594 10.695312 6.457031 10.695312 Z M 4.253906 11.242188 C 4.203125 11.242188 4.160156 11.28125 4.160156 11.332031 C 4.160156 11.382812 4.203125 11.425781 4.253906 11.425781 C 4.304688 11.425781 4.34375 11.382812 4.34375 11.332031 C 4.34375 11.28125 4.304688 11.242188 4.253906 11.242188 Z M 24.105469 9.113281 C 24.101562 9.113281 24.09375 9.121094 24.09375 9.125 C 24.09375 9.132812 24.101562 9.140625 24.105469 9.140625 C 24.113281 9.140625 24.121094 9.132812 24.121094 9.125 C 24.121094 9.121094 24.113281 9.113281 24.105469 9.113281 Z M 21.902344 9.011719 C 21.835938 9.011719 21.785156 9.0625 21.785156 9.125 C 21.785156 9.191406 21.835938 9.242188 21.902344 9.242188 C 21.964844 9.242188 22.015625 9.191406 22.015625 9.125 C 22.015625 9.0625 21.964844 9.011719 21.902344 9.011719 Z M 19.695312 8.816406 C 19.523438 8.816406 19.382812 8.953125 19.382812 9.125 C 19.382812 9.300781 19.523438 9.4375 19.695312 9.4375 C 19.867188 9.4375 20.007812 9.300781 20.007812 9.125 C 20.007812 8.953125 19.867188 8.816406 19.695312 8.816406 Z M 17.488281 8.730469 C 17.269531 8.730469 17.089844 8.90625 17.089844 9.125 C 17.089844 9.347656 17.269531 9.523438 17.488281 9.523438 C 17.707031 9.523438 17.886719 9.347656 17.886719 9.125 C 17.886719 8.90625 17.707031 8.730469 17.488281 8.730469 Z M 15.28125 8.6875 C 15.039062 8.6875 14.84375 8.882812 14.84375 9.125 C 14.84375 9.371094 15.039062 9.566406 15.28125 9.566406 C 15.527344 9.566406 15.722656 9.371094 15.722656 9.125 C 15.722656 8.882812 15.527344 8.6875 15.28125 8.6875 Z M 13.078125 8.65625 C 12.816406 8.65625 12.605469 8.867188 12.605469 9.125 C 12.605469 9.386719 12.816406 9.597656 13.078125 9.597656 C 13.335938 9.597656 13.546875 9.386719 13.546875 9.125 C 13.546875 8.867188 13.335938 8.65625 13.078125 8.65625 Z M 10.871094 8.632812 C 10.597656 8.632812 10.375 8.851562 10.375 9.125 C 10.375 9.398438 10.597656 9.621094 10.871094 9.621094 C 11.144531 9.621094 11.367188 9.398438 11.367188 9.125 C 11.367188 8.851562 11.144531 8.632812 10.871094 8.632812 Z M 8.664062 8.625 C 8.386719 8.625 8.164062 8.847656 8.164062 9.125 C 8.164062 9.402344 8.386719 9.628906 8.664062 9.628906 C 8.941406 9.628906 9.167969 9.402344 9.167969 9.125 C 9.167969 8.847656 8.941406 8.625 8.664062 8.625 Z M 6.457031 8.925781 C 6.347656 8.925781 6.257812 9.015625 6.257812 9.125 C 6.257812 9.238281 6.347656 9.328125 6.457031 9.328125 C 6.570312 9.328125 6.660156 9.238281 6.660156 9.125 C 6.660156 9.015625 6.570312 8.925781 6.457031 8.925781 Z M 35.136719 6.90625 C 35.132812 6.90625 35.125 6.914062 35.125 6.921875 C 35.125 6.925781 35.132812 6.933594 35.136719 6.933594 C 35.144531 6.933594 35.148438 6.925781 35.148438 6.921875 C 35.148438 6.914062 35.144531 6.90625 35.136719 6.90625 Z M 32.933594 6.902344 C 32.921875 6.902344 32.914062 6.910156 32.914062 6.921875 C 32.914062 6.929688 32.921875 6.9375 32.933594 6.9375 C 32.941406 6.9375 32.949219 6.929688 32.949219 6.921875 C 32.949219 6.910156 32.941406 6.902344 32.933594 6.902344 Z M 30.726562 6.894531 C 30.710938 6.894531 30.699219 6.90625 30.699219 6.921875 C 30.699219 6.933594 30.710938 6.945312 30.726562 6.945312 C 30.738281 6.945312 30.75 6.933594 30.75 6.921875 C 30.75 6.90625 30.738281 6.894531 30.726562 6.894531 Z M 28.519531 6.878906 C 28.496094 6.878906 28.476562 6.898438 28.476562 6.921875 C 28.476562 6.945312 28.496094 6.964844 28.519531 6.964844 C 28.542969 6.964844 28.5625 6.945312 28.5625 6.921875 C 28.5625 6.898438 28.542969 6.878906 28.519531 6.878906 Z M 26.3125 6.835938 C 26.265625 6.835938 26.226562 6.875 26.226562 6.921875 C 26.226562 6.96875 26.265625 7.007812 26.3125 7.007812 C 26.359375 7.007812 26.398438 6.96875 26.398438 6.921875 C 26.398438 6.875 26.359375 6.835938 26.3125 6.835938 Z M 24.105469 6.765625 C 24.023438 6.765625 23.953125 6.835938 23.953125 6.921875 C 23.953125 7.003906 24.023438 7.074219 24.105469 7.074219 C 24.191406 7.074219 24.261719 7.003906 24.261719 6.921875 C 24.261719 6.835938 24.191406 6.765625 24.105469 6.765625 Z M 21.902344 6.71875 C 21.789062 6.71875 21.699219 6.808594 21.699219 6.921875 C 21.699219 7.03125 21.789062 7.121094 21.902344 7.121094 C 22.011719 7.121094 22.101562 7.03125 22.101562 6.921875 C 22.101562 6.808594 22.011719 6.71875 21.902344 6.71875 Z M 19.695312 6.675781 C 19.558594 6.675781 19.449219 6.785156 19.449219 6.921875 C 19.449219 7.054688 19.558594 7.164062 19.695312 7.164062 C 19.832031 7.164062 19.941406 7.054688 19.941406 6.921875 C 19.941406 6.785156 19.832031 6.675781 19.695312 6.675781 Z M 17.488281 6.640625 C 17.332031 6.640625 17.207031 6.765625 17.207031 6.921875 C 17.207031 7.074219 17.332031 7.203125 17.488281 7.203125 C 17.644531 7.203125 17.769531 7.074219 17.769531 6.921875 C 17.769531 6.765625 17.644531 6.640625 17.488281 6.640625 Z M 15.28125 6.609375 C 15.109375 6.609375 14.972656 6.75 14.972656 6.921875 C 14.972656 7.09375 15.109375 7.230469 15.28125 7.230469 C 15.457031 7.230469 15.59375 7.09375 15.59375 6.921875 C 15.59375 6.75 15.457031 6.609375 15.28125 6.609375 Z M 13.078125 6.582031 C 12.890625 6.582031 12.742188 6.734375 12.742188 6.921875 C 12.742188 7.105469 12.890625 7.257812 13.078125 7.257812 C 13.261719 7.257812 13.414062 7.105469 13.414062 6.921875 C 13.414062 6.734375 13.261719 6.582031 13.078125 6.582031 Z M 10.871094 6.570312 C 10.679688 6.570312 10.523438 6.726562 10.523438 6.921875 C 10.523438 7.113281 10.679688 7.269531 10.871094 7.269531 C 11.0625 7.269531 11.21875 7.113281 11.21875 6.921875 C 11.21875 6.726562 11.0625 6.570312 10.871094 6.570312 Z M 8.664062 6.742188 C 8.566406 6.742188 8.488281 6.824219 8.488281 6.921875 C 8.488281 7.019531 8.566406 7.097656 8.664062 7.097656 C 8.761719 7.097656 8.84375 7.019531 8.84375 6.921875 C 8.84375 6.824219 8.761719 6.742188 8.664062 6.742188 Z M 32.933594 4.703125 C 32.925781 4.703125 32.917969 4.707031 32.917969 4.714844 C 32.917969 4.722656 32.925781 4.726562 32.933594 4.726562 C 32.9375 4.726562 32.945312 4.722656 32.945312 4.714844 C 32.945312 4.707031 32.9375 4.703125 32.933594 4.703125 Z M 30.726562 4.691406 C 30.710938 4.691406 30.699219 4.699219 30.699219 4.714844 C 30.699219 4.726562 30.710938 4.738281 30.726562 4.738281 C 30.738281 4.738281 30.75 4.726562 30.75 4.714844 C 30.75 4.699219 30.738281 4.691406 30.726562 4.691406 Z M 28.519531 4.671875 C 28.496094 4.671875 28.476562 4.691406 28.476562 4.714844 C 28.476562 4.738281 28.496094 4.757812 28.519531 4.757812 C 28.542969 4.757812 28.5625 4.738281 28.5625 4.714844 C 28.5625 4.691406 28.542969 4.671875 28.519531 4.671875 Z M 26.3125 4.648438 C 26.277344 4.648438 26.246094 4.675781 26.246094 4.714844 C 26.246094 4.75 26.277344 4.78125 26.3125 4.78125 C 26.351562 4.78125 26.378906 4.75 26.378906 4.714844 C 26.378906 4.675781 26.351562 4.648438 26.3125 4.648438 Z M 24.105469 4.617188 C 24.054688 4.617188 24.007812 4.660156 24.007812 4.714844 C 24.007812 4.769531 24.054688 4.8125 24.105469 4.8125 C 24.160156 4.8125 24.207031 4.769531 24.207031 4.714844 C 24.207031 4.660156 24.160156 4.617188 24.105469 4.617188 Z M 21.902344 4.585938 C 21.832031 4.585938 21.773438 4.644531 21.773438 4.714844 C 21.773438 4.785156 21.832031 4.84375 21.902344 4.84375 C 21.972656 4.84375 22.03125 4.785156 22.03125 4.714844 C 22.03125 4.644531 21.972656 4.585938 21.902344 4.585938 Z M 19.695312 4.5625 C 19.609375 4.5625 19.542969 4.628906 19.542969 4.714844 C 19.542969 4.800781 19.609375 4.867188 19.695312 4.867188 C 19.78125 4.867188 19.847656 4.800781 19.847656 4.714844 C 19.847656 4.628906 19.78125 4.5625 19.695312 4.5625 Z M 17.488281 4.53125 C 17.386719 4.53125 17.304688 4.613281 17.304688 4.714844 C 17.304688 4.816406 17.386719 4.898438 17.488281 4.898438 C 17.589844 4.898438 17.671875 4.816406 17.671875 4.714844 C 17.671875 4.613281 17.589844 4.53125 17.488281 4.53125 Z M 15.28125 4.511719 C 15.171875 4.511719 15.082031 4.601562 15.082031 4.714844 C 15.082031 4.824219 15.171875 4.917969 15.28125 4.917969 C 15.394531 4.917969 15.484375 4.824219 15.484375 4.714844 C 15.484375 4.601562 15.394531 4.511719 15.28125 4.511719 Z M 13.078125 4.511719 C 12.964844 4.511719 12.875 4.601562 12.875 4.714844 C 12.875 4.824219 12.964844 4.917969 13.078125 4.917969 C 13.1875 4.917969 13.277344 4.824219 13.277344 4.714844 C 13.277344 4.601562 13.1875 4.511719 13.078125 4.511719 Z M 10.871094 4.628906 C 10.824219 4.628906 10.785156 4.667969 10.785156 4.714844 C 10.785156 4.761719 10.824219 4.800781 10.871094 4.800781 C 10.917969 4.800781 10.957031 4.761719 10.957031 4.714844 C 10.957031 4.667969 10.917969 4.628906 10.871094 4.628906 Z M 30.726562 2.503906 C 30.722656 2.503906 30.71875 2.503906 30.71875 2.507812 C 30.71875 2.511719 30.722656 2.515625 30.726562 2.515625 C 30.730469 2.515625 30.730469 2.511719 30.730469 2.507812 C 30.730469 2.503906 30.730469 2.503906 30.726562 2.503906 Z M 28.519531 2.488281 C 28.507812 2.488281 28.5 2.5 28.5 2.507812 C 28.5 2.519531 28.507812 2.527344 28.519531 2.527344 C 28.53125 2.527344 28.539062 2.519531 28.539062 2.507812 C 28.539062 2.5 28.53125 2.488281 28.519531 2.488281 Z M 26.3125 2.476562 C 26.296875 2.476562 26.28125 2.492188 26.28125 2.507812 C 26.28125 2.523438 26.296875 2.539062 26.3125 2.539062 C 26.332031 2.539062 26.34375 2.523438 26.34375 2.507812 C 26.34375 2.492188 26.332031 2.476562 26.3125 2.476562 Z M 24.105469 2.460938 C 24.082031 2.460938 24.058594 2.480469 24.058594 2.507812 C 24.058594 2.535156 24.082031 2.558594 24.105469 2.558594 C 24.132812 2.558594 24.15625 2.535156 24.15625 2.507812 C 24.15625 2.480469 24.132812 2.460938 24.105469 2.460938 Z M 21.902344 2.441406 C 21.863281 2.441406 21.835938 2.472656 21.835938 2.507812 C 21.835938 2.546875 21.863281 2.574219 21.902344 2.574219 C 21.9375 2.574219 21.96875 2.546875 21.96875 2.507812 C 21.96875 2.472656 21.9375 2.441406 21.902344 2.441406 Z M 19.695312 2.421875 C 19.648438 2.421875 19.609375 2.460938 19.609375 2.507812 C 19.609375 2.554688 19.648438 2.59375 19.695312 2.59375 C 19.742188 2.59375 19.78125 2.554688 19.78125 2.507812 C 19.78125 2.460938 19.742188 2.421875 19.695312 2.421875 Z M 17.488281 2.421875 C 17.441406 2.421875 17.402344 2.460938 17.402344 2.507812 C 17.402344 2.554688 17.441406 2.59375 17.488281 2.59375 C 17.535156 2.59375 17.574219 2.554688 17.574219 2.507812 C 17.574219 2.460938 17.535156 2.421875 17.488281 2.421875 Z M 15.28125 2.449219 C 15.25 2.449219 15.222656 2.472656 15.222656 2.507812 C 15.222656 2.542969 15.25 2.570312 15.28125 2.570312 C 15.316406 2.570312 15.34375 2.542969 15.34375 2.507812 C 15.34375 2.472656 15.316406 2.449219 15.28125 2.449219 Z M 13.078125 2.496094 C 13.070312 2.496094 13.066406 2.5 13.066406 2.507812 C 13.066406 2.515625 13.070312 2.519531 13.078125 2.519531 C 13.082031 2.519531 13.089844 2.515625 13.089844 2.507812 C 13.089844 2.5 13.082031 2.496094 13.078125 2.496094 Z M 24.105469 0.296875 C 24.105469 0.296875 24.101562 0.296875 24.101562 0.300781 C 24.101562 0.304688 24.105469 0.308594 24.105469 0.308594 C 24.109375 0.308594 24.113281 0.304688 24.113281 0.300781 C 24.113281 0.296875 24.109375 0.296875 24.105469 0.296875 Z M 21.902344 0.296875 C 21.898438 0.296875 21.894531 0.296875 21.894531 0.300781 C 21.894531 0.304688 21.898438 0.308594 21.902344 0.308594 C 21.90625 0.308594 21.90625 0.304688 21.90625 0.300781 C 21.90625 0.296875 21.90625 0.296875 21.902344 0.296875 Z M 19.695312 0.296875 C 19.691406 0.296875 19.6875 0.296875 19.6875 0.300781 C 19.6875 0.304688 19.691406 0.308594 19.695312 0.308594 C 19.699219 0.308594 19.703125 0.304688 19.703125 0.300781 C 19.703125 0.296875 19.699219 0.296875 19.695312 0.296875 Z M 19.695312 0.296875 " fill-opacity="1" fill-rule="nonzero"/></g></svg>