<svg xmlns="http://www.w3.org/2000/svg" xmlns:xlink="http://www.w3.org/1999/xlink" width="50" zoomAndPan="magnify" viewBox="0 0 37.5 60" height="80" preserveAspectRatio="xMidYMid meet" version="1.0"><defs><clipPath id="fb28b7911e"><path d="M 10.363281 2.621094 L 37.007812 2.621094 L 37.007812 57.390625 L 10.363281 57.390625 Z M 10.363281 2.621094 " clip-rule="nonzero"/></clipPath></defs><g clip-path="url(#fb28b7911e)"><path fill="#000000" d="M 37.898438 13.082031 C 37.886719 12.613281 38.226562 12.253906 38.695312 12.242188 C 39.164062 12.234375 39.523438 12.574219 39.535156 13.039062 C 39.546875 13.511719 39.203125 13.871094 38.738281 13.882812 C 38.269531 13.890625 37.90625 13.550781 37.898438 13.082031 Z M 38.667969 18.058594 C 39.222656 18.085938 39.707031 17.628906 39.710938 17.074219 C 39.71875 16.535156 39.273438 16.078125 38.738281 16.066406 C 38.203125 16.054688 37.738281 16.492188 37.71875 17.027344 C 37.699219 17.5625 38.132812 18.03125 38.667969 18.058594 Z M 38.667969 9.707031 C 39.035156 9.746094 39.351562 9.453125 39.367188 9.085938 C 39.378906 8.734375 39.113281 8.441406 38.761719 8.414062 C 38.394531 8.386719 38.066406 8.671875 38.070312 9.039062 C 38.074219 9.425781 38.28125 9.664062 38.667969 9.707031 Z M 36.671875 3.292969 C 36.882812 3.316406 37.03125 3.207031 37.046875 2.992188 C 37.066406 2.78125 36.949219 2.65625 36.710938 2.621094 C 36.527344 2.640625 36.390625 2.738281 36.382812 2.957031 C 36.378906 3.148438 36.488281 3.273438 36.671875 3.292969 Z M 40.753906 15.964844 C 41.246094 15.945312 41.625 15.539062 41.617188 15.046875 C 41.613281 14.558594 41.21875 14.164062 40.726562 14.160156 C 40.214844 14.152344 39.804688 14.566406 39.8125 15.078125 C 39.820312 15.585938 40.246094 15.984375 40.753906 15.964844 Z M 40.695312 7.605469 C 41.019531 7.621094 41.234375 7.429688 41.257812 7.105469 C 41.28125 6.757812 41.082031 6.558594 40.734375 6.507812 C 40.414062 6.53125 40.195312 6.691406 40.171875 7.019531 C 40.148438 7.367188 40.347656 7.589844 40.695312 7.605469 Z M 32.742188 7.464844 C 33.058594 7.453125 33.207031 7.253906 33.226562 6.945312 C 33.191406 6.640625 33.03125 6.457031 32.714844 6.457031 C 32.402344 6.460938 32.214844 6.636719 32.214844 6.953125 C 32.210938 7.289062 32.40625 7.476562 32.742188 7.464844 Z M 38.757812 5.519531 C 39.023438 5.496094 39.160156 5.3125 39.183594 5.050781 C 39.140625 4.777344 38.992188 4.605469 38.722656 4.605469 C 38.429688 4.605469 38.246094 4.789062 38.257812 5.082031 C 38.273438 5.371094 38.464844 5.542969 38.757812 5.519531 Z M 42.738281 18.035156 C 43.25 18.023438 43.691406 17.574219 43.691406 17.0625 C 43.691406 16.535156 43.21875 16.074219 42.691406 16.089844 C 42.179688 16.101562 41.742188 16.550781 41.742188 17.0625 C 41.742188 17.589844 42.214844 18.050781 42.738281 18.035156 Z M 40.742188 3.410156 C 40.949219 3.394531 41.054688 3.253906 41.070312 3.054688 C 41.039062 2.839844 40.921875 2.707031 40.710938 2.714844 C 40.480469 2.722656 40.347656 2.871094 40.371094 3.101562 C 40.390625 3.308594 40.539062 3.425781 40.742188 3.410156 Z M 34.675781 13.765625 C 35.132812 13.785156 35.511719 13.433594 35.519531 12.976562 C 35.523438 12.539062 35.191406 12.179688 34.753906 12.160156 C 34.296875 12.140625 33.921875 12.492188 33.914062 12.949219 C 33.90625 13.386719 34.242188 13.746094 34.675781 13.765625 Z M 34.683594 17.9375 C 35.207031 17.957031 35.683594 17.5 35.691406 16.972656 C 35.695312 16.464844 35.261719 16.007812 34.75 15.988281 C 34.226562 15.964844 33.746094 16.425781 33.742188 16.953125 C 33.734375 17.460938 34.171875 17.914062 34.683594 17.9375 Z M 34.707031 9.585938 C 35.070312 9.589844 35.347656 9.320312 35.335938 8.957031 C 35.324219 8.585938 35.121094 8.371094 34.75 8.34375 C 34.390625 8.316406 34.105469 8.582031 34.09375 8.941406 C 34.082031 9.304688 34.34375 9.578125 34.707031 9.585938 Z M 32.726562 3.269531 C 32.886719 3.25 33.011719 3.164062 33.015625 2.964844 C 33.019531 2.792969 32.925781 2.679688 32.753906 2.664062 C 32.566406 2.644531 32.433594 2.738281 32.417969 2.933594 C 32.402344 3.128906 32.507812 3.238281 32.726562 3.269531 Z M 34.6875 5.386719 C 34.960938 5.402344 35.117188 5.257812 35.144531 4.976562 C 35.132812 4.707031 35 4.539062 34.722656 4.539062 C 34.445312 4.535156 34.289062 4.691406 34.292969 4.96875 C 34.292969 5.222656 34.433594 5.375 34.6875 5.386719 Z M 36.6875 7.503906 C 37.039062 7.515625 37.257812 7.3125 37.257812 6.953125 C 37.257812 6.625 37.050781 6.445312 36.707031 6.414062 C 36.394531 6.441406 36.183594 6.613281 36.175781 6.945312 C 36.164062 7.273438 36.355469 7.488281 36.6875 7.503906 Z M 36.675781 11.6875 C 37.09375 11.707031 37.421875 11.414062 37.441406 11.003906 C 37.460938 10.585938 37.167969 10.257812 36.757812 10.238281 C 36.339844 10.21875 36.011719 10.507812 35.992188 10.921875 C 35.972656 11.339844 36.261719 11.667969 36.675781 11.6875 Z M 36.746094 15.863281 C 37.230469 15.847656 37.621094 15.445312 37.617188 14.957031 C 37.613281 14.46875 37.222656 14.070312 36.734375 14.0625 C 36.226562 14.050781 35.8125 14.460938 35.816406 14.96875 C 35.816406 15.476562 36.238281 15.878906 36.746094 15.863281 Z M 40.746094 11.789062 C 41.160156 11.773438 41.453125 11.460938 41.441406 11.042969 C 41.433594 10.632812 41.125 10.332031 40.710938 10.335938 C 40.296875 10.339844 39.992188 10.644531 39.988281 11.054688 C 39.984375 11.488281 40.3125 11.804688 40.746094 11.789062 Z M 48.699219 19.96875 C 49.214844 19.976562 49.621094 19.578125 49.621094 19.066406 C 49.625 18.554688 49.222656 18.152344 48.707031 18.15625 C 48.195312 18.160156 47.800781 18.570312 47.808594 19.082031 C 47.820312 19.574219 48.207031 19.960938 48.699219 19.96875 Z M 46.691406 5.453125 C 46.945312 5.464844 47.078125 5.308594 47.113281 5.066406 C 47.089844 4.839844 46.96875 4.683594 46.742188 4.671875 C 46.488281 4.660156 46.332031 4.808594 46.328125 5.0625 C 46.320312 5.289062 46.464844 5.4375 46.691406 5.453125 Z M 48.691406 15.847656 C 49.089844 15.863281 49.464844 15.53125 49.5 15.125 C 49.539062 14.710938 49.191406 14.308594 48.765625 14.277344 C 48.351562 14.246094 47.953125 14.601562 47.929688 15.023438 C 47.90625 15.441406 48.269531 15.832031 48.691406 15.847656 Z M 42.695312 13.867188 C 43.136719 13.875 43.496094 13.546875 43.519531 13.109375 C 43.542969 12.648438 43.195312 12.269531 42.738281 12.257812 C 42.296875 12.25 41.9375 12.578125 41.914062 13.015625 C 41.890625 13.476562 42.238281 13.855469 42.695312 13.867188 Z M 48.6875 11.675781 C 49.054688 11.691406 49.292969 11.496094 49.324219 11.128906 C 49.359375 10.738281 49.164062 10.484375 48.769531 10.453125 C 48.375 10.417969 48.15625 10.636719 48.09375 11.015625 C 48.109375 11.410156 48.289062 11.65625 48.6875 11.675781 Z M 50.710938 26.046875 C 51.234375 26.050781 51.699219 25.59375 51.703125 25.066406 C 51.703125 24.542969 51.246094 24.082031 50.722656 24.078125 C 50.199219 24.074219 49.734375 24.53125 49.730469 25.058594 C 49.726562 25.582031 50.1875 26.042969 50.710938 26.046875 Z M 48.789062 22.054688 C 48.210938 22.019531 47.742188 22.425781 47.707031 22.992188 C 47.671875 23.570312 48.082031 24.039062 48.644531 24.070312 C 49.222656 24.105469 49.691406 23.699219 49.726562 23.132812 C 49.757812 22.554688 49.351562 22.085938 48.789062 22.054688 Z M 48.738281 7.507812 C 49.011719 7.492188 49.148438 7.320312 49.167969 7.050781 C 49.136719 6.78125 48.988281 6.613281 48.71875 6.617188 C 48.421875 6.621094 48.253906 6.804688 48.273438 7.097656 C 48.289062 7.367188 48.472656 7.523438 48.738281 7.507812 Z M 48.734375 3.3125 C 48.882812 3.300781 48.960938 3.199219 48.972656 3.050781 C 48.941406 2.898438 48.851562 2.800781 48.699219 2.8125 C 48.550781 2.824219 48.453125 2.925781 48.46875 3.078125 C 48.480469 3.230469 48.578125 3.324219 48.734375 3.3125 Z M 46.746094 20.042969 C 46.15625 20.027344 45.703125 20.464844 45.699219 21.054688 C 45.695312 21.628906 46.117188 22.066406 46.683594 22.082031 C 47.277344 22.097656 47.730469 21.660156 47.734375 21.070312 C 47.738281 20.496094 47.316406 20.058594 46.746094 20.042969 Z M 44.710938 20.066406 C 45.277344 20.070312 45.722656 19.621094 45.71875 19.054688 C 45.714844 18.488281 45.265625 18.046875 44.695312 18.058594 C 44.152344 18.066406 43.722656 18.5 43.710938 19.046875 C 43.703125 19.613281 44.144531 20.0625 44.710938 20.066406 Z M 42.707031 5.496094 C 42.976562 5.480469 43.144531 5.34375 43.144531 5.0625 C 43.144531 4.785156 42.980469 4.632812 42.703125 4.632812 C 42.449219 4.636719 42.300781 4.785156 42.289062 5.039062 C 42.277344 5.3125 42.425781 5.46875 42.707031 5.496094 Z M 18.691406 25.605469 C 19.058594 25.632812 19.363281 25.332031 19.363281 24.9375 C 19.332031 24.578125 19.128906 24.347656 18.738281 24.320312 C 18.371094 24.292969 18.058594 24.59375 18.070312 24.964844 C 18.085938 25.351562 18.304688 25.578125 18.691406 25.605469 Z M 42.742188 9.679688 C 43.136719 9.667969 43.324219 9.425781 43.34375 9.035156 C 43.296875 8.652344 43.085938 8.429688 42.691406 8.441406 C 42.300781 8.457031 42.082031 8.695312 42.097656 9.085938 C 42.109375 9.480469 42.351562 9.695312 42.742188 9.679688 Z M 44.699219 11.761719 C 45.097656 11.773438 45.429688 11.4375 45.417969 11.042969 C 45.40625 10.664062 45.085938 10.359375 44.707031 10.363281 C 44.328125 10.367188 44.019531 10.679688 44.015625 11.058594 C 44.015625 11.4375 44.320312 11.753906 44.699219 11.761719 Z M 46.695312 13.808594 C 47.097656 13.820312 47.4375 13.515625 47.460938 13.109375 C 47.488281 12.6875 47.164062 12.328125 46.738281 12.316406 C 46.335938 12.304688 45.996094 12.609375 45.972656 13.015625 C 45.945312 13.4375 46.269531 13.796875 46.695312 13.808594 Z M 44.691406 3.375 C 44.886719 3.375 45.011719 3.289062 45.023438 3.085938 C 45.035156 2.890625 44.941406 2.765625 44.742188 2.753906 C 44.546875 2.742188 44.421875 2.839844 44.410156 3.039062 C 44.394531 3.234375 44.492188 3.347656 44.691406 3.375 Z M 46.699219 17.960938 C 47.1875 17.96875 47.597656 17.578125 47.613281 17.09375 C 47.628906 16.605469 47.242188 16.1875 46.757812 16.164062 C 46.253906 16.140625 45.820312 16.550781 45.816406 17.058594 C 45.816406 17.542969 46.210938 17.953125 46.699219 17.960938 Z M 44.71875 7.578125 C 45.027344 7.554688 45.21875 7.398438 45.226562 7.082031 C 45.234375 6.746094 45.050781 6.554688 44.710938 6.554688 C 44.398438 6.554688 44.214844 6.730469 44.207031 7.042969 C 44.195312 7.382812 44.390625 7.550781 44.71875 7.578125 Z M 30.710938 21.976562 C 31.285156 21.980469 31.722656 21.554688 31.730469 20.980469 C 31.738281 20.40625 31.316406 19.960938 30.746094 19.949219 C 30.148438 19.933594 29.695312 20.375 29.699219 20.96875 C 29.703125 21.542969 30.136719 21.976562 30.710938 21.976562 Z M 22.726562 9.339844 C 22.960938 9.332031 23.078125 9.175781 23.105469 8.953125 C 23.0625 8.726562 22.9375 8.574219 22.703125 8.582031 C 22.472656 8.59375 22.328125 8.742188 22.335938 8.976562 C 22.34375 9.203125 22.496094 9.347656 22.726562 9.339844 Z M 24.679688 23.84375 C 25.132812 23.867188 25.554688 23.488281 25.59375 23.027344 C 25.632812 22.554688 25.234375 22.109375 24.753906 22.082031 C 24.300781 22.058594 23.878906 22.4375 23.839844 22.898438 C 23.800781 23.371094 24.199219 23.816406 24.679688 23.84375 Z M 24.71875 27.875 C 25.242188 27.875 25.632812 27.480469 25.628906 26.957031 C 25.628906 26.4375 25.230469 26.046875 24.710938 26.046875 C 24.191406 26.050781 23.800781 26.445312 23.800781 26.96875 C 23.804688 27.488281 24.199219 27.878906 24.71875 27.875 Z M 22.6875 13.480469 C 23.019531 13.492188 23.222656 13.316406 23.234375 12.980469 C 23.242188 12.640625 23.054688 12.464844 22.699219 12.4375 C 22.394531 12.46875 22.191406 12.625 22.199219 12.96875 C 22.203125 13.28125 22.375 13.46875 22.6875 13.480469 Z M 24.710938 7.316406 C 24.917969 7.296875 25.054688 7.183594 25.0625 6.976562 C 25.074219 6.769531 24.949219 6.628906 24.742188 6.617188 C 24.515625 6.601562 24.367188 6.738281 24.367188 6.96875 C 24.371094 7.175781 24.503906 7.292969 24.710938 7.316406 Z M 26.714844 29.96875 C 27.28125 29.972656 27.722656 29.535156 27.722656 28.964844 C 27.722656 28.398438 27.289062 27.957031 26.71875 27.957031 C 26.148438 27.953125 25.710938 28.390625 25.707031 28.960938 C 25.707031 29.527344 26.144531 29.96875 26.714844 29.96875 Z M 24.691406 19.75 C 25.113281 19.765625 25.496094 19.398438 25.503906 18.972656 C 25.511719 18.550781 25.136719 18.175781 24.714844 18.175781 C 24.3125 18.175781 23.949219 18.523438 23.925781 18.925781 C 23.90625 19.34375 24.269531 19.734375 24.691406 19.75 Z M 24.679688 11.480469 C 24.976562 11.472656 25.191406 11.34375 25.222656 11.027344 C 25.253906 10.695312 25.09375 10.480469 24.757812 10.453125 C 24.449219 10.429688 24.242188 10.585938 24.210938 10.898438 C 24.171875 11.230469 24.34375 11.425781 24.679688 11.480469 Z M 24.679688 15.632812 C 25.03125 15.65625 25.363281 15.355469 25.386719 15 C 25.410156 14.648438 25.109375 14.316406 24.753906 14.292969 C 24.402344 14.269531 24.066406 14.566406 24.046875 14.925781 C 24.023438 15.277344 24.320312 15.609375 24.679688 15.632812 Z M 22.679688 17.621094 C 23.035156 17.644531 23.375 17.347656 23.371094 16.988281 C 23.367188 16.605469 23.160156 16.363281 22.777344 16.308594 C 22.421875 16.257812 22.085938 16.550781 22.058594 16.914062 C 22.027344 17.269531 22.316406 17.601562 22.679688 17.621094 Z M 18.695312 17.457031 C 19.007812 17.472656 19.171875 17.285156 19.226562 16.957031 C 19.1875 16.6875 19.054688 16.476562 18.734375 16.464844 C 18.425781 16.457031 18.234375 16.632812 18.21875 16.941406 C 18.207031 17.253906 18.386719 17.445312 18.695312 17.457031 Z M 18.726562 13.339844 C 18.960938 13.332031 19.078125 13.175781 19.105469 12.953125 C 19.0625 12.726562 18.9375 12.574219 18.703125 12.582031 C 18.472656 12.59375 18.328125 12.742188 18.335938 12.976562 C 18.34375 13.203125 18.496094 13.347656 18.726562 13.339844 Z M 18.699219 21.550781 C 19.074219 21.5625 19.265625 21.328125 19.316406 20.96875 C 19.273438 20.605469 19.082031 20.371094 18.707031 20.375 C 18.359375 20.375 18.140625 20.589844 18.128906 20.933594 C 18.113281 21.304688 18.328125 21.539062 18.699219 21.550781 Z M 20.730469 23.671875 C 21.117188 23.664062 21.417969 23.363281 21.421875 22.972656 C 21.429688 22.566406 21.109375 22.25 20.703125 22.253906 C 20.292969 22.261719 19.988281 22.589844 20.007812 23 C 20.027344 23.386719 20.339844 23.675781 20.730469 23.671875 Z M 22.699219 25.777344 C 23.164062 25.785156 23.523438 25.441406 23.53125 24.980469 C 23.539062 24.511719 23.195312 24.15625 22.730469 24.148438 C 22.265625 24.140625 21.910156 24.484375 21.902344 24.945312 C 21.894531 25.414062 22.234375 25.769531 22.699219 25.777344 Z M 22.714844 21.722656 C 23.128906 21.722656 23.480469 21.367188 23.472656 20.949219 C 23.46875 20.535156 23.105469 20.191406 22.691406 20.203125 C 22.296875 20.21875 21.964844 20.554688 21.957031 20.949219 C 21.949219 21.363281 22.300781 21.71875 22.714844 21.722656 Z M 32.726562 11.660156 C 33.101562 11.652344 33.417969 11.328125 33.410156 10.953125 C 33.40625 10.578125 33.078125 10.261719 32.707031 10.265625 C 32.328125 10.273438 32.015625 10.597656 32.019531 10.972656 C 32.027344 11.347656 32.351562 11.664062 32.726562 11.660156 Z M 20.738281 19.582031 C 21.136719 19.570312 21.324219 19.324219 21.34375 18.9375 C 21.296875 18.550781 21.085938 18.328125 20.691406 18.34375 C 20.296875 18.359375 20.082031 18.597656 20.097656 18.988281 C 20.109375 19.378906 20.347656 19.59375 20.738281 19.582031 Z M 20.710938 15.472656 C 21.054688 15.476562 21.214844 15.277344 21.234375 14.945312 C 21.199219 14.636719 21.039062 14.449219 20.722656 14.453125 C 20.382812 14.453125 20.199219 14.644531 20.207031 14.980469 C 20.214844 15.296875 20.398438 15.472656 20.710938 15.472656 Z M 20.734375 11.347656 C 20.960938 11.339844 21.101562 11.195312 21.101562 10.96875 C 21.105469 10.714844 20.941406 10.589844 20.699219 10.566406 C 20.476562 10.605469 20.328125 10.730469 20.328125 10.957031 C 20.332031 11.207031 20.484375 11.359375 20.734375 11.347656 Z M 30.691406 17.859375 C 31.195312 17.871094 31.621094 17.449219 31.613281 16.949219 C 31.605469 16.464844 31.199219 16.0625 30.714844 16.066406 C 30.230469 16.066406 29.824219 16.46875 29.820312 16.953125 C 29.8125 17.433594 30.210938 17.847656 30.691406 17.859375 Z M 30.734375 13.703125 C 31.160156 13.691406 31.480469 13.347656 31.457031 12.921875 C 31.433594 12.515625 31.105469 12.214844 30.699219 12.222656 C 30.292969 12.230469 29.980469 12.546875 29.976562 12.953125 C 29.972656 13.382812 30.304688 13.710938 30.734375 13.703125 Z M 50.695312 21.960938 C 51.179688 21.972656 51.59375 21.589844 51.617188 21.109375 C 51.640625 20.605469 51.242188 20.175781 50.738281 20.164062 C 50.253906 20.152344 49.839844 20.535156 49.816406 21.015625 C 49.792969 21.519531 50.191406 21.949219 50.695312 21.960938 Z M 28.714844 3.210938 C 28.867188 3.195312 28.960938 3.113281 28.960938 2.960938 C 28.960938 2.8125 28.867188 2.71875 28.714844 2.71875 C 28.566406 2.71875 28.472656 2.8125 28.472656 2.960938 C 28.472656 3.113281 28.566406 3.195312 28.714844 3.210938 Z M 30.738281 9.542969 C 31.082031 9.507812 31.261719 9.292969 31.304688 8.953125 C 31.25 8.617188 31.066406 8.390625 30.71875 8.386719 C 30.375 8.386719 30.167969 8.605469 30.136719 8.945312 C 30.109375 9.257812 30.425781 9.570312 30.738281 9.542969 Z M 32.675781 19.964844 C 33.246094 19.988281 33.707031 19.554688 33.71875 18.988281 C 33.734375 18.421875 33.296875 17.964844 32.730469 17.957031 C 32.164062 17.949219 31.714844 18.394531 31.710938 18.960938 C 31.710938 19.507812 32.132812 19.945312 32.675781 19.964844 Z M 26.734375 25.949219 C 27.261719 25.9375 27.714844 25.472656 27.703125 24.945312 C 27.691406 24.417969 27.222656 23.964844 26.699219 23.976562 C 26.171875 23.988281 25.71875 24.453125 25.730469 24.980469 C 25.738281 25.507812 26.207031 25.960938 26.734375 25.949219 Z M 32.707031 15.828125 C 33.164062 15.832031 33.570312 15.441406 33.582031 14.980469 C 33.59375 14.527344 33.210938 14.117188 32.75 14.097656 C 32.292969 14.078125 31.878906 14.457031 31.851562 14.917969 C 31.824219 15.390625 32.230469 15.824219 32.707031 15.828125 Z M 30.679688 5.347656 C 30.929688 5.371094 31.066406 5.21875 31.113281 4.980469 C 31.09375 4.75 30.976562 4.59375 30.753906 4.574219 C 30.503906 4.554688 30.34375 4.699219 30.328125 4.949219 C 30.316406 5.175781 30.457031 5.328125 30.679688 5.347656 Z M 28.6875 7.402344 C 28.980469 7.417969 29.160156 7.246094 29.15625 6.953125 C 29.15625 6.683594 28.988281 6.539062 28.71875 6.515625 C 28.449219 6.535156 28.28125 6.675781 28.273438 6.949219 C 28.265625 7.214844 28.417969 7.390625 28.6875 7.402344 Z M 26.691406 17.753906 C 27.117188 17.769531 27.496094 17.414062 27.507812 16.984375 C 27.523438 16.5625 27.164062 16.183594 26.738281 16.167969 C 26.316406 16.15625 25.9375 16.511719 25.921875 16.9375 C 25.910156 17.363281 26.265625 17.742188 26.691406 17.753906 Z M 26.679688 13.617188 C 27.039062 13.652344 27.359375 13.347656 27.371094 12.984375 C 27.386719 12.625 27.089844 12.3125 26.726562 12.304688 C 26.367188 12.300781 26.046875 12.601562 26.0625 12.964844 C 26.082031 13.347656 26.300781 13.574219 26.679688 13.617188 Z M 26.671875 21.863281 C 27.175781 21.886719 27.605469 21.484375 27.617188 20.980469 C 27.625 20.496094 27.242188 20.085938 26.757812 20.0625 C 26.257812 20.039062 25.824219 20.441406 25.816406 20.945312 C 25.804688 21.425781 26.191406 21.839844 26.671875 21.863281 Z M 26.707031 9.453125 C 27.019531 9.457031 27.175781 9.257812 27.21875 8.957031 C 27.171875 8.660156 27.011719 8.464844 26.699219 8.472656 C 26.417969 8.480469 26.234375 8.660156 26.226562 8.941406 C 26.21875 9.25 26.398438 9.445312 26.707031 9.453125 Z M 28.695312 15.746094 C 29.117188 15.757812 29.5 15.378906 29.5 14.957031 C 29.496094 14.554688 29.140625 14.191406 28.734375 14.179688 C 28.316406 14.167969 27.929688 14.546875 27.933594 14.96875 C 27.9375 15.371094 28.292969 15.734375 28.695312 15.746094 Z M 28.703125 19.867188 C 29.214844 19.875 29.621094 19.472656 29.621094 18.960938 C 29.621094 18.453125 29.214844 18.050781 28.703125 18.058594 C 28.214844 18.0625 27.824219 18.449219 27.8125 18.9375 C 27.796875 19.449219 28.195312 19.859375 28.703125 19.867188 Z M 28.726562 11.574219 C 29.125 11.570312 29.3125 11.328125 29.339844 10.9375 C 29.289062 10.554688 29.078125 10.332031 28.679688 10.351562 C 28.3125 10.367188 28.101562 10.589844 28.105469 10.960938 C 28.105469 11.355469 28.332031 11.578125 28.726562 11.574219 Z M 26.707031 5.261719 C 26.878906 5.269531 26.992188 5.175781 27.011719 5.007812 C 27.039062 4.816406 26.945312 4.683594 26.75 4.664062 C 26.558594 4.644531 26.441406 4.746094 26.414062 4.941406 C 26.417969 5.132812 26.507812 5.253906 26.707031 5.261719 Z M 28.707031 23.972656 C 29.28125 23.976562 29.722656 23.546875 29.726562 22.972656 C 29.730469 22.398438 29.300781 21.957031 28.726562 21.953125 C 28.152344 21.945312 27.710938 22.378906 27.707031 22.953125 C 27.699219 23.527344 28.132812 23.96875 28.707031 23.972656 Z M 44.707031 15.929688 C 45.164062 15.933594 45.570312 15.542969 45.582031 15.085938 C 45.59375 14.628906 45.210938 14.21875 44.75 14.195312 C 44.277344 14.175781 43.847656 14.589844 43.851562 15.066406 C 43.851562 15.523438 44.246094 15.921875 44.707031 15.929688 Z M 39.710938 28.054688 Z M 52.71875 19.851562 C 53.140625 19.847656 53.515625 19.46875 53.503906 19.046875 C 53.496094 18.625 53.109375 18.257812 52.6875 18.273438 C 52.285156 18.289062 51.933594 18.648438 51.929688 19.054688 C 51.921875 19.472656 52.296875 19.851562 52.71875 19.851562 Z M 52.691406 23.941406 C 53.148438 23.957031 53.566406 23.570312 53.59375 23.109375 C 53.625 22.640625 53.21875 22.199219 52.738281 22.183594 C 52.285156 22.167969 51.867188 22.554688 51.839844 23.015625 C 51.808594 23.484375 52.214844 23.925781 52.691406 23.941406 Z M 39.710938 28.054688 Z M 52.6875 7.410156 C 52.917969 7.421875 53.066406 7.285156 53.0625 7.054688 C 53.0625 6.847656 52.925781 6.734375 52.710938 6.707031 C 52.515625 6.730469 52.378906 6.839844 52.367188 7.046875 C 52.359375 7.253906 52.484375 7.394531 52.6875 7.410156 Z M 41.800781 27.851562 C 42.183594 27.328125 42.121094 26.574219 41.664062 26.113281 C 41.207031 25.65625 40.449219 25.597656 39.929688 25.976562 C 39.402344 26.359375 39.230469 27.070312 39.519531 27.667969 C 39.582031 27.800781 39.652344 27.929688 39.71875 28.058594 C 39.847656 28.125 39.976562 28.195312 40.109375 28.257812 C 40.707031 28.550781 41.417969 28.378906 41.800781 27.851562 Z M 54.671875 25.875 C 55.140625 25.894531 55.511719 25.554688 55.527344 25.09375 C 55.542969 24.625 55.199219 24.261719 54.734375 24.25 C 54.265625 24.242188 53.90625 24.589844 53.90625 25.058594 C 53.902344 25.507812 54.230469 25.855469 54.671875 25.875 Z M 52.707031 11.574219 C 53.046875 11.574219 53.234375 11.382812 53.226562 11.046875 C 53.222656 10.734375 53.039062 10.554688 52.726562 10.550781 C 52.382812 10.546875 52.21875 10.746094 52.199219 11.078125 C 52.230469 11.386719 52.390625 11.574219 52.707031 11.574219 Z M 52.703125 15.734375 C 53.058594 15.742188 53.378906 15.433594 53.386719 15.074219 C 53.394531 14.71875 53.085938 14.398438 52.730469 14.390625 C 52.375 14.382812 52.054688 14.691406 52.046875 15.050781 C 52.039062 15.40625 52.34375 15.726562 52.703125 15.734375 Z M 39.710938 28.054688 C 39.714844 28.058594 39.714844 28.058594 39.714844 28.058594 C 39.71875 28.0625 39.722656 28.0625 39.722656 28.066406 C 39.722656 28.066406 39.714844 28.054688 39.710938 28.054688 Z M 42.757812 23.828125 C 42.0625 23.804688 41.503906 24.328125 41.480469 25.019531 C 41.460938 25.71875 41.980469 26.277344 42.675781 26.296875 C 43.371094 26.320312 43.929688 25.796875 43.953125 25.105469 C 43.972656 24.410156 43.449219 23.847656 42.757812 23.828125 Z M 39.71875 28.058594 C 39.71875 28.058594 39.714844 28.054688 39.710938 28.054688 L 39.722656 28.066406 C 39.722656 28.0625 39.722656 28.0625 39.71875 28.058594 Z M 40.78125 21.855469 C 40.085938 21.824219 39.523438 22.34375 39.507812 23.035156 C 39.496094 23.710938 40.007812 24.25 40.675781 24.269531 C 41.351562 24.289062 41.898438 23.78125 41.921875 23.117188 C 41.949219 22.4375 41.449219 21.886719 40.78125 21.855469 Z M 37.707031 25.945312 C 37.703125 25.953125 37.703125 25.960938 37.703125 25.96875 C 37.710938 25.96875 37.71875 25.96875 37.722656 25.964844 L 37.722656 25.960938 C 37.722656 25.964844 37.722656 25.964844 37.722656 25.964844 C 37.722656 25.960938 37.71875 25.957031 37.71875 25.953125 C 37.714844 25.953125 37.710938 25.949219 37.707031 25.945312 Z M 37.421875 25.820312 C 36.796875 25.46875 36.054688 25.609375 35.640625 26.160156 C 35.253906 26.675781 35.304688 27.433594 35.753906 27.898438 C 36.214844 28.371094 37 28.433594 37.523438 28.035156 C 38.074219 27.617188 38.210938 26.875 37.851562 26.25 C 37.800781 26.15625 37.699219 26.089844 37.703125 25.96875 C 37.582031 25.976562 37.515625 25.871094 37.421875 25.820312 Z M 40.457031 32.421875 C 41.199219 32.527344 41.910156 31.953125 41.980469 31.175781 C 42.015625 30.796875 41.894531 30.453125 41.644531 30.164062 C 41.203125 29.65625 40.621094 29.640625 39.972656 29.78125 C 40.210938 29.113281 40.167969 28.550781 39.714844 28.058594 C 38.925781 27.308594 37.675781 27.648438 37.363281 28.667969 C 37.230469 29.09375 37.359375 29.484375 37.519531 29.871094 C 36.917969 29.519531 36.316406 29.527344 35.714844 29.863281 C 35.78125 29.75 35.851562 29.636719 35.90625 29.515625 C 36.222656 28.820312 35.90625 28.027344 35.195312 27.742188 C 34.511719 27.46875 33.75 27.808594 33.488281 28.507812 C 33.226562 29.199219 33.585938 29.953125 34.289062 30.203125 C 34.734375 30.363281 35.136719 30.238281 35.53125 30.035156 C 35.480469 30.152344 35.429688 30.273438 35.378906 30.394531 C 35.144531 30.933594 35.21875 31.441406 35.605469 31.871094 C 35.992188 32.304688 36.492188 32.441406 37.050781 32.253906 C 37.609375 32.066406 37.898438 31.648438 37.980469 31.078125 C 38.03125 30.714844 37.828125 30.410156 37.746094 30.078125 C 38.214844 30.535156 38.773438 30.535156 39.371094 30.351562 C 39.121094 31.546875 39.519531 32.289062 40.457031 32.421875 Z M 54.726562 21.820312 C 55.144531 21.8125 55.488281 21.453125 55.476562 21.039062 C 55.460938 20.644531 55.125 20.3125 54.730469 20.304688 C 54.316406 20.296875 53.957031 20.644531 53.957031 21.0625 C 53.957031 21.476562 54.3125 21.828125 54.726562 21.820312 Z M 44.023438 29.070312 C 44.027344 28.347656 43.464844 27.769531 42.746094 27.753906 C 42.003906 27.742188 41.414062 28.316406 41.410156 29.054688 C 41.40625 29.78125 41.964844 30.355469 42.683594 30.371094 C 43.429688 30.382812 44.019531 29.8125 44.023438 29.070312 Z M 45.929688 27.042969 C 45.921875 26.367188 45.402344 25.851562 44.722656 25.847656 C 44.023438 25.847656 43.496094 26.382812 43.503906 27.082031 C 43.511719 27.757812 44.03125 28.273438 44.710938 28.277344 C 45.410156 28.28125 45.9375 27.746094 45.929688 27.042969 Z M 54.683594 17.71875 C 55.042969 17.753906 55.367188 17.441406 55.375 17.082031 C 55.386719 16.722656 55.085938 16.40625 54.722656 16.402344 C 54.363281 16.398438 54.039062 16.707031 54.058594 17.066406 C 54.082031 17.453125 54.304688 17.679688 54.683594 17.71875 Z M 60.691406 19.523438 C 60.976562 19.539062 61.140625 19.359375 61.1875 19.070312 C 61.15625 18.792969 61.003906 18.605469 60.71875 18.601562 C 60.453125 18.597656 60.277344 18.765625 60.257812 19.023438 C 60.234375 19.3125 60.40625 19.503906 60.691406 19.523438 Z M 37.667969 24.296875 C 37.265625 24.863281 37.394531 25.410156 37.71875 25.953125 C 37.898438 26.0625 38.066406 26.191406 38.257812 26.269531 C 38.886719 26.523438 39.601562 26.230469 39.890625 25.617188 C 40.171875 25.015625 39.960938 24.304688 39.398438 23.960938 C 38.816406 23.601562 38.0625 23.746094 37.667969 24.296875 Z M 62.707031 25.527344 C 62.972656 25.503906 63.15625 25.363281 63.175781 25.097656 C 63.191406 24.808594 63.019531 24.617188 62.726562 24.605469 C 62.460938 24.59375 62.277344 24.761719 62.261719 25.027344 C 62.238281 25.320312 62.417969 25.484375 62.707031 25.527344 Z M 60.730469 23.582031 C 61.070312 23.574219 61.230469 23.371094 61.242188 23.039062 C 61.203125 22.703125 61.015625 22.527344 60.679688 22.542969 C 60.367188 22.5625 60.195312 22.75 60.199219 23.0625 C 60.199219 23.402344 60.390625 23.585938 60.730469 23.582031 Z M 62.710938 21.460938 C 62.96875 21.464844 63.097656 21.308594 63.121094 21.054688 C 63.089844 20.804688 62.957031 20.65625 62.699219 20.664062 C 62.46875 20.671875 62.328125 20.8125 62.320312 21.042969 C 62.3125 21.300781 62.453125 21.453125 62.710938 21.460938 Z M 64.738281 23.390625 C 64.898438 23.375 65.027344 23.289062 65.039062 23.09375 C 65.050781 22.878906 64.941406 22.746094 64.722656 22.742188 C 64.53125 22.734375 64.410156 22.839844 64.394531 23.03125 C 64.382812 23.246094 64.492188 23.367188 64.738281 23.390625 Z M 64.707031 19.316406 C 64.851562 19.308594 64.957031 19.230469 64.964844 19.078125 C 64.976562 18.925781 64.882812 18.824219 64.734375 18.8125 C 64.578125 18.800781 64.480469 18.894531 64.46875 19.046875 C 64.457031 19.199219 64.550781 19.285156 64.707031 19.316406 Z M 62.726562 17.375 C 62.925781 17.371094 63.023438 17.25 63.03125 17.035156 C 63.011719 16.859375 62.910156 16.746094 62.710938 16.75 C 62.507812 16.757812 62.402344 16.871094 62.40625 17.070312 C 62.410156 17.269531 62.527344 17.375 62.726562 17.375 Z M 58.730469 13.441406 C 58.960938 13.433594 59.078125 13.277344 59.109375 13.027344 C 59.054688 12.835938 58.941406 12.671875 58.703125 12.683594 C 58.472656 12.695312 58.328125 12.84375 58.335938 13.074219 C 58.347656 13.304688 58.5 13.449219 58.730469 13.441406 Z M 60.738281 15.425781 C 60.953125 15.378906 61.097656 15.253906 61.070312 15.023438 C 61.050781 14.820312 60.90625 14.691406 60.699219 14.707031 C 60.476562 14.722656 60.339844 14.871094 60.363281 15.101562 C 60.382812 15.304688 60.527344 15.410156 60.738281 15.425781 Z M 56.714844 23.765625 C 57.101562 23.769531 57.414062 23.464844 57.421875 23.078125 C 57.429688 22.691406 57.132812 22.371094 56.746094 22.359375 C 56.355469 22.34375 56.035156 22.636719 56.011719 23.023438 C 55.992188 23.429688 56.304688 23.765625 56.714844 23.765625 Z M 56.710938 19.683594 C 57.105469 19.6875 57.308594 19.457031 57.347656 19.042969 C 57.308594 18.691406 57.125 18.445312 56.722656 18.441406 C 56.332031 18.441406 56.101562 18.664062 56.097656 19.054688 C 56.09375 19.449219 56.316406 19.675781 56.710938 19.683594 Z M 54.726562 9.449219 C 54.953125 9.410156 55.105469 9.285156 55.09375 9.050781 C 55.085938 8.820312 54.9375 8.675781 54.707031 8.683594 C 54.476562 8.691406 54.332031 8.84375 54.335938 9.074219 C 54.34375 9.304688 54.5 9.425781 54.726562 9.449219 Z M 54.714844 13.589844 C 55.019531 13.570312 55.230469 13.417969 55.234375 13.074219 C 55.242188 12.761719 55.078125 12.566406 54.765625 12.542969 C 54.433594 12.519531 54.21875 12.6875 54.199219 13.027344 C 54.179688 13.363281 54.359375 13.550781 54.714844 13.589844 Z M 58.71875 17.558594 C 59.03125 17.558594 59.1875 17.363281 59.222656 17.0625 C 59.183594 16.761719 59.027344 16.566406 58.714844 16.566406 C 58.40625 16.570312 58.222656 16.753906 58.222656 17.0625 C 58.222656 17.371094 58.40625 17.554688 58.71875 17.558594 Z M 56.738281 15.574219 C 57.054688 15.566406 57.210938 15.375 57.234375 15.066406 C 57.214844 14.757812 57.058594 14.5625 56.742188 14.550781 C 56.40625 14.539062 56.207031 14.71875 56.207031 15.058594 C 56.207031 15.398438 56.402344 15.582031 56.738281 15.574219 Z M 58.699219 25.707031 C 59.066406 25.730469 59.367188 25.425781 59.363281 25.058594 C 59.359375 24.707031 59.085938 24.425781 58.734375 24.414062 C 58.367188 24.40625 58.054688 24.699219 58.074219 25.070312 C 58.089844 25.457031 58.3125 25.679688 58.699219 25.707031 Z M 58.71875 21.664062 C 59.078125 21.613281 59.3125 21.421875 59.304688 21.050781 C 59.300781 20.703125 59.085938 20.484375 58.738281 20.472656 C 58.371094 20.464844 58.136719 20.683594 58.128906 21.050781 C 58.121094 21.425781 58.355469 21.617188 58.71875 21.664062 Z M 56.695312 11.449219 C 56.945312 11.460938 57.078125 11.304688 57.117188 11.039062 C 57.074219 10.84375 56.96875 10.683594 56.738281 10.675781 C 56.488281 10.664062 56.332031 10.8125 56.328125 11.0625 C 56.324219 11.289062 56.46875 11.4375 56.695312 11.449219 Z M 40.566406 40.164062 C 41.179688 40.191406 41.695312 39.710938 41.71875 39.101562 C 41.738281 38.488281 41.253906 37.976562 40.640625 37.960938 C 40.046875 37.949219 39.546875 38.410156 39.515625 39 C 39.484375 39.613281 39.957031 40.136719 40.566406 40.164062 Z M 34.605469 38.105469 C 35.238281 38.113281 35.75 37.617188 35.761719 36.984375 C 35.773438 36.351562 35.285156 35.835938 34.652344 35.820312 C 34.019531 35.800781 33.5 36.285156 33.472656 36.914062 C 33.445312 37.566406 33.953125 38.101562 34.605469 38.105469 Z M 30.589844 34.09375 C 31.234375 34.105469 31.738281 33.617188 31.746094 32.976562 C 31.753906 32.332031 31.261719 31.832031 30.617188 31.832031 C 29.972656 31.832031 29.480469 32.328125 29.484375 32.976562 C 29.492188 33.597656 29.96875 34.082031 30.589844 34.09375 Z M 32.605469 36.128906 C 33.242188 36.136719 33.785156 35.59375 33.78125 34.960938 C 33.78125 34.324219 33.234375 33.785156 32.601562 33.796875 C 31.984375 33.804688 31.464844 34.324219 31.449219 34.941406 C 31.433594 35.574219 31.972656 36.125 32.605469 36.128906 Z M 36.613281 40.066406 C 37.230469 40.066406 37.722656 39.570312 37.71875 38.953125 C 37.714844 38.355469 37.238281 37.875 36.644531 37.859375 C 36.027344 37.847656 35.523438 38.332031 35.515625 38.949219 C 35.507812 39.5625 35.996094 40.0625 36.613281 40.066406 Z M 30.8125 23.851562 C 30.160156 23.804688 29.632812 24.265625 29.605469 24.902344 C 29.574219 25.535156 30.027344 26.042969 30.644531 26.074219 C 31.273438 26.109375 31.789062 25.660156 31.828125 25.046875 C 31.867188 24.417969 31.425781 23.898438 30.8125 23.851562 Z M 38.617188 38.253906 C 39.246094 38.253906 39.792969 37.722656 39.804688 37.089844 C 39.824219 36.4375 39.269531 35.871094 38.617188 35.871094 C 37.984375 35.871094 37.441406 36.402344 37.425781 37.039062 C 37.410156 37.6875 37.964844 38.253906 38.617188 38.253906 Z M 32.746094 21.835938 C 32.121094 21.824219 31.625 22.28125 31.59375 22.894531 C 31.5625 23.542969 32.027344 24.0625 32.664062 24.085938 C 33.308594 24.113281 33.820312 23.640625 33.839844 23.003906 C 33.859375 22.359375 33.382812 21.851562 32.746094 21.835938 Z M 28.625 32.054688 C 29.210938 32.046875 29.703125 31.550781 29.707031 30.964844 C 29.707031 30.382812 29.214844 29.882812 28.628906 29.871094 C 28.050781 29.863281 27.542969 30.351562 27.527344 30.933594 C 27.507812 31.535156 28.023438 32.058594 28.625 32.054688 Z M 28.734375 25.875 C 28.152344 25.867188 27.640625 26.363281 27.628906 26.945312 C 27.617188 27.527344 28.117188 28.039062 28.699219 28.050781 C 29.277344 28.058594 29.792969 27.5625 29.800781 26.980469 C 29.8125 26.398438 29.316406 25.886719 28.734375 25.875 Z M 42.632812 38.207031 C 43.265625 38.199219 43.761719 37.691406 43.761719 37.058594 C 43.757812 36.421875 43.257812 35.921875 42.625 35.917969 C 41.972656 35.914062 41.457031 36.441406 41.472656 37.09375 C 41.488281 37.726562 42 38.21875 42.632812 38.207031 Z M 50.699219 30.070312 C 51.269531 30.078125 51.714844 29.644531 51.722656 29.078125 C 51.730469 28.511719 51.300781 28.0625 50.734375 28.054688 C 50.164062 28.046875 49.71875 28.480469 49.710938 29.046875 C 49.703125 29.617188 50.132812 30.0625 50.699219 30.070312 Z M 50.699219 9.550781 C 51.007812 9.558594 51.199219 9.375 51.207031 9.066406 C 51.210938 8.753906 51.007812 8.597656 50.679688 8.558594 C 50.421875 8.621094 50.210938 8.765625 50.226562 9.082031 C 50.238281 9.367188 50.417969 9.546875 50.699219 9.550781 Z M 50.695312 5.363281 C 50.890625 5.371094 51.007812 5.269531 51.015625 5.070312 C 51.019531 4.875 50.90625 4.773438 50.714844 4.757812 C 50.519531 4.777344 50.410156 4.882812 50.417969 5.078125 C 50.421875 5.25 50.523438 5.351562 50.695312 5.363281 Z M 50.699219 13.722656 C 51.058594 13.734375 51.375 13.429688 51.375 13.066406 C 51.378906 12.707031 51.070312 12.386719 50.710938 12.40625 C 50.324219 12.429688 50.097656 12.652344 50.058594 13.03125 C 50.023438 13.390625 50.335938 13.710938 50.699219 13.722656 Z M 34.707031 19.855469 C 34.085938 19.859375 33.605469 20.347656 33.609375 20.972656 C 33.613281 21.59375 34.101562 22.074219 34.726562 22.070312 C 35.347656 22.066406 35.828125 21.578125 35.824219 20.953125 C 35.820312 20.332031 35.328125 19.851562 34.707031 19.855469 Z M 44.621094 36.230469 C 45.253906 36.230469 45.796875 35.679688 45.785156 35.046875 C 45.777344 34.410156 45.21875 33.875 44.589844 33.894531 C 43.96875 33.910156 43.453125 34.4375 43.445312 35.054688 C 43.441406 35.6875 43.984375 36.234375 44.621094 36.230469 Z M 48.59375 32.15625 C 49.195312 32.171875 49.710938 31.664062 49.710938 31.0625 C 49.707031 30.476562 49.226562 29.984375 48.640625 29.96875 C 48.039062 29.957031 47.523438 30.460938 47.523438 31.0625 C 47.523438 31.648438 48.007812 32.140625 48.59375 32.15625 Z M 50.707031 17.855469 C 51.132812 17.863281 51.503906 17.503906 51.511719 17.074219 C 51.519531 16.644531 51.15625 16.273438 50.726562 16.269531 C 50.296875 16.261719 49.929688 16.621094 49.921875 17.050781 C 49.914062 17.480469 50.273438 17.851562 50.707031 17.855469 Z M 46.605469 34.195312 C 47.246094 34.203125 47.746094 33.710938 47.75 33.074219 C 47.753906 32.433594 47.265625 31.933594 46.625 31.929688 C 45.984375 31.921875 45.488281 32.414062 45.480469 33.054688 C 45.476562 33.695312 45.964844 34.191406 46.605469 34.195312 Z M 31.5 26.945312 C 31.492188 27.644531 32.023438 28.179688 32.722656 28.179688 C 33.402344 28.175781 33.921875 27.660156 33.929688 26.980469 C 33.941406 26.28125 33.410156 25.746094 32.710938 25.746094 C 32.03125 25.75 31.507812 26.265625 31.5 26.945312 Z M 43.890625 33.050781 C 43.882812 32.363281 43.285156 31.78125 42.605469 31.789062 C 41.917969 31.796875 41.332031 32.390625 41.34375 33.074219 C 41.351562 33.761719 41.945312 34.34375 42.628906 34.335938 C 43.316406 34.328125 43.898438 33.734375 43.890625 33.050781 Z M 34.597656 34.234375 C 35.28125 34.246094 35.878906 33.667969 35.890625 32.980469 C 35.902344 32.300781 35.320312 31.703125 34.632812 31.691406 C 33.953125 31.679688 33.355469 32.257812 33.34375 32.945312 C 33.332031 33.625 33.914062 34.222656 34.597656 34.234375 Z M 39.9375 33.050781 C 39.933594 32.304688 39.355469 31.734375 38.605469 31.742188 C 37.859375 31.746094 37.289062 32.324219 37.292969 33.074219 C 37.300781 33.820312 37.878906 34.390625 38.628906 34.382812 C 39.375 34.378906 39.941406 33.800781 39.9375 33.050781 Z M 40.589844 36.304688 C 41.296875 36.320312 41.863281 35.761719 41.855469 35.050781 C 41.851562 34.363281 41.308594 33.824219 40.617188 33.820312 C 39.925781 33.820312 39.382812 34.359375 39.375 35.046875 C 39.367188 35.738281 39.902344 36.289062 40.589844 36.304688 Z M 36.636719 36.207031 C 37.324219 36.195312 37.863281 35.644531 37.859375 34.957031 C 37.855469 34.269531 37.3125 33.722656 36.621094 33.71875 C 35.933594 33.714844 35.382812 34.257812 35.371094 34.945312 C 35.359375 35.652344 35.929688 36.21875 36.636719 36.207031 Z M 36.738281 21.757812 C 36.066406 21.746094 35.527344 22.265625 35.511719 22.929688 C 35.496094 23.617188 36.03125 24.167969 36.71875 24.167969 C 37.386719 24.167969 37.917969 23.640625 37.921875 22.972656 C 37.925781 22.300781 37.40625 21.765625 36.738281 21.757812 Z M 32.609375 32.1875 C 33.3125 32.191406 33.84375 31.65625 33.839844 30.957031 C 33.835938 30.253906 33.300781 29.730469 32.597656 29.738281 C 31.917969 29.746094 31.398438 30.265625 31.390625 30.945312 C 31.382812 31.648438 31.910156 32.183594 32.609375 32.1875 Z M 33.484375 24.953125 C 33.480469 25.652344 34.011719 26.191406 34.707031 26.195312 C 35.40625 26.199219 35.945312 25.667969 35.949219 24.972656 C 35.953125 24.273438 35.421875 23.734375 34.722656 23.730469 C 34.027344 23.726562 33.488281 24.257812 33.484375 24.953125 Z M 29.542969 28.984375 C 29.554688 29.601562 30.082031 30.128906 30.699219 30.136719 C 31.332031 30.148438 31.886719 29.601562 31.890625 28.964844 C 31.894531 28.332031 31.34375 27.78125 30.707031 27.789062 C 30.070312 27.792969 29.527344 28.351562 29.542969 28.984375 Z M 44.683594 21.9375 C 44.0625 21.953125 43.59375 22.433594 43.589844 23.058594 C 43.589844 23.703125 44.082031 24.191406 44.726562 24.1875 C 45.367188 24.183594 45.851562 23.6875 45.84375 23.042969 C 45.832031 22.402344 45.328125 21.921875 44.683594 21.9375 Z M 42.761719 19.953125 C 42.121094 19.929688 41.613281 20.414062 41.605469 21.054688 C 41.601562 21.671875 42.078125 22.160156 42.695312 22.171875 C 43.316406 22.183594 43.808594 21.710938 43.824219 21.097656 C 43.839844 20.476562 43.375 19.976562 42.761719 19.953125 Z M 36.753906 17.894531 C 36.175781 17.871094 35.65625 18.367188 35.648438 18.949219 C 35.644531 19.511719 36.113281 20.003906 36.679688 20.027344 C 37.257812 20.050781 37.773438 19.558594 37.78125 18.972656 C 37.789062 18.410156 37.320312 17.917969 36.753906 17.894531 Z M 40.761719 17.992188 C 40.1875 17.960938 39.664062 18.449219 39.644531 19.03125 C 39.621094 19.605469 40.117188 20.121094 40.695312 20.136719 C 41.273438 20.148438 41.785156 19.652344 41.789062 19.070312 C 41.792969 18.511719 41.324219 18.019531 40.761719 17.992188 Z M 38.734375 19.914062 C 38.101562 19.902344 37.582031 20.402344 37.566406 21.035156 C 37.550781 21.683594 38.074219 22.214844 38.722656 22.210938 C 39.355469 22.207031 39.863281 21.699219 39.867188 21.066406 C 39.867188 20.4375 39.363281 19.921875 38.734375 19.914062 Z M 45.847656 31.050781 C 45.839844 30.355469 45.304688 29.828125 44.605469 29.832031 C 43.910156 29.839844 43.382812 30.375 43.386719 31.074219 C 43.390625 31.769531 43.929688 32.296875 44.628906 32.292969 C 45.324219 32.289062 45.851562 31.75 45.847656 31.050781 Z M 46.738281 23.949219 C 46.109375 23.941406 45.617188 24.40625 45.601562 25.03125 C 45.585938 25.679688 46.074219 26.179688 46.722656 26.175781 C 47.34375 26.175781 47.828125 25.695312 47.828125 25.070312 C 47.832031 24.441406 47.359375 23.957031 46.738281 23.949219 Z M 46.707031 30.234375 C 47.34375 30.242188 47.890625 29.695312 47.886719 29.058594 C 47.886719 28.425781 47.332031 27.878906 46.699219 27.890625 C 46.082031 27.902344 45.558594 28.421875 45.542969 29.039062 C 45.53125 29.671875 46.070312 30.226562 46.707031 30.234375 Z M 48.695312 28.148438 C 49.273438 28.160156 49.789062 27.667969 49.804688 27.082031 C 49.816406 26.503906 49.320312 25.988281 48.738281 25.976562 C 48.15625 25.964844 47.644531 26.460938 47.628906 27.042969 C 47.617188 27.621094 48.113281 28.136719 48.695312 28.148438 Z M 46.671875 9.640625 C 47.042969 9.667969 47.242188 9.4375 47.308594 9.085938 C 47.277344 8.742188 47.101562 8.507812 46.761719 8.484375 C 46.390625 8.457031 46.15625 8.679688 46.136719 9.042969 C 46.121094 9.386719 46.335938 9.617188 46.671875 9.640625 Z M 48.625 38.128906 C 48.105469 38.125 47.703125 38.503906 47.683594 39.019531 C 47.660156 39.554688 48.050781 39.980469 48.585938 39.996094 C 49.121094 40.011719 49.539062 39.617188 49.550781 39.082031 C 49.558594 38.546875 49.160156 38.132812 48.625 38.128906 Z M 48.652344 46.394531 C 48.300781 46.371094 47.96875 46.667969 47.945312 47.027344 C 47.921875 47.378906 48.222656 47.710938 48.578125 47.734375 C 48.929688 47.757812 49.265625 47.457031 49.285156 47.101562 C 49.308594 46.75 49.011719 46.414062 48.652344 46.394531 Z M 48.582031 54.765625 C 48.417969 54.78125 48.316406 54.890625 48.320312 55.0625 C 48.320312 55.253906 48.433594 55.367188 48.625 55.359375 C 48.820312 55.355469 48.914062 55.234375 48.917969 55.042969 C 48.886719 54.851562 48.773438 54.75 48.582031 54.765625 Z M 48.648438 42.257812 C 48.1875 42.238281 47.820312 42.582031 47.808594 43.042969 C 47.800781 43.507812 48.148438 43.867188 48.609375 43.871094 C 49.070312 43.875 49.425781 43.519531 49.421875 43.058594 C 49.421875 42.617188 49.089844 42.269531 48.648438 42.257812 Z M 48.65625 50.574219 C 48.347656 50.550781 48.148438 50.730469 48.128906 51.035156 C 48.105469 51.347656 48.300781 51.511719 48.597656 51.566406 C 48.902344 51.53125 49.101562 51.378906 49.105469 51.066406 C 49.113281 50.78125 48.9375 50.597656 48.65625 50.574219 Z M 46.613281 48.441406 C 46.226562 48.480469 46 48.679688 46.007812 49.078125 C 46.011719 49.445312 46.226562 49.664062 46.59375 49.671875 C 46.984375 49.683594 47.21875 49.46875 47.226562 49.074219 C 47.234375 48.675781 47 48.480469 46.613281 48.441406 Z M 46.59375 44.273438 C 46.167969 44.285156 45.8125 44.664062 45.824219 45.085938 C 45.839844 45.511719 46.21875 45.867188 46.640625 45.855469 C 47.0625 45.839844 47.421875 45.460938 47.40625 45.039062 C 47.394531 44.617188 47.015625 44.257812 46.59375 44.273438 Z M 46.617188 52.636719 C 46.339844 52.636719 46.183594 52.796875 46.1875 53.074219 C 46.195312 53.355469 46.367188 53.488281 46.636719 53.496094 C 46.917969 53.464844 47.0625 53.300781 47.042969 53.027344 C 47.027344 52.777344 46.871094 52.632812 46.617188 52.636719 Z M 46.660156 40.140625 C 46.117188 40.121094 45.699219 40.519531 45.695312 41.058594 C 45.691406 41.578125 46.078125 41.976562 46.597656 41.984375 C 47.121094 41.992188 47.523438 41.609375 47.539062 41.09375 C 47.550781 40.570312 47.175781 40.160156 46.660156 40.140625 Z M 52.65625 42.363281 C 52.277344 42.34375 51.9375 42.644531 51.917969 43.023438 C 51.894531 43.402344 52.199219 43.742188 52.578125 43.761719 C 52.957031 43.785156 53.292969 43.480469 53.316406 43.101562 C 53.335938 42.722656 53.035156 42.386719 52.65625 42.363281 Z M 48.585938 34.035156 C 48.019531 34.046875 47.589844 34.488281 47.585938 35.054688 C 47.582031 35.644531 48.03125 36.09375 48.621094 36.089844 C 49.210938 36.089844 49.652344 35.636719 49.644531 35.046875 C 49.636719 34.460938 49.175781 34.019531 48.585938 34.035156 Z M 52.636719 50.664062 C 52.40625 50.679688 52.25 50.796875 52.226562 51.023438 C 52.207031 51.273438 52.347656 51.4375 52.601562 51.453125 C 52.828125 51.46875 52.980469 51.328125 53.003906 51.105469 C 53.03125 50.851562 52.878906 50.710938 52.636719 50.664062 Z M 52.625 46.507812 C 52.300781 46.5 52.085938 46.699219 52.0625 47.019531 C 52.035156 47.367188 52.242188 47.597656 52.585938 47.617188 C 52.929688 47.640625 53.128906 47.421875 53.183594 47.074219 C 53.152344 46.738281 52.96875 46.515625 52.625 46.507812 Z M 50.625 36.148438 C 50.109375 36.140625 49.710938 36.527344 49.699219 37.042969 C 49.691406 37.578125 50.09375 37.988281 50.632812 37.980469 C 51.148438 37.972656 51.535156 37.578125 51.53125 37.058594 C 51.53125 36.542969 51.144531 36.152344 50.625 36.148438 Z M 50.609375 32.066406 C 50.074219 32.070312 49.625 32.519531 49.621094 33.054688 C 49.617188 33.609375 50.09375 34.078125 50.648438 34.058594 C 51.183594 34.042969 51.621094 33.582031 51.613281 33.046875 C 51.601562 32.507812 51.148438 32.0625 50.609375 32.066406 Z M 50.628906 48.539062 C 50.296875 48.535156 50.097656 48.71875 50.09375 49.050781 C 50.085938 49.382812 50.269531 49.578125 50.605469 49.585938 C 50.9375 49.59375 51.117188 49.40625 51.148438 49.074219 C 51.128906 48.746094 50.964844 48.542969 50.628906 48.539062 Z M 50.613281 52.714844 C 50.382812 52.722656 50.25 52.871094 50.269531 53.101562 C 50.292969 53.308594 50.4375 53.425781 50.644531 53.410156 C 50.847656 53.394531 50.957031 53.253906 50.96875 53.058594 C 50.9375 52.839844 50.820312 52.710938 50.613281 52.714844 Z M 50.613281 44.367188 C 50.238281 44.371094 49.917969 44.695312 49.921875 45.066406 C 49.925781 45.441406 50.246094 45.761719 50.621094 45.757812 C 50.992188 45.753906 51.3125 45.433594 51.3125 45.058594 C 51.308594 44.6875 50.984375 44.367188 50.613281 44.367188 Z M 16.726562 15.328125 C 16.925781 15.296875 17.066406 15.183594 17.074219 14.980469 C 17.078125 14.75 16.933594 14.601562 16.707031 14.605469 C 16.480469 14.613281 16.339844 14.765625 16.359375 14.996094 C 16.375 15.195312 16.519531 15.308594 16.726562 15.328125 Z M 46.605469 36.003906 C 46.035156 36.007812 45.558594 36.488281 45.558594 37.058594 C 45.554688 37.648438 46.066406 38.144531 46.652344 38.121094 C 47.222656 38.101562 47.6875 37.609375 47.675781 37.042969 C 47.664062 36.472656 47.175781 36 46.605469 36.003906 Z M 40.597656 50.472656 C 40.230469 50.480469 40.015625 50.710938 40.023438 51.082031 C 40.03125 51.453125 40.269531 51.632812 40.636719 51.667969 C 40.992188 51.613281 41.222656 51.417969 41.207031 51.046875 C 41.195312 50.675781 40.96875 50.460938 40.597656 50.472656 Z M 38.625 40.039062 C 38.046875 40.035156 37.609375 40.460938 37.59375 41.03125 C 37.578125 41.625 38.015625 42.082031 38.609375 42.085938 C 39.183594 42.089844 39.625 41.667969 39.640625 41.09375 C 39.65625 40.5 39.214844 40.042969 38.625 40.039062 Z M 40.625 54.667969 C 40.394531 54.660156 40.246094 54.796875 40.222656 55.019531 C 40.199219 55.269531 40.335938 55.433594 40.582031 55.457031 C 40.835938 55.480469 40.972656 55.328125 41.019531 55.085938 C 41 54.835938 40.878906 54.679688 40.625 54.667969 Z M 40.597656 46.28125 C 40.195312 46.292969 39.835938 46.652344 39.832031 47.058594 C 39.828125 47.476562 40.214844 47.855469 40.632812 47.84375 C 41.039062 47.835938 41.394531 47.472656 41.398438 47.070312 C 41.402344 46.648438 41.019531 46.269531 40.597656 46.28125 Z M 38.632812 48.367188 C 38.261719 48.355469 37.929688 48.671875 37.921875 49.046875 C 37.910156 49.417969 38.222656 49.75 38.597656 49.757812 C 38.972656 49.769531 39.300781 49.457031 39.3125 49.082031 C 39.320312 48.707031 39.007812 48.378906 38.632812 48.367188 Z M 38.605469 52.566406 C 38.296875 52.574219 38.113281 52.761719 38.121094 53.074219 C 38.125 53.382812 38.3125 53.5625 38.625 53.558594 C 38.941406 53.554688 39.09375 53.359375 39.125 53.015625 C 39.070312 52.761719 38.925781 52.558594 38.605469 52.566406 Z M 38.605469 56.773438 C 38.433594 56.785156 38.324219 56.894531 38.328125 57.0625 C 38.332031 57.257812 38.460938 57.371094 38.652344 57.351562 C 38.816406 57.332031 38.90625 57.210938 38.910156 57.011719 C 38.863281 56.886719 38.78125 56.761719 38.605469 56.773438 Z M 38.613281 44.191406 C 38.160156 44.191406 37.757812 44.585938 37.742188 45.039062 C 37.726562 45.511719 38.144531 45.9375 38.617188 45.9375 C 39.070312 45.9375 39.476562 45.542969 39.488281 45.085938 C 39.503906 44.617188 39.085938 44.1875 38.613281 44.191406 Z M 40.589844 42.125 C 40.074219 42.136719 39.6875 42.535156 39.679688 43.050781 C 39.671875 43.585938 40.078125 44 40.617188 44 C 41.152344 44 41.558594 43.585938 41.554688 43.050781 C 41.546875 42.515625 41.128906 42.113281 40.589844 42.125 Z M 44.628906 50.5 C 44.285156 50.492188 44.0625 50.710938 44.054688 51.050781 C 44.046875 51.394531 44.261719 51.617188 44.605469 51.625 C 44.949219 51.632812 45.136719 51.414062 45.191406 51.070312 C 45.152344 50.738281 44.972656 50.507812 44.628906 50.5 Z M 44.59375 38.027344 C 44.027344 38.039062 43.589844 38.480469 43.582031 39.046875 C 43.574219 39.636719 44.023438 40.097656 44.613281 40.097656 C 45.203125 40.101562 45.65625 39.644531 45.652344 39.054688 C 45.644531 38.464844 45.183594 38.015625 44.59375 38.027344 Z M 44.617188 54.699219 C 44.414062 54.691406 44.273438 54.828125 44.25 55.027344 C 44.230469 55.253906 44.371094 55.410156 44.589844 55.429688 C 44.816406 55.445312 44.945312 55.296875 44.992188 55.074219 C 44.964844 54.851562 44.84375 54.703125 44.617188 54.699219 Z M 44.65625 46.332031 C 44.242188 46.308594 43.914062 46.601562 43.886719 47.011719 C 43.855469 47.445312 44.167969 47.785156 44.601562 47.796875 C 45.015625 47.804688 45.335938 47.503906 45.347656 47.09375 C 45.363281 46.675781 45.066406 46.351562 44.65625 46.332031 Z M 42.621094 56.789062 C 42.46875 56.785156 42.367188 56.886719 42.347656 57.023438 C 42.316406 57.195312 42.425781 57.3125 42.585938 57.335938 C 42.757812 57.359375 42.851562 57.238281 42.902344 57.058594 C 42.867188 56.921875 42.796875 56.796875 42.621094 56.789062 Z M 44.625 42.164062 C 44.117188 42.160156 43.699219 42.585938 43.71875 43.09375 C 43.734375 43.582031 44.148438 43.972656 44.632812 43.960938 C 45.121094 43.953125 45.515625 43.542969 45.515625 43.058594 C 45.511719 42.570312 45.109375 42.167969 44.625 42.164062 Z M 42.625 48.378906 C 42.257812 48.375 41.921875 48.710938 41.933594 49.078125 C 41.941406 49.429688 42.257812 49.742188 42.609375 49.746094 C 42.976562 49.753906 43.308594 49.414062 43.300781 49.046875 C 43.289062 48.695312 42.976562 48.382812 42.625 48.378906 Z M 42.660156 40.0625 C 42.101562 40.039062 41.632812 40.472656 41.613281 41.03125 C 41.597656 41.59375 42.039062 42.054688 42.597656 42.066406 C 43.15625 42.074219 43.613281 41.628906 43.617188 41.070312 C 43.621094 40.53125 43.199219 40.085938 42.660156 40.0625 Z M 42.628906 52.578125 C 42.3125 52.574219 42.15625 52.773438 42.117188 53.070312 C 42.164062 53.355469 42.316406 53.546875 42.605469 53.550781 C 42.914062 53.550781 43.105469 53.359375 43.101562 53.050781 C 43.097656 52.765625 42.914062 52.582031 42.628906 52.578125 Z M 42.609375 44.222656 C 42.152344 44.226562 41.789062 44.578125 41.777344 45.035156 C 41.761719 45.511719 42.125 45.894531 42.601562 45.902344 C 43.074219 45.914062 43.453125 45.542969 43.457031 45.066406 C 43.460938 44.59375 43.082031 44.21875 42.609375 44.222656 Z M 60.617188 34.515625 C 60.285156 34.546875 60.082031 34.722656 60.074219 35.050781 C 60.070312 35.382812 60.265625 35.59375 60.59375 35.605469 C 60.949219 35.613281 61.164062 35.40625 61.15625 35.046875 C 61.152344 34.71875 60.945312 34.542969 60.617188 34.515625 Z M 36.628906 42.023438 C 36.09375 42.015625 35.675781 42.425781 35.675781 42.960938 C 35.675781 43.476562 36.0625 43.882812 36.578125 43.90625 C 37.109375 43.925781 37.542969 43.523438 37.558594 42.988281 C 37.570312 42.453125 37.164062 42.03125 36.628906 42.023438 Z M 60.625 30.480469 C 60.3125 30.457031 60 30.777344 60.035156 31.089844 C 60.074219 31.433594 60.289062 31.617188 60.628906 31.652344 C 60.96875 31.59375 61.195312 31.40625 61.191406 31.058594 C 61.191406 30.714844 60.972656 30.507812 60.625 30.480469 Z M 60.707031 26.484375 C 60.367188 26.539062 60.140625 26.726562 60.148438 27.074219 C 60.15625 27.417969 60.382812 27.636719 60.726562 27.628906 C 61.070312 27.621094 61.289062 27.398438 61.285156 27.050781 C 61.277344 26.707031 61.046875 26.523438 60.707031 26.484375 Z M 60.617188 38.570312 C 60.335938 38.609375 60.140625 38.761719 60.132812 39.050781 C 60.128906 39.339844 60.308594 39.53125 60.59375 39.542969 C 60.902344 39.554688 61.101562 39.363281 61.097656 39.050781 C 61.09375 38.761719 60.898438 38.609375 60.617188 38.570312 Z M 58.628906 32.394531 C 58.273438 32.386719 57.957031 32.691406 57.949219 33.050781 C 57.941406 33.40625 58.246094 33.722656 58.605469 33.730469 C 58.960938 33.738281 59.277344 33.433594 59.285156 33.074219 C 59.292969 32.71875 58.988281 32.402344 58.628906 32.394531 Z M 62.617188 40.714844 C 62.429688 40.730469 62.285156 40.828125 62.273438 41.042969 C 62.261719 41.253906 62.382812 41.394531 62.59375 41.40625 C 62.808594 41.417969 62.945312 41.296875 62.960938 41.085938 C 62.972656 40.875 62.847656 40.75 62.617188 40.714844 Z M 58.710938 28.382812 C 58.355469 28.386719 58.042969 28.703125 58.039062 29.054688 C 58.035156 29.410156 58.34375 29.730469 58.699219 29.742188 C 59.066406 29.753906 59.40625 29.414062 59.394531 29.042969 C 59.382812 28.6875 59.066406 28.378906 58.710938 28.382812 Z M 60.617188 46.8125 C 60.464844 46.8125 60.367188 46.910156 60.367188 47.0625 C 60.367188 47.214844 60.464844 47.3125 60.617188 47.3125 C 60.769531 47.3125 60.851562 47.214844 60.871094 47.0625 C 60.851562 46.914062 60.769531 46.8125 60.617188 46.8125 Z M 60.617188 42.671875 C 60.367188 42.679688 60.214844 42.832031 60.226562 43.085938 C 60.238281 43.3125 60.386719 43.453125 60.617188 43.453125 C 60.871094 43.449219 60.996094 43.289062 61.015625 43.042969 C 60.972656 42.820312 60.847656 42.667969 60.617188 42.671875 Z M 62.605469 32.589844 C 62.320312 32.597656 62.136719 32.789062 62.144531 33.074219 C 62.152344 33.359375 62.339844 33.542969 62.628906 33.535156 C 62.914062 33.527344 63.066406 33.332031 63.101562 33.054688 C 63.050781 32.773438 62.894531 32.582031 62.605469 32.589844 Z M 64.628906 30.683594 C 64.398438 30.679688 64.246094 30.820312 64.238281 31.050781 C 64.230469 31.28125 64.375 31.433594 64.605469 31.441406 C 64.835938 31.453125 64.964844 31.300781 65.007812 31.050781 C 64.96875 30.855469 64.863281 30.6875 64.628906 30.683594 Z M 66.617188 32.8125 C 66.464844 32.8125 66.367188 32.910156 66.367188 33.0625 C 66.367188 33.214844 66.464844 33.3125 66.617188 33.3125 C 66.769531 33.3125 66.851562 33.214844 66.871094 33.0625 C 66.851562 32.910156 66.769531 32.8125 66.617188 32.8125 Z M 64.734375 26.695312 C 64.507812 26.6875 64.355469 26.832031 64.351562 27.058594 C 64.347656 27.285156 64.5 27.40625 64.722656 27.4375 C 64.945312 27.398438 65.089844 27.273438 65.082031 27.042969 C 65.074219 26.84375 64.9375 26.703125 64.734375 26.695312 Z M 66.742188 28.800781 C 66.574219 28.789062 66.460938 28.890625 66.457031 29.0625 C 66.449219 29.207031 66.550781 29.3125 66.691406 29.324219 C 66.859375 29.339844 66.953125 29.230469 66.988281 29.050781 C 66.960938 28.921875 66.886719 28.8125 66.742188 28.800781 Z M 62.617188 36.648438 C 62.339844 36.652344 62.191406 36.8125 62.203125 37.085938 C 62.214844 37.339844 62.363281 37.476562 62.617188 37.476562 C 62.894531 37.476562 63.027344 37.3125 63.035156 37.039062 C 63.003906 36.789062 62.871094 36.648438 62.617188 36.648438 Z M 64.625 34.714844 C 64.390625 34.714844 64.253906 34.863281 64.269531 35.09375 C 64.285156 35.296875 64.425781 35.421875 64.632812 35.410156 C 64.839844 35.398438 64.953125 35.265625 64.96875 35.058594 C 64.945312 34.851562 64.828125 34.714844 64.625 34.714844 Z M 58.648438 36.460938 C 58.277344 36.445312 58.050781 36.648438 58.015625 37.019531 C 57.976562 37.375 58.253906 37.671875 58.609375 37.667969 C 58.988281 37.660156 59.179688 37.445312 59.226562 37.085938 C 59.203125 36.714844 59.023438 36.480469 58.648438 36.460938 Z M 62.722656 28.582031 C 62.433594 28.582031 62.242188 28.761719 62.238281 29.046875 C 62.230469 29.355469 62.425781 29.550781 62.738281 29.542969 C 63.023438 29.535156 63.171875 29.335938 63.210938 29.035156 C 63.15625 28.78125 63.011719 28.582031 62.722656 28.582031 Z M 64.644531 38.773438 C 64.472656 38.753906 64.351562 38.859375 64.332031 39.023438 C 64.304688 39.214844 64.417969 39.339844 64.613281 39.351562 C 64.785156 39.359375 64.878906 39.246094 64.910156 39.082031 C 64.902344 38.910156 64.8125 38.796875 64.644531 38.773438 Z M 52.632812 34.167969 C 52.152344 34.160156 51.734375 34.5625 51.722656 35.046875 C 51.714844 35.527344 52.117188 35.945312 52.597656 35.957031 C 53.082031 35.964844 53.5 35.5625 53.511719 35.078125 C 53.519531 34.597656 53.117188 34.179688 52.632812 34.167969 Z M 54.636719 40.371094 C 54.261719 40.359375 53.914062 40.683594 53.929688 41.058594 C 53.945312 41.460938 54.175781 41.703125 54.574219 41.75 C 54.941406 41.792969 55.289062 41.464844 55.308594 41.09375 C 55.324219 40.722656 55.007812 40.382812 54.636719 40.371094 Z M 54.613281 36.277344 C 54.195312 36.28125 53.820312 36.660156 53.832031 37.078125 C 53.839844 37.480469 54.195312 37.835938 54.59375 37.847656 C 55.011719 37.863281 55.394531 37.492188 55.402344 37.074219 C 55.40625 36.652344 55.03125 36.277344 54.613281 36.277344 Z M 54.640625 32.238281 C 54.175781 32.226562 53.808594 32.5625 53.792969 33.023438 C 53.773438 33.511719 54.132812 33.886719 54.617188 33.886719 C 55.082031 33.886719 55.433594 33.542969 55.441406 33.074219 C 55.449219 32.609375 55.105469 32.25 54.640625 32.238281 Z M 54.710938 28.222656 C 54.253906 28.226562 53.890625 28.578125 53.875 29.03125 C 53.859375 29.507812 54.222656 29.894531 54.699219 29.902344 C 55.175781 29.914062 55.554688 29.542969 55.558594 29.066406 C 55.558594 28.59375 55.183594 28.21875 54.710938 28.222656 Z M 54.628906 44.5 C 54.285156 44.492188 54.058594 44.707031 54.050781 45.050781 C 54.042969 45.394531 54.261719 45.617188 54.605469 45.628906 C 54.949219 45.636719 55.140625 45.414062 55.191406 45.070312 C 55.15625 44.734375 54.972656 44.503906 54.628906 44.5 Z M 54.636719 48.65625 C 54.359375 48.648438 54.203125 48.804688 54.210938 49.082031 C 54.21875 49.335938 54.375 49.457031 54.660156 49.476562 C 54.859375 49.4375 55.023438 49.332031 55.023438 49.070312 C 55.023438 48.816406 54.886719 48.664062 54.636719 48.65625 Z M 52.679688 38.257812 C 52.21875 38.226562 51.832031 38.5625 51.8125 39.023438 C 51.789062 39.488281 52.140625 39.859375 52.601562 39.867188 C 53.046875 39.875 53.402344 39.542969 53.421875 39.101562 C 53.441406 38.660156 53.121094 38.292969 52.679688 38.257812 Z M 58.609375 40.546875 C 58.296875 40.550781 58.113281 40.722656 58.101562 41.035156 C 58.085938 41.367188 58.261719 41.570312 58.601562 41.578125 C 58.9375 41.589844 59.113281 41.402344 59.144531 41.046875 C 59.109375 40.742188 58.953125 40.539062 58.609375 40.546875 Z M 52.734375 26.152344 C 52.214844 26.144531 51.8125 26.53125 51.804688 27.046875 C 51.796875 27.5625 52.183594 27.964844 52.699219 27.972656 C 53.21875 27.984375 53.621094 27.59375 53.628906 27.078125 C 53.636719 26.5625 53.25 26.160156 52.734375 26.152344 Z M 52.640625 30.140625 C 52.097656 30.128906 51.6875 30.535156 51.695312 31.078125 C 51.703125 31.597656 52.097656 31.984375 52.617188 31.984375 C 53.140625 31.984375 53.53125 31.59375 53.539062 31.074219 C 53.542969 30.550781 53.15625 30.152344 52.640625 30.140625 Z M 58.621094 48.785156 C 58.457031 48.808594 58.34375 48.898438 58.34375 49.066406 C 58.34375 49.21875 58.445312 49.320312 58.585938 49.335938 C 58.753906 49.355469 58.871094 49.246094 58.886719 49.082031 C 58.902344 48.910156 58.785156 48.820312 58.621094 48.785156 Z M 56.742188 26.308594 C 56.324219 26.292969 55.96875 26.636719 55.960938 27.050781 C 55.953125 27.46875 56.300781 27.820312 56.71875 27.816406 C 57.132812 27.816406 57.480469 27.464844 57.472656 27.050781 C 57.464844 26.652344 57.136719 26.320312 56.742188 26.308594 Z M 56.628906 30.292969 C 56.222656 30.285156 55.855469 30.640625 55.847656 31.050781 C 55.839844 31.457031 56.195312 31.824219 56.605469 31.832031 C 57.011719 31.839844 57.378906 31.484375 57.386719 31.074219 C 57.394531 30.667969 57.039062 30.300781 56.628906 30.292969 Z M 58.605469 44.65625 C 58.355469 44.664062 58.210938 44.808594 58.210938 45.0625 C 58.210938 45.339844 58.378906 45.484375 58.652344 45.46875 C 58.902344 45.453125 59.019531 45.289062 59.027344 45.035156 C 58.996094 44.792969 58.859375 44.648438 58.605469 44.65625 Z M 56.601562 38.402344 C 56.238281 38.414062 55.925781 38.734375 55.960938 39.089844 C 55.996094 39.472656 56.222656 39.695312 56.609375 39.71875 C 56.96875 39.742188 57.277344 39.421875 57.277344 39.058594 C 57.273438 38.699219 56.960938 38.394531 56.601562 38.402344 Z M 56.660156 42.511719 C 56.316406 42.484375 56.085938 42.6875 56.0625 43.03125 C 56.039062 43.375 56.253906 43.570312 56.601562 43.628906 C 56.9375 43.597656 57.164062 43.417969 57.171875 43.070312 C 57.179688 42.75 56.980469 42.535156 56.660156 42.511719 Z M 56.617188 46.648438 C 56.367188 46.648438 56.214844 46.785156 56.203125 47.039062 C 56.191406 47.316406 56.34375 47.460938 56.613281 47.480469 C 56.863281 47.464844 57.019531 47.339844 57.03125 47.089844 C 57.039062 46.8125 56.894531 46.652344 56.617188 46.648438 Z M 56.65625 50.796875 C 56.480469 50.773438 56.367188 50.878906 56.347656 51.050781 C 56.332031 51.203125 56.4375 51.308594 56.578125 51.328125 C 56.753906 51.355469 56.847656 51.242188 56.898438 51.058594 C 56.871094 50.933594 56.800781 50.816406 56.65625 50.796875 Z M 56.65625 34.34375 C 56.242188 34.324219 55.917969 34.613281 55.898438 35.023438 C 55.878906 35.4375 56.167969 35.761719 56.578125 35.78125 C 56.992188 35.800781 57.316406 35.511719 57.335938 35.101562 C 57.355469 34.6875 57.066406 34.363281 56.65625 34.34375 Z M 50.625 40.25 C 50.160156 40.246094 49.808594 40.589844 49.800781 41.054688 C 49.796875 41.519531 50.140625 41.871094 50.605469 41.878906 C 51.074219 41.882812 51.425781 41.539062 51.429688 41.074219 C 51.433594 40.605469 51.089844 40.253906 50.625 40.25 Z M 18.628906 40.453125 C 18.289062 40.449219 18.101562 40.636719 18.105469 40.976562 C 18.109375 41.289062 18.289062 41.46875 18.605469 41.472656 C 18.945312 41.480469 19.113281 41.285156 19.132812 40.953125 C 19.105469 40.640625 18.945312 40.453125 18.628906 40.453125 Z M 18.59375 44.558594 C 18.339844 44.570312 18.199219 44.730469 18.210938 44.984375 C 18.222656 45.242188 18.382812 45.363281 18.640625 45.375 C 18.886719 45.339844 19.03125 45.199219 19.019531 44.941406 C 19.007812 44.6875 18.847656 44.546875 18.59375 44.558594 Z M 18.648438 36.363281 C 18.296875 36.328125 18.003906 36.609375 18.011719 36.964844 C 18.023438 37.339844 18.242188 37.527344 18.542969 37.566406 C 18.941406 37.574219 19.21875 37.320312 19.21875 36.984375 C 19.21875 36.613281 19.019531 36.394531 18.648438 36.363281 Z M 18.640625 48.691406 C 18.46875 48.679688 18.355469 48.785156 18.34375 48.953125 C 18.335938 49.125 18.453125 49.210938 18.640625 49.246094 C 18.765625 49.199219 18.898438 49.128906 18.890625 48.949219 C 18.882812 48.804688 18.78125 48.703125 18.640625 48.691406 Z M 16.640625 42.574219 C 16.390625 42.5625 16.234375 42.710938 16.226562 42.960938 C 16.222656 43.1875 16.367188 43.335938 16.589844 43.351562 C 16.84375 43.367188 16.972656 43.207031 17.011719 42.96875 C 16.984375 42.742188 16.867188 42.585938 16.640625 42.574219 Z M 16.722656 26.386719 C 16.378906 26.382812 16.171875 26.601562 16.136719 26.941406 C 16.105469 27.253906 16.421875 27.570312 16.730469 27.542969 C 17.078125 27.511719 17.257812 27.296875 17.300781 26.960938 C 17.253906 26.621094 17.070312 26.394531 16.722656 26.386719 Z M 16.605469 38.472656 C 16.324219 38.519531 16.136719 38.671875 16.136719 38.960938 C 16.136719 39.25 16.316406 39.4375 16.601562 39.441406 C 16.914062 39.445312 17.105469 39.25 17.09375 38.941406 C 17.085938 38.65625 16.886719 38.503906 16.605469 38.472656 Z M 16.59375 34.433594 C 16.257812 34.449219 16.074219 34.652344 16.085938 34.984375 C 16.101562 35.320312 16.304688 35.503906 16.640625 35.492188 C 16.976562 35.480469 17.136719 35.269531 17.152344 34.941406 C 17.113281 34.609375 16.925781 34.421875 16.59375 34.433594 Z M 16.625 30.386719 C 16.28125 30.382812 16.074219 30.597656 16.035156 30.941406 C 16.003906 31.25 16.320312 31.566406 16.628906 31.542969 C 16.976562 31.511719 17.15625 31.300781 17.203125 30.960938 C 17.15625 30.621094 16.972656 30.394531 16.625 30.386719 Z M 18.617188 32.304688 C 18.230469 32.324219 18 32.542969 17.960938 32.925781 C 17.917969 33.28125 18.230469 33.609375 18.589844 33.625 C 18.949219 33.636719 19.269531 33.335938 19.277344 32.976562 C 19.285156 32.617188 18.976562 32.289062 18.617188 32.304688 Z M 20.695312 26.203125 C 20.300781 26.214844 19.96875 26.546875 19.957031 26.945312 C 19.945312 27.359375 20.292969 27.71875 20.710938 27.722656 C 21.125 27.726562 21.476562 27.371094 21.472656 26.957031 C 21.46875 26.542969 21.109375 26.191406 20.695312 26.203125 Z M 20.597656 30.203125 C 20.203125 30.214844 19.871094 30.546875 19.855469 30.941406 C 19.84375 31.355469 20.191406 31.714844 20.605469 31.722656 C 21.023438 31.726562 21.375 31.375 21.375 30.957031 C 21.371094 30.542969 21.011719 30.195312 20.597656 30.203125 Z M 22.625 48.558594 C 22.375 48.554688 22.21875 48.691406 22.210938 48.941406 C 22.199219 49.21875 22.355469 49.375 22.632812 49.367188 C 22.886719 49.363281 23.007812 49.207031 23.027344 48.960938 C 23.003906 48.710938 22.878906 48.5625 22.625 48.558594 Z M 20.648438 34.25 C 20.234375 34.230469 19.914062 34.53125 19.902344 34.941406 C 19.890625 35.355469 20.191406 35.671875 20.605469 35.675781 C 21.023438 35.679688 21.332031 35.375 21.328125 34.960938 C 21.328125 34.566406 21.042969 34.265625 20.648438 34.25 Z M 20.664062 38.308594 C 20.308594 38.265625 19.976562 38.566406 19.957031 38.925781 C 19.933594 39.285156 20.230469 39.609375 20.59375 39.625 C 20.953125 39.636719 21.28125 39.335938 21.273438 38.972656 C 21.261719 38.589844 21.046875 38.355469 20.664062 38.308594 Z M 20.597656 50.703125 C 20.433594 50.722656 20.328125 50.832031 20.355469 51.003906 C 20.378906 51.144531 20.484375 51.226562 20.632812 51.230469 C 20.792969 51.1875 20.902344 51.09375 20.875 50.921875 C 20.851562 50.785156 20.746094 50.683594 20.597656 50.703125 Z M 20.617188 46.550781 C 20.363281 46.546875 20.214844 46.6875 20.203125 46.9375 C 20.191406 47.214844 20.339844 47.359375 20.609375 47.382812 C 20.863281 47.367188 21.019531 47.242188 21.027344 46.988281 C 21.039062 46.714844 20.894531 46.554688 20.617188 46.550781 Z M 18.765625 28.285156 C 18.414062 28.257812 18.078125 28.542969 18.039062 28.902344 C 18.003906 29.269531 18.316406 29.625 18.691406 29.640625 C 19.039062 29.65625 19.371094 29.355469 19.394531 29 C 19.417969 28.652344 19.121094 28.316406 18.765625 28.285156 Z M 20.644531 42.414062 C 20.292969 42.398438 20.070312 42.609375 20.066406 42.960938 C 20.058594 43.285156 20.265625 43.5 20.589844 43.511719 C 20.9375 43.527344 21.132812 43.3125 21.175781 42.96875 C 21.144531 42.640625 20.96875 42.425781 20.644531 42.414062 Z M 36.605469 46.175781 C 36.203125 46.179688 35.84375 46.53125 35.828125 46.9375 C 35.8125 47.355469 36.179688 47.742188 36.601562 47.75 C 37.023438 47.761719 37.402344 47.386719 37.40625 46.964844 C 37.40625 46.542969 37.027344 46.167969 36.605469 46.175781 Z M 10.617188 32.714844 C 10.464844 32.714844 10.367188 32.8125 10.367188 32.964844 C 10.367188 33.117188 10.464844 33.199219 10.617188 33.21875 C 10.765625 33.199219 10.867188 33.117188 10.867188 32.964844 C 10.863281 32.8125 10.769531 32.714844 10.617188 32.714844 Z M 12.714844 23.292969 C 12.886719 23.285156 13.019531 23.199219 13.039062 23.003906 C 13.058594 22.792969 12.957031 22.652344 12.734375 22.636719 C 12.539062 22.625 12.410156 22.726562 12.394531 22.921875 C 12.371094 23.132812 12.476562 23.265625 12.714844 23.292969 Z M 10.730469 25.207031 C 10.882812 25.195312 10.96875 25.097656 10.960938 24.949219 C 10.949219 24.796875 10.851562 24.722656 10.707031 24.714844 C 10.550781 24.738281 10.460938 24.828125 10.472656 24.976562 C 10.480469 25.128906 10.578125 25.21875 10.730469 25.207031 Z M 14.707031 25.421875 C 14.992188 25.429688 15.148438 25.242188 15.183594 24.960938 C 15.144531 24.675781 14.988281 24.496094 14.699219 24.5 C 14.4375 24.507812 14.265625 24.679688 14.253906 24.941406 C 14.246094 25.226562 14.421875 25.417969 14.707031 25.421875 Z M 12.710938 19.230469 C 12.863281 19.242188 12.964844 19.132812 12.984375 18.992188 C 13.003906 18.820312 12.886719 18.722656 12.722656 18.6875 C 12.570312 18.703125 12.464844 18.789062 12.449219 18.933594 C 12.429688 19.105469 12.539062 19.21875 12.710938 19.230469 Z M 16.6875 23.480469 C 17.023438 23.496094 17.207031 23.316406 17.242188 22.980469 C 17.222656 22.648438 17.0625 22.449219 16.71875 22.441406 C 16.410156 22.4375 16.214844 22.609375 16.195312 22.921875 C 16.175781 23.253906 16.347656 23.464844 16.6875 23.480469 Z M 16.6875 19.421875 C 16.972656 19.4375 17.164062 19.265625 17.175781 18.980469 C 17.1875 18.691406 17.003906 18.535156 16.71875 18.492188 C 16.4375 18.527344 16.253906 18.683594 16.253906 18.96875 C 16.253906 19.234375 16.425781 19.410156 16.6875 19.421875 Z M 14.707031 17.273438 C 14.90625 17.277344 15.015625 17.167969 15.03125 16.964844 C 15.019531 16.773438 14.925781 16.65625 14.722656 16.652344 C 14.523438 16.648438 14.410156 16.753906 14.40625 16.953125 C 14.402344 17.152344 14.507812 17.269531 14.707031 17.273438 Z M 14.667969 21.359375 C 14.921875 21.386719 15.089844 21.253906 15.113281 21 C 15.136719 20.742188 14.988281 20.601562 14.742188 20.558594 C 14.488281 20.570312 14.328125 20.691406 14.316406 20.953125 C 14.308594 21.183594 14.4375 21.332031 14.667969 21.359375 Z M 12.578125 38.671875 C 12.453125 38.722656 12.320312 38.796875 12.335938 38.976562 C 12.347656 39.144531 12.457031 39.253906 12.628906 39.242188 C 12.792969 39.234375 12.902344 39.121094 12.894531 38.953125 C 12.886719 38.78125 12.773438 38.695312 12.578125 38.671875 Z M 14.585938 32.503906 C 14.328125 32.515625 14.15625 32.691406 14.15625 32.953125 C 14.152344 33.242188 14.332031 33.425781 14.621094 33.421875 C 14.90625 33.421875 15.058594 33.230469 15.085938 32.945312 C 15.035156 32.667969 14.875 32.484375 14.585938 32.503906 Z M 14.617188 36.558594 C 14.335938 36.558594 14.195312 36.726562 14.210938 37 C 14.226562 37.25 14.390625 37.367188 14.683594 37.375 C 14.871094 37.328125 15.03125 37.210938 15.023438 36.953125 C 15.011719 36.699219 14.867188 36.554688 14.617188 36.558594 Z M 14.632812 40.640625 C 14.441406 40.628906 14.3125 40.730469 14.292969 40.921875 C 14.273438 41.132812 14.378906 41.265625 14.613281 41.292969 C 14.789062 41.285156 14.921875 41.199219 14.9375 41.003906 C 14.957031 40.792969 14.855469 40.652344 14.632812 40.640625 Z M 14.707031 28.46875 C 14.425781 28.515625 14.234375 28.667969 14.234375 28.957031 C 14.230469 29.246094 14.414062 29.4375 14.699219 29.445312 C 15.011719 29.449219 15.207031 29.253906 15.195312 28.941406 C 15.1875 28.65625 14.992188 28.503906 14.707031 28.46875 Z M 12.578125 34.632812 C 12.390625 34.648438 12.277344 34.773438 12.28125 34.964844 C 12.289062 35.179688 12.417969 35.289062 12.640625 35.300781 C 12.839844 35.269531 12.964844 35.152344 12.949219 34.9375 C 12.929688 34.722656 12.789062 34.613281 12.578125 34.632812 Z M 12.703125 26.589844 C 12.480469 26.597656 12.335938 26.75 12.34375 26.976562 C 12.351562 27.199219 12.5 27.34375 12.726562 27.335938 C 12.953125 27.328125 13.070312 27.171875 13.097656 26.953125 C 13.054688 26.730469 12.929688 26.582031 12.703125 26.589844 Z M 10.722656 28.691406 C 10.574219 28.679688 10.472656 28.78125 10.445312 28.917969 C 10.414062 29.089844 10.523438 29.207031 10.683594 29.234375 C 10.851562 29.261719 10.949219 29.140625 10.996094 28.980469 C 10.980469 28.816406 10.894531 28.703125 10.722656 28.691406 Z M 22.628906 44.398438 C 22.285156 44.390625 22.058594 44.609375 22.050781 44.949219 C 22.042969 45.296875 22.261719 45.519531 22.601562 45.527344 C 22.949219 45.539062 23.140625 45.3125 23.195312 44.957031 C 23.148438 44.640625 22.976562 44.402344 22.628906 44.398438 Z M 12.628906 30.589844 C 12.402344 30.582031 12.25 30.726562 12.242188 30.949219 C 12.234375 31.179688 12.382812 31.304688 12.625 31.347656 C 12.820312 31.308594 12.984375 31.203125 12.988281 30.976562 C 12.996094 30.75 12.851562 30.597656 12.628906 30.589844 Z M 16.632812 46.714844 C 16.480469 46.703125 16.378906 46.796875 16.367188 46.945312 C 16.355469 47.101562 16.449219 47.199219 16.597656 47.210938 C 16.753906 47.226562 16.839844 47.128906 16.875 46.953125 C 16.851562 46.835938 16.785156 46.722656 16.632812 46.714844 Z M 30.628906 40.042969 C 30.105469 40.035156 29.707031 40.421875 29.695312 40.9375 C 29.683594 41.460938 30.0625 41.867188 30.578125 41.882812 C 31.121094 41.902344 31.539062 41.503906 31.539062 40.960938 C 31.535156 40.441406 31.148438 40.046875 30.628906 40.042969 Z M 32.59375 39.996094 C 33.183594 40.011719 33.644531 39.5625 33.652344 38.972656 C 33.65625 38.382812 33.203125 37.925781 32.613281 37.929688 C 32.046875 37.929688 31.597656 38.359375 31.582031 38.925781 C 31.5625 39.515625 32.007812 39.984375 32.59375 39.996094 Z M 22.652344 40.273438 C 22.28125 40.25 21.9375 40.566406 21.925781 40.941406 C 21.910156 41.308594 22.230469 41.660156 22.605469 41.652344 C 23.007812 41.636719 23.25 41.40625 23.300781 41.011719 C 23.347656 40.644531 23.023438 40.292969 22.652344 40.273438 Z M 30.621094 44.171875 C 30.195312 44.167969 29.828125 44.53125 29.824219 44.957031 C 29.820312 45.382812 30.183594 45.753906 30.609375 45.757812 C 31.035156 45.757812 31.40625 45.394531 31.410156 44.96875 C 31.410156 44.542969 31.046875 44.175781 30.621094 44.171875 Z M 30.628906 38.015625 C 31.199219 38.007812 31.667969 37.535156 31.667969 36.964844 C 31.667969 36.390625 31.199219 35.917969 30.628906 35.910156 C 30.054688 35.90625 29.578125 36.363281 29.566406 36.9375 C 29.550781 37.527344 30.035156 38.023438 30.628906 38.015625 Z M 28.621094 38.03125 C 28.097656 38.03125 27.699219 38.417969 27.683594 38.933594 C 27.671875 39.476562 28.074219 39.890625 28.613281 39.894531 C 29.132812 39.894531 29.53125 39.507812 29.546875 38.992188 C 29.5625 38.449219 29.160156 38.035156 28.621094 38.03125 Z M 32.605469 50.398438 C 32.261719 50.40625 32.042969 50.632812 32.050781 50.976562 C 32.058594 51.320312 32.285156 51.535156 32.628906 51.527344 C 32.972656 51.519531 33.152344 51.292969 33.195312 50.945312 C 33.136719 50.613281 32.949219 50.390625 32.605469 50.398438 Z M 30.625 48.351562 C 30.230469 48.351562 30.003906 48.574219 30.003906 48.96875 C 30.003906 49.367188 30.246094 49.558594 30.664062 49.585938 C 31.007812 49.527344 31.246094 49.335938 31.226562 48.933594 C 31.210938 48.566406 30.992188 48.351562 30.625 48.351562 Z M 30.605469 52.535156 C 30.351562 52.539062 30.199219 52.683594 30.1875 52.9375 C 30.175781 53.210938 30.320312 53.382812 30.601562 53.390625 C 30.878906 53.398438 31.027344 53.242188 31.046875 52.964844 C 31.027344 52.691406 30.886719 52.53125 30.605469 52.535156 Z M 34.605469 52.464844 C 34.320312 52.511719 34.128906 52.660156 34.128906 52.953125 C 34.125 53.265625 34.316406 53.457031 34.628906 53.449219 C 34.917969 53.445312 35.097656 53.261719 35.105469 52.976562 C 35.109375 52.65625 34.90625 52.5 34.605469 52.464844 Z M 36.632812 54.558594 C 36.378906 54.578125 36.222656 54.703125 36.21875 54.960938 C 36.214844 55.195312 36.347656 55.339844 36.578125 55.359375 C 36.832031 55.382812 36.996094 55.246094 37.011719 54.988281 C 37.03125 54.734375 36.878906 54.59375 36.632812 54.558594 Z M 32.59375 46.226562 C 32.183594 46.238281 31.882812 46.550781 31.878906 46.960938 C 31.878906 47.390625 32.210938 47.710938 32.640625 47.699219 C 33.066406 47.6875 33.375 47.34375 33.351562 46.914062 C 33.328125 46.511719 33.003906 46.214844 32.59375 46.226562 Z M 34.582031 44.117188 C 34.128906 44.132812 33.773438 44.503906 33.769531 44.957031 C 33.765625 45.433594 34.148438 45.8125 34.625 45.808594 C 35.097656 45.804688 35.472656 45.417969 35.464844 44.941406 C 35.453125 44.46875 35.054688 44.097656 34.582031 44.117188 Z M 36.609375 50.367188 C 36.238281 50.375 36.019531 50.597656 36.023438 50.96875 C 36.027344 51.339844 36.25 51.558594 36.621094 51.558594 C 36.996094 51.554688 37.183594 51.320312 37.222656 50.957031 C 37.175781 50.59375 36.984375 50.363281 36.609375 50.367188 Z M 34.582031 39.960938 C 34.039062 39.976562 33.613281 40.410156 33.613281 40.957031 C 33.609375 41.523438 34.054688 41.972656 34.625 41.96875 C 35.191406 41.964844 35.628906 41.511719 35.621094 40.941406 C 35.609375 40.378906 35.152344 39.941406 34.582031 39.960938 Z M 34.609375 48.277344 C 34.257812 48.28125 33.941406 48.59375 33.929688 48.945312 C 33.921875 49.316406 34.253906 49.65625 34.625 49.648438 C 34.976562 49.644531 35.292969 49.332031 35.300781 48.980469 C 35.3125 48.609375 34.976562 48.273438 34.609375 48.277344 Z M 34.628906 56.683594 C 34.457031 56.675781 34.34375 56.785156 34.335938 56.953125 C 34.328125 57.121094 34.4375 57.234375 34.605469 57.242188 C 34.777344 57.253906 34.867188 57.140625 34.902344 56.976562 C 34.886719 56.808594 34.796875 56.691406 34.628906 56.683594 Z M 32.644531 42.0625 C 32.140625 42.046875 31.71875 42.457031 31.714844 42.960938 C 31.714844 43.445312 32.105469 43.847656 32.589844 43.863281 C 33.09375 43.878906 33.515625 43.46875 33.515625 42.964844 C 33.515625 42.480469 33.125 42.078125 32.644531 42.0625 Z M 28.59375 42.15625 C 28.132812 42.167969 27.789062 42.535156 27.808594 43 C 27.828125 43.4375 28.171875 43.769531 28.613281 43.769531 C 29.078125 43.769531 29.429688 43.414062 29.421875 42.953125 C 29.417969 42.492188 29.054688 42.144531 28.59375 42.15625 Z M 32.640625 54.597656 C 32.410156 54.585938 32.257812 54.726562 32.25 54.953125 C 32.242188 55.179688 32.394531 55.304688 32.617188 55.335938 C 32.839844 55.300781 32.988281 55.179688 32.980469 54.949219 C 32.976562 54.746094 32.839844 54.609375 32.640625 54.597656 Z M 24.625 42.265625 C 24.246094 42.257812 23.921875 42.570312 23.917969 42.953125 C 23.910156 43.332031 24.222656 43.65625 24.605469 43.664062 C 24.984375 43.667969 25.308594 43.355469 25.316406 42.972656 C 25.320312 42.59375 25.007812 42.269531 24.625 42.265625 Z M 24.636719 38.160156 C 24.175781 38.148438 23.8125 38.503906 23.8125 38.964844 C 23.8125 39.40625 24.152344 39.753906 24.59375 39.765625 C 25.054688 39.777344 25.421875 39.421875 25.417969 38.960938 C 25.417969 38.519531 25.078125 38.171875 24.636719 38.160156 Z M 24.65625 34.070312 C 24.179688 34.046875 23.746094 34.445312 23.722656 34.925781 C 23.703125 35.402344 24.097656 35.832031 24.578125 35.855469 C 25.054688 35.878906 25.484375 35.484375 25.507812 35 C 25.53125 34.523438 25.136719 34.09375 24.65625 34.070312 Z M 24.601562 46.40625 C 24.28125 46.414062 24.070312 46.621094 24.058594 46.941406 C 24.046875 47.285156 24.261719 47.511719 24.605469 47.519531 C 24.953125 47.527344 25.140625 47.304688 25.183594 46.953125 C 25.132812 46.625 24.953125 46.398438 24.601562 46.40625 Z M 24.628906 50.5625 C 24.382812 50.582031 24.226562 50.707031 24.222656 50.960938 C 24.21875 51.191406 24.355469 51.335938 24.578125 51.355469 C 24.828125 51.378906 24.992188 51.238281 25.007812 50.988281 C 25.027344 50.738281 24.875 50.601562 24.628906 50.5625 Z M 22.660156 36.179688 C 22.246094 36.152344 21.847656 36.519531 21.832031 36.941406 C 21.820312 37.339844 22.164062 37.71875 22.570312 37.746094 C 22.988281 37.773438 23.386719 37.40625 23.398438 36.984375 C 23.410156 36.585938 23.066406 36.210938 22.660156 36.179688 Z M 24.648438 30.046875 C 24.128906 30.03125 23.71875 30.40625 23.699219 30.917969 C 23.679688 31.460938 24.074219 31.875 24.609375 31.878906 C 25.128906 31.882812 25.523438 31.496094 25.53125 30.980469 C 25.542969 30.464844 25.160156 30.0625 24.648438 30.046875 Z M 22.621094 32.140625 C 22.15625 32.136719 21.800781 32.484375 21.792969 32.945312 C 21.785156 33.414062 22.125 33.773438 22.585938 33.785156 C 23.074219 33.800781 23.441406 33.4375 23.4375 32.953125 C 23.433594 32.492188 23.085938 32.140625 22.621094 32.140625 Z M 22.703125 28.117188 C 22.25 28.121094 21.882812 28.484375 21.867188 28.9375 C 21.855469 29.410156 22.230469 29.800781 22.703125 29.808594 C 23.175781 29.816406 23.5625 29.4375 23.5625 28.964844 C 23.5625 28.488281 23.179688 28.109375 22.703125 28.117188 Z M 26.628906 36.046875 C 26.113281 36.039062 25.710938 36.421875 25.699219 36.9375 C 25.6875 37.453125 26.0625 37.859375 26.574219 37.878906 C 27.117188 37.898438 27.53125 37.503906 27.53125 36.964844 C 27.535156 36.449219 27.148438 36.054688 26.628906 36.046875 Z M 28.628906 46.292969 C 28.273438 46.285156 27.953125 46.59375 27.945312 46.949219 C 27.9375 47.304688 28.246094 47.625 28.601562 47.632812 C 28.957031 47.640625 29.277344 47.335938 29.285156 46.976562 C 29.292969 46.621094 28.988281 46.300781 28.628906 46.292969 Z M 28.625 54.664062 C 28.453125 54.65625 28.339844 54.746094 28.320312 54.917969 C 28.292969 55.109375 28.386719 55.242188 28.582031 55.261719 C 28.773438 55.28125 28.890625 55.179688 28.917969 54.984375 C 28.914062 54.792969 28.824219 54.671875 28.625 54.664062 Z M 28.632812 35.988281 C 29.203125 35.980469 29.636719 35.542969 29.640625 34.96875 C 29.644531 34.375 29.195312 33.929688 28.597656 33.9375 C 28.027344 33.945312 27.59375 34.382812 27.589844 34.957031 C 27.585938 35.550781 28.035156 35.996094 28.632812 35.988281 Z M 28.582031 50.472656 C 28.304688 50.492188 28.125 50.671875 28.125 50.957031 C 28.128906 51.265625 28.316406 51.457031 28.625 51.453125 C 28.933594 51.449219 29.085938 51.246094 29.121094 50.910156 C 29.050781 50.65625 28.898438 50.449219 28.582031 50.472656 Z M 26.609375 52.605469 C 26.378906 52.613281 26.242188 52.769531 26.257812 52.996094 C 26.273438 53.195312 26.417969 53.308594 26.621094 53.328125 C 26.828125 53.296875 26.964844 53.183594 26.972656 52.980469 C 26.980469 52.75 26.835938 52.601562 26.609375 52.605469 Z M 26.632812 48.4375 C 26.300781 48.429688 26.097656 48.609375 26.089844 48.945312 C 26.082031 49.277344 26.261719 49.480469 26.597656 49.488281 C 26.933594 49.5 27.113281 49.3125 27.148438 48.980469 C 27.132812 48.652344 26.96875 48.445312 26.632812 48.4375 Z M 26.628906 33.957031 C 27.164062 33.949219 27.609375 33.492188 27.609375 32.960938 C 27.609375 32.429688 27.160156 31.976562 26.625 31.96875 C 26.09375 31.960938 25.636719 32.40625 25.621094 32.9375 C 25.609375 33.492188 26.078125 33.964844 26.628906 33.957031 Z M 26.644531 40.152344 C 26.175781 40.136719 25.8125 40.480469 25.804688 40.945312 C 25.796875 41.414062 26.144531 41.773438 26.609375 41.773438 C 27.078125 41.777344 27.429688 41.425781 27.425781 40.957031 C 27.425781 40.507812 27.089844 40.164062 26.644531 40.152344 Z M 26.613281 44.269531 C 26.238281 44.269531 25.917969 44.59375 25.921875 44.964844 C 25.921875 45.339844 26.246094 45.660156 26.617188 45.65625 C 26.992188 45.65625 27.3125 45.332031 27.308594 44.960938 C 27.308594 44.585938 26.984375 44.265625 26.613281 44.269531 Z M 26.613281 44.269531 " fill-opacity="1" fill-rule="nonzero"/></g></svg>