<svg xmlns="http://www.w3.org/2000/svg" xmlns:xlink="http://www.w3.org/1999/xlink" width="80" zoomAndPan="magnify" viewBox="0 0 60 37.5" height="50" preserveAspectRatio="xMidYMid meet" version="1.0"><defs><filter x="0%" y="0%" width="100%" height="100%" id="ef3e63de2b"><feColorMatrix values="0 0 0 0 1 0 0 0 0 1 0 0 0 0 1 0 0 0 1 0" color-interpolation-filters="sRGB"/></filter><mask id="5ac5f9a024"><g filter="url(#ef3e63de2b)"><rect x="-6" width="72" fill="#000000" y="-3.75" height="45" fill-opacity="0.16"/></g></mask><clipPath id="abf4699c46"><path d="M 0.671875 31 L 3 31 L 3 33.449219 L 0.671875 33.449219 Z M 0.671875 31 " clip-rule="nonzero"/></clipPath><clipPath id="d2fefef848"><path d="M 0.671875 27 L 3 27 L 3 30 L 0.671875 30 Z M 0.671875 27 " clip-rule="nonzero"/></clipPath><clipPath id="76e7850a71"><path d="M 0.671875 23 L 3 23 L 3 25 L 0.671875 25 Z M 0.671875 23 " clip-rule="nonzero"/></clipPath><clipPath id="4ac9e60f89"><path d="M 0.671875 18 L 3 18 L 3 21 L 0.671875 21 Z M 0.671875 18 " clip-rule="nonzero"/></clipPath><clipPath id="87d59e09bb"><path d="M 0.671875 14 L 3 14 L 3 16 L 0.671875 16 Z M 0.671875 14 " clip-rule="nonzero"/></clipPath><clipPath id="197978d560"><path d="M 5 31 L 7 31 L 7 33.449219 L 5 33.449219 Z M 5 31 " clip-rule="nonzero"/></clipPath><clipPath id="fcaec62cc6"><path d="M 9 31 L 12 31 L 12 33.449219 L 9 33.449219 Z M 9 31 " clip-rule="nonzero"/></clipPath><clipPath id="579e1d0435"><path d="M 13 31 L 16 31 L 16 33.449219 L 13 33.449219 Z M 13 31 " clip-rule="nonzero"/></clipPath><clipPath id="8e33328b1d"><path d="M 18 31 L 20 31 L 20 33.449219 L 18 33.449219 Z M 18 31 " clip-rule="nonzero"/></clipPath><clipPath id="46556d79b4"><path d="M 31 18 L 33.238281 18 L 33.238281 21 L 31 21 Z M 31 18 " clip-rule="nonzero"/></clipPath><clipPath id="a3b34b0978"><path d="M 31 14 L 33.238281 14 L 33.238281 16 L 31 16 Z M 31 14 " clip-rule="nonzero"/></clipPath><clipPath id="0bf092967e"><path d="M 31 9 L 33.238281 9 L 33.238281 12 L 31 12 Z M 31 9 " clip-rule="nonzero"/></clipPath><clipPath id="d1d2638c7e"><path d="M 31 5 L 33.238281 5 L 33.238281 7 L 31 7 Z M 31 5 " clip-rule="nonzero"/></clipPath><clipPath id="b955e10745"><path d="M 31 1 L 33.238281 1 L 33.238281 3 L 31 3 Z M 31 1 " clip-rule="nonzero"/></clipPath><clipPath id="dcccf6bdaa"><rect x="0" width="34" y="0" height="34"/></clipPath></defs><g mask="url(#5ac5f9a024)"><g transform="matrix(1, 0, 0, 1, 24, 1)"><g clip-path="url(#dcccf6bdaa)"><g clip-path="url(#abf4699c46)"><path fill="#0c162c" d="M 1.433594 31.925781 C 1.644531 31.925781 1.824219 32 1.972656 32.148438 C 2.121094 32.296875 2.195312 32.476562 2.195312 32.6875 C 2.195312 32.898438 2.121094 33.078125 1.972656 33.226562 C 1.824219 33.375 1.644531 33.449219 1.433594 33.449219 C 1.222656 33.449219 1.042969 33.375 0.894531 33.226562 C 0.746094 33.078125 0.671875 32.898438 0.671875 32.6875 C 0.671875 32.476562 0.746094 32.296875 0.894531 32.148438 C 1.042969 32 1.222656 31.925781 1.433594 31.925781 Z M 1.433594 31.925781 " fill-opacity="1" fill-rule="nonzero"/></g><g clip-path="url(#d2fefef848)"><path fill="#0c162c" d="M 1.433594 27.511719 C 1.644531 27.511719 1.824219 27.585938 1.972656 27.734375 C 2.121094 27.882812 2.195312 28.0625 2.195312 28.273438 C 2.195312 28.484375 2.121094 28.664062 1.972656 28.8125 C 1.824219 28.960938 1.644531 29.035156 1.433594 29.035156 C 1.222656 29.035156 1.042969 28.960938 0.894531 28.8125 C 0.746094 28.664062 0.671875 28.484375 0.671875 28.273438 C 0.671875 28.0625 0.746094 27.882812 0.894531 27.734375 C 1.042969 27.585938 1.222656 27.511719 1.433594 27.511719 Z M 1.433594 27.511719 " fill-opacity="1" fill-rule="nonzero"/></g><g clip-path="url(#76e7850a71)"><path fill="#0c162c" d="M 1.433594 23.097656 C 1.644531 23.097656 1.824219 23.171875 1.972656 23.320312 C 2.121094 23.472656 2.195312 23.652344 2.195312 23.859375 C 2.195312 24.070312 2.121094 24.25 1.972656 24.398438 C 1.824219 24.550781 1.644531 24.625 1.433594 24.625 C 1.222656 24.625 1.042969 24.550781 0.894531 24.398438 C 0.746094 24.25 0.671875 24.070312 0.671875 23.859375 C 0.671875 23.652344 0.746094 23.472656 0.894531 23.320312 C 1.042969 23.171875 1.222656 23.097656 1.433594 23.097656 Z M 1.433594 23.097656 " fill-opacity="1" fill-rule="nonzero"/></g><g clip-path="url(#4ac9e60f89)"><path fill="#0c162c" d="M 1.433594 18.6875 C 1.644531 18.6875 1.824219 18.761719 1.972656 18.910156 C 2.121094 19.058594 2.195312 19.238281 2.195312 19.449219 C 2.195312 19.660156 2.121094 19.839844 1.972656 19.988281 C 1.824219 20.136719 1.644531 20.210938 1.433594 20.210938 C 1.222656 20.210938 1.042969 20.136719 0.894531 19.988281 C 0.746094 19.839844 0.671875 19.660156 0.671875 19.449219 C 0.671875 19.238281 0.746094 19.058594 0.894531 18.910156 C 1.042969 18.761719 1.222656 18.6875 1.433594 18.6875 Z M 1.433594 18.6875 " fill-opacity="1" fill-rule="nonzero"/></g><g clip-path="url(#87d59e09bb)"><path fill="#0c162c" d="M 1.433594 14.273438 C 1.644531 14.273438 1.824219 14.347656 1.972656 14.496094 C 2.121094 14.644531 2.195312 14.824219 2.195312 15.035156 C 2.195312 15.246094 2.121094 15.425781 1.972656 15.574219 C 1.824219 15.722656 1.644531 15.796875 1.433594 15.796875 C 1.222656 15.796875 1.042969 15.722656 0.894531 15.574219 C 0.746094 15.425781 0.671875 15.246094 0.671875 15.035156 C 0.671875 14.824219 0.746094 14.644531 0.894531 14.496094 C 1.042969 14.347656 1.222656 14.273438 1.433594 14.273438 Z M 1.433594 14.273438 " fill-opacity="1" fill-rule="nonzero"/></g><g clip-path="url(#197978d560)"><path fill="#0c162c" d="M 5.847656 31.925781 C 6.058594 31.925781 6.238281 32 6.386719 32.148438 C 6.535156 32.296875 6.609375 32.476562 6.609375 32.6875 C 6.609375 32.898438 6.535156 33.078125 6.386719 33.226562 C 6.238281 33.375 6.058594 33.449219 5.847656 33.449219 C 5.636719 33.449219 5.457031 33.375 5.308594 33.226562 C 5.15625 33.078125 5.082031 32.898438 5.082031 32.6875 C 5.082031 32.476562 5.15625 32.296875 5.308594 32.148438 C 5.457031 32 5.636719 31.925781 5.847656 31.925781 Z M 5.847656 31.925781 " fill-opacity="1" fill-rule="nonzero"/></g><path fill="#0c162c" d="M 5.847656 27.511719 C 6.058594 27.511719 6.238281 27.585938 6.386719 27.734375 C 6.535156 27.882812 6.609375 28.0625 6.609375 28.273438 C 6.609375 28.484375 6.535156 28.664062 6.386719 28.8125 C 6.238281 28.960938 6.058594 29.035156 5.847656 29.035156 C 5.636719 29.035156 5.457031 28.960938 5.308594 28.8125 C 5.15625 28.664062 5.082031 28.484375 5.082031 28.273438 C 5.082031 28.0625 5.15625 27.882812 5.308594 27.734375 C 5.457031 27.585938 5.636719 27.511719 5.847656 27.511719 Z M 5.847656 27.511719 " fill-opacity="1" fill-rule="nonzero"/><path fill="#0c162c" d="M 5.847656 23.097656 C 6.058594 23.097656 6.238281 23.171875 6.386719 23.320312 C 6.535156 23.472656 6.609375 23.652344 6.609375 23.859375 C 6.609375 24.070312 6.535156 24.25 6.386719 24.398438 C 6.238281 24.550781 6.058594 24.625 5.847656 24.625 C 5.636719 24.625 5.457031 24.550781 5.308594 24.398438 C 5.15625 24.25 5.082031 24.070312 5.082031 23.859375 C 5.082031 23.652344 5.15625 23.472656 5.308594 23.320312 C 5.457031 23.171875 5.636719 23.097656 5.847656 23.097656 Z M 5.847656 23.097656 " fill-opacity="1" fill-rule="nonzero"/><path fill="#0c162c" d="M 5.847656 18.6875 C 6.058594 18.6875 6.238281 18.761719 6.386719 18.910156 C 6.535156 19.058594 6.609375 19.238281 6.609375 19.449219 C 6.609375 19.660156 6.535156 19.839844 6.386719 19.988281 C 6.238281 20.136719 6.058594 20.210938 5.847656 20.210938 C 5.636719 20.210938 5.457031 20.136719 5.308594 19.988281 C 5.15625 19.839844 5.082031 19.660156 5.082031 19.449219 C 5.082031 19.238281 5.15625 19.058594 5.308594 18.910156 C 5.457031 18.761719 5.636719 18.6875 5.847656 18.6875 Z M 5.847656 18.6875 " fill-opacity="1" fill-rule="nonzero"/><path fill="#0c162c" d="M 5.847656 14.273438 C 6.058594 14.273438 6.238281 14.347656 6.386719 14.496094 C 6.535156 14.644531 6.609375 14.824219 6.609375 15.035156 C 6.609375 15.246094 6.535156 15.425781 6.386719 15.574219 C 6.238281 15.722656 6.058594 15.796875 5.847656 15.796875 C 5.636719 15.796875 5.457031 15.722656 5.308594 15.574219 C 5.15625 15.425781 5.082031 15.246094 5.082031 15.035156 C 5.082031 14.824219 5.15625 14.644531 5.308594 14.496094 C 5.457031 14.347656 5.636719 14.273438 5.847656 14.273438 Z M 5.847656 14.273438 " fill-opacity="1" fill-rule="nonzero"/><g clip-path="url(#fcaec62cc6)"><path fill="#0c162c" d="M 10.257812 31.925781 C 10.46875 31.925781 10.648438 32 10.796875 32.148438 C 10.945312 32.296875 11.019531 32.476562 11.019531 32.6875 C 11.019531 32.898438 10.945312 33.078125 10.796875 33.226562 C 10.648438 33.375 10.46875 33.449219 10.257812 33.449219 C 10.046875 33.449219 9.867188 33.375 9.71875 33.226562 C 9.570312 33.078125 9.496094 32.898438 9.496094 32.6875 C 9.496094 32.476562 9.570312 32.296875 9.71875 32.148438 C 9.867188 32 10.046875 31.925781 10.257812 31.925781 Z M 10.257812 31.925781 " fill-opacity="1" fill-rule="nonzero"/></g><path fill="#0c162c" d="M 10.257812 27.511719 C 10.46875 27.511719 10.648438 27.585938 10.796875 27.734375 C 10.945312 27.882812 11.019531 28.0625 11.019531 28.273438 C 11.019531 28.484375 10.945312 28.664062 10.796875 28.8125 C 10.648438 28.960938 10.46875 29.035156 10.257812 29.035156 C 10.046875 29.035156 9.867188 28.960938 9.71875 28.8125 C 9.570312 28.664062 9.496094 28.484375 9.496094 28.273438 C 9.496094 28.0625 9.570312 27.882812 9.71875 27.734375 C 9.867188 27.585938 10.046875 27.511719 10.257812 27.511719 Z M 10.257812 27.511719 " fill-opacity="1" fill-rule="nonzero"/><path fill="#0c162c" d="M 10.257812 23.097656 C 10.46875 23.097656 10.648438 23.171875 10.796875 23.320312 C 10.945312 23.472656 11.019531 23.652344 11.019531 23.859375 C 11.019531 24.070312 10.945312 24.25 10.796875 24.398438 C 10.648438 24.550781 10.46875 24.625 10.257812 24.625 C 10.046875 24.625 9.867188 24.550781 9.71875 24.398438 C 9.570312 24.25 9.496094 24.070312 9.496094 23.859375 C 9.496094 23.652344 9.570312 23.472656 9.71875 23.320312 C 9.867188 23.171875 10.046875 23.097656 10.257812 23.097656 Z M 10.257812 23.097656 " fill-opacity="1" fill-rule="nonzero"/><path fill="#0c162c" d="M 10.257812 18.6875 C 10.46875 18.6875 10.648438 18.761719 10.796875 18.910156 C 10.945312 19.058594 11.019531 19.238281 11.019531 19.449219 C 11.019531 19.660156 10.945312 19.839844 10.796875 19.988281 C 10.648438 20.136719 10.46875 20.210938 10.257812 20.210938 C 10.046875 20.210938 9.867188 20.136719 9.71875 19.988281 C 9.570312 19.839844 9.496094 19.660156 9.496094 19.449219 C 9.496094 19.238281 9.570312 19.058594 9.71875 18.910156 C 9.867188 18.761719 10.046875 18.6875 10.257812 18.6875 Z M 10.257812 18.6875 " fill-opacity="1" fill-rule="nonzero"/><path fill="#0c162c" d="M 10.257812 14.273438 C 10.46875 14.273438 10.648438 14.347656 10.796875 14.496094 C 10.945312 14.644531 11.019531 14.824219 11.019531 15.035156 C 11.019531 15.246094 10.945312 15.425781 10.796875 15.574219 C 10.648438 15.722656 10.46875 15.796875 10.257812 15.796875 C 10.046875 15.796875 9.867188 15.722656 9.71875 15.574219 C 9.570312 15.425781 9.496094 15.246094 9.496094 15.035156 C 9.496094 14.824219 9.570312 14.644531 9.71875 14.496094 C 9.867188 14.347656 10.046875 14.273438 10.257812 14.273438 Z M 10.257812 14.273438 " fill-opacity="1" fill-rule="nonzero"/><g clip-path="url(#579e1d0435)"><path fill="#0c162c" d="M 14.671875 31.925781 C 14.882812 31.925781 15.0625 32 15.210938 32.148438 C 15.359375 32.296875 15.433594 32.476562 15.433594 32.6875 C 15.433594 32.898438 15.359375 33.078125 15.210938 33.226562 C 15.0625 33.375 14.882812 33.449219 14.671875 33.449219 C 14.460938 33.449219 14.28125 33.375 14.132812 33.226562 C 13.984375 33.078125 13.910156 32.898438 13.910156 32.6875 C 13.910156 32.476562 13.984375 32.296875 14.132812 32.148438 C 14.28125 32 14.460938 31.925781 14.671875 31.925781 Z M 14.671875 31.925781 " fill-opacity="1" fill-rule="nonzero"/></g><path fill="#0c162c" d="M 14.671875 27.511719 C 14.882812 27.511719 15.0625 27.585938 15.210938 27.734375 C 15.359375 27.882812 15.433594 28.0625 15.433594 28.273438 C 15.433594 28.484375 15.359375 28.664062 15.210938 28.8125 C 15.0625 28.960938 14.882812 29.035156 14.671875 29.035156 C 14.460938 29.035156 14.28125 28.960938 14.132812 28.8125 C 13.984375 28.664062 13.910156 28.484375 13.910156 28.273438 C 13.910156 28.0625 13.984375 27.882812 14.132812 27.734375 C 14.28125 27.585938 14.460938 27.511719 14.671875 27.511719 Z M 14.671875 27.511719 " fill-opacity="1" fill-rule="nonzero"/><path fill="#0c162c" d="M 14.671875 23.097656 C 14.882812 23.097656 15.0625 23.171875 15.210938 23.320312 C 15.359375 23.472656 15.433594 23.652344 15.433594 23.859375 C 15.433594 24.070312 15.359375 24.25 15.210938 24.398438 C 15.0625 24.550781 14.882812 24.625 14.671875 24.625 C 14.460938 24.625 14.28125 24.550781 14.132812 24.398438 C 13.984375 24.25 13.910156 24.070312 13.910156 23.859375 C 13.910156 23.652344 13.984375 23.472656 14.132812 23.320312 C 14.28125 23.171875 14.460938 23.097656 14.671875 23.097656 Z M 14.671875 23.097656 " fill-opacity="1" fill-rule="nonzero"/><path fill="#0c162c" d="M 14.671875 18.6875 C 14.882812 18.6875 15.0625 18.761719 15.210938 18.910156 C 15.359375 19.058594 15.433594 19.238281 15.433594 19.449219 C 15.433594 19.660156 15.359375 19.839844 15.210938 19.988281 C 15.0625 20.136719 14.882812 20.210938 14.671875 20.210938 C 14.460938 20.210938 14.28125 20.136719 14.132812 19.988281 C 13.984375 19.839844 13.910156 19.660156 13.910156 19.449219 C 13.910156 19.238281 13.984375 19.058594 14.132812 18.910156 C 14.28125 18.761719 14.460938 18.6875 14.671875 18.6875 Z M 14.671875 18.6875 " fill-opacity="1" fill-rule="nonzero"/><path fill="#0c162c" d="M 14.671875 14.273438 C 14.882812 14.273438 15.0625 14.347656 15.210938 14.496094 C 15.359375 14.644531 15.433594 14.824219 15.433594 15.035156 C 15.433594 15.246094 15.359375 15.425781 15.210938 15.574219 C 15.0625 15.722656 14.882812 15.796875 14.671875 15.796875 C 14.460938 15.796875 14.28125 15.722656 14.132812 15.574219 C 13.984375 15.425781 13.910156 15.246094 13.910156 15.035156 C 13.910156 14.824219 13.984375 14.644531 14.132812 14.496094 C 14.28125 14.347656 14.460938 14.273438 14.671875 14.273438 Z M 14.671875 14.273438 " fill-opacity="1" fill-rule="nonzero"/><path fill="#0c162c" d="M 14.671875 9.859375 C 14.882812 9.859375 15.0625 9.933594 15.210938 10.085938 C 15.359375 10.234375 15.433594 10.414062 15.433594 10.625 C 15.433594 10.832031 15.359375 11.011719 15.210938 11.164062 C 15.0625 11.3125 14.882812 11.386719 14.671875 11.386719 C 14.460938 11.386719 14.28125 11.3125 14.132812 11.164062 C 13.984375 11.011719 13.910156 10.832031 13.910156 10.625 C 13.910156 10.414062 13.984375 10.234375 14.132812 10.085938 C 14.28125 9.933594 14.460938 9.859375 14.671875 9.859375 Z M 14.671875 9.859375 " fill-opacity="1" fill-rule="nonzero"/><path fill="#0c162c" d="M 14.671875 5.449219 C 14.882812 5.449219 15.0625 5.523438 15.210938 5.671875 C 15.359375 5.820312 15.433594 6 15.433594 6.210938 C 15.433594 6.421875 15.359375 6.601562 15.210938 6.75 C 15.0625 6.898438 14.882812 6.972656 14.671875 6.972656 C 14.460938 6.972656 14.28125 6.898438 14.132812 6.75 C 13.984375 6.601562 13.910156 6.421875 13.910156 6.210938 C 13.910156 6 13.984375 5.820312 14.132812 5.671875 C 14.28125 5.523438 14.460938 5.449219 14.671875 5.449219 Z M 14.671875 5.449219 " fill-opacity="1" fill-rule="nonzero"/><path fill="#0c162c" d="M 14.671875 1.035156 C 14.882812 1.035156 15.0625 1.109375 15.210938 1.257812 C 15.359375 1.40625 15.433594 1.585938 15.433594 1.796875 C 15.433594 2.007812 15.359375 2.1875 15.210938 2.335938 C 15.0625 2.484375 14.882812 2.558594 14.671875 2.558594 C 14.460938 2.558594 14.28125 2.484375 14.132812 2.335938 C 13.984375 2.1875 13.910156 2.007812 13.910156 1.796875 C 13.910156 1.585938 13.984375 1.40625 14.132812 1.257812 C 14.28125 1.109375 14.460938 1.035156 14.671875 1.035156 Z M 14.671875 1.035156 " fill-opacity="1" fill-rule="nonzero"/><g clip-path="url(#8e33328b1d)"><path fill="#0c162c" d="M 19.085938 31.925781 C 19.292969 31.925781 19.472656 32 19.625 32.148438 C 19.773438 32.296875 19.847656 32.476562 19.847656 32.6875 C 19.847656 32.898438 19.773438 33.078125 19.625 33.226562 C 19.472656 33.375 19.292969 33.449219 19.085938 33.449219 C 18.875 33.449219 18.695312 33.375 18.546875 33.226562 C 18.394531 33.078125 18.320312 32.898438 18.320312 32.6875 C 18.320312 32.476562 18.394531 32.296875 18.546875 32.148438 C 18.695312 32 18.875 31.925781 19.085938 31.925781 Z M 19.085938 31.925781 " fill-opacity="1" fill-rule="nonzero"/></g><path fill="#0c162c" d="M 19.085938 27.511719 C 19.292969 27.511719 19.472656 27.585938 19.625 27.734375 C 19.773438 27.882812 19.847656 28.0625 19.847656 28.273438 C 19.847656 28.484375 19.773438 28.664062 19.625 28.8125 C 19.472656 28.960938 19.292969 29.035156 19.085938 29.035156 C 18.875 29.035156 18.695312 28.960938 18.546875 28.8125 C 18.394531 28.664062 18.320312 28.484375 18.320312 28.273438 C 18.320312 28.0625 18.394531 27.882812 18.546875 27.734375 C 18.695312 27.585938 18.875 27.511719 19.085938 27.511719 Z M 19.085938 27.511719 " fill-opacity="1" fill-rule="nonzero"/><path fill="#0c162c" d="M 19.085938 23.097656 C 19.292969 23.097656 19.472656 23.171875 19.625 23.320312 C 19.773438 23.472656 19.847656 23.652344 19.847656 23.859375 C 19.847656 24.070312 19.773438 24.25 19.625 24.398438 C 19.472656 24.550781 19.292969 24.625 19.085938 24.625 C 18.875 24.625 18.695312 24.550781 18.546875 24.398438 C 18.394531 24.25 18.320312 24.070312 18.320312 23.859375 C 18.320312 23.652344 18.394531 23.472656 18.546875 23.320312 C 18.695312 23.171875 18.875 23.097656 19.085938 23.097656 Z M 19.085938 23.097656 " fill-opacity="1" fill-rule="nonzero"/><path fill="#0c162c" d="M 19.085938 18.6875 C 19.292969 18.6875 19.472656 18.761719 19.625 18.910156 C 19.773438 19.058594 19.847656 19.238281 19.847656 19.449219 C 19.847656 19.660156 19.773438 19.839844 19.625 19.988281 C 19.472656 20.136719 19.292969 20.210938 19.085938 20.210938 C 18.875 20.210938 18.695312 20.136719 18.546875 19.988281 C 18.394531 19.839844 18.320312 19.660156 18.320312 19.449219 C 18.320312 19.238281 18.394531 19.058594 18.546875 18.910156 C 18.695312 18.761719 18.875 18.6875 19.085938 18.6875 Z M 19.085938 18.6875 " fill-opacity="1" fill-rule="nonzero"/><path fill="#0c162c" d="M 19.085938 14.273438 C 19.292969 14.273438 19.472656 14.347656 19.625 14.496094 C 19.773438 14.644531 19.847656 14.824219 19.847656 15.035156 C 19.847656 15.246094 19.773438 15.425781 19.625 15.574219 C 19.472656 15.722656 19.292969 15.796875 19.085938 15.796875 C 18.875 15.796875 18.695312 15.722656 18.546875 15.574219 C 18.394531 15.425781 18.320312 15.246094 18.320312 15.035156 C 18.320312 14.824219 18.394531 14.644531 18.546875 14.496094 C 18.695312 14.347656 18.875 14.273438 19.085938 14.273438 Z M 19.085938 14.273438 " fill-opacity="1" fill-rule="nonzero"/><path fill="#0c162c" d="M 19.085938 9.859375 C 19.292969 9.859375 19.472656 9.933594 19.625 10.085938 C 19.773438 10.234375 19.847656 10.414062 19.847656 10.625 C 19.847656 10.832031 19.773438 11.011719 19.625 11.164062 C 19.472656 11.3125 19.292969 11.386719 19.085938 11.386719 C 18.875 11.386719 18.695312 11.3125 18.546875 11.164062 C 18.394531 11.011719 18.320312 10.832031 18.320312 10.625 C 18.320312 10.414062 18.394531 10.234375 18.546875 10.085938 C 18.695312 9.933594 18.875 9.859375 19.085938 9.859375 Z M 19.085938 9.859375 " fill-opacity="1" fill-rule="nonzero"/><path fill="#0c162c" d="M 19.085938 5.449219 C 19.292969 5.449219 19.472656 5.523438 19.625 5.671875 C 19.773438 5.820312 19.847656 6 19.847656 6.210938 C 19.847656 6.421875 19.773438 6.601562 19.625 6.75 C 19.472656 6.898438 19.292969 6.972656 19.085938 6.972656 C 18.875 6.972656 18.695312 6.898438 18.546875 6.75 C 18.394531 6.601562 18.320312 6.421875 18.320312 6.210938 C 18.320312 6 18.394531 5.820312 18.546875 5.671875 C 18.695312 5.523438 18.875 5.449219 19.085938 5.449219 Z M 19.085938 5.449219 " fill-opacity="1" fill-rule="nonzero"/><path fill="#0c162c" d="M 19.085938 1.035156 C 19.292969 1.035156 19.472656 1.109375 19.625 1.257812 C 19.773438 1.40625 19.847656 1.585938 19.847656 1.796875 C 19.847656 2.007812 19.773438 2.1875 19.625 2.335938 C 19.472656 2.484375 19.292969 2.558594 19.085938 2.558594 C 18.875 2.558594 18.695312 2.484375 18.546875 2.335938 C 18.394531 2.1875 18.320312 2.007812 18.320312 1.796875 C 18.320312 1.585938 18.394531 1.40625 18.546875 1.257812 C 18.695312 1.109375 18.875 1.035156 19.085938 1.035156 Z M 19.085938 1.035156 " fill-opacity="1" fill-rule="nonzero"/><path fill="#0c162c" d="M 23.496094 18.6875 C 23.707031 18.6875 23.886719 18.761719 24.035156 18.910156 C 24.183594 19.058594 24.257812 19.238281 24.257812 19.449219 C 24.257812 19.660156 24.183594 19.839844 24.035156 19.988281 C 23.886719 20.136719 23.707031 20.210938 23.496094 20.210938 C 23.285156 20.210938 23.105469 20.136719 22.957031 19.988281 C 22.808594 19.839844 22.734375 19.660156 22.734375 19.449219 C 22.734375 19.238281 22.808594 19.058594 22.957031 18.910156 C 23.105469 18.761719 23.285156 18.6875 23.496094 18.6875 Z M 23.496094 18.6875 " fill-opacity="1" fill-rule="nonzero"/><path fill="#0c162c" d="M 23.496094 14.273438 C 23.707031 14.273438 23.886719 14.347656 24.035156 14.496094 C 24.183594 14.644531 24.257812 14.824219 24.257812 15.035156 C 24.257812 15.246094 24.183594 15.425781 24.035156 15.574219 C 23.886719 15.722656 23.707031 15.796875 23.496094 15.796875 C 23.285156 15.796875 23.105469 15.722656 22.957031 15.574219 C 22.808594 15.425781 22.734375 15.246094 22.734375 15.035156 C 22.734375 14.824219 22.808594 14.644531 22.957031 14.496094 C 23.105469 14.347656 23.285156 14.273438 23.496094 14.273438 Z M 23.496094 14.273438 " fill-opacity="1" fill-rule="nonzero"/><path fill="#0c162c" d="M 23.496094 9.859375 C 23.707031 9.859375 23.886719 9.933594 24.035156 10.085938 C 24.183594 10.234375 24.257812 10.414062 24.257812 10.625 C 24.257812 10.832031 24.183594 11.011719 24.035156 11.164062 C 23.886719 11.3125 23.707031 11.386719 23.496094 11.386719 C 23.285156 11.386719 23.105469 11.3125 22.957031 11.164062 C 22.808594 11.011719 22.734375 10.832031 22.734375 10.625 C 22.734375 10.414062 22.808594 10.234375 22.957031 10.085938 C 23.105469 9.933594 23.285156 9.859375 23.496094 9.859375 Z M 23.496094 9.859375 " fill-opacity="1" fill-rule="nonzero"/><path fill="#0c162c" d="M 23.496094 5.449219 C 23.707031 5.449219 23.886719 5.523438 24.035156 5.671875 C 24.183594 5.820312 24.257812 6 24.257812 6.210938 C 24.257812 6.421875 24.183594 6.601562 24.035156 6.75 C 23.886719 6.898438 23.707031 6.972656 23.496094 6.972656 C 23.285156 6.972656 23.105469 6.898438 22.957031 6.75 C 22.808594 6.601562 22.734375 6.421875 22.734375 6.210938 C 22.734375 6 22.808594 5.820312 22.957031 5.671875 C 23.105469 5.523438 23.285156 5.449219 23.496094 5.449219 Z M 23.496094 5.449219 " fill-opacity="1" fill-rule="nonzero"/><path fill="#0c162c" d="M 23.496094 1.035156 C 23.707031 1.035156 23.886719 1.109375 24.035156 1.257812 C 24.183594 1.40625 24.257812 1.585938 24.257812 1.796875 C 24.257812 2.007812 24.183594 2.1875 24.035156 2.335938 C 23.886719 2.484375 23.707031 2.558594 23.496094 2.558594 C 23.285156 2.558594 23.105469 2.484375 22.957031 2.335938 C 22.808594 2.1875 22.734375 2.007812 22.734375 1.796875 C 22.734375 1.585938 22.808594 1.40625 22.957031 1.257812 C 23.105469 1.109375 23.285156 1.035156 23.496094 1.035156 Z M 23.496094 1.035156 " fill-opacity="1" fill-rule="nonzero"/><path fill="#0c162c" d="M 27.910156 18.6875 C 28.121094 18.6875 28.300781 18.761719 28.449219 18.910156 C 28.597656 19.058594 28.671875 19.238281 28.671875 19.449219 C 28.671875 19.660156 28.597656 19.839844 28.449219 19.988281 C 28.300781 20.136719 28.121094 20.210938 27.910156 20.210938 C 27.699219 20.210938 27.519531 20.136719 27.371094 19.988281 C 27.222656 19.839844 27.148438 19.660156 27.148438 19.449219 C 27.148438 19.238281 27.222656 19.058594 27.371094 18.910156 C 27.519531 18.761719 27.699219 18.6875 27.910156 18.6875 Z M 27.910156 18.6875 " fill-opacity="1" fill-rule="nonzero"/><path fill="#0c162c" d="M 27.910156 14.273438 C 28.121094 14.273438 28.300781 14.347656 28.449219 14.496094 C 28.597656 14.644531 28.671875 14.824219 28.671875 15.035156 C 28.671875 15.246094 28.597656 15.425781 28.449219 15.574219 C 28.300781 15.722656 28.121094 15.796875 27.910156 15.796875 C 27.699219 15.796875 27.519531 15.722656 27.371094 15.574219 C 27.222656 15.425781 27.148438 15.246094 27.148438 15.035156 C 27.148438 14.824219 27.222656 14.644531 27.371094 14.496094 C 27.519531 14.347656 27.699219 14.273438 27.910156 14.273438 Z M 27.910156 14.273438 " fill-opacity="1" fill-rule="nonzero"/><path fill="#0c162c" d="M 27.910156 9.859375 C 28.121094 9.859375 28.300781 9.933594 28.449219 10.085938 C 28.597656 10.234375 28.671875 10.414062 28.671875 10.625 C 28.671875 10.832031 28.597656 11.011719 28.449219 11.164062 C 28.300781 11.3125 28.121094 11.386719 27.910156 11.386719 C 27.699219 11.386719 27.519531 11.3125 27.371094 11.164062 C 27.222656 11.011719 27.148438 10.832031 27.148438 10.625 C 27.148438 10.414062 27.222656 10.234375 27.371094 10.085938 C 27.519531 9.933594 27.699219 9.859375 27.910156 9.859375 Z M 27.910156 9.859375 " fill-opacity="1" fill-rule="nonzero"/><path fill="#0c162c" d="M 27.910156 5.449219 C 28.121094 5.449219 28.300781 5.523438 28.449219 5.671875 C 28.597656 5.820312 28.671875 6 28.671875 6.210938 C 28.671875 6.421875 28.597656 6.601562 28.449219 6.75 C 28.300781 6.898438 28.121094 6.972656 27.910156 6.972656 C 27.699219 6.972656 27.519531 6.898438 27.371094 6.75 C 27.222656 6.601562 27.148438 6.421875 27.148438 6.210938 C 27.148438 6 27.222656 5.820312 27.371094 5.671875 C 27.519531 5.523438 27.699219 5.449219 27.910156 5.449219 Z M 27.910156 5.449219 " fill-opacity="1" fill-rule="nonzero"/><path fill="#0c162c" d="M 27.910156 1.035156 C 28.121094 1.035156 28.300781 1.109375 28.449219 1.257812 C 28.597656 1.40625 28.671875 1.585938 28.671875 1.796875 C 28.671875 2.007812 28.597656 2.1875 28.449219 2.335938 C 28.300781 2.484375 28.121094 2.558594 27.910156 2.558594 C 27.699219 2.558594 27.519531 2.484375 27.371094 2.335938 C 27.222656 2.1875 27.148438 2.007812 27.148438 1.796875 C 27.148438 1.585938 27.222656 1.40625 27.371094 1.257812 C 27.519531 1.109375 27.699219 1.035156 27.910156 1.035156 Z M 27.910156 1.035156 " fill-opacity="1" fill-rule="nonzero"/><g clip-path="url(#46556d79b4)"><path fill="#0c162c" d="M 32.320312 18.6875 C 32.53125 18.6875 32.710938 18.761719 32.863281 18.910156 C 33.011719 19.058594 33.085938 19.238281 33.085938 19.449219 C 33.085938 19.660156 33.011719 19.839844 32.863281 19.988281 C 32.710938 20.136719 32.53125 20.210938 32.320312 20.210938 C 32.113281 20.210938 31.933594 20.136719 31.78125 19.988281 C 31.632812 19.839844 31.558594 19.660156 31.558594 19.449219 C 31.558594 19.238281 31.632812 19.058594 31.78125 18.910156 C 31.933594 18.761719 32.113281 18.6875 32.320312 18.6875 Z M 32.320312 18.6875 " fill-opacity="1" fill-rule="nonzero"/></g><g clip-path="url(#a3b34b0978)"><path fill="#0c162c" d="M 32.320312 14.273438 C 32.53125 14.273438 32.710938 14.347656 32.863281 14.496094 C 33.011719 14.644531 33.085938 14.824219 33.085938 15.035156 C 33.085938 15.246094 33.011719 15.425781 32.863281 15.574219 C 32.710938 15.722656 32.53125 15.796875 32.320312 15.796875 C 32.113281 15.796875 31.933594 15.722656 31.78125 15.574219 C 31.632812 15.425781 31.558594 15.246094 31.558594 15.035156 C 31.558594 14.824219 31.632812 14.644531 31.78125 14.496094 C 31.933594 14.347656 32.113281 14.273438 32.320312 14.273438 Z M 32.320312 14.273438 " fill-opacity="1" fill-rule="nonzero"/></g><g clip-path="url(#0bf092967e)"><path fill="#0c162c" d="M 32.320312 9.859375 C 32.53125 9.859375 32.710938 9.933594 32.863281 10.085938 C 33.011719 10.234375 33.085938 10.414062 33.085938 10.625 C 33.085938 10.832031 33.011719 11.011719 32.863281 11.164062 C 32.710938 11.3125 32.53125 11.386719 32.320312 11.386719 C 32.113281 11.386719 31.933594 11.3125 31.78125 11.164062 C 31.632812 11.011719 31.558594 10.832031 31.558594 10.625 C 31.558594 10.414062 31.632812 10.234375 31.78125 10.085938 C 31.933594 9.933594 32.113281 9.859375 32.320312 9.859375 Z M 32.320312 9.859375 " fill-opacity="1" fill-rule="nonzero"/></g><g clip-path="url(#d1d2638c7e)"><path fill="#0c162c" d="M 32.320312 5.449219 C 32.53125 5.449219 32.710938 5.523438 32.863281 5.671875 C 33.011719 5.820312 33.085938 6 33.085938 6.210938 C 33.085938 6.421875 33.011719 6.601562 32.863281 6.75 C 32.710938 6.898438 32.53125 6.972656 32.320312 6.972656 C 32.113281 6.972656 31.933594 6.898438 31.78125 6.75 C 31.632812 6.601562 31.558594 6.421875 31.558594 6.210938 C 31.558594 6 31.632812 5.820312 31.78125 5.671875 C 31.933594 5.523438 32.113281 5.449219 32.320312 5.449219 Z M 32.320312 5.449219 " fill-opacity="1" fill-rule="nonzero"/></g><g clip-path="url(#b955e10745)"><path fill="#0c162c" d="M 32.320312 1.035156 C 32.53125 1.035156 32.710938 1.109375 32.863281 1.257812 C 33.011719 1.40625 33.085938 1.585938 33.085938 1.796875 C 33.085938 2.007812 33.011719 2.1875 32.863281 2.335938 C 32.710938 2.484375 32.53125 2.558594 32.320312 2.558594 C 32.113281 2.558594 31.933594 2.484375 31.78125 2.335938 C 31.632812 2.1875 31.558594 2.007812 31.558594 1.796875 C 31.558594 1.585938 31.632812 1.40625 31.78125 1.257812 C 31.933594 1.109375 32.113281 1.035156 32.320312 1.035156 Z M 32.320312 1.035156 " fill-opacity="1" fill-rule="nonzero"/></g></g></g></g></svg>